G04 EAGLE Gerber X2 export*
%TF.Part,Single*%
%TF.FileFunction,Copper,L1,Top,Mixed*%
%TF.FilePolarity,Positive*%
%TF.GenerationSoftware,Autodesk,EAGLE,8.6.3*%
%TF.CreationDate,2019-07-23T16:48:33Z*%
G75*
%MOMM*%
%FSLAX34Y34*%
%LPD*%
%AMOC8*
5,1,8,0,0,1.08239X$1,22.5*%
G01*
%ADD10C,1.320800*%
%ADD11C,2.540000*%
%ADD12P,1.429621X8X112.500000*%
%ADD13C,2.095500*%
%ADD14C,1.981200*%
%ADD15C,2.540000*%


D10*
X152400Y451104D02*
X152400Y437896D01*
X152400Y349504D02*
X152400Y336296D01*
D11*
X154178Y88900D02*
X154178Y63500D01*
X379222Y63500D02*
X379222Y88900D01*
D12*
X342900Y381000D03*
X342900Y406400D03*
D13*
X421323Y224790D02*
X442278Y224790D01*
X442278Y279400D02*
X421323Y279400D01*
X421323Y334010D02*
X442278Y334010D01*
D12*
X215900Y342900D03*
X215900Y444500D03*
X152400Y177800D03*
X152400Y279400D03*
X215900Y177800D03*
X215900Y279400D03*
X279400Y177800D03*
X279400Y279400D03*
X342900Y177800D03*
X342900Y279400D03*
X279400Y406400D03*
X260350Y393700D03*
X279400Y381000D03*
D14*
X86106Y330454D02*
X66294Y330454D01*
X66294Y380746D02*
X86106Y380746D01*
X86106Y228854D02*
X66294Y228854D01*
X66294Y279146D02*
X86106Y279146D01*
X86106Y127254D02*
X66294Y127254D01*
X66294Y177546D02*
X86106Y177546D01*
D15*
X355600Y76200D03*
M02*
