M48
;GenerationSoftware,Autodesk,EAGLE,8.6.3*%
;CreationDate,2019-07-23T16:48:33Z*%
FMAT,2
ICI,OFF
METRIC,TZ,000.000
T5C0.813
T4C1.000
T3C1.321
T2C1.397
T1C4.000
%
G90
M71
T1
X3810Y45720
X45720Y45720
X3810Y3810
X45720Y3810
T2
X43180Y22479
X43180Y27940
X43180Y33401
T3
X7620Y17755
X7620Y33045
X7620Y12725
X15418Y7620
X37922Y7620
X7620Y27915
X7620Y22885
X7620Y38075
T4
X35560Y7620
T5
X15240Y44450
X15240Y27940
X21590Y17780
X21590Y27940
X27940Y17780
X27940Y27940
X34290Y17780
X34290Y27940
X27940Y40640
X26035Y39370
X27940Y38100
X21590Y44450
X21590Y34290
X34290Y40640
X34290Y38100
X15240Y34290
X15240Y17780
M30