G04 EAGLE Gerber X2 export*
%TF.Part,Single*%
%TF.FileFunction,Profile,NP*%
%TF.FilePolarity,Positive*%
%TF.GenerationSoftware,Autodesk,EAGLE,8.6.3*%
%TF.CreationDate,2019-07-23T16:48:33Z*%
G75*
%MOMM*%
%FSLAX34Y34*%
%LPD*%
%AMOC8*
5,1,8,0,0,1.08239X$1,22.5*%
G01*
%ADD10C,0.254000*%


D10*
X0Y0D02*
X500000Y0D01*
X500000Y500000D01*
X0Y500000D01*
X0Y0D01*
X58100Y456596D02*
X58027Y455389D01*
X57881Y454189D01*
X57663Y453000D01*
X57374Y451827D01*
X57015Y450673D01*
X56586Y449543D01*
X56090Y448441D01*
X55528Y447370D01*
X54903Y446336D01*
X54216Y445341D01*
X53471Y444390D01*
X52669Y443485D01*
X51815Y442631D01*
X50910Y441829D01*
X49959Y441084D01*
X48964Y440397D01*
X47930Y439772D01*
X46859Y439210D01*
X45757Y438714D01*
X44627Y438285D01*
X43473Y437926D01*
X42300Y437637D01*
X41111Y437419D01*
X39911Y437273D01*
X38704Y437200D01*
X37496Y437200D01*
X36289Y437273D01*
X35089Y437419D01*
X33900Y437637D01*
X32727Y437926D01*
X31573Y438285D01*
X30443Y438714D01*
X29341Y439210D01*
X28270Y439772D01*
X27236Y440397D01*
X26241Y441084D01*
X25290Y441829D01*
X24385Y442631D01*
X23531Y443485D01*
X22729Y444390D01*
X21984Y445341D01*
X21297Y446336D01*
X20672Y447370D01*
X20110Y448441D01*
X19614Y449543D01*
X19185Y450673D01*
X18826Y451827D01*
X18537Y453000D01*
X18319Y454189D01*
X18173Y455389D01*
X18100Y456596D01*
X18100Y457804D01*
X18173Y459011D01*
X18319Y460211D01*
X18537Y461400D01*
X18826Y462573D01*
X19185Y463727D01*
X19614Y464857D01*
X20110Y465959D01*
X20672Y467030D01*
X21297Y468064D01*
X21984Y469059D01*
X22729Y470010D01*
X23531Y470915D01*
X24385Y471769D01*
X25290Y472571D01*
X26241Y473316D01*
X27236Y474003D01*
X28270Y474628D01*
X29341Y475190D01*
X30443Y475686D01*
X31573Y476115D01*
X32727Y476474D01*
X33900Y476763D01*
X35089Y476981D01*
X36289Y477127D01*
X37496Y477200D01*
X38704Y477200D01*
X39911Y477127D01*
X41111Y476981D01*
X42300Y476763D01*
X43473Y476474D01*
X44627Y476115D01*
X45757Y475686D01*
X46859Y475190D01*
X47930Y474628D01*
X48964Y474003D01*
X49959Y473316D01*
X50910Y472571D01*
X51815Y471769D01*
X52669Y470915D01*
X53471Y470010D01*
X54216Y469059D01*
X54903Y468064D01*
X55528Y467030D01*
X56090Y465959D01*
X56586Y464857D01*
X57015Y463727D01*
X57374Y462573D01*
X57663Y461400D01*
X57881Y460211D01*
X58027Y459011D01*
X58100Y457804D01*
X58100Y456596D01*
X477200Y456596D02*
X477127Y455389D01*
X476981Y454189D01*
X476763Y453000D01*
X476474Y451827D01*
X476115Y450673D01*
X475686Y449543D01*
X475190Y448441D01*
X474628Y447370D01*
X474003Y446336D01*
X473316Y445341D01*
X472571Y444390D01*
X471769Y443485D01*
X470915Y442631D01*
X470010Y441829D01*
X469059Y441084D01*
X468064Y440397D01*
X467030Y439772D01*
X465959Y439210D01*
X464857Y438714D01*
X463727Y438285D01*
X462573Y437926D01*
X461400Y437637D01*
X460211Y437419D01*
X459011Y437273D01*
X457804Y437200D01*
X456596Y437200D01*
X455389Y437273D01*
X454189Y437419D01*
X453000Y437637D01*
X451827Y437926D01*
X450673Y438285D01*
X449543Y438714D01*
X448441Y439210D01*
X447370Y439772D01*
X446336Y440397D01*
X445341Y441084D01*
X444390Y441829D01*
X443485Y442631D01*
X442631Y443485D01*
X441829Y444390D01*
X441084Y445341D01*
X440397Y446336D01*
X439772Y447370D01*
X439210Y448441D01*
X438714Y449543D01*
X438285Y450673D01*
X437926Y451827D01*
X437637Y453000D01*
X437419Y454189D01*
X437273Y455389D01*
X437200Y456596D01*
X437200Y457804D01*
X437273Y459011D01*
X437419Y460211D01*
X437637Y461400D01*
X437926Y462573D01*
X438285Y463727D01*
X438714Y464857D01*
X439210Y465959D01*
X439772Y467030D01*
X440397Y468064D01*
X441084Y469059D01*
X441829Y470010D01*
X442631Y470915D01*
X443485Y471769D01*
X444390Y472571D01*
X445341Y473316D01*
X446336Y474003D01*
X447370Y474628D01*
X448441Y475190D01*
X449543Y475686D01*
X450673Y476115D01*
X451827Y476474D01*
X453000Y476763D01*
X454189Y476981D01*
X455389Y477127D01*
X456596Y477200D01*
X457804Y477200D01*
X459011Y477127D01*
X460211Y476981D01*
X461400Y476763D01*
X462573Y476474D01*
X463727Y476115D01*
X464857Y475686D01*
X465959Y475190D01*
X467030Y474628D01*
X468064Y474003D01*
X469059Y473316D01*
X470010Y472571D01*
X470915Y471769D01*
X471769Y470915D01*
X472571Y470010D01*
X473316Y469059D01*
X474003Y468064D01*
X474628Y467030D01*
X475190Y465959D01*
X475686Y464857D01*
X476115Y463727D01*
X476474Y462573D01*
X476763Y461400D01*
X476981Y460211D01*
X477127Y459011D01*
X477200Y457804D01*
X477200Y456596D01*
X58100Y37496D02*
X58027Y36289D01*
X57881Y35089D01*
X57663Y33900D01*
X57374Y32727D01*
X57015Y31573D01*
X56586Y30443D01*
X56090Y29341D01*
X55528Y28270D01*
X54903Y27236D01*
X54216Y26241D01*
X53471Y25290D01*
X52669Y24385D01*
X51815Y23531D01*
X50910Y22729D01*
X49959Y21984D01*
X48964Y21297D01*
X47930Y20672D01*
X46859Y20110D01*
X45757Y19614D01*
X44627Y19185D01*
X43473Y18826D01*
X42300Y18537D01*
X41111Y18319D01*
X39911Y18173D01*
X38704Y18100D01*
X37496Y18100D01*
X36289Y18173D01*
X35089Y18319D01*
X33900Y18537D01*
X32727Y18826D01*
X31573Y19185D01*
X30443Y19614D01*
X29341Y20110D01*
X28270Y20672D01*
X27236Y21297D01*
X26241Y21984D01*
X25290Y22729D01*
X24385Y23531D01*
X23531Y24385D01*
X22729Y25290D01*
X21984Y26241D01*
X21297Y27236D01*
X20672Y28270D01*
X20110Y29341D01*
X19614Y30443D01*
X19185Y31573D01*
X18826Y32727D01*
X18537Y33900D01*
X18319Y35089D01*
X18173Y36289D01*
X18100Y37496D01*
X18100Y38704D01*
X18173Y39911D01*
X18319Y41111D01*
X18537Y42300D01*
X18826Y43473D01*
X19185Y44627D01*
X19614Y45757D01*
X20110Y46859D01*
X20672Y47930D01*
X21297Y48964D01*
X21984Y49959D01*
X22729Y50910D01*
X23531Y51815D01*
X24385Y52669D01*
X25290Y53471D01*
X26241Y54216D01*
X27236Y54903D01*
X28270Y55528D01*
X29341Y56090D01*
X30443Y56586D01*
X31573Y57015D01*
X32727Y57374D01*
X33900Y57663D01*
X35089Y57881D01*
X36289Y58027D01*
X37496Y58100D01*
X38704Y58100D01*
X39911Y58027D01*
X41111Y57881D01*
X42300Y57663D01*
X43473Y57374D01*
X44627Y57015D01*
X45757Y56586D01*
X46859Y56090D01*
X47930Y55528D01*
X48964Y54903D01*
X49959Y54216D01*
X50910Y53471D01*
X51815Y52669D01*
X52669Y51815D01*
X53471Y50910D01*
X54216Y49959D01*
X54903Y48964D01*
X55528Y47930D01*
X56090Y46859D01*
X56586Y45757D01*
X57015Y44627D01*
X57374Y43473D01*
X57663Y42300D01*
X57881Y41111D01*
X58027Y39911D01*
X58100Y38704D01*
X58100Y37496D01*
X477200Y37496D02*
X477127Y36289D01*
X476981Y35089D01*
X476763Y33900D01*
X476474Y32727D01*
X476115Y31573D01*
X475686Y30443D01*
X475190Y29341D01*
X474628Y28270D01*
X474003Y27236D01*
X473316Y26241D01*
X472571Y25290D01*
X471769Y24385D01*
X470915Y23531D01*
X470010Y22729D01*
X469059Y21984D01*
X468064Y21297D01*
X467030Y20672D01*
X465959Y20110D01*
X464857Y19614D01*
X463727Y19185D01*
X462573Y18826D01*
X461400Y18537D01*
X460211Y18319D01*
X459011Y18173D01*
X457804Y18100D01*
X456596Y18100D01*
X455389Y18173D01*
X454189Y18319D01*
X453000Y18537D01*
X451827Y18826D01*
X450673Y19185D01*
X449543Y19614D01*
X448441Y20110D01*
X447370Y20672D01*
X446336Y21297D01*
X445341Y21984D01*
X444390Y22729D01*
X443485Y23531D01*
X442631Y24385D01*
X441829Y25290D01*
X441084Y26241D01*
X440397Y27236D01*
X439772Y28270D01*
X439210Y29341D01*
X438714Y30443D01*
X438285Y31573D01*
X437926Y32727D01*
X437637Y33900D01*
X437419Y35089D01*
X437273Y36289D01*
X437200Y37496D01*
X437200Y38704D01*
X437273Y39911D01*
X437419Y41111D01*
X437637Y42300D01*
X437926Y43473D01*
X438285Y44627D01*
X438714Y45757D01*
X439210Y46859D01*
X439772Y47930D01*
X440397Y48964D01*
X441084Y49959D01*
X441829Y50910D01*
X442631Y51815D01*
X443485Y52669D01*
X444390Y53471D01*
X445341Y54216D01*
X446336Y54903D01*
X447370Y55528D01*
X448441Y56090D01*
X449543Y56586D01*
X450673Y57015D01*
X451827Y57374D01*
X453000Y57663D01*
X454189Y57881D01*
X455389Y58027D01*
X456596Y58100D01*
X457804Y58100D01*
X459011Y58027D01*
X460211Y57881D01*
X461400Y57663D01*
X462573Y57374D01*
X463727Y57015D01*
X464857Y56586D01*
X465959Y56090D01*
X467030Y55528D01*
X468064Y54903D01*
X469059Y54216D01*
X470010Y53471D01*
X470915Y52669D01*
X471769Y51815D01*
X472571Y50910D01*
X473316Y49959D01*
X474003Y48964D01*
X474628Y47930D01*
X475190Y46859D01*
X475686Y45757D01*
X476115Y44627D01*
X476474Y43473D01*
X476763Y42300D01*
X476981Y41111D01*
X477127Y39911D01*
X477200Y38704D01*
X477200Y37496D01*
X58100Y456596D02*
X58027Y455389D01*
X57881Y454189D01*
X57663Y453000D01*
X57374Y451827D01*
X57015Y450673D01*
X56586Y449543D01*
X56090Y448441D01*
X55528Y447370D01*
X54903Y446336D01*
X54216Y445341D01*
X53471Y444390D01*
X52669Y443485D01*
X51815Y442631D01*
X50910Y441829D01*
X49959Y441084D01*
X48964Y440397D01*
X47930Y439772D01*
X46859Y439210D01*
X45757Y438714D01*
X44627Y438285D01*
X43473Y437926D01*
X42300Y437637D01*
X41111Y437419D01*
X39911Y437273D01*
X38704Y437200D01*
X37496Y437200D01*
X36289Y437273D01*
X35089Y437419D01*
X33900Y437637D01*
X32727Y437926D01*
X31573Y438285D01*
X30443Y438714D01*
X29341Y439210D01*
X28270Y439772D01*
X27236Y440397D01*
X26241Y441084D01*
X25290Y441829D01*
X24385Y442631D01*
X23531Y443485D01*
X22729Y444390D01*
X21984Y445341D01*
X21297Y446336D01*
X20672Y447370D01*
X20110Y448441D01*
X19614Y449543D01*
X19185Y450673D01*
X18826Y451827D01*
X18537Y453000D01*
X18319Y454189D01*
X18173Y455389D01*
X18100Y456596D01*
X18100Y457804D01*
X18173Y459011D01*
X18319Y460211D01*
X18537Y461400D01*
X18826Y462573D01*
X19185Y463727D01*
X19614Y464857D01*
X20110Y465959D01*
X20672Y467030D01*
X21297Y468064D01*
X21984Y469059D01*
X22729Y470010D01*
X23531Y470915D01*
X24385Y471769D01*
X25290Y472571D01*
X26241Y473316D01*
X27236Y474003D01*
X28270Y474628D01*
X29341Y475190D01*
X30443Y475686D01*
X31573Y476115D01*
X32727Y476474D01*
X33900Y476763D01*
X35089Y476981D01*
X36289Y477127D01*
X37496Y477200D01*
X38704Y477200D01*
X39911Y477127D01*
X41111Y476981D01*
X42300Y476763D01*
X43473Y476474D01*
X44627Y476115D01*
X45757Y475686D01*
X46859Y475190D01*
X47930Y474628D01*
X48964Y474003D01*
X49959Y473316D01*
X50910Y472571D01*
X51815Y471769D01*
X52669Y470915D01*
X53471Y470010D01*
X54216Y469059D01*
X54903Y468064D01*
X55528Y467030D01*
X56090Y465959D01*
X56586Y464857D01*
X57015Y463727D01*
X57374Y462573D01*
X57663Y461400D01*
X57881Y460211D01*
X58027Y459011D01*
X58100Y457804D01*
X58100Y456596D01*
X477200Y456596D02*
X477127Y455389D01*
X476981Y454189D01*
X476763Y453000D01*
X476474Y451827D01*
X476115Y450673D01*
X475686Y449543D01*
X475190Y448441D01*
X474628Y447370D01*
X474003Y446336D01*
X473316Y445341D01*
X472571Y444390D01*
X471769Y443485D01*
X470915Y442631D01*
X470010Y441829D01*
X469059Y441084D01*
X468064Y440397D01*
X467030Y439772D01*
X465959Y439210D01*
X464857Y438714D01*
X463727Y438285D01*
X462573Y437926D01*
X461400Y437637D01*
X460211Y437419D01*
X459011Y437273D01*
X457804Y437200D01*
X456596Y437200D01*
X455389Y437273D01*
X454189Y437419D01*
X453000Y437637D01*
X451827Y437926D01*
X450673Y438285D01*
X449543Y438714D01*
X448441Y439210D01*
X447370Y439772D01*
X446336Y440397D01*
X445341Y441084D01*
X444390Y441829D01*
X443485Y442631D01*
X442631Y443485D01*
X441829Y444390D01*
X441084Y445341D01*
X440397Y446336D01*
X439772Y447370D01*
X439210Y448441D01*
X438714Y449543D01*
X438285Y450673D01*
X437926Y451827D01*
X437637Y453000D01*
X437419Y454189D01*
X437273Y455389D01*
X437200Y456596D01*
X437200Y457804D01*
X437273Y459011D01*
X437419Y460211D01*
X437637Y461400D01*
X437926Y462573D01*
X438285Y463727D01*
X438714Y464857D01*
X439210Y465959D01*
X439772Y467030D01*
X440397Y468064D01*
X441084Y469059D01*
X441829Y470010D01*
X442631Y470915D01*
X443485Y471769D01*
X444390Y472571D01*
X445341Y473316D01*
X446336Y474003D01*
X447370Y474628D01*
X448441Y475190D01*
X449543Y475686D01*
X450673Y476115D01*
X451827Y476474D01*
X453000Y476763D01*
X454189Y476981D01*
X455389Y477127D01*
X456596Y477200D01*
X457804Y477200D01*
X459011Y477127D01*
X460211Y476981D01*
X461400Y476763D01*
X462573Y476474D01*
X463727Y476115D01*
X464857Y475686D01*
X465959Y475190D01*
X467030Y474628D01*
X468064Y474003D01*
X469059Y473316D01*
X470010Y472571D01*
X470915Y471769D01*
X471769Y470915D01*
X472571Y470010D01*
X473316Y469059D01*
X474003Y468064D01*
X474628Y467030D01*
X475190Y465959D01*
X475686Y464857D01*
X476115Y463727D01*
X476474Y462573D01*
X476763Y461400D01*
X476981Y460211D01*
X477127Y459011D01*
X477200Y457804D01*
X477200Y456596D01*
X58100Y37496D02*
X58027Y36289D01*
X57881Y35089D01*
X57663Y33900D01*
X57374Y32727D01*
X57015Y31573D01*
X56586Y30443D01*
X56090Y29341D01*
X55528Y28270D01*
X54903Y27236D01*
X54216Y26241D01*
X53471Y25290D01*
X52669Y24385D01*
X51815Y23531D01*
X50910Y22729D01*
X49959Y21984D01*
X48964Y21297D01*
X47930Y20672D01*
X46859Y20110D01*
X45757Y19614D01*
X44627Y19185D01*
X43473Y18826D01*
X42300Y18537D01*
X41111Y18319D01*
X39911Y18173D01*
X38704Y18100D01*
X37496Y18100D01*
X36289Y18173D01*
X35089Y18319D01*
X33900Y18537D01*
X32727Y18826D01*
X31573Y19185D01*
X30443Y19614D01*
X29341Y20110D01*
X28270Y20672D01*
X27236Y21297D01*
X26241Y21984D01*
X25290Y22729D01*
X24385Y23531D01*
X23531Y24385D01*
X22729Y25290D01*
X21984Y26241D01*
X21297Y27236D01*
X20672Y28270D01*
X20110Y29341D01*
X19614Y30443D01*
X19185Y31573D01*
X18826Y32727D01*
X18537Y33900D01*
X18319Y35089D01*
X18173Y36289D01*
X18100Y37496D01*
X18100Y38704D01*
X18173Y39911D01*
X18319Y41111D01*
X18537Y42300D01*
X18826Y43473D01*
X19185Y44627D01*
X19614Y45757D01*
X20110Y46859D01*
X20672Y47930D01*
X21297Y48964D01*
X21984Y49959D01*
X22729Y50910D01*
X23531Y51815D01*
X24385Y52669D01*
X25290Y53471D01*
X26241Y54216D01*
X27236Y54903D01*
X28270Y55528D01*
X29341Y56090D01*
X30443Y56586D01*
X31573Y57015D01*
X32727Y57374D01*
X33900Y57663D01*
X35089Y57881D01*
X36289Y58027D01*
X37496Y58100D01*
X38704Y58100D01*
X39911Y58027D01*
X41111Y57881D01*
X42300Y57663D01*
X43473Y57374D01*
X44627Y57015D01*
X45757Y56586D01*
X46859Y56090D01*
X47930Y55528D01*
X48964Y54903D01*
X49959Y54216D01*
X50910Y53471D01*
X51815Y52669D01*
X52669Y51815D01*
X53471Y50910D01*
X54216Y49959D01*
X54903Y48964D01*
X55528Y47930D01*
X56090Y46859D01*
X56586Y45757D01*
X57015Y44627D01*
X57374Y43473D01*
X57663Y42300D01*
X57881Y41111D01*
X58027Y39911D01*
X58100Y38704D01*
X58100Y37496D01*
X477200Y37496D02*
X477127Y36289D01*
X476981Y35089D01*
X476763Y33900D01*
X476474Y32727D01*
X476115Y31573D01*
X475686Y30443D01*
X475190Y29341D01*
X474628Y28270D01*
X474003Y27236D01*
X473316Y26241D01*
X472571Y25290D01*
X471769Y24385D01*
X470915Y23531D01*
X470010Y22729D01*
X469059Y21984D01*
X468064Y21297D01*
X467030Y20672D01*
X465959Y20110D01*
X464857Y19614D01*
X463727Y19185D01*
X462573Y18826D01*
X461400Y18537D01*
X460211Y18319D01*
X459011Y18173D01*
X457804Y18100D01*
X456596Y18100D01*
X455389Y18173D01*
X454189Y18319D01*
X453000Y18537D01*
X451827Y18826D01*
X450673Y19185D01*
X449543Y19614D01*
X448441Y20110D01*
X447370Y20672D01*
X446336Y21297D01*
X445341Y21984D01*
X444390Y22729D01*
X443485Y23531D01*
X442631Y24385D01*
X441829Y25290D01*
X441084Y26241D01*
X440397Y27236D01*
X439772Y28270D01*
X439210Y29341D01*
X438714Y30443D01*
X438285Y31573D01*
X437926Y32727D01*
X437637Y33900D01*
X437419Y35089D01*
X437273Y36289D01*
X437200Y37496D01*
X437200Y38704D01*
X437273Y39911D01*
X437419Y41111D01*
X437637Y42300D01*
X437926Y43473D01*
X438285Y44627D01*
X438714Y45757D01*
X439210Y46859D01*
X439772Y47930D01*
X440397Y48964D01*
X441084Y49959D01*
X441829Y50910D01*
X442631Y51815D01*
X443485Y52669D01*
X444390Y53471D01*
X445341Y54216D01*
X446336Y54903D01*
X447370Y55528D01*
X448441Y56090D01*
X449543Y56586D01*
X450673Y57015D01*
X451827Y57374D01*
X453000Y57663D01*
X454189Y57881D01*
X455389Y58027D01*
X456596Y58100D01*
X457804Y58100D01*
X459011Y58027D01*
X460211Y57881D01*
X461400Y57663D01*
X462573Y57374D01*
X463727Y57015D01*
X464857Y56586D01*
X465959Y56090D01*
X467030Y55528D01*
X468064Y54903D01*
X469059Y54216D01*
X470010Y53471D01*
X470915Y52669D01*
X471769Y51815D01*
X472571Y50910D01*
X473316Y49959D01*
X474003Y48964D01*
X474628Y47930D01*
X475190Y46859D01*
X475686Y45757D01*
X476115Y44627D01*
X476474Y43473D01*
X476763Y42300D01*
X476981Y41111D01*
X477127Y39911D01*
X477200Y38704D01*
X477200Y37496D01*
M02*
