G04 EAGLE Gerber X2 export*
%TF.Part,Single*%
%TF.FileFunction,Legend,Top,1*%
%TF.FilePolarity,Positive*%
%TF.GenerationSoftware,Autodesk,EAGLE,8.6.3*%
%TF.CreationDate,2019-07-23T16:48:33Z*%
G75*
%MOMM*%
%FSLAX34Y34*%
%LPD*%
%AMOC8*
5,1,8,0,0,1.08239X$1,22.5*%
G01*
%ADD10C,0.152400*%
%ADD11R,2.032000X0.508000*%
%ADD12R,0.508000X1.905000*%
%ADD13C,0.127000*%
%ADD14C,0.050800*%
%ADD15R,0.635000X1.143000*%
%ADD16R,0.635000X4.064000*%
%ADD17R,10.160000X0.508000*%
%ADD18R,3.937000X0.127000*%
%ADD19R,4.826000X0.508000*%
%ADD20C,0.177800*%
%ADD21C,0.203200*%
%ADD22C,0.254000*%
%ADD23R,0.609600X0.863600*%
%ADD24R,3.810000X0.762000*%


D10*
X152400Y400050D02*
X152400Y393700D01*
X158750Y383540D02*
X146050Y383540D01*
X152400Y393700D01*
X152400Y378460D01*
X158750Y383540D02*
X152400Y393700D01*
X158750Y393700D01*
X152400Y393700D02*
X146050Y393700D01*
X162560Y373380D02*
X162558Y373280D01*
X162552Y373181D01*
X162542Y373081D01*
X162529Y372983D01*
X162511Y372884D01*
X162490Y372787D01*
X162465Y372691D01*
X162436Y372595D01*
X162403Y372501D01*
X162367Y372408D01*
X162327Y372317D01*
X162283Y372227D01*
X162236Y372139D01*
X162186Y372053D01*
X162132Y371969D01*
X162075Y371887D01*
X162015Y371808D01*
X161951Y371730D01*
X161885Y371656D01*
X161816Y371584D01*
X161744Y371515D01*
X161670Y371449D01*
X161592Y371385D01*
X161513Y371325D01*
X161431Y371268D01*
X161347Y371214D01*
X161261Y371164D01*
X161173Y371117D01*
X161083Y371073D01*
X160992Y371033D01*
X160899Y370997D01*
X160805Y370964D01*
X160709Y370935D01*
X160613Y370910D01*
X160516Y370889D01*
X160417Y370871D01*
X160319Y370858D01*
X160219Y370848D01*
X160120Y370842D01*
X160020Y370840D01*
X162560Y414020D02*
X162558Y414120D01*
X162552Y414219D01*
X162542Y414319D01*
X162529Y414417D01*
X162511Y414516D01*
X162490Y414613D01*
X162465Y414709D01*
X162436Y414805D01*
X162403Y414899D01*
X162367Y414992D01*
X162327Y415083D01*
X162283Y415173D01*
X162236Y415261D01*
X162186Y415347D01*
X162132Y415431D01*
X162075Y415513D01*
X162015Y415592D01*
X161951Y415670D01*
X161885Y415744D01*
X161816Y415816D01*
X161744Y415885D01*
X161670Y415951D01*
X161592Y416015D01*
X161513Y416075D01*
X161431Y416132D01*
X161347Y416186D01*
X161261Y416236D01*
X161173Y416283D01*
X161083Y416327D01*
X160992Y416367D01*
X160899Y416403D01*
X160805Y416436D01*
X160709Y416465D01*
X160613Y416490D01*
X160516Y416511D01*
X160417Y416529D01*
X160319Y416542D01*
X160219Y416552D01*
X160120Y416558D01*
X160020Y416560D01*
X144780Y416560D02*
X144680Y416558D01*
X144581Y416552D01*
X144481Y416542D01*
X144383Y416529D01*
X144284Y416511D01*
X144187Y416490D01*
X144091Y416465D01*
X143995Y416436D01*
X143901Y416403D01*
X143808Y416367D01*
X143717Y416327D01*
X143627Y416283D01*
X143539Y416236D01*
X143453Y416186D01*
X143369Y416132D01*
X143287Y416075D01*
X143208Y416015D01*
X143130Y415951D01*
X143056Y415885D01*
X142984Y415816D01*
X142915Y415744D01*
X142849Y415670D01*
X142785Y415592D01*
X142725Y415513D01*
X142668Y415431D01*
X142614Y415347D01*
X142564Y415261D01*
X142517Y415173D01*
X142473Y415083D01*
X142433Y414992D01*
X142397Y414899D01*
X142364Y414805D01*
X142335Y414709D01*
X142310Y414613D01*
X142289Y414516D01*
X142271Y414417D01*
X142258Y414319D01*
X142248Y414219D01*
X142242Y414120D01*
X142240Y414020D01*
X142240Y373380D02*
X142242Y373280D01*
X142248Y373181D01*
X142258Y373081D01*
X142271Y372983D01*
X142289Y372884D01*
X142310Y372787D01*
X142335Y372691D01*
X142364Y372595D01*
X142397Y372501D01*
X142433Y372408D01*
X142473Y372317D01*
X142517Y372227D01*
X142564Y372139D01*
X142614Y372053D01*
X142668Y371969D01*
X142725Y371887D01*
X142785Y371808D01*
X142849Y371730D01*
X142915Y371656D01*
X142984Y371584D01*
X143056Y371515D01*
X143130Y371449D01*
X143208Y371385D01*
X143287Y371325D01*
X143369Y371268D01*
X143453Y371214D01*
X143539Y371164D01*
X143627Y371117D01*
X143717Y371073D01*
X143808Y371033D01*
X143901Y370997D01*
X143995Y370964D01*
X144091Y370935D01*
X144187Y370910D01*
X144284Y370889D01*
X144383Y370871D01*
X144481Y370858D01*
X144581Y370848D01*
X144680Y370842D01*
X144780Y370840D01*
X160020Y370840D01*
X160020Y416560D02*
X144780Y416560D01*
X162560Y414020D02*
X162560Y373380D01*
X142240Y373380D02*
X142240Y414020D01*
D11*
X152400Y410210D03*
D12*
X152400Y361315D03*
X152400Y426085D03*
D13*
X132715Y365125D02*
X121285Y365125D01*
X121285Y368300D01*
X121287Y368411D01*
X121293Y368521D01*
X121302Y368632D01*
X121316Y368742D01*
X121333Y368851D01*
X121354Y368960D01*
X121379Y369068D01*
X121408Y369175D01*
X121440Y369281D01*
X121476Y369386D01*
X121516Y369489D01*
X121559Y369591D01*
X121606Y369692D01*
X121657Y369791D01*
X121710Y369888D01*
X121767Y369982D01*
X121828Y370075D01*
X121891Y370166D01*
X121958Y370255D01*
X122028Y370341D01*
X122101Y370424D01*
X122176Y370506D01*
X122254Y370584D01*
X122336Y370659D01*
X122419Y370732D01*
X122505Y370802D01*
X122594Y370869D01*
X122685Y370932D01*
X122778Y370993D01*
X122873Y371050D01*
X122969Y371103D01*
X123068Y371154D01*
X123169Y371201D01*
X123271Y371244D01*
X123374Y371284D01*
X123479Y371320D01*
X123585Y371352D01*
X123692Y371381D01*
X123800Y371406D01*
X123909Y371427D01*
X124018Y371444D01*
X124128Y371458D01*
X124239Y371467D01*
X124349Y371473D01*
X124460Y371475D01*
X129540Y371475D01*
X129651Y371473D01*
X129761Y371467D01*
X129872Y371458D01*
X129982Y371444D01*
X130091Y371427D01*
X130200Y371406D01*
X130308Y371381D01*
X130415Y371352D01*
X130521Y371320D01*
X130626Y371284D01*
X130729Y371244D01*
X130831Y371201D01*
X130932Y371154D01*
X131031Y371103D01*
X131128Y371050D01*
X131222Y370993D01*
X131315Y370932D01*
X131406Y370869D01*
X131495Y370802D01*
X131581Y370732D01*
X131664Y370659D01*
X131746Y370584D01*
X131824Y370506D01*
X131899Y370424D01*
X131972Y370341D01*
X132042Y370255D01*
X132109Y370166D01*
X132172Y370075D01*
X132233Y369982D01*
X132290Y369888D01*
X132343Y369791D01*
X132394Y369692D01*
X132441Y369591D01*
X132484Y369489D01*
X132524Y369386D01*
X132560Y369281D01*
X132592Y369175D01*
X132621Y369068D01*
X132646Y368960D01*
X132667Y368851D01*
X132684Y368742D01*
X132698Y368632D01*
X132707Y368521D01*
X132713Y368411D01*
X132715Y368300D01*
X132715Y365125D01*
X123825Y376936D02*
X121285Y380111D01*
X132715Y380111D01*
X132715Y376936D02*
X132715Y383286D01*
D10*
X140970Y21590D02*
X392430Y21590D01*
X392430Y130810D02*
X140970Y130810D01*
D14*
X215900Y46990D02*
X317500Y46990D01*
X317500Y105410D02*
X215900Y105410D01*
D10*
X209550Y113030D02*
X158750Y113030D01*
X158750Y44450D02*
X158750Y39370D01*
X158750Y50800D02*
X209550Y50800D01*
X158750Y101600D02*
X158750Y113030D01*
X158750Y101600D02*
X209550Y101600D01*
X209550Y39370D02*
X158750Y39370D01*
X209550Y39370D02*
X209550Y50800D01*
X158750Y39370D02*
X152400Y39370D01*
X152400Y55880D01*
X154940Y55880D02*
X154940Y44450D01*
X158750Y44450D01*
X158750Y50800D01*
X209550Y101600D02*
X209550Y113030D01*
X323850Y39370D02*
X374650Y39370D01*
X374650Y107950D02*
X374650Y113030D01*
X374650Y101600D02*
X323850Y101600D01*
X374650Y50800D02*
X374650Y39370D01*
X374650Y50800D02*
X323850Y50800D01*
X323850Y113030D02*
X374650Y113030D01*
X323850Y113030D02*
X323850Y101600D01*
X374650Y113030D02*
X381000Y113030D01*
X381000Y96520D01*
X378460Y96520D02*
X378460Y107950D01*
X374650Y107950D01*
X374650Y101600D01*
X323850Y50800D02*
X323850Y39370D01*
D14*
X318770Y76200D02*
X214630Y76200D01*
D10*
X392430Y92710D02*
X392430Y130810D01*
X392430Y59690D02*
X392430Y21590D01*
X140970Y92710D02*
X140970Y130810D01*
X140970Y59690D02*
X140970Y21590D01*
D15*
X212725Y50165D03*
X212725Y102235D03*
D16*
X212725Y76200D03*
D15*
X320675Y102235D03*
X320675Y50165D03*
D16*
X320675Y76200D03*
D17*
X266700Y100330D03*
X266700Y52070D03*
D18*
X343535Y56515D03*
X343535Y95885D03*
X189865Y95885D03*
X189865Y56515D03*
D19*
X185420Y53340D03*
X185420Y99060D03*
X347980Y99060D03*
X347980Y53340D03*
D20*
X140589Y140589D02*
X140589Y156591D01*
X147701Y156591D01*
X147701Y149479D02*
X140589Y149479D01*
X153582Y153035D02*
X158027Y156591D01*
X158027Y140589D01*
X153582Y140589D02*
X162472Y140589D01*
D21*
X323850Y419100D02*
X361950Y419100D01*
D22*
X362566Y418626D01*
X363171Y418137D01*
X363763Y417633D01*
X364343Y417115D01*
X364910Y416583D01*
X365464Y416037D01*
X366004Y415478D01*
X366530Y414905D01*
X367043Y414320D01*
X367540Y413723D01*
X368023Y413114D01*
X368491Y412493D01*
X368944Y411860D01*
X369381Y411217D01*
X369802Y410563D01*
X370206Y409899D01*
X370595Y409226D01*
X370967Y408543D01*
X371322Y407851D01*
X371660Y407151D01*
X371981Y406443D01*
X372284Y405727D01*
X372570Y405003D01*
X372838Y404274D01*
X373088Y403537D01*
X373319Y402795D01*
X373533Y402047D01*
X373728Y401295D01*
X373905Y400537D01*
X374063Y399776D01*
X374203Y399011D01*
X374323Y398243D01*
X374425Y397472D01*
X374508Y396699D01*
X374572Y395924D01*
X374617Y395148D01*
X374643Y394371D01*
X374650Y393593D01*
X374638Y392816D01*
X374607Y392039D01*
X374556Y391263D01*
X374487Y390488D01*
X374399Y389716D01*
X374292Y388946D01*
X374166Y388178D01*
X374022Y387414D01*
X373858Y386654D01*
X373676Y385898D01*
X373476Y385147D01*
X373258Y384400D01*
X373021Y383660D01*
X372766Y382925D01*
X372493Y382197D01*
X372202Y381476D01*
X371894Y380762D01*
X371569Y380056D01*
X371226Y379358D01*
X370866Y378668D01*
X370490Y377988D01*
X370097Y377317D01*
X369687Y376656D01*
X369262Y376005D01*
X368821Y375365D01*
X368364Y374736D01*
X367892Y374118D01*
X367405Y373512D01*
X366903Y372918D01*
X366387Y372336D01*
X365857Y371767D01*
X365313Y371212D01*
X364755Y370669D01*
X364185Y370141D01*
X363602Y369627D01*
X363006Y369127D01*
X362398Y368642D01*
X361779Y368172D01*
X361148Y367718D01*
X360506Y367279D01*
X359854Y366855D01*
X359191Y366448D01*
X358519Y366057D01*
X357837Y365683D01*
X357147Y365326D01*
X356448Y364986D01*
X355740Y364662D01*
X355026Y364357D01*
X354303Y364068D01*
X353574Y363798D01*
X352839Y363546D01*
X352097Y363311D01*
X351350Y363095D01*
X350598Y362897D01*
X349842Y362718D01*
X349081Y362557D01*
X348317Y362415D01*
X347549Y362292D01*
X346778Y362188D01*
X346005Y362102D01*
X345231Y362036D01*
X344455Y361988D01*
X343678Y361960D01*
X342900Y361950D01*
X342122Y361960D01*
X341345Y361988D01*
X340569Y362036D01*
X339795Y362102D01*
X339022Y362188D01*
X338251Y362292D01*
X337483Y362415D01*
X336719Y362557D01*
X335958Y362718D01*
X335202Y362897D01*
X334450Y363095D01*
X333703Y363311D01*
X332961Y363546D01*
X332226Y363798D01*
X331497Y364068D01*
X330774Y364357D01*
X330060Y364662D01*
X329352Y364986D01*
X328653Y365326D01*
X327963Y365683D01*
X327281Y366057D01*
X326609Y366448D01*
X325946Y366855D01*
X325294Y367279D01*
X324652Y367718D01*
X324021Y368172D01*
X323402Y368642D01*
X322794Y369127D01*
X322198Y369627D01*
X321615Y370141D01*
X321045Y370669D01*
X320487Y371212D01*
X319943Y371767D01*
X319413Y372336D01*
X318897Y372918D01*
X318395Y373512D01*
X317908Y374118D01*
X317436Y374736D01*
X316979Y375365D01*
X316538Y376005D01*
X316113Y376656D01*
X315703Y377317D01*
X315310Y377988D01*
X314934Y378668D01*
X314574Y379358D01*
X314231Y380056D01*
X313906Y380762D01*
X313598Y381476D01*
X313307Y382197D01*
X313034Y382925D01*
X312779Y383660D01*
X312542Y384400D01*
X312324Y385147D01*
X312124Y385898D01*
X311942Y386654D01*
X311778Y387414D01*
X311634Y388178D01*
X311508Y388946D01*
X311401Y389716D01*
X311313Y390488D01*
X311244Y391263D01*
X311193Y392039D01*
X311162Y392816D01*
X311150Y393593D01*
X311157Y394371D01*
X311183Y395148D01*
X311228Y395924D01*
X311292Y396699D01*
X311375Y397472D01*
X311477Y398243D01*
X311597Y399011D01*
X311737Y399776D01*
X311895Y400537D01*
X312072Y401295D01*
X312267Y402047D01*
X312481Y402795D01*
X312712Y403537D01*
X312962Y404274D01*
X313230Y405003D01*
X313516Y405727D01*
X313819Y406443D01*
X314140Y407151D01*
X314478Y407851D01*
X314833Y408543D01*
X315205Y409226D01*
X315594Y409899D01*
X315998Y410563D01*
X316419Y411217D01*
X316856Y411860D01*
X317309Y412493D01*
X317777Y413114D01*
X318260Y413723D01*
X318757Y414320D01*
X319270Y414905D01*
X319796Y415478D01*
X320336Y416037D01*
X320890Y416583D01*
X321457Y417115D01*
X322037Y417633D01*
X322629Y418137D01*
X323234Y418626D01*
X323850Y419100D01*
D10*
X317500Y393700D02*
X317508Y394323D01*
X317531Y394946D01*
X317569Y395569D01*
X317622Y396190D01*
X317691Y396809D01*
X317775Y397427D01*
X317874Y398042D01*
X317988Y398655D01*
X318117Y399265D01*
X318261Y399872D01*
X318420Y400475D01*
X318594Y401073D01*
X318782Y401668D01*
X318985Y402257D01*
X319202Y402841D01*
X319433Y403420D01*
X319679Y403993D01*
X319939Y404560D01*
X320212Y405120D01*
X320499Y405673D01*
X320800Y406220D01*
X321114Y406758D01*
X321441Y407289D01*
X321781Y407811D01*
X322133Y408326D01*
X322499Y408831D01*
X322876Y409327D01*
X323266Y409814D01*
X323667Y410291D01*
X324080Y410758D01*
X324504Y411214D01*
X324939Y411661D01*
X325386Y412096D01*
X325842Y412520D01*
X326309Y412933D01*
X326786Y413334D01*
X327273Y413724D01*
X327769Y414101D01*
X328274Y414467D01*
X328789Y414819D01*
X329311Y415159D01*
X329842Y415486D01*
X330380Y415800D01*
X330927Y416101D01*
X331480Y416388D01*
X332040Y416661D01*
X332607Y416921D01*
X333180Y417167D01*
X333759Y417398D01*
X334343Y417615D01*
X334932Y417818D01*
X335527Y418006D01*
X336125Y418180D01*
X336728Y418339D01*
X337335Y418483D01*
X337945Y418612D01*
X338558Y418726D01*
X339173Y418825D01*
X339791Y418909D01*
X340410Y418978D01*
X341031Y419031D01*
X341654Y419069D01*
X342277Y419092D01*
X342900Y419100D01*
X343523Y419092D01*
X344146Y419069D01*
X344769Y419031D01*
X345390Y418978D01*
X346009Y418909D01*
X346627Y418825D01*
X347242Y418726D01*
X347855Y418612D01*
X348465Y418483D01*
X349072Y418339D01*
X349675Y418180D01*
X350273Y418006D01*
X350868Y417818D01*
X351457Y417615D01*
X352041Y417398D01*
X352620Y417167D01*
X353193Y416921D01*
X353760Y416661D01*
X354320Y416388D01*
X354873Y416101D01*
X355420Y415800D01*
X355958Y415486D01*
X356489Y415159D01*
X357011Y414819D01*
X357526Y414467D01*
X358031Y414101D01*
X358527Y413724D01*
X359014Y413334D01*
X359491Y412933D01*
X359958Y412520D01*
X360414Y412096D01*
X360861Y411661D01*
X361296Y411214D01*
X361720Y410758D01*
X362133Y410291D01*
X362534Y409814D01*
X362924Y409327D01*
X363301Y408831D01*
X363667Y408326D01*
X364019Y407811D01*
X364359Y407289D01*
X364686Y406758D01*
X365000Y406220D01*
X365301Y405673D01*
X365588Y405120D01*
X365861Y404560D01*
X366121Y403993D01*
X366367Y403420D01*
X366598Y402841D01*
X366815Y402257D01*
X367018Y401668D01*
X367206Y401073D01*
X367380Y400475D01*
X367539Y399872D01*
X367683Y399265D01*
X367812Y398655D01*
X367926Y398042D01*
X368025Y397427D01*
X368109Y396809D01*
X368178Y396190D01*
X368231Y395569D01*
X368269Y394946D01*
X368292Y394323D01*
X368300Y393700D01*
X368292Y393077D01*
X368269Y392454D01*
X368231Y391831D01*
X368178Y391210D01*
X368109Y390591D01*
X368025Y389973D01*
X367926Y389358D01*
X367812Y388745D01*
X367683Y388135D01*
X367539Y387528D01*
X367380Y386925D01*
X367206Y386327D01*
X367018Y385732D01*
X366815Y385143D01*
X366598Y384559D01*
X366367Y383980D01*
X366121Y383407D01*
X365861Y382840D01*
X365588Y382280D01*
X365301Y381727D01*
X365000Y381180D01*
X364686Y380642D01*
X364359Y380111D01*
X364019Y379589D01*
X363667Y379074D01*
X363301Y378569D01*
X362924Y378073D01*
X362534Y377586D01*
X362133Y377109D01*
X361720Y376642D01*
X361296Y376186D01*
X360861Y375739D01*
X360414Y375304D01*
X359958Y374880D01*
X359491Y374467D01*
X359014Y374066D01*
X358527Y373676D01*
X358031Y373299D01*
X357526Y372933D01*
X357011Y372581D01*
X356489Y372241D01*
X355958Y371914D01*
X355420Y371600D01*
X354873Y371299D01*
X354320Y371012D01*
X353760Y370739D01*
X353193Y370479D01*
X352620Y370233D01*
X352041Y370002D01*
X351457Y369785D01*
X350868Y369582D01*
X350273Y369394D01*
X349675Y369220D01*
X349072Y369061D01*
X348465Y368917D01*
X347855Y368788D01*
X347242Y368674D01*
X346627Y368575D01*
X346009Y368491D01*
X345390Y368422D01*
X344769Y368369D01*
X344146Y368331D01*
X343523Y368308D01*
X342900Y368300D01*
X342277Y368308D01*
X341654Y368331D01*
X341031Y368369D01*
X340410Y368422D01*
X339791Y368491D01*
X339173Y368575D01*
X338558Y368674D01*
X337945Y368788D01*
X337335Y368917D01*
X336728Y369061D01*
X336125Y369220D01*
X335527Y369394D01*
X334932Y369582D01*
X334343Y369785D01*
X333759Y370002D01*
X333180Y370233D01*
X332607Y370479D01*
X332040Y370739D01*
X331480Y371012D01*
X330927Y371299D01*
X330380Y371600D01*
X329842Y371914D01*
X329311Y372241D01*
X328789Y372581D01*
X328274Y372933D01*
X327769Y373299D01*
X327273Y373676D01*
X326786Y374066D01*
X326309Y374467D01*
X325842Y374880D01*
X325386Y375304D01*
X324939Y375739D01*
X324504Y376186D01*
X324080Y376642D01*
X323667Y377109D01*
X323266Y377586D01*
X322876Y378073D01*
X322499Y378569D01*
X322133Y379074D01*
X321781Y379589D01*
X321441Y380111D01*
X321114Y380642D01*
X320800Y381180D01*
X320499Y381727D01*
X320212Y382280D01*
X319939Y382840D01*
X319679Y383407D01*
X319433Y383980D01*
X319202Y384559D01*
X318985Y385143D01*
X318782Y385732D01*
X318594Y386327D01*
X318420Y386925D01*
X318261Y387528D01*
X318117Y388135D01*
X317988Y388745D01*
X317874Y389358D01*
X317775Y389973D01*
X317691Y390591D01*
X317622Y391210D01*
X317569Y391831D01*
X317531Y392454D01*
X317508Y393077D01*
X317500Y393700D01*
D13*
X325501Y426085D02*
X336931Y426085D01*
X336931Y431165D01*
X336931Y435991D02*
X336931Y441071D01*
X336931Y435991D02*
X325501Y435991D01*
X325501Y441071D01*
X330581Y439801D02*
X330581Y435991D01*
X325501Y445872D02*
X336931Y445872D01*
X325501Y445872D02*
X325501Y449047D01*
X325503Y449158D01*
X325509Y449268D01*
X325518Y449379D01*
X325532Y449489D01*
X325549Y449598D01*
X325570Y449707D01*
X325595Y449815D01*
X325624Y449922D01*
X325656Y450028D01*
X325692Y450133D01*
X325732Y450236D01*
X325775Y450338D01*
X325822Y450439D01*
X325873Y450538D01*
X325926Y450635D01*
X325983Y450729D01*
X326044Y450822D01*
X326107Y450913D01*
X326174Y451002D01*
X326244Y451088D01*
X326317Y451171D01*
X326392Y451253D01*
X326470Y451331D01*
X326552Y451406D01*
X326635Y451479D01*
X326721Y451549D01*
X326810Y451616D01*
X326901Y451679D01*
X326994Y451740D01*
X327089Y451797D01*
X327185Y451850D01*
X327284Y451901D01*
X327385Y451948D01*
X327487Y451991D01*
X327590Y452031D01*
X327695Y452067D01*
X327801Y452099D01*
X327908Y452128D01*
X328016Y452153D01*
X328125Y452174D01*
X328234Y452191D01*
X328344Y452205D01*
X328455Y452214D01*
X328565Y452220D01*
X328676Y452222D01*
X333756Y452222D01*
X333867Y452220D01*
X333977Y452214D01*
X334088Y452205D01*
X334198Y452191D01*
X334307Y452174D01*
X334416Y452153D01*
X334524Y452128D01*
X334631Y452099D01*
X334737Y452067D01*
X334842Y452031D01*
X334945Y451991D01*
X335047Y451948D01*
X335148Y451901D01*
X335247Y451850D01*
X335344Y451797D01*
X335438Y451740D01*
X335531Y451679D01*
X335622Y451616D01*
X335711Y451549D01*
X335797Y451479D01*
X335880Y451406D01*
X335962Y451331D01*
X336040Y451253D01*
X336115Y451171D01*
X336188Y451088D01*
X336258Y451002D01*
X336325Y450913D01*
X336388Y450822D01*
X336449Y450729D01*
X336506Y450635D01*
X336559Y450538D01*
X336610Y450439D01*
X336657Y450338D01*
X336700Y450236D01*
X336740Y450133D01*
X336776Y450028D01*
X336808Y449922D01*
X336837Y449815D01*
X336862Y449707D01*
X336883Y449598D01*
X336900Y449489D01*
X336914Y449379D01*
X336923Y449268D01*
X336929Y449158D01*
X336931Y449047D01*
X336931Y445872D01*
X328041Y457683D02*
X325501Y460858D01*
X336931Y460858D01*
X336931Y457683D02*
X336931Y464033D01*
D10*
X426720Y313690D02*
X426720Y299720D01*
X426720Y259080D02*
X426720Y245110D01*
X406400Y203200D02*
X406400Y355600D01*
X457200Y351790D02*
X457200Y207010D01*
X426720Y203200D02*
X406400Y203200D01*
X426720Y203200D02*
X457200Y207010D01*
X426720Y355600D02*
X406400Y355600D01*
X426720Y355600D02*
X457200Y351790D01*
D13*
X394970Y203835D02*
X389890Y203835D01*
X389779Y203837D01*
X389669Y203843D01*
X389558Y203852D01*
X389448Y203866D01*
X389339Y203883D01*
X389230Y203904D01*
X389122Y203929D01*
X389015Y203958D01*
X388909Y203990D01*
X388804Y204026D01*
X388701Y204066D01*
X388599Y204109D01*
X388498Y204156D01*
X388399Y204207D01*
X388303Y204260D01*
X388208Y204317D01*
X388115Y204378D01*
X388024Y204441D01*
X387935Y204508D01*
X387849Y204578D01*
X387766Y204651D01*
X387684Y204726D01*
X387606Y204804D01*
X387531Y204886D01*
X387458Y204969D01*
X387388Y205055D01*
X387321Y205144D01*
X387258Y205235D01*
X387197Y205328D01*
X387140Y205423D01*
X387087Y205519D01*
X387036Y205618D01*
X386989Y205719D01*
X386946Y205821D01*
X386906Y205924D01*
X386870Y206029D01*
X386838Y206135D01*
X386809Y206242D01*
X386784Y206350D01*
X386763Y206459D01*
X386746Y206568D01*
X386732Y206678D01*
X386723Y206789D01*
X386717Y206899D01*
X386715Y207010D01*
X386717Y207121D01*
X386723Y207231D01*
X386732Y207342D01*
X386746Y207452D01*
X386763Y207561D01*
X386784Y207670D01*
X386809Y207778D01*
X386838Y207885D01*
X386870Y207991D01*
X386906Y208096D01*
X386946Y208199D01*
X386989Y208301D01*
X387036Y208402D01*
X387087Y208501D01*
X387140Y208598D01*
X387197Y208692D01*
X387258Y208785D01*
X387321Y208876D01*
X387388Y208965D01*
X387458Y209051D01*
X387531Y209134D01*
X387606Y209216D01*
X387684Y209294D01*
X387766Y209369D01*
X387849Y209442D01*
X387935Y209512D01*
X388024Y209579D01*
X388115Y209642D01*
X388208Y209703D01*
X388303Y209760D01*
X388399Y209813D01*
X388498Y209864D01*
X388599Y209911D01*
X388701Y209954D01*
X388804Y209994D01*
X388909Y210030D01*
X389015Y210062D01*
X389122Y210091D01*
X389230Y210116D01*
X389339Y210137D01*
X389448Y210154D01*
X389558Y210168D01*
X389669Y210177D01*
X389779Y210183D01*
X389890Y210185D01*
X394970Y210185D01*
X395081Y210183D01*
X395191Y210177D01*
X395302Y210168D01*
X395412Y210154D01*
X395521Y210137D01*
X395630Y210116D01*
X395738Y210091D01*
X395845Y210062D01*
X395951Y210030D01*
X396056Y209994D01*
X396159Y209954D01*
X396261Y209911D01*
X396362Y209864D01*
X396461Y209813D01*
X396558Y209760D01*
X396652Y209703D01*
X396745Y209642D01*
X396836Y209579D01*
X396925Y209512D01*
X397011Y209442D01*
X397094Y209369D01*
X397176Y209294D01*
X397254Y209216D01*
X397329Y209134D01*
X397402Y209051D01*
X397472Y208965D01*
X397539Y208876D01*
X397602Y208785D01*
X397663Y208692D01*
X397720Y208597D01*
X397773Y208501D01*
X397824Y208402D01*
X397871Y208301D01*
X397914Y208199D01*
X397954Y208096D01*
X397990Y207991D01*
X398022Y207885D01*
X398051Y207778D01*
X398076Y207670D01*
X398097Y207561D01*
X398114Y207452D01*
X398128Y207342D01*
X398137Y207231D01*
X398143Y207121D01*
X398145Y207010D01*
X398143Y206899D01*
X398137Y206789D01*
X398128Y206678D01*
X398114Y206568D01*
X398097Y206459D01*
X398076Y206350D01*
X398051Y206242D01*
X398022Y206135D01*
X397990Y206029D01*
X397954Y205924D01*
X397914Y205821D01*
X397871Y205719D01*
X397824Y205618D01*
X397773Y205519D01*
X397720Y205422D01*
X397663Y205328D01*
X397602Y205235D01*
X397539Y205144D01*
X397472Y205055D01*
X397402Y204969D01*
X397329Y204886D01*
X397254Y204804D01*
X397176Y204726D01*
X397094Y204651D01*
X397011Y204578D01*
X396925Y204508D01*
X396836Y204441D01*
X396745Y204378D01*
X396652Y204317D01*
X396558Y204260D01*
X396461Y204207D01*
X396362Y204156D01*
X396261Y204109D01*
X396159Y204066D01*
X396056Y204026D01*
X395951Y203990D01*
X395845Y203958D01*
X395738Y203929D01*
X395630Y203904D01*
X395521Y203883D01*
X395412Y203866D01*
X395302Y203852D01*
X395191Y203843D01*
X395081Y203837D01*
X394970Y203835D01*
X395605Y208915D02*
X398145Y211455D01*
X389255Y214896D02*
X386715Y218071D01*
X398145Y218071D01*
X398145Y214896D02*
X398145Y221246D01*
D10*
X207010Y361950D02*
X206910Y361952D01*
X206811Y361958D01*
X206711Y361968D01*
X206613Y361981D01*
X206514Y361999D01*
X206417Y362020D01*
X206321Y362045D01*
X206225Y362074D01*
X206131Y362107D01*
X206038Y362143D01*
X205947Y362183D01*
X205857Y362227D01*
X205769Y362274D01*
X205683Y362324D01*
X205599Y362378D01*
X205517Y362435D01*
X205438Y362495D01*
X205360Y362559D01*
X205286Y362625D01*
X205214Y362694D01*
X205145Y362766D01*
X205079Y362840D01*
X205015Y362918D01*
X204955Y362997D01*
X204898Y363079D01*
X204844Y363163D01*
X204794Y363249D01*
X204747Y363337D01*
X204703Y363427D01*
X204663Y363518D01*
X204627Y363611D01*
X204594Y363705D01*
X204565Y363801D01*
X204540Y363897D01*
X204519Y363994D01*
X204501Y364093D01*
X204488Y364191D01*
X204478Y364291D01*
X204472Y364390D01*
X204470Y364490D01*
X224790Y361950D02*
X224890Y361952D01*
X224989Y361958D01*
X225089Y361968D01*
X225187Y361981D01*
X225286Y361999D01*
X225383Y362020D01*
X225479Y362045D01*
X225575Y362074D01*
X225669Y362107D01*
X225762Y362143D01*
X225853Y362183D01*
X225943Y362227D01*
X226031Y362274D01*
X226117Y362324D01*
X226201Y362378D01*
X226283Y362435D01*
X226362Y362495D01*
X226440Y362559D01*
X226514Y362625D01*
X226586Y362694D01*
X226655Y362766D01*
X226721Y362840D01*
X226785Y362918D01*
X226845Y362997D01*
X226902Y363079D01*
X226956Y363163D01*
X227006Y363249D01*
X227053Y363337D01*
X227097Y363427D01*
X227137Y363518D01*
X227173Y363611D01*
X227206Y363705D01*
X227235Y363801D01*
X227260Y363897D01*
X227281Y363994D01*
X227299Y364093D01*
X227312Y364191D01*
X227322Y364291D01*
X227328Y364390D01*
X227330Y364490D01*
X227330Y422910D02*
X227328Y423010D01*
X227322Y423109D01*
X227312Y423209D01*
X227299Y423307D01*
X227281Y423406D01*
X227260Y423503D01*
X227235Y423599D01*
X227206Y423695D01*
X227173Y423789D01*
X227137Y423882D01*
X227097Y423973D01*
X227053Y424063D01*
X227006Y424151D01*
X226956Y424237D01*
X226902Y424321D01*
X226845Y424403D01*
X226785Y424482D01*
X226721Y424560D01*
X226655Y424634D01*
X226586Y424706D01*
X226514Y424775D01*
X226440Y424841D01*
X226362Y424905D01*
X226283Y424965D01*
X226201Y425022D01*
X226117Y425076D01*
X226031Y425126D01*
X225943Y425173D01*
X225853Y425217D01*
X225762Y425257D01*
X225669Y425293D01*
X225575Y425326D01*
X225479Y425355D01*
X225383Y425380D01*
X225286Y425401D01*
X225187Y425419D01*
X225089Y425432D01*
X224989Y425442D01*
X224890Y425448D01*
X224790Y425450D01*
X207010Y425450D02*
X206910Y425448D01*
X206811Y425442D01*
X206711Y425432D01*
X206613Y425419D01*
X206514Y425401D01*
X206417Y425380D01*
X206321Y425355D01*
X206225Y425326D01*
X206131Y425293D01*
X206038Y425257D01*
X205947Y425217D01*
X205857Y425173D01*
X205769Y425126D01*
X205683Y425076D01*
X205599Y425022D01*
X205517Y424965D01*
X205438Y424905D01*
X205360Y424841D01*
X205286Y424775D01*
X205214Y424706D01*
X205145Y424634D01*
X205079Y424560D01*
X205015Y424482D01*
X204955Y424403D01*
X204898Y424321D01*
X204844Y424237D01*
X204794Y424151D01*
X204747Y424063D01*
X204703Y423973D01*
X204663Y423882D01*
X204627Y423789D01*
X204594Y423695D01*
X204565Y423599D01*
X204540Y423503D01*
X204519Y423406D01*
X204501Y423307D01*
X204488Y423209D01*
X204478Y423109D01*
X204472Y423010D01*
X204470Y422910D01*
X207010Y361950D02*
X224790Y361950D01*
X204470Y364490D02*
X204470Y368300D01*
X205740Y369570D01*
X227330Y368300D02*
X227330Y364490D01*
X227330Y368300D02*
X226060Y369570D01*
X205740Y417830D02*
X204470Y419100D01*
X205740Y417830D02*
X205740Y369570D01*
X226060Y417830D02*
X227330Y419100D01*
X226060Y417830D02*
X226060Y369570D01*
X204470Y419100D02*
X204470Y422910D01*
X227330Y422910D02*
X227330Y419100D01*
X224790Y425450D02*
X207010Y425450D01*
D13*
X200025Y363855D02*
X188595Y363855D01*
X188595Y367030D01*
X188597Y367141D01*
X188603Y367251D01*
X188612Y367362D01*
X188626Y367472D01*
X188643Y367581D01*
X188664Y367690D01*
X188689Y367798D01*
X188718Y367905D01*
X188750Y368011D01*
X188786Y368116D01*
X188826Y368219D01*
X188869Y368321D01*
X188916Y368422D01*
X188967Y368521D01*
X189020Y368618D01*
X189077Y368712D01*
X189138Y368805D01*
X189201Y368896D01*
X189268Y368985D01*
X189338Y369071D01*
X189411Y369154D01*
X189486Y369236D01*
X189564Y369314D01*
X189646Y369389D01*
X189729Y369462D01*
X189815Y369532D01*
X189904Y369599D01*
X189995Y369662D01*
X190088Y369723D01*
X190183Y369780D01*
X190279Y369833D01*
X190378Y369884D01*
X190479Y369931D01*
X190581Y369974D01*
X190684Y370014D01*
X190789Y370050D01*
X190895Y370082D01*
X191002Y370111D01*
X191110Y370136D01*
X191219Y370157D01*
X191328Y370174D01*
X191438Y370188D01*
X191549Y370197D01*
X191659Y370203D01*
X191770Y370205D01*
X191881Y370203D01*
X191991Y370197D01*
X192102Y370188D01*
X192212Y370174D01*
X192321Y370157D01*
X192430Y370136D01*
X192538Y370111D01*
X192645Y370082D01*
X192751Y370050D01*
X192856Y370014D01*
X192959Y369974D01*
X193061Y369931D01*
X193162Y369884D01*
X193261Y369833D01*
X193358Y369780D01*
X193452Y369723D01*
X193545Y369662D01*
X193636Y369599D01*
X193725Y369532D01*
X193811Y369462D01*
X193894Y369389D01*
X193976Y369314D01*
X194054Y369236D01*
X194129Y369154D01*
X194202Y369071D01*
X194272Y368985D01*
X194339Y368896D01*
X194402Y368805D01*
X194463Y368712D01*
X194520Y368618D01*
X194573Y368521D01*
X194624Y368422D01*
X194671Y368321D01*
X194714Y368219D01*
X194754Y368116D01*
X194790Y368011D01*
X194822Y367905D01*
X194851Y367798D01*
X194876Y367690D01*
X194897Y367581D01*
X194914Y367472D01*
X194928Y367362D01*
X194937Y367251D01*
X194943Y367141D01*
X194945Y367030D01*
X194945Y363855D01*
X194945Y367665D02*
X200025Y370205D01*
X191135Y375202D02*
X188595Y378377D01*
X200025Y378377D01*
X200025Y375202D02*
X200025Y381552D01*
D23*
X215900Y429768D03*
X215900Y357632D03*
D10*
X140970Y199390D02*
X140972Y199290D01*
X140978Y199191D01*
X140988Y199091D01*
X141001Y198993D01*
X141019Y198894D01*
X141040Y198797D01*
X141065Y198701D01*
X141094Y198605D01*
X141127Y198511D01*
X141163Y198418D01*
X141203Y198327D01*
X141247Y198237D01*
X141294Y198149D01*
X141344Y198063D01*
X141398Y197979D01*
X141455Y197897D01*
X141515Y197818D01*
X141579Y197740D01*
X141645Y197666D01*
X141714Y197594D01*
X141786Y197525D01*
X141860Y197459D01*
X141938Y197395D01*
X142017Y197335D01*
X142099Y197278D01*
X142183Y197224D01*
X142269Y197174D01*
X142357Y197127D01*
X142447Y197083D01*
X142538Y197043D01*
X142631Y197007D01*
X142725Y196974D01*
X142821Y196945D01*
X142917Y196920D01*
X143014Y196899D01*
X143113Y196881D01*
X143211Y196868D01*
X143311Y196858D01*
X143410Y196852D01*
X143510Y196850D01*
X161290Y196850D02*
X161390Y196852D01*
X161489Y196858D01*
X161589Y196868D01*
X161687Y196881D01*
X161786Y196899D01*
X161883Y196920D01*
X161979Y196945D01*
X162075Y196974D01*
X162169Y197007D01*
X162262Y197043D01*
X162353Y197083D01*
X162443Y197127D01*
X162531Y197174D01*
X162617Y197224D01*
X162701Y197278D01*
X162783Y197335D01*
X162862Y197395D01*
X162940Y197459D01*
X163014Y197525D01*
X163086Y197594D01*
X163155Y197666D01*
X163221Y197740D01*
X163285Y197818D01*
X163345Y197897D01*
X163402Y197979D01*
X163456Y198063D01*
X163506Y198149D01*
X163553Y198237D01*
X163597Y198327D01*
X163637Y198418D01*
X163673Y198511D01*
X163706Y198605D01*
X163735Y198701D01*
X163760Y198797D01*
X163781Y198894D01*
X163799Y198993D01*
X163812Y199091D01*
X163822Y199191D01*
X163828Y199290D01*
X163830Y199390D01*
X163830Y257810D02*
X163828Y257910D01*
X163822Y258009D01*
X163812Y258109D01*
X163799Y258207D01*
X163781Y258306D01*
X163760Y258403D01*
X163735Y258499D01*
X163706Y258595D01*
X163673Y258689D01*
X163637Y258782D01*
X163597Y258873D01*
X163553Y258963D01*
X163506Y259051D01*
X163456Y259137D01*
X163402Y259221D01*
X163345Y259303D01*
X163285Y259382D01*
X163221Y259460D01*
X163155Y259534D01*
X163086Y259606D01*
X163014Y259675D01*
X162940Y259741D01*
X162862Y259805D01*
X162783Y259865D01*
X162701Y259922D01*
X162617Y259976D01*
X162531Y260026D01*
X162443Y260073D01*
X162353Y260117D01*
X162262Y260157D01*
X162169Y260193D01*
X162075Y260226D01*
X161979Y260255D01*
X161883Y260280D01*
X161786Y260301D01*
X161687Y260319D01*
X161589Y260332D01*
X161489Y260342D01*
X161390Y260348D01*
X161290Y260350D01*
X143510Y260350D02*
X143410Y260348D01*
X143311Y260342D01*
X143211Y260332D01*
X143113Y260319D01*
X143014Y260301D01*
X142917Y260280D01*
X142821Y260255D01*
X142725Y260226D01*
X142631Y260193D01*
X142538Y260157D01*
X142447Y260117D01*
X142357Y260073D01*
X142269Y260026D01*
X142183Y259976D01*
X142099Y259922D01*
X142017Y259865D01*
X141938Y259805D01*
X141860Y259741D01*
X141786Y259675D01*
X141714Y259606D01*
X141645Y259534D01*
X141579Y259460D01*
X141515Y259382D01*
X141455Y259303D01*
X141398Y259221D01*
X141344Y259137D01*
X141294Y259051D01*
X141247Y258963D01*
X141203Y258873D01*
X141163Y258782D01*
X141127Y258689D01*
X141094Y258595D01*
X141065Y258499D01*
X141040Y258403D01*
X141019Y258306D01*
X141001Y258207D01*
X140988Y258109D01*
X140978Y258009D01*
X140972Y257910D01*
X140970Y257810D01*
X143510Y196850D02*
X161290Y196850D01*
X140970Y199390D02*
X140970Y203200D01*
X142240Y204470D01*
X163830Y203200D02*
X163830Y199390D01*
X163830Y203200D02*
X162560Y204470D01*
X142240Y252730D02*
X140970Y254000D01*
X142240Y252730D02*
X142240Y204470D01*
X162560Y252730D02*
X163830Y254000D01*
X162560Y252730D02*
X162560Y204470D01*
X140970Y254000D02*
X140970Y257810D01*
X163830Y257810D02*
X163830Y254000D01*
X161290Y260350D02*
X143510Y260350D01*
D13*
X136525Y198755D02*
X125095Y198755D01*
X125095Y201930D01*
X125097Y202041D01*
X125103Y202151D01*
X125112Y202262D01*
X125126Y202372D01*
X125143Y202481D01*
X125164Y202590D01*
X125189Y202698D01*
X125218Y202805D01*
X125250Y202911D01*
X125286Y203016D01*
X125326Y203119D01*
X125369Y203221D01*
X125416Y203322D01*
X125467Y203421D01*
X125520Y203518D01*
X125577Y203612D01*
X125638Y203705D01*
X125701Y203796D01*
X125768Y203885D01*
X125838Y203971D01*
X125911Y204054D01*
X125986Y204136D01*
X126064Y204214D01*
X126146Y204289D01*
X126229Y204362D01*
X126315Y204432D01*
X126404Y204499D01*
X126495Y204562D01*
X126588Y204623D01*
X126683Y204680D01*
X126779Y204733D01*
X126878Y204784D01*
X126979Y204831D01*
X127081Y204874D01*
X127184Y204914D01*
X127289Y204950D01*
X127395Y204982D01*
X127502Y205011D01*
X127610Y205036D01*
X127719Y205057D01*
X127828Y205074D01*
X127938Y205088D01*
X128049Y205097D01*
X128159Y205103D01*
X128270Y205105D01*
X128381Y205103D01*
X128491Y205097D01*
X128602Y205088D01*
X128712Y205074D01*
X128821Y205057D01*
X128930Y205036D01*
X129038Y205011D01*
X129145Y204982D01*
X129251Y204950D01*
X129356Y204914D01*
X129459Y204874D01*
X129561Y204831D01*
X129662Y204784D01*
X129761Y204733D01*
X129858Y204680D01*
X129952Y204623D01*
X130045Y204562D01*
X130136Y204499D01*
X130225Y204432D01*
X130311Y204362D01*
X130394Y204289D01*
X130476Y204214D01*
X130554Y204136D01*
X130629Y204054D01*
X130702Y203971D01*
X130772Y203885D01*
X130839Y203796D01*
X130902Y203705D01*
X130963Y203612D01*
X131020Y203518D01*
X131073Y203421D01*
X131124Y203322D01*
X131171Y203221D01*
X131214Y203119D01*
X131254Y203016D01*
X131290Y202911D01*
X131322Y202805D01*
X131351Y202698D01*
X131376Y202590D01*
X131397Y202481D01*
X131414Y202372D01*
X131428Y202262D01*
X131437Y202151D01*
X131443Y202041D01*
X131445Y201930D01*
X131445Y198755D01*
X131445Y202565D02*
X136525Y205105D01*
X127953Y216453D02*
X127849Y216451D01*
X127744Y216445D01*
X127640Y216436D01*
X127537Y216423D01*
X127434Y216405D01*
X127332Y216385D01*
X127230Y216360D01*
X127130Y216332D01*
X127030Y216300D01*
X126932Y216264D01*
X126835Y216225D01*
X126740Y216183D01*
X126646Y216137D01*
X126554Y216087D01*
X126464Y216035D01*
X126376Y215979D01*
X126290Y215919D01*
X126206Y215857D01*
X126125Y215792D01*
X126046Y215724D01*
X125969Y215652D01*
X125896Y215579D01*
X125824Y215502D01*
X125756Y215423D01*
X125691Y215342D01*
X125629Y215258D01*
X125569Y215172D01*
X125513Y215084D01*
X125461Y214994D01*
X125411Y214902D01*
X125365Y214808D01*
X125323Y214713D01*
X125284Y214616D01*
X125248Y214518D01*
X125216Y214418D01*
X125188Y214318D01*
X125163Y214216D01*
X125143Y214114D01*
X125125Y214011D01*
X125112Y213908D01*
X125103Y213804D01*
X125097Y213699D01*
X125095Y213595D01*
X125097Y213477D01*
X125103Y213358D01*
X125112Y213240D01*
X125125Y213123D01*
X125143Y213006D01*
X125163Y212889D01*
X125188Y212773D01*
X125216Y212658D01*
X125249Y212545D01*
X125284Y212432D01*
X125324Y212320D01*
X125366Y212210D01*
X125413Y212101D01*
X125463Y211993D01*
X125516Y211888D01*
X125573Y211784D01*
X125633Y211682D01*
X125696Y211582D01*
X125763Y211484D01*
X125832Y211388D01*
X125905Y211295D01*
X125981Y211204D01*
X126059Y211115D01*
X126141Y211029D01*
X126225Y210946D01*
X126311Y210865D01*
X126401Y210788D01*
X126492Y210713D01*
X126586Y210641D01*
X126683Y210572D01*
X126781Y210507D01*
X126882Y210444D01*
X126985Y210385D01*
X127089Y210329D01*
X127195Y210277D01*
X127303Y210228D01*
X127412Y210183D01*
X127523Y210141D01*
X127635Y210103D01*
X130175Y215500D02*
X130100Y215576D01*
X130021Y215651D01*
X129940Y215722D01*
X129856Y215791D01*
X129770Y215856D01*
X129682Y215918D01*
X129592Y215978D01*
X129500Y216034D01*
X129405Y216087D01*
X129309Y216136D01*
X129211Y216182D01*
X129112Y216225D01*
X129011Y216264D01*
X128909Y216299D01*
X128806Y216331D01*
X128702Y216359D01*
X128597Y216384D01*
X128490Y216405D01*
X128384Y216422D01*
X128277Y216435D01*
X128169Y216444D01*
X128061Y216450D01*
X127953Y216452D01*
X130175Y215500D02*
X136525Y210102D01*
X136525Y216452D01*
D23*
X152400Y264668D03*
X152400Y192532D03*
D10*
X204470Y199390D02*
X204472Y199290D01*
X204478Y199191D01*
X204488Y199091D01*
X204501Y198993D01*
X204519Y198894D01*
X204540Y198797D01*
X204565Y198701D01*
X204594Y198605D01*
X204627Y198511D01*
X204663Y198418D01*
X204703Y198327D01*
X204747Y198237D01*
X204794Y198149D01*
X204844Y198063D01*
X204898Y197979D01*
X204955Y197897D01*
X205015Y197818D01*
X205079Y197740D01*
X205145Y197666D01*
X205214Y197594D01*
X205286Y197525D01*
X205360Y197459D01*
X205438Y197395D01*
X205517Y197335D01*
X205599Y197278D01*
X205683Y197224D01*
X205769Y197174D01*
X205857Y197127D01*
X205947Y197083D01*
X206038Y197043D01*
X206131Y197007D01*
X206225Y196974D01*
X206321Y196945D01*
X206417Y196920D01*
X206514Y196899D01*
X206613Y196881D01*
X206711Y196868D01*
X206811Y196858D01*
X206910Y196852D01*
X207010Y196850D01*
X224790Y196850D02*
X224890Y196852D01*
X224989Y196858D01*
X225089Y196868D01*
X225187Y196881D01*
X225286Y196899D01*
X225383Y196920D01*
X225479Y196945D01*
X225575Y196974D01*
X225669Y197007D01*
X225762Y197043D01*
X225853Y197083D01*
X225943Y197127D01*
X226031Y197174D01*
X226117Y197224D01*
X226201Y197278D01*
X226283Y197335D01*
X226362Y197395D01*
X226440Y197459D01*
X226514Y197525D01*
X226586Y197594D01*
X226655Y197666D01*
X226721Y197740D01*
X226785Y197818D01*
X226845Y197897D01*
X226902Y197979D01*
X226956Y198063D01*
X227006Y198149D01*
X227053Y198237D01*
X227097Y198327D01*
X227137Y198418D01*
X227173Y198511D01*
X227206Y198605D01*
X227235Y198701D01*
X227260Y198797D01*
X227281Y198894D01*
X227299Y198993D01*
X227312Y199091D01*
X227322Y199191D01*
X227328Y199290D01*
X227330Y199390D01*
X227330Y257810D02*
X227328Y257910D01*
X227322Y258009D01*
X227312Y258109D01*
X227299Y258207D01*
X227281Y258306D01*
X227260Y258403D01*
X227235Y258499D01*
X227206Y258595D01*
X227173Y258689D01*
X227137Y258782D01*
X227097Y258873D01*
X227053Y258963D01*
X227006Y259051D01*
X226956Y259137D01*
X226902Y259221D01*
X226845Y259303D01*
X226785Y259382D01*
X226721Y259460D01*
X226655Y259534D01*
X226586Y259606D01*
X226514Y259675D01*
X226440Y259741D01*
X226362Y259805D01*
X226283Y259865D01*
X226201Y259922D01*
X226117Y259976D01*
X226031Y260026D01*
X225943Y260073D01*
X225853Y260117D01*
X225762Y260157D01*
X225669Y260193D01*
X225575Y260226D01*
X225479Y260255D01*
X225383Y260280D01*
X225286Y260301D01*
X225187Y260319D01*
X225089Y260332D01*
X224989Y260342D01*
X224890Y260348D01*
X224790Y260350D01*
X207010Y260350D02*
X206910Y260348D01*
X206811Y260342D01*
X206711Y260332D01*
X206613Y260319D01*
X206514Y260301D01*
X206417Y260280D01*
X206321Y260255D01*
X206225Y260226D01*
X206131Y260193D01*
X206038Y260157D01*
X205947Y260117D01*
X205857Y260073D01*
X205769Y260026D01*
X205683Y259976D01*
X205599Y259922D01*
X205517Y259865D01*
X205438Y259805D01*
X205360Y259741D01*
X205286Y259675D01*
X205214Y259606D01*
X205145Y259534D01*
X205079Y259460D01*
X205015Y259382D01*
X204955Y259303D01*
X204898Y259221D01*
X204844Y259137D01*
X204794Y259051D01*
X204747Y258963D01*
X204703Y258873D01*
X204663Y258782D01*
X204627Y258689D01*
X204594Y258595D01*
X204565Y258499D01*
X204540Y258403D01*
X204519Y258306D01*
X204501Y258207D01*
X204488Y258109D01*
X204478Y258009D01*
X204472Y257910D01*
X204470Y257810D01*
X207010Y196850D02*
X224790Y196850D01*
X204470Y199390D02*
X204470Y203200D01*
X205740Y204470D01*
X227330Y203200D02*
X227330Y199390D01*
X227330Y203200D02*
X226060Y204470D01*
X205740Y252730D02*
X204470Y254000D01*
X205740Y252730D02*
X205740Y204470D01*
X226060Y252730D02*
X227330Y254000D01*
X226060Y252730D02*
X226060Y204470D01*
X204470Y254000D02*
X204470Y257810D01*
X227330Y257810D02*
X227330Y254000D01*
X224790Y260350D02*
X207010Y260350D01*
D13*
X200025Y198755D02*
X188595Y198755D01*
X188595Y201930D01*
X188597Y202041D01*
X188603Y202151D01*
X188612Y202262D01*
X188626Y202372D01*
X188643Y202481D01*
X188664Y202590D01*
X188689Y202698D01*
X188718Y202805D01*
X188750Y202911D01*
X188786Y203016D01*
X188826Y203119D01*
X188869Y203221D01*
X188916Y203322D01*
X188967Y203421D01*
X189020Y203518D01*
X189077Y203612D01*
X189138Y203705D01*
X189201Y203796D01*
X189268Y203885D01*
X189338Y203971D01*
X189411Y204054D01*
X189486Y204136D01*
X189564Y204214D01*
X189646Y204289D01*
X189729Y204362D01*
X189815Y204432D01*
X189904Y204499D01*
X189995Y204562D01*
X190088Y204623D01*
X190183Y204680D01*
X190279Y204733D01*
X190378Y204784D01*
X190479Y204831D01*
X190581Y204874D01*
X190684Y204914D01*
X190789Y204950D01*
X190895Y204982D01*
X191002Y205011D01*
X191110Y205036D01*
X191219Y205057D01*
X191328Y205074D01*
X191438Y205088D01*
X191549Y205097D01*
X191659Y205103D01*
X191770Y205105D01*
X191881Y205103D01*
X191991Y205097D01*
X192102Y205088D01*
X192212Y205074D01*
X192321Y205057D01*
X192430Y205036D01*
X192538Y205011D01*
X192645Y204982D01*
X192751Y204950D01*
X192856Y204914D01*
X192959Y204874D01*
X193061Y204831D01*
X193162Y204784D01*
X193261Y204733D01*
X193358Y204680D01*
X193452Y204623D01*
X193545Y204562D01*
X193636Y204499D01*
X193725Y204432D01*
X193811Y204362D01*
X193894Y204289D01*
X193976Y204214D01*
X194054Y204136D01*
X194129Y204054D01*
X194202Y203971D01*
X194272Y203885D01*
X194339Y203796D01*
X194402Y203705D01*
X194463Y203612D01*
X194520Y203518D01*
X194573Y203421D01*
X194624Y203322D01*
X194671Y203221D01*
X194714Y203119D01*
X194754Y203016D01*
X194790Y202911D01*
X194822Y202805D01*
X194851Y202698D01*
X194876Y202590D01*
X194897Y202481D01*
X194914Y202372D01*
X194928Y202262D01*
X194937Y202151D01*
X194943Y202041D01*
X194945Y201930D01*
X194945Y198755D01*
X194945Y202565D02*
X200025Y205105D01*
X200025Y210102D02*
X200025Y213277D01*
X200023Y213388D01*
X200017Y213498D01*
X200008Y213609D01*
X199994Y213719D01*
X199977Y213828D01*
X199956Y213937D01*
X199931Y214045D01*
X199902Y214152D01*
X199870Y214258D01*
X199834Y214363D01*
X199794Y214466D01*
X199751Y214568D01*
X199704Y214669D01*
X199653Y214768D01*
X199600Y214865D01*
X199543Y214959D01*
X199482Y215052D01*
X199419Y215143D01*
X199352Y215232D01*
X199282Y215318D01*
X199209Y215401D01*
X199134Y215483D01*
X199056Y215561D01*
X198974Y215636D01*
X198891Y215709D01*
X198805Y215779D01*
X198716Y215846D01*
X198625Y215909D01*
X198532Y215970D01*
X198438Y216027D01*
X198341Y216080D01*
X198242Y216131D01*
X198141Y216178D01*
X198039Y216221D01*
X197936Y216261D01*
X197831Y216297D01*
X197725Y216329D01*
X197618Y216358D01*
X197510Y216383D01*
X197401Y216404D01*
X197292Y216421D01*
X197182Y216435D01*
X197071Y216444D01*
X196961Y216450D01*
X196850Y216452D01*
X196739Y216450D01*
X196629Y216444D01*
X196518Y216435D01*
X196408Y216421D01*
X196299Y216404D01*
X196190Y216383D01*
X196082Y216358D01*
X195975Y216329D01*
X195869Y216297D01*
X195764Y216261D01*
X195661Y216221D01*
X195559Y216178D01*
X195458Y216131D01*
X195359Y216080D01*
X195263Y216027D01*
X195168Y215970D01*
X195075Y215909D01*
X194984Y215846D01*
X194895Y215779D01*
X194809Y215709D01*
X194726Y215636D01*
X194644Y215561D01*
X194566Y215483D01*
X194491Y215401D01*
X194418Y215318D01*
X194348Y215232D01*
X194281Y215143D01*
X194218Y215052D01*
X194157Y214959D01*
X194100Y214865D01*
X194047Y214768D01*
X193996Y214669D01*
X193949Y214568D01*
X193906Y214466D01*
X193866Y214363D01*
X193830Y214258D01*
X193798Y214152D01*
X193769Y214045D01*
X193744Y213937D01*
X193723Y213828D01*
X193706Y213719D01*
X193692Y213609D01*
X193683Y213498D01*
X193677Y213388D01*
X193675Y213277D01*
X188595Y213912D02*
X188595Y210102D01*
X188595Y213912D02*
X188597Y214012D01*
X188603Y214111D01*
X188613Y214211D01*
X188626Y214309D01*
X188644Y214408D01*
X188665Y214505D01*
X188690Y214601D01*
X188719Y214697D01*
X188752Y214791D01*
X188788Y214884D01*
X188828Y214975D01*
X188872Y215065D01*
X188919Y215153D01*
X188969Y215239D01*
X189023Y215323D01*
X189080Y215405D01*
X189140Y215484D01*
X189204Y215562D01*
X189270Y215636D01*
X189339Y215708D01*
X189411Y215777D01*
X189485Y215843D01*
X189563Y215907D01*
X189642Y215967D01*
X189724Y216024D01*
X189808Y216078D01*
X189894Y216128D01*
X189982Y216175D01*
X190072Y216219D01*
X190163Y216259D01*
X190256Y216295D01*
X190350Y216328D01*
X190446Y216357D01*
X190542Y216382D01*
X190639Y216403D01*
X190738Y216421D01*
X190836Y216434D01*
X190936Y216444D01*
X191035Y216450D01*
X191135Y216452D01*
X191235Y216450D01*
X191334Y216444D01*
X191434Y216434D01*
X191532Y216421D01*
X191631Y216403D01*
X191728Y216382D01*
X191824Y216357D01*
X191920Y216328D01*
X192014Y216295D01*
X192107Y216259D01*
X192198Y216219D01*
X192288Y216175D01*
X192376Y216128D01*
X192462Y216078D01*
X192546Y216024D01*
X192628Y215967D01*
X192707Y215907D01*
X192785Y215843D01*
X192859Y215777D01*
X192931Y215708D01*
X193000Y215636D01*
X193066Y215562D01*
X193130Y215484D01*
X193190Y215405D01*
X193247Y215323D01*
X193301Y215239D01*
X193351Y215153D01*
X193398Y215065D01*
X193442Y214975D01*
X193482Y214884D01*
X193518Y214791D01*
X193551Y214697D01*
X193580Y214601D01*
X193605Y214505D01*
X193626Y214408D01*
X193644Y214309D01*
X193657Y214211D01*
X193667Y214111D01*
X193673Y214012D01*
X193675Y213912D01*
X193675Y211372D01*
D23*
X215900Y264668D03*
X215900Y192532D03*
D10*
X267970Y199390D02*
X267972Y199290D01*
X267978Y199191D01*
X267988Y199091D01*
X268001Y198993D01*
X268019Y198894D01*
X268040Y198797D01*
X268065Y198701D01*
X268094Y198605D01*
X268127Y198511D01*
X268163Y198418D01*
X268203Y198327D01*
X268247Y198237D01*
X268294Y198149D01*
X268344Y198063D01*
X268398Y197979D01*
X268455Y197897D01*
X268515Y197818D01*
X268579Y197740D01*
X268645Y197666D01*
X268714Y197594D01*
X268786Y197525D01*
X268860Y197459D01*
X268938Y197395D01*
X269017Y197335D01*
X269099Y197278D01*
X269183Y197224D01*
X269269Y197174D01*
X269357Y197127D01*
X269447Y197083D01*
X269538Y197043D01*
X269631Y197007D01*
X269725Y196974D01*
X269821Y196945D01*
X269917Y196920D01*
X270014Y196899D01*
X270113Y196881D01*
X270211Y196868D01*
X270311Y196858D01*
X270410Y196852D01*
X270510Y196850D01*
X288290Y196850D02*
X288390Y196852D01*
X288489Y196858D01*
X288589Y196868D01*
X288687Y196881D01*
X288786Y196899D01*
X288883Y196920D01*
X288979Y196945D01*
X289075Y196974D01*
X289169Y197007D01*
X289262Y197043D01*
X289353Y197083D01*
X289443Y197127D01*
X289531Y197174D01*
X289617Y197224D01*
X289701Y197278D01*
X289783Y197335D01*
X289862Y197395D01*
X289940Y197459D01*
X290014Y197525D01*
X290086Y197594D01*
X290155Y197666D01*
X290221Y197740D01*
X290285Y197818D01*
X290345Y197897D01*
X290402Y197979D01*
X290456Y198063D01*
X290506Y198149D01*
X290553Y198237D01*
X290597Y198327D01*
X290637Y198418D01*
X290673Y198511D01*
X290706Y198605D01*
X290735Y198701D01*
X290760Y198797D01*
X290781Y198894D01*
X290799Y198993D01*
X290812Y199091D01*
X290822Y199191D01*
X290828Y199290D01*
X290830Y199390D01*
X290830Y257810D02*
X290828Y257910D01*
X290822Y258009D01*
X290812Y258109D01*
X290799Y258207D01*
X290781Y258306D01*
X290760Y258403D01*
X290735Y258499D01*
X290706Y258595D01*
X290673Y258689D01*
X290637Y258782D01*
X290597Y258873D01*
X290553Y258963D01*
X290506Y259051D01*
X290456Y259137D01*
X290402Y259221D01*
X290345Y259303D01*
X290285Y259382D01*
X290221Y259460D01*
X290155Y259534D01*
X290086Y259606D01*
X290014Y259675D01*
X289940Y259741D01*
X289862Y259805D01*
X289783Y259865D01*
X289701Y259922D01*
X289617Y259976D01*
X289531Y260026D01*
X289443Y260073D01*
X289353Y260117D01*
X289262Y260157D01*
X289169Y260193D01*
X289075Y260226D01*
X288979Y260255D01*
X288883Y260280D01*
X288786Y260301D01*
X288687Y260319D01*
X288589Y260332D01*
X288489Y260342D01*
X288390Y260348D01*
X288290Y260350D01*
X270510Y260350D02*
X270410Y260348D01*
X270311Y260342D01*
X270211Y260332D01*
X270113Y260319D01*
X270014Y260301D01*
X269917Y260280D01*
X269821Y260255D01*
X269725Y260226D01*
X269631Y260193D01*
X269538Y260157D01*
X269447Y260117D01*
X269357Y260073D01*
X269269Y260026D01*
X269183Y259976D01*
X269099Y259922D01*
X269017Y259865D01*
X268938Y259805D01*
X268860Y259741D01*
X268786Y259675D01*
X268714Y259606D01*
X268645Y259534D01*
X268579Y259460D01*
X268515Y259382D01*
X268455Y259303D01*
X268398Y259221D01*
X268344Y259137D01*
X268294Y259051D01*
X268247Y258963D01*
X268203Y258873D01*
X268163Y258782D01*
X268127Y258689D01*
X268094Y258595D01*
X268065Y258499D01*
X268040Y258403D01*
X268019Y258306D01*
X268001Y258207D01*
X267988Y258109D01*
X267978Y258009D01*
X267972Y257910D01*
X267970Y257810D01*
X270510Y196850D02*
X288290Y196850D01*
X267970Y199390D02*
X267970Y203200D01*
X269240Y204470D01*
X290830Y203200D02*
X290830Y199390D01*
X290830Y203200D02*
X289560Y204470D01*
X269240Y252730D02*
X267970Y254000D01*
X269240Y252730D02*
X269240Y204470D01*
X289560Y252730D02*
X290830Y254000D01*
X289560Y252730D02*
X289560Y204470D01*
X267970Y254000D02*
X267970Y257810D01*
X290830Y257810D02*
X290830Y254000D01*
X288290Y260350D02*
X270510Y260350D01*
D13*
X263525Y198755D02*
X252095Y198755D01*
X252095Y201930D01*
X252097Y202041D01*
X252103Y202151D01*
X252112Y202262D01*
X252126Y202372D01*
X252143Y202481D01*
X252164Y202590D01*
X252189Y202698D01*
X252218Y202805D01*
X252250Y202911D01*
X252286Y203016D01*
X252326Y203119D01*
X252369Y203221D01*
X252416Y203322D01*
X252467Y203421D01*
X252520Y203518D01*
X252577Y203612D01*
X252638Y203705D01*
X252701Y203796D01*
X252768Y203885D01*
X252838Y203971D01*
X252911Y204054D01*
X252986Y204136D01*
X253064Y204214D01*
X253146Y204289D01*
X253229Y204362D01*
X253315Y204432D01*
X253404Y204499D01*
X253495Y204562D01*
X253588Y204623D01*
X253683Y204680D01*
X253779Y204733D01*
X253878Y204784D01*
X253979Y204831D01*
X254081Y204874D01*
X254184Y204914D01*
X254289Y204950D01*
X254395Y204982D01*
X254502Y205011D01*
X254610Y205036D01*
X254719Y205057D01*
X254828Y205074D01*
X254938Y205088D01*
X255049Y205097D01*
X255159Y205103D01*
X255270Y205105D01*
X255381Y205103D01*
X255491Y205097D01*
X255602Y205088D01*
X255712Y205074D01*
X255821Y205057D01*
X255930Y205036D01*
X256038Y205011D01*
X256145Y204982D01*
X256251Y204950D01*
X256356Y204914D01*
X256459Y204874D01*
X256561Y204831D01*
X256662Y204784D01*
X256761Y204733D01*
X256858Y204680D01*
X256952Y204623D01*
X257045Y204562D01*
X257136Y204499D01*
X257225Y204432D01*
X257311Y204362D01*
X257394Y204289D01*
X257476Y204214D01*
X257554Y204136D01*
X257629Y204054D01*
X257702Y203971D01*
X257772Y203885D01*
X257839Y203796D01*
X257902Y203705D01*
X257963Y203612D01*
X258020Y203518D01*
X258073Y203421D01*
X258124Y203322D01*
X258171Y203221D01*
X258214Y203119D01*
X258254Y203016D01*
X258290Y202911D01*
X258322Y202805D01*
X258351Y202698D01*
X258376Y202590D01*
X258397Y202481D01*
X258414Y202372D01*
X258428Y202262D01*
X258437Y202151D01*
X258443Y202041D01*
X258445Y201930D01*
X258445Y198755D01*
X258445Y202565D02*
X263525Y205105D01*
X260985Y210102D02*
X252095Y212642D01*
X260985Y210102D02*
X260985Y216452D01*
X258445Y214547D02*
X263525Y214547D01*
D23*
X279400Y264668D03*
X279400Y192532D03*
D10*
X331470Y199390D02*
X331472Y199290D01*
X331478Y199191D01*
X331488Y199091D01*
X331501Y198993D01*
X331519Y198894D01*
X331540Y198797D01*
X331565Y198701D01*
X331594Y198605D01*
X331627Y198511D01*
X331663Y198418D01*
X331703Y198327D01*
X331747Y198237D01*
X331794Y198149D01*
X331844Y198063D01*
X331898Y197979D01*
X331955Y197897D01*
X332015Y197818D01*
X332079Y197740D01*
X332145Y197666D01*
X332214Y197594D01*
X332286Y197525D01*
X332360Y197459D01*
X332438Y197395D01*
X332517Y197335D01*
X332599Y197278D01*
X332683Y197224D01*
X332769Y197174D01*
X332857Y197127D01*
X332947Y197083D01*
X333038Y197043D01*
X333131Y197007D01*
X333225Y196974D01*
X333321Y196945D01*
X333417Y196920D01*
X333514Y196899D01*
X333613Y196881D01*
X333711Y196868D01*
X333811Y196858D01*
X333910Y196852D01*
X334010Y196850D01*
X351790Y196850D02*
X351890Y196852D01*
X351989Y196858D01*
X352089Y196868D01*
X352187Y196881D01*
X352286Y196899D01*
X352383Y196920D01*
X352479Y196945D01*
X352575Y196974D01*
X352669Y197007D01*
X352762Y197043D01*
X352853Y197083D01*
X352943Y197127D01*
X353031Y197174D01*
X353117Y197224D01*
X353201Y197278D01*
X353283Y197335D01*
X353362Y197395D01*
X353440Y197459D01*
X353514Y197525D01*
X353586Y197594D01*
X353655Y197666D01*
X353721Y197740D01*
X353785Y197818D01*
X353845Y197897D01*
X353902Y197979D01*
X353956Y198063D01*
X354006Y198149D01*
X354053Y198237D01*
X354097Y198327D01*
X354137Y198418D01*
X354173Y198511D01*
X354206Y198605D01*
X354235Y198701D01*
X354260Y198797D01*
X354281Y198894D01*
X354299Y198993D01*
X354312Y199091D01*
X354322Y199191D01*
X354328Y199290D01*
X354330Y199390D01*
X354330Y257810D02*
X354328Y257910D01*
X354322Y258009D01*
X354312Y258109D01*
X354299Y258207D01*
X354281Y258306D01*
X354260Y258403D01*
X354235Y258499D01*
X354206Y258595D01*
X354173Y258689D01*
X354137Y258782D01*
X354097Y258873D01*
X354053Y258963D01*
X354006Y259051D01*
X353956Y259137D01*
X353902Y259221D01*
X353845Y259303D01*
X353785Y259382D01*
X353721Y259460D01*
X353655Y259534D01*
X353586Y259606D01*
X353514Y259675D01*
X353440Y259741D01*
X353362Y259805D01*
X353283Y259865D01*
X353201Y259922D01*
X353117Y259976D01*
X353031Y260026D01*
X352943Y260073D01*
X352853Y260117D01*
X352762Y260157D01*
X352669Y260193D01*
X352575Y260226D01*
X352479Y260255D01*
X352383Y260280D01*
X352286Y260301D01*
X352187Y260319D01*
X352089Y260332D01*
X351989Y260342D01*
X351890Y260348D01*
X351790Y260350D01*
X334010Y260350D02*
X333910Y260348D01*
X333811Y260342D01*
X333711Y260332D01*
X333613Y260319D01*
X333514Y260301D01*
X333417Y260280D01*
X333321Y260255D01*
X333225Y260226D01*
X333131Y260193D01*
X333038Y260157D01*
X332947Y260117D01*
X332857Y260073D01*
X332769Y260026D01*
X332683Y259976D01*
X332599Y259922D01*
X332517Y259865D01*
X332438Y259805D01*
X332360Y259741D01*
X332286Y259675D01*
X332214Y259606D01*
X332145Y259534D01*
X332079Y259460D01*
X332015Y259382D01*
X331955Y259303D01*
X331898Y259221D01*
X331844Y259137D01*
X331794Y259051D01*
X331747Y258963D01*
X331703Y258873D01*
X331663Y258782D01*
X331627Y258689D01*
X331594Y258595D01*
X331565Y258499D01*
X331540Y258403D01*
X331519Y258306D01*
X331501Y258207D01*
X331488Y258109D01*
X331478Y258009D01*
X331472Y257910D01*
X331470Y257810D01*
X334010Y196850D02*
X351790Y196850D01*
X331470Y199390D02*
X331470Y203200D01*
X332740Y204470D01*
X354330Y203200D02*
X354330Y199390D01*
X354330Y203200D02*
X353060Y204470D01*
X332740Y252730D02*
X331470Y254000D01*
X332740Y252730D02*
X332740Y204470D01*
X353060Y252730D02*
X354330Y254000D01*
X353060Y252730D02*
X353060Y204470D01*
X331470Y254000D02*
X331470Y257810D01*
X354330Y257810D02*
X354330Y254000D01*
X351790Y260350D02*
X334010Y260350D01*
D13*
X327025Y198755D02*
X315595Y198755D01*
X315595Y201930D01*
X315597Y202041D01*
X315603Y202151D01*
X315612Y202262D01*
X315626Y202372D01*
X315643Y202481D01*
X315664Y202590D01*
X315689Y202698D01*
X315718Y202805D01*
X315750Y202911D01*
X315786Y203016D01*
X315826Y203119D01*
X315869Y203221D01*
X315916Y203322D01*
X315967Y203421D01*
X316020Y203518D01*
X316077Y203612D01*
X316138Y203705D01*
X316201Y203796D01*
X316268Y203885D01*
X316338Y203971D01*
X316411Y204054D01*
X316486Y204136D01*
X316564Y204214D01*
X316646Y204289D01*
X316729Y204362D01*
X316815Y204432D01*
X316904Y204499D01*
X316995Y204562D01*
X317088Y204623D01*
X317183Y204680D01*
X317279Y204733D01*
X317378Y204784D01*
X317479Y204831D01*
X317581Y204874D01*
X317684Y204914D01*
X317789Y204950D01*
X317895Y204982D01*
X318002Y205011D01*
X318110Y205036D01*
X318219Y205057D01*
X318328Y205074D01*
X318438Y205088D01*
X318549Y205097D01*
X318659Y205103D01*
X318770Y205105D01*
X318881Y205103D01*
X318991Y205097D01*
X319102Y205088D01*
X319212Y205074D01*
X319321Y205057D01*
X319430Y205036D01*
X319538Y205011D01*
X319645Y204982D01*
X319751Y204950D01*
X319856Y204914D01*
X319959Y204874D01*
X320061Y204831D01*
X320162Y204784D01*
X320261Y204733D01*
X320358Y204680D01*
X320452Y204623D01*
X320545Y204562D01*
X320636Y204499D01*
X320725Y204432D01*
X320811Y204362D01*
X320894Y204289D01*
X320976Y204214D01*
X321054Y204136D01*
X321129Y204054D01*
X321202Y203971D01*
X321272Y203885D01*
X321339Y203796D01*
X321402Y203705D01*
X321463Y203612D01*
X321520Y203518D01*
X321573Y203421D01*
X321624Y203322D01*
X321671Y203221D01*
X321714Y203119D01*
X321754Y203016D01*
X321790Y202911D01*
X321822Y202805D01*
X321851Y202698D01*
X321876Y202590D01*
X321897Y202481D01*
X321914Y202372D01*
X321928Y202262D01*
X321937Y202151D01*
X321943Y202041D01*
X321945Y201930D01*
X321945Y198755D01*
X321945Y202565D02*
X327025Y205105D01*
X327025Y210102D02*
X327025Y213912D01*
X327023Y214012D01*
X327017Y214111D01*
X327007Y214211D01*
X326994Y214309D01*
X326976Y214408D01*
X326955Y214505D01*
X326930Y214601D01*
X326901Y214697D01*
X326868Y214791D01*
X326832Y214884D01*
X326792Y214975D01*
X326748Y215065D01*
X326701Y215153D01*
X326651Y215239D01*
X326597Y215323D01*
X326540Y215405D01*
X326480Y215484D01*
X326416Y215562D01*
X326350Y215636D01*
X326281Y215708D01*
X326209Y215777D01*
X326135Y215843D01*
X326057Y215907D01*
X325978Y215967D01*
X325896Y216024D01*
X325812Y216078D01*
X325726Y216128D01*
X325638Y216175D01*
X325548Y216219D01*
X325457Y216259D01*
X325364Y216295D01*
X325270Y216328D01*
X325174Y216357D01*
X325078Y216382D01*
X324981Y216403D01*
X324882Y216421D01*
X324784Y216434D01*
X324684Y216444D01*
X324585Y216450D01*
X324485Y216452D01*
X323215Y216452D01*
X323115Y216450D01*
X323016Y216444D01*
X322916Y216434D01*
X322818Y216421D01*
X322719Y216403D01*
X322622Y216382D01*
X322526Y216357D01*
X322430Y216328D01*
X322336Y216295D01*
X322243Y216259D01*
X322152Y216219D01*
X322062Y216175D01*
X321974Y216128D01*
X321888Y216078D01*
X321804Y216024D01*
X321722Y215967D01*
X321643Y215907D01*
X321565Y215843D01*
X321491Y215777D01*
X321419Y215708D01*
X321350Y215636D01*
X321284Y215562D01*
X321220Y215484D01*
X321160Y215405D01*
X321103Y215323D01*
X321049Y215239D01*
X320999Y215153D01*
X320952Y215065D01*
X320908Y214975D01*
X320868Y214884D01*
X320832Y214791D01*
X320799Y214697D01*
X320770Y214601D01*
X320745Y214505D01*
X320724Y214408D01*
X320706Y214309D01*
X320693Y214211D01*
X320683Y214111D01*
X320677Y214012D01*
X320675Y213912D01*
X320675Y210102D01*
X315595Y210102D01*
X315595Y216452D01*
D23*
X342900Y264668D03*
X342900Y192532D03*
D13*
X281939Y367151D02*
X282572Y367219D01*
X283202Y367302D01*
X283830Y367401D01*
X284456Y367514D01*
X285078Y367642D01*
X285698Y367784D01*
X286314Y367942D01*
X286926Y368114D01*
X287534Y368301D01*
X288137Y368502D01*
X288735Y368717D01*
X289328Y368947D01*
X289915Y369190D01*
X290496Y369448D01*
X291071Y369719D01*
X291640Y370004D01*
X292201Y370303D01*
X292755Y370615D01*
X293302Y370940D01*
X293840Y371277D01*
X294370Y371628D01*
X294892Y371991D01*
X295405Y372367D01*
X295909Y372754D01*
X281940Y367151D02*
X281291Y367097D01*
X280642Y367059D01*
X279991Y367037D01*
X279340Y367030D01*
X278689Y367039D01*
X278039Y367065D01*
X277389Y367106D01*
X276741Y367163D01*
X276094Y367236D01*
X275449Y367324D01*
X274806Y367429D01*
X274166Y367549D01*
X273530Y367684D01*
X272896Y367835D01*
X272267Y368002D01*
X271642Y368183D01*
X271021Y368380D01*
X270406Y368592D01*
X269796Y368819D01*
X269191Y369061D01*
X268593Y369318D01*
X268001Y369589D01*
X267416Y369874D01*
X266838Y370174D01*
X266268Y370487D01*
X265705Y370815D01*
X265151Y371156D01*
X264605Y371510D01*
X264068Y371878D01*
X263539Y372259D01*
X263021Y372652D01*
X262512Y373058D01*
X262013Y373476D01*
X261525Y373907D01*
X261047Y374349D01*
X260580Y374803D01*
X260125Y375268D01*
X259681Y375744D01*
X259248Y376230D01*
X258828Y376727D01*
X258420Y377234D01*
X258024Y377751D01*
X257641Y378278D01*
X257271Y378814D01*
X256914Y379358D01*
X256571Y379911D01*
X256241Y380472D01*
X255925Y381042D01*
X255623Y381618D01*
X255336Y382202D01*
X255062Y382793D01*
X254803Y383390D01*
X254559Y383994D01*
X254329Y384603D01*
X254115Y385217D01*
X253915Y385837D01*
X253915Y401563D02*
X254114Y402178D01*
X254326Y402789D01*
X254554Y403394D01*
X254796Y403993D01*
X255053Y404586D01*
X255324Y405173D01*
X255609Y405753D01*
X255908Y406326D01*
X256221Y406892D01*
X256548Y407450D01*
X256888Y408000D01*
X257241Y408541D01*
X257607Y409074D01*
X257986Y409597D01*
X258378Y410112D01*
X258781Y410616D01*
X259198Y411111D01*
X259625Y411596D01*
X260065Y412070D01*
X260516Y412533D01*
X260978Y412985D01*
X261451Y413426D01*
X261934Y413855D01*
X262428Y414272D01*
X262931Y414678D01*
X263444Y415071D01*
X263967Y415451D01*
X264499Y415819D01*
X265039Y416173D01*
X265588Y416515D01*
X266145Y416843D01*
X266710Y417157D01*
X267282Y417458D01*
X267861Y417745D01*
X268448Y418017D01*
X269040Y418276D01*
X269639Y418519D01*
X270243Y418749D01*
X270853Y418963D01*
X271468Y419163D01*
X272087Y419348D01*
X272711Y419518D01*
X273339Y419672D01*
X273970Y419811D01*
X274604Y419935D01*
X275242Y420044D01*
X275881Y420137D01*
X276523Y420214D01*
X277166Y420276D01*
X277811Y420323D01*
X278457Y420353D01*
X279103Y420368D01*
X279749Y420368D01*
X280396Y420351D01*
X281041Y420319D01*
X281686Y420272D01*
X282329Y420209D01*
X282971Y420130D01*
X283610Y420036D01*
X284247Y419926D01*
X284882Y419801D01*
X285513Y419660D01*
X286140Y419504D01*
X286763Y419333D01*
X287382Y419147D01*
X287997Y418946D01*
X288606Y418731D01*
X289210Y418500D01*
X289808Y418255D01*
X290400Y417996D01*
X290986Y417722D01*
X291565Y417434D01*
X292136Y417132D01*
X292701Y416817D01*
X293257Y416488D01*
X293805Y416145D01*
X294345Y415789D01*
X294876Y415421D01*
X295398Y415039D01*
X295910Y414645D01*
X295910Y372755D01*
X281940Y371163D02*
X281940Y367151D01*
X281940Y390837D02*
X281940Y396563D01*
X281940Y416237D02*
X281940Y420249D01*
X272415Y429260D02*
X260985Y429260D01*
X260985Y426085D02*
X260985Y432435D01*
X263525Y436753D02*
X260985Y439928D01*
X272415Y439928D01*
X272415Y436753D02*
X272415Y443103D01*
D10*
X111760Y304800D02*
X97790Y304800D01*
X36830Y304800D02*
X36830Y406400D01*
X54610Y406400D01*
X111760Y406400D02*
X111760Y304800D01*
X45720Y304800D02*
X44450Y299720D01*
X45720Y304800D02*
X36830Y304800D01*
X44450Y299720D02*
X55880Y299720D01*
X54610Y304800D01*
X45720Y304800D01*
X54610Y304800D02*
X54610Y406400D01*
X97790Y406400D01*
X97790Y304800D01*
X54610Y304800D01*
X97790Y406400D02*
X111760Y406400D01*
X40640Y380746D02*
X40642Y380888D01*
X40648Y381031D01*
X40658Y381173D01*
X40672Y381315D01*
X40690Y381456D01*
X40712Y381597D01*
X40738Y381737D01*
X40767Y381876D01*
X40801Y382015D01*
X40839Y382152D01*
X40880Y382289D01*
X40925Y382424D01*
X40974Y382558D01*
X41027Y382690D01*
X41083Y382821D01*
X41143Y382950D01*
X41207Y383078D01*
X41274Y383203D01*
X41345Y383327D01*
X41419Y383449D01*
X41496Y383568D01*
X41577Y383686D01*
X41661Y383801D01*
X41748Y383913D01*
X41839Y384023D01*
X41932Y384131D01*
X42029Y384236D01*
X42128Y384338D01*
X42230Y384437D01*
X42335Y384534D01*
X42443Y384627D01*
X42553Y384718D01*
X42665Y384805D01*
X42780Y384889D01*
X42898Y384970D01*
X43017Y385047D01*
X43139Y385121D01*
X43263Y385192D01*
X43388Y385259D01*
X43516Y385323D01*
X43645Y385383D01*
X43776Y385439D01*
X43908Y385492D01*
X44042Y385541D01*
X44177Y385586D01*
X44314Y385627D01*
X44451Y385665D01*
X44590Y385699D01*
X44729Y385728D01*
X44869Y385754D01*
X45010Y385776D01*
X45151Y385794D01*
X45293Y385808D01*
X45435Y385818D01*
X45578Y385824D01*
X45720Y385826D01*
X45862Y385824D01*
X46005Y385818D01*
X46147Y385808D01*
X46289Y385794D01*
X46430Y385776D01*
X46571Y385754D01*
X46711Y385728D01*
X46850Y385699D01*
X46989Y385665D01*
X47126Y385627D01*
X47263Y385586D01*
X47398Y385541D01*
X47532Y385492D01*
X47664Y385439D01*
X47795Y385383D01*
X47924Y385323D01*
X48052Y385259D01*
X48177Y385192D01*
X48301Y385121D01*
X48423Y385047D01*
X48542Y384970D01*
X48660Y384889D01*
X48775Y384805D01*
X48887Y384718D01*
X48997Y384627D01*
X49105Y384534D01*
X49210Y384437D01*
X49312Y384338D01*
X49411Y384236D01*
X49508Y384131D01*
X49601Y384023D01*
X49692Y383913D01*
X49779Y383801D01*
X49863Y383686D01*
X49944Y383568D01*
X50021Y383449D01*
X50095Y383327D01*
X50166Y383203D01*
X50233Y383078D01*
X50297Y382950D01*
X50357Y382821D01*
X50413Y382690D01*
X50466Y382558D01*
X50515Y382424D01*
X50560Y382289D01*
X50601Y382152D01*
X50639Y382015D01*
X50673Y381876D01*
X50702Y381737D01*
X50728Y381597D01*
X50750Y381456D01*
X50768Y381315D01*
X50782Y381173D01*
X50792Y381031D01*
X50798Y380888D01*
X50800Y380746D01*
X50798Y380604D01*
X50792Y380461D01*
X50782Y380319D01*
X50768Y380177D01*
X50750Y380036D01*
X50728Y379895D01*
X50702Y379755D01*
X50673Y379616D01*
X50639Y379477D01*
X50601Y379340D01*
X50560Y379203D01*
X50515Y379068D01*
X50466Y378934D01*
X50413Y378802D01*
X50357Y378671D01*
X50297Y378542D01*
X50233Y378414D01*
X50166Y378289D01*
X50095Y378165D01*
X50021Y378043D01*
X49944Y377924D01*
X49863Y377806D01*
X49779Y377691D01*
X49692Y377579D01*
X49601Y377469D01*
X49508Y377361D01*
X49411Y377256D01*
X49312Y377154D01*
X49210Y377055D01*
X49105Y376958D01*
X48997Y376865D01*
X48887Y376774D01*
X48775Y376687D01*
X48660Y376603D01*
X48542Y376522D01*
X48423Y376445D01*
X48301Y376371D01*
X48177Y376300D01*
X48052Y376233D01*
X47924Y376169D01*
X47795Y376109D01*
X47664Y376053D01*
X47532Y376000D01*
X47398Y375951D01*
X47263Y375906D01*
X47126Y375865D01*
X46989Y375827D01*
X46850Y375793D01*
X46711Y375764D01*
X46571Y375738D01*
X46430Y375716D01*
X46289Y375698D01*
X46147Y375684D01*
X46005Y375674D01*
X45862Y375668D01*
X45720Y375666D01*
X45578Y375668D01*
X45435Y375674D01*
X45293Y375684D01*
X45151Y375698D01*
X45010Y375716D01*
X44869Y375738D01*
X44729Y375764D01*
X44590Y375793D01*
X44451Y375827D01*
X44314Y375865D01*
X44177Y375906D01*
X44042Y375951D01*
X43908Y376000D01*
X43776Y376053D01*
X43645Y376109D01*
X43516Y376169D01*
X43388Y376233D01*
X43263Y376300D01*
X43139Y376371D01*
X43017Y376445D01*
X42898Y376522D01*
X42780Y376603D01*
X42665Y376687D01*
X42553Y376774D01*
X42443Y376865D01*
X42335Y376958D01*
X42230Y377055D01*
X42128Y377154D01*
X42029Y377256D01*
X41932Y377361D01*
X41839Y377469D01*
X41748Y377579D01*
X41661Y377691D01*
X41577Y377806D01*
X41496Y377924D01*
X41419Y378043D01*
X41345Y378165D01*
X41274Y378289D01*
X41207Y378414D01*
X41143Y378542D01*
X41083Y378671D01*
X41027Y378802D01*
X40974Y378934D01*
X40925Y379068D01*
X40880Y379203D01*
X40839Y379340D01*
X40801Y379477D01*
X40767Y379616D01*
X40738Y379755D01*
X40712Y379895D01*
X40690Y380036D01*
X40672Y380177D01*
X40658Y380319D01*
X40648Y380461D01*
X40642Y380604D01*
X40640Y380746D01*
X40640Y330454D02*
X40642Y330596D01*
X40648Y330739D01*
X40658Y330881D01*
X40672Y331023D01*
X40690Y331164D01*
X40712Y331305D01*
X40738Y331445D01*
X40767Y331584D01*
X40801Y331723D01*
X40839Y331860D01*
X40880Y331997D01*
X40925Y332132D01*
X40974Y332266D01*
X41027Y332398D01*
X41083Y332529D01*
X41143Y332658D01*
X41207Y332786D01*
X41274Y332911D01*
X41345Y333035D01*
X41419Y333157D01*
X41496Y333276D01*
X41577Y333394D01*
X41661Y333509D01*
X41748Y333621D01*
X41839Y333731D01*
X41932Y333839D01*
X42029Y333944D01*
X42128Y334046D01*
X42230Y334145D01*
X42335Y334242D01*
X42443Y334335D01*
X42553Y334426D01*
X42665Y334513D01*
X42780Y334597D01*
X42898Y334678D01*
X43017Y334755D01*
X43139Y334829D01*
X43263Y334900D01*
X43388Y334967D01*
X43516Y335031D01*
X43645Y335091D01*
X43776Y335147D01*
X43908Y335200D01*
X44042Y335249D01*
X44177Y335294D01*
X44314Y335335D01*
X44451Y335373D01*
X44590Y335407D01*
X44729Y335436D01*
X44869Y335462D01*
X45010Y335484D01*
X45151Y335502D01*
X45293Y335516D01*
X45435Y335526D01*
X45578Y335532D01*
X45720Y335534D01*
X45862Y335532D01*
X46005Y335526D01*
X46147Y335516D01*
X46289Y335502D01*
X46430Y335484D01*
X46571Y335462D01*
X46711Y335436D01*
X46850Y335407D01*
X46989Y335373D01*
X47126Y335335D01*
X47263Y335294D01*
X47398Y335249D01*
X47532Y335200D01*
X47664Y335147D01*
X47795Y335091D01*
X47924Y335031D01*
X48052Y334967D01*
X48177Y334900D01*
X48301Y334829D01*
X48423Y334755D01*
X48542Y334678D01*
X48660Y334597D01*
X48775Y334513D01*
X48887Y334426D01*
X48997Y334335D01*
X49105Y334242D01*
X49210Y334145D01*
X49312Y334046D01*
X49411Y333944D01*
X49508Y333839D01*
X49601Y333731D01*
X49692Y333621D01*
X49779Y333509D01*
X49863Y333394D01*
X49944Y333276D01*
X50021Y333157D01*
X50095Y333035D01*
X50166Y332911D01*
X50233Y332786D01*
X50297Y332658D01*
X50357Y332529D01*
X50413Y332398D01*
X50466Y332266D01*
X50515Y332132D01*
X50560Y331997D01*
X50601Y331860D01*
X50639Y331723D01*
X50673Y331584D01*
X50702Y331445D01*
X50728Y331305D01*
X50750Y331164D01*
X50768Y331023D01*
X50782Y330881D01*
X50792Y330739D01*
X50798Y330596D01*
X50800Y330454D01*
X50798Y330312D01*
X50792Y330169D01*
X50782Y330027D01*
X50768Y329885D01*
X50750Y329744D01*
X50728Y329603D01*
X50702Y329463D01*
X50673Y329324D01*
X50639Y329185D01*
X50601Y329048D01*
X50560Y328911D01*
X50515Y328776D01*
X50466Y328642D01*
X50413Y328510D01*
X50357Y328379D01*
X50297Y328250D01*
X50233Y328122D01*
X50166Y327997D01*
X50095Y327873D01*
X50021Y327751D01*
X49944Y327632D01*
X49863Y327514D01*
X49779Y327399D01*
X49692Y327287D01*
X49601Y327177D01*
X49508Y327069D01*
X49411Y326964D01*
X49312Y326862D01*
X49210Y326763D01*
X49105Y326666D01*
X48997Y326573D01*
X48887Y326482D01*
X48775Y326395D01*
X48660Y326311D01*
X48542Y326230D01*
X48423Y326153D01*
X48301Y326079D01*
X48177Y326008D01*
X48052Y325941D01*
X47924Y325877D01*
X47795Y325817D01*
X47664Y325761D01*
X47532Y325708D01*
X47398Y325659D01*
X47263Y325614D01*
X47126Y325573D01*
X46989Y325535D01*
X46850Y325501D01*
X46711Y325472D01*
X46571Y325446D01*
X46430Y325424D01*
X46289Y325406D01*
X46147Y325392D01*
X46005Y325382D01*
X45862Y325376D01*
X45720Y325374D01*
X45578Y325376D01*
X45435Y325382D01*
X45293Y325392D01*
X45151Y325406D01*
X45010Y325424D01*
X44869Y325446D01*
X44729Y325472D01*
X44590Y325501D01*
X44451Y325535D01*
X44314Y325573D01*
X44177Y325614D01*
X44042Y325659D01*
X43908Y325708D01*
X43776Y325761D01*
X43645Y325817D01*
X43516Y325877D01*
X43388Y325941D01*
X43263Y326008D01*
X43139Y326079D01*
X43017Y326153D01*
X42898Y326230D01*
X42780Y326311D01*
X42665Y326395D01*
X42553Y326482D01*
X42443Y326573D01*
X42335Y326666D01*
X42230Y326763D01*
X42128Y326862D01*
X42029Y326964D01*
X41932Y327069D01*
X41839Y327177D01*
X41748Y327287D01*
X41661Y327399D01*
X41577Y327514D01*
X41496Y327632D01*
X41419Y327751D01*
X41345Y327873D01*
X41274Y327997D01*
X41207Y328122D01*
X41143Y328250D01*
X41083Y328379D01*
X41027Y328510D01*
X40974Y328642D01*
X40925Y328776D01*
X40880Y328911D01*
X40839Y329048D01*
X40801Y329185D01*
X40767Y329324D01*
X40738Y329463D01*
X40712Y329603D01*
X40690Y329744D01*
X40672Y329885D01*
X40658Y330027D01*
X40648Y330169D01*
X40642Y330312D01*
X40640Y330454D01*
D13*
X41529Y314184D02*
X43448Y311785D01*
X41529Y314184D02*
X50165Y314184D01*
X50165Y311785D02*
X50165Y316583D01*
X41529Y365224D02*
X41531Y365316D01*
X41537Y365407D01*
X41546Y365498D01*
X41560Y365589D01*
X41577Y365679D01*
X41599Y365768D01*
X41624Y365856D01*
X41652Y365943D01*
X41685Y366029D01*
X41721Y366113D01*
X41760Y366196D01*
X41803Y366277D01*
X41850Y366356D01*
X41899Y366433D01*
X41952Y366508D01*
X42008Y366580D01*
X42067Y366650D01*
X42129Y366718D01*
X42194Y366783D01*
X42262Y366845D01*
X42332Y366904D01*
X42404Y366960D01*
X42479Y367013D01*
X42556Y367062D01*
X42635Y367109D01*
X42716Y367152D01*
X42799Y367191D01*
X42883Y367227D01*
X42969Y367260D01*
X43056Y367288D01*
X43144Y367313D01*
X43233Y367335D01*
X43323Y367352D01*
X43414Y367366D01*
X43505Y367375D01*
X43596Y367381D01*
X43688Y367383D01*
X41529Y365224D02*
X41531Y365121D01*
X41537Y365019D01*
X41546Y364917D01*
X41559Y364815D01*
X41576Y364714D01*
X41597Y364613D01*
X41621Y364514D01*
X41650Y364415D01*
X41681Y364318D01*
X41717Y364221D01*
X41755Y364126D01*
X41798Y364033D01*
X41844Y363941D01*
X41893Y363851D01*
X41945Y363763D01*
X42001Y363676D01*
X42060Y363592D01*
X42121Y363511D01*
X42186Y363431D01*
X42254Y363354D01*
X42325Y363279D01*
X42398Y363208D01*
X42474Y363139D01*
X42552Y363072D01*
X42633Y363009D01*
X42716Y362949D01*
X42801Y362892D01*
X42888Y362838D01*
X42978Y362787D01*
X43069Y362740D01*
X43161Y362696D01*
X43256Y362655D01*
X43351Y362618D01*
X43448Y362585D01*
X45367Y366663D02*
X45301Y366730D01*
X45232Y366794D01*
X45161Y366855D01*
X45087Y366913D01*
X45011Y366968D01*
X44933Y367020D01*
X44853Y367069D01*
X44771Y367115D01*
X44687Y367157D01*
X44601Y367196D01*
X44514Y367231D01*
X44426Y367262D01*
X44336Y367290D01*
X44246Y367315D01*
X44154Y367336D01*
X44062Y367353D01*
X43969Y367366D01*
X43876Y367375D01*
X43782Y367381D01*
X43688Y367383D01*
X45367Y366663D02*
X50165Y362585D01*
X50165Y367383D01*
D24*
X76200Y355600D03*
D20*
X14859Y310134D02*
X18415Y305689D01*
X14859Y310134D02*
X30861Y310134D01*
X30861Y305689D02*
X30861Y314579D01*
X18860Y330211D02*
X18734Y330209D01*
X18609Y330203D01*
X18483Y330193D01*
X18359Y330179D01*
X18234Y330162D01*
X18110Y330140D01*
X17987Y330115D01*
X17865Y330085D01*
X17744Y330052D01*
X17624Y330015D01*
X17505Y329974D01*
X17387Y329930D01*
X17271Y329882D01*
X17156Y329830D01*
X17044Y329775D01*
X16933Y329716D01*
X16823Y329654D01*
X16716Y329588D01*
X16611Y329519D01*
X16508Y329447D01*
X16408Y329371D01*
X16310Y329293D01*
X16214Y329211D01*
X16121Y329127D01*
X16031Y329039D01*
X15943Y328949D01*
X15859Y328856D01*
X15777Y328760D01*
X15699Y328662D01*
X15623Y328562D01*
X15551Y328459D01*
X15482Y328354D01*
X15416Y328247D01*
X15354Y328137D01*
X15295Y328026D01*
X15240Y327914D01*
X15188Y327799D01*
X15140Y327683D01*
X15096Y327565D01*
X15055Y327446D01*
X15018Y327326D01*
X14985Y327205D01*
X14955Y327083D01*
X14930Y326960D01*
X14908Y326836D01*
X14891Y326711D01*
X14877Y326587D01*
X14867Y326461D01*
X14861Y326336D01*
X14859Y326210D01*
X14861Y326069D01*
X14867Y325929D01*
X14876Y325789D01*
X14890Y325649D01*
X14907Y325510D01*
X14928Y325371D01*
X14953Y325232D01*
X14981Y325095D01*
X15014Y324958D01*
X15050Y324822D01*
X15090Y324687D01*
X15133Y324554D01*
X15180Y324421D01*
X15231Y324290D01*
X15285Y324161D01*
X15343Y324033D01*
X15404Y323906D01*
X15469Y323781D01*
X15537Y323659D01*
X15608Y323538D01*
X15683Y323418D01*
X15761Y323302D01*
X15842Y323187D01*
X15926Y323074D01*
X16014Y322964D01*
X16104Y322856D01*
X16197Y322751D01*
X16293Y322649D01*
X16392Y322549D01*
X16493Y322451D01*
X16597Y322357D01*
X16704Y322265D01*
X16813Y322177D01*
X16924Y322091D01*
X17038Y322009D01*
X17154Y321929D01*
X17272Y321853D01*
X17392Y321780D01*
X17514Y321711D01*
X17638Y321644D01*
X17764Y321581D01*
X17891Y321522D01*
X18020Y321466D01*
X18150Y321414D01*
X18282Y321365D01*
X18415Y321320D01*
X21972Y328876D02*
X21881Y328968D01*
X21788Y329058D01*
X21693Y329144D01*
X21595Y329228D01*
X21494Y329308D01*
X21391Y329386D01*
X21286Y329460D01*
X21178Y329531D01*
X21069Y329599D01*
X20957Y329663D01*
X20844Y329725D01*
X20729Y329782D01*
X20612Y329837D01*
X20493Y329888D01*
X20373Y329935D01*
X20252Y329978D01*
X20130Y330018D01*
X20006Y330054D01*
X19881Y330087D01*
X19756Y330116D01*
X19629Y330141D01*
X19502Y330162D01*
X19374Y330179D01*
X19246Y330193D01*
X19118Y330202D01*
X18989Y330208D01*
X18860Y330210D01*
X21971Y328877D02*
X30861Y321320D01*
X30861Y330210D01*
X30861Y341397D02*
X14859Y336063D01*
X14859Y346731D02*
X30861Y341397D01*
X30861Y356095D02*
X30861Y359651D01*
X30861Y356095D02*
X30859Y355979D01*
X30853Y355862D01*
X30844Y355746D01*
X30831Y355631D01*
X30814Y355516D01*
X30793Y355401D01*
X30768Y355288D01*
X30740Y355175D01*
X30708Y355063D01*
X30672Y354952D01*
X30633Y354842D01*
X30590Y354734D01*
X30544Y354627D01*
X30494Y354522D01*
X30441Y354419D01*
X30385Y354317D01*
X30325Y354217D01*
X30262Y354119D01*
X30195Y354024D01*
X30126Y353930D01*
X30054Y353839D01*
X29979Y353750D01*
X29900Y353664D01*
X29819Y353581D01*
X29736Y353500D01*
X29650Y353421D01*
X29561Y353346D01*
X29470Y353274D01*
X29376Y353205D01*
X29281Y353138D01*
X29183Y353075D01*
X29083Y353015D01*
X28981Y352959D01*
X28878Y352906D01*
X28773Y352856D01*
X28666Y352810D01*
X28558Y352767D01*
X28448Y352728D01*
X28337Y352692D01*
X28225Y352660D01*
X28112Y352632D01*
X27999Y352607D01*
X27884Y352586D01*
X27769Y352569D01*
X27654Y352556D01*
X27538Y352547D01*
X27421Y352541D01*
X27305Y352539D01*
X18415Y352539D01*
X18299Y352541D01*
X18182Y352547D01*
X18066Y352556D01*
X17951Y352569D01*
X17836Y352586D01*
X17721Y352607D01*
X17608Y352632D01*
X17495Y352660D01*
X17383Y352692D01*
X17272Y352728D01*
X17162Y352767D01*
X17054Y352810D01*
X16947Y352856D01*
X16842Y352906D01*
X16739Y352959D01*
X16637Y353015D01*
X16537Y353075D01*
X16439Y353138D01*
X16344Y353205D01*
X16250Y353274D01*
X16159Y353346D01*
X16070Y353421D01*
X15984Y353500D01*
X15901Y353581D01*
X15820Y353664D01*
X15741Y353750D01*
X15666Y353839D01*
X15594Y353930D01*
X15525Y354024D01*
X15458Y354119D01*
X15395Y354217D01*
X15335Y354317D01*
X15279Y354419D01*
X15226Y354522D01*
X15176Y354627D01*
X15130Y354734D01*
X15087Y354842D01*
X15048Y354952D01*
X15012Y355063D01*
X14980Y355175D01*
X14952Y355288D01*
X14927Y355401D01*
X14906Y355516D01*
X14889Y355631D01*
X14876Y355746D01*
X14867Y355862D01*
X14861Y355979D01*
X14859Y356095D01*
X14859Y359651D01*
X14859Y366130D02*
X30861Y366130D01*
X14859Y366130D02*
X14859Y370575D01*
X14861Y370707D01*
X14867Y370838D01*
X14877Y370970D01*
X14890Y371101D01*
X14908Y371231D01*
X14929Y371361D01*
X14954Y371491D01*
X14983Y371619D01*
X15016Y371747D01*
X15053Y371873D01*
X15093Y371999D01*
X15137Y372123D01*
X15185Y372246D01*
X15236Y372367D01*
X15291Y372487D01*
X15349Y372605D01*
X15411Y372721D01*
X15477Y372835D01*
X15545Y372948D01*
X15617Y373058D01*
X15692Y373166D01*
X15771Y373272D01*
X15852Y373376D01*
X15937Y373477D01*
X16024Y373575D01*
X16115Y373671D01*
X16208Y373764D01*
X16304Y373855D01*
X16402Y373942D01*
X16503Y374027D01*
X16607Y374108D01*
X16713Y374187D01*
X16821Y374262D01*
X16931Y374334D01*
X17044Y374402D01*
X17158Y374468D01*
X17274Y374530D01*
X17392Y374588D01*
X17512Y374643D01*
X17633Y374694D01*
X17756Y374742D01*
X17880Y374786D01*
X18006Y374826D01*
X18132Y374863D01*
X18260Y374896D01*
X18388Y374925D01*
X18518Y374950D01*
X18648Y374971D01*
X18778Y374989D01*
X18909Y375002D01*
X19041Y375012D01*
X19172Y375018D01*
X19304Y375020D01*
X26416Y375020D01*
X26548Y375018D01*
X26679Y375012D01*
X26811Y375002D01*
X26942Y374989D01*
X27072Y374971D01*
X27202Y374950D01*
X27332Y374925D01*
X27460Y374896D01*
X27588Y374863D01*
X27714Y374826D01*
X27840Y374786D01*
X27964Y374742D01*
X28087Y374694D01*
X28208Y374643D01*
X28328Y374588D01*
X28446Y374530D01*
X28562Y374468D01*
X28676Y374402D01*
X28789Y374334D01*
X28899Y374262D01*
X29007Y374187D01*
X29113Y374108D01*
X29217Y374027D01*
X29318Y373942D01*
X29416Y373855D01*
X29512Y373764D01*
X29605Y373671D01*
X29696Y373575D01*
X29783Y373477D01*
X29868Y373376D01*
X29949Y373272D01*
X30028Y373166D01*
X30103Y373058D01*
X30175Y372948D01*
X30243Y372835D01*
X30309Y372721D01*
X30371Y372605D01*
X30429Y372487D01*
X30484Y372367D01*
X30535Y372246D01*
X30583Y372123D01*
X30627Y371999D01*
X30667Y371873D01*
X30704Y371747D01*
X30737Y371619D01*
X30766Y371491D01*
X30791Y371361D01*
X30812Y371231D01*
X30830Y371101D01*
X30843Y370970D01*
X30853Y370838D01*
X30859Y370707D01*
X30861Y370575D01*
X30861Y366130D01*
D10*
X97790Y203200D02*
X111760Y203200D01*
X36830Y203200D02*
X36830Y304800D01*
X54610Y304800D01*
X111760Y304800D02*
X111760Y203200D01*
X45720Y203200D02*
X44450Y198120D01*
X45720Y203200D02*
X36830Y203200D01*
X44450Y198120D02*
X55880Y198120D01*
X54610Y203200D01*
X45720Y203200D01*
X54610Y203200D02*
X54610Y304800D01*
X97790Y304800D01*
X97790Y203200D01*
X54610Y203200D01*
X97790Y304800D02*
X111760Y304800D01*
X40640Y279146D02*
X40642Y279288D01*
X40648Y279431D01*
X40658Y279573D01*
X40672Y279715D01*
X40690Y279856D01*
X40712Y279997D01*
X40738Y280137D01*
X40767Y280276D01*
X40801Y280415D01*
X40839Y280552D01*
X40880Y280689D01*
X40925Y280824D01*
X40974Y280958D01*
X41027Y281090D01*
X41083Y281221D01*
X41143Y281350D01*
X41207Y281478D01*
X41274Y281603D01*
X41345Y281727D01*
X41419Y281849D01*
X41496Y281968D01*
X41577Y282086D01*
X41661Y282201D01*
X41748Y282313D01*
X41839Y282423D01*
X41932Y282531D01*
X42029Y282636D01*
X42128Y282738D01*
X42230Y282837D01*
X42335Y282934D01*
X42443Y283027D01*
X42553Y283118D01*
X42665Y283205D01*
X42780Y283289D01*
X42898Y283370D01*
X43017Y283447D01*
X43139Y283521D01*
X43263Y283592D01*
X43388Y283659D01*
X43516Y283723D01*
X43645Y283783D01*
X43776Y283839D01*
X43908Y283892D01*
X44042Y283941D01*
X44177Y283986D01*
X44314Y284027D01*
X44451Y284065D01*
X44590Y284099D01*
X44729Y284128D01*
X44869Y284154D01*
X45010Y284176D01*
X45151Y284194D01*
X45293Y284208D01*
X45435Y284218D01*
X45578Y284224D01*
X45720Y284226D01*
X45862Y284224D01*
X46005Y284218D01*
X46147Y284208D01*
X46289Y284194D01*
X46430Y284176D01*
X46571Y284154D01*
X46711Y284128D01*
X46850Y284099D01*
X46989Y284065D01*
X47126Y284027D01*
X47263Y283986D01*
X47398Y283941D01*
X47532Y283892D01*
X47664Y283839D01*
X47795Y283783D01*
X47924Y283723D01*
X48052Y283659D01*
X48177Y283592D01*
X48301Y283521D01*
X48423Y283447D01*
X48542Y283370D01*
X48660Y283289D01*
X48775Y283205D01*
X48887Y283118D01*
X48997Y283027D01*
X49105Y282934D01*
X49210Y282837D01*
X49312Y282738D01*
X49411Y282636D01*
X49508Y282531D01*
X49601Y282423D01*
X49692Y282313D01*
X49779Y282201D01*
X49863Y282086D01*
X49944Y281968D01*
X50021Y281849D01*
X50095Y281727D01*
X50166Y281603D01*
X50233Y281478D01*
X50297Y281350D01*
X50357Y281221D01*
X50413Y281090D01*
X50466Y280958D01*
X50515Y280824D01*
X50560Y280689D01*
X50601Y280552D01*
X50639Y280415D01*
X50673Y280276D01*
X50702Y280137D01*
X50728Y279997D01*
X50750Y279856D01*
X50768Y279715D01*
X50782Y279573D01*
X50792Y279431D01*
X50798Y279288D01*
X50800Y279146D01*
X50798Y279004D01*
X50792Y278861D01*
X50782Y278719D01*
X50768Y278577D01*
X50750Y278436D01*
X50728Y278295D01*
X50702Y278155D01*
X50673Y278016D01*
X50639Y277877D01*
X50601Y277740D01*
X50560Y277603D01*
X50515Y277468D01*
X50466Y277334D01*
X50413Y277202D01*
X50357Y277071D01*
X50297Y276942D01*
X50233Y276814D01*
X50166Y276689D01*
X50095Y276565D01*
X50021Y276443D01*
X49944Y276324D01*
X49863Y276206D01*
X49779Y276091D01*
X49692Y275979D01*
X49601Y275869D01*
X49508Y275761D01*
X49411Y275656D01*
X49312Y275554D01*
X49210Y275455D01*
X49105Y275358D01*
X48997Y275265D01*
X48887Y275174D01*
X48775Y275087D01*
X48660Y275003D01*
X48542Y274922D01*
X48423Y274845D01*
X48301Y274771D01*
X48177Y274700D01*
X48052Y274633D01*
X47924Y274569D01*
X47795Y274509D01*
X47664Y274453D01*
X47532Y274400D01*
X47398Y274351D01*
X47263Y274306D01*
X47126Y274265D01*
X46989Y274227D01*
X46850Y274193D01*
X46711Y274164D01*
X46571Y274138D01*
X46430Y274116D01*
X46289Y274098D01*
X46147Y274084D01*
X46005Y274074D01*
X45862Y274068D01*
X45720Y274066D01*
X45578Y274068D01*
X45435Y274074D01*
X45293Y274084D01*
X45151Y274098D01*
X45010Y274116D01*
X44869Y274138D01*
X44729Y274164D01*
X44590Y274193D01*
X44451Y274227D01*
X44314Y274265D01*
X44177Y274306D01*
X44042Y274351D01*
X43908Y274400D01*
X43776Y274453D01*
X43645Y274509D01*
X43516Y274569D01*
X43388Y274633D01*
X43263Y274700D01*
X43139Y274771D01*
X43017Y274845D01*
X42898Y274922D01*
X42780Y275003D01*
X42665Y275087D01*
X42553Y275174D01*
X42443Y275265D01*
X42335Y275358D01*
X42230Y275455D01*
X42128Y275554D01*
X42029Y275656D01*
X41932Y275761D01*
X41839Y275869D01*
X41748Y275979D01*
X41661Y276091D01*
X41577Y276206D01*
X41496Y276324D01*
X41419Y276443D01*
X41345Y276565D01*
X41274Y276689D01*
X41207Y276814D01*
X41143Y276942D01*
X41083Y277071D01*
X41027Y277202D01*
X40974Y277334D01*
X40925Y277468D01*
X40880Y277603D01*
X40839Y277740D01*
X40801Y277877D01*
X40767Y278016D01*
X40738Y278155D01*
X40712Y278295D01*
X40690Y278436D01*
X40672Y278577D01*
X40658Y278719D01*
X40648Y278861D01*
X40642Y279004D01*
X40640Y279146D01*
X40640Y228854D02*
X40642Y228996D01*
X40648Y229139D01*
X40658Y229281D01*
X40672Y229423D01*
X40690Y229564D01*
X40712Y229705D01*
X40738Y229845D01*
X40767Y229984D01*
X40801Y230123D01*
X40839Y230260D01*
X40880Y230397D01*
X40925Y230532D01*
X40974Y230666D01*
X41027Y230798D01*
X41083Y230929D01*
X41143Y231058D01*
X41207Y231186D01*
X41274Y231311D01*
X41345Y231435D01*
X41419Y231557D01*
X41496Y231676D01*
X41577Y231794D01*
X41661Y231909D01*
X41748Y232021D01*
X41839Y232131D01*
X41932Y232239D01*
X42029Y232344D01*
X42128Y232446D01*
X42230Y232545D01*
X42335Y232642D01*
X42443Y232735D01*
X42553Y232826D01*
X42665Y232913D01*
X42780Y232997D01*
X42898Y233078D01*
X43017Y233155D01*
X43139Y233229D01*
X43263Y233300D01*
X43388Y233367D01*
X43516Y233431D01*
X43645Y233491D01*
X43776Y233547D01*
X43908Y233600D01*
X44042Y233649D01*
X44177Y233694D01*
X44314Y233735D01*
X44451Y233773D01*
X44590Y233807D01*
X44729Y233836D01*
X44869Y233862D01*
X45010Y233884D01*
X45151Y233902D01*
X45293Y233916D01*
X45435Y233926D01*
X45578Y233932D01*
X45720Y233934D01*
X45862Y233932D01*
X46005Y233926D01*
X46147Y233916D01*
X46289Y233902D01*
X46430Y233884D01*
X46571Y233862D01*
X46711Y233836D01*
X46850Y233807D01*
X46989Y233773D01*
X47126Y233735D01*
X47263Y233694D01*
X47398Y233649D01*
X47532Y233600D01*
X47664Y233547D01*
X47795Y233491D01*
X47924Y233431D01*
X48052Y233367D01*
X48177Y233300D01*
X48301Y233229D01*
X48423Y233155D01*
X48542Y233078D01*
X48660Y232997D01*
X48775Y232913D01*
X48887Y232826D01*
X48997Y232735D01*
X49105Y232642D01*
X49210Y232545D01*
X49312Y232446D01*
X49411Y232344D01*
X49508Y232239D01*
X49601Y232131D01*
X49692Y232021D01*
X49779Y231909D01*
X49863Y231794D01*
X49944Y231676D01*
X50021Y231557D01*
X50095Y231435D01*
X50166Y231311D01*
X50233Y231186D01*
X50297Y231058D01*
X50357Y230929D01*
X50413Y230798D01*
X50466Y230666D01*
X50515Y230532D01*
X50560Y230397D01*
X50601Y230260D01*
X50639Y230123D01*
X50673Y229984D01*
X50702Y229845D01*
X50728Y229705D01*
X50750Y229564D01*
X50768Y229423D01*
X50782Y229281D01*
X50792Y229139D01*
X50798Y228996D01*
X50800Y228854D01*
X50798Y228712D01*
X50792Y228569D01*
X50782Y228427D01*
X50768Y228285D01*
X50750Y228144D01*
X50728Y228003D01*
X50702Y227863D01*
X50673Y227724D01*
X50639Y227585D01*
X50601Y227448D01*
X50560Y227311D01*
X50515Y227176D01*
X50466Y227042D01*
X50413Y226910D01*
X50357Y226779D01*
X50297Y226650D01*
X50233Y226522D01*
X50166Y226397D01*
X50095Y226273D01*
X50021Y226151D01*
X49944Y226032D01*
X49863Y225914D01*
X49779Y225799D01*
X49692Y225687D01*
X49601Y225577D01*
X49508Y225469D01*
X49411Y225364D01*
X49312Y225262D01*
X49210Y225163D01*
X49105Y225066D01*
X48997Y224973D01*
X48887Y224882D01*
X48775Y224795D01*
X48660Y224711D01*
X48542Y224630D01*
X48423Y224553D01*
X48301Y224479D01*
X48177Y224408D01*
X48052Y224341D01*
X47924Y224277D01*
X47795Y224217D01*
X47664Y224161D01*
X47532Y224108D01*
X47398Y224059D01*
X47263Y224014D01*
X47126Y223973D01*
X46989Y223935D01*
X46850Y223901D01*
X46711Y223872D01*
X46571Y223846D01*
X46430Y223824D01*
X46289Y223806D01*
X46147Y223792D01*
X46005Y223782D01*
X45862Y223776D01*
X45720Y223774D01*
X45578Y223776D01*
X45435Y223782D01*
X45293Y223792D01*
X45151Y223806D01*
X45010Y223824D01*
X44869Y223846D01*
X44729Y223872D01*
X44590Y223901D01*
X44451Y223935D01*
X44314Y223973D01*
X44177Y224014D01*
X44042Y224059D01*
X43908Y224108D01*
X43776Y224161D01*
X43645Y224217D01*
X43516Y224277D01*
X43388Y224341D01*
X43263Y224408D01*
X43139Y224479D01*
X43017Y224553D01*
X42898Y224630D01*
X42780Y224711D01*
X42665Y224795D01*
X42553Y224882D01*
X42443Y224973D01*
X42335Y225066D01*
X42230Y225163D01*
X42128Y225262D01*
X42029Y225364D01*
X41932Y225469D01*
X41839Y225577D01*
X41748Y225687D01*
X41661Y225799D01*
X41577Y225914D01*
X41496Y226032D01*
X41419Y226151D01*
X41345Y226273D01*
X41274Y226397D01*
X41207Y226522D01*
X41143Y226650D01*
X41083Y226779D01*
X41027Y226910D01*
X40974Y227042D01*
X40925Y227176D01*
X40880Y227311D01*
X40839Y227448D01*
X40801Y227585D01*
X40767Y227724D01*
X40738Y227863D01*
X40712Y228003D01*
X40690Y228144D01*
X40672Y228285D01*
X40658Y228427D01*
X40648Y228569D01*
X40642Y228712D01*
X40640Y228854D01*
D20*
X30861Y211201D02*
X30861Y204089D01*
X14859Y204089D01*
X14859Y211201D01*
X21971Y209423D02*
X21971Y204089D01*
X14859Y217603D02*
X30861Y217603D01*
X30861Y226493D02*
X14859Y217603D01*
X14859Y226493D02*
X30861Y226493D01*
X30861Y237158D02*
X14859Y237158D01*
X14859Y232713D02*
X14859Y241603D01*
D13*
X41529Y212584D02*
X43448Y210185D01*
X41529Y212584D02*
X50165Y212584D01*
X50165Y210185D02*
X50165Y214983D01*
X41529Y263624D02*
X41531Y263716D01*
X41537Y263807D01*
X41546Y263898D01*
X41560Y263989D01*
X41577Y264079D01*
X41599Y264168D01*
X41624Y264256D01*
X41652Y264343D01*
X41685Y264429D01*
X41721Y264513D01*
X41760Y264596D01*
X41803Y264677D01*
X41850Y264756D01*
X41899Y264833D01*
X41952Y264908D01*
X42008Y264980D01*
X42067Y265050D01*
X42129Y265118D01*
X42194Y265183D01*
X42262Y265245D01*
X42332Y265304D01*
X42404Y265360D01*
X42479Y265413D01*
X42556Y265462D01*
X42635Y265509D01*
X42716Y265552D01*
X42799Y265591D01*
X42883Y265627D01*
X42969Y265660D01*
X43056Y265688D01*
X43144Y265713D01*
X43233Y265735D01*
X43323Y265752D01*
X43414Y265766D01*
X43505Y265775D01*
X43596Y265781D01*
X43688Y265783D01*
X41529Y263624D02*
X41531Y263521D01*
X41537Y263419D01*
X41546Y263317D01*
X41559Y263215D01*
X41576Y263114D01*
X41597Y263013D01*
X41621Y262914D01*
X41650Y262815D01*
X41681Y262718D01*
X41717Y262621D01*
X41755Y262526D01*
X41798Y262433D01*
X41844Y262341D01*
X41893Y262251D01*
X41945Y262163D01*
X42001Y262076D01*
X42060Y261992D01*
X42121Y261911D01*
X42186Y261831D01*
X42254Y261754D01*
X42325Y261679D01*
X42398Y261608D01*
X42474Y261539D01*
X42552Y261472D01*
X42633Y261409D01*
X42716Y261349D01*
X42801Y261292D01*
X42888Y261238D01*
X42978Y261187D01*
X43069Y261140D01*
X43161Y261096D01*
X43256Y261055D01*
X43351Y261018D01*
X43448Y260985D01*
X45367Y265063D02*
X45301Y265130D01*
X45232Y265194D01*
X45161Y265255D01*
X45087Y265313D01*
X45011Y265368D01*
X44933Y265420D01*
X44853Y265469D01*
X44771Y265515D01*
X44687Y265557D01*
X44601Y265596D01*
X44514Y265631D01*
X44426Y265662D01*
X44336Y265690D01*
X44246Y265715D01*
X44154Y265736D01*
X44062Y265753D01*
X43969Y265766D01*
X43876Y265775D01*
X43782Y265781D01*
X43688Y265783D01*
X45367Y265063D02*
X50165Y260985D01*
X50165Y265783D01*
D24*
X76200Y254000D03*
D10*
X97790Y101600D02*
X111760Y101600D01*
X36830Y101600D02*
X36830Y203200D01*
X54610Y203200D01*
X111760Y203200D02*
X111760Y101600D01*
X45720Y101600D02*
X44450Y96520D01*
X45720Y101600D02*
X36830Y101600D01*
X44450Y96520D02*
X55880Y96520D01*
X54610Y101600D01*
X45720Y101600D01*
X54610Y101600D02*
X54610Y203200D01*
X97790Y203200D01*
X97790Y101600D01*
X54610Y101600D01*
X97790Y203200D02*
X111760Y203200D01*
X40640Y177546D02*
X40642Y177688D01*
X40648Y177831D01*
X40658Y177973D01*
X40672Y178115D01*
X40690Y178256D01*
X40712Y178397D01*
X40738Y178537D01*
X40767Y178676D01*
X40801Y178815D01*
X40839Y178952D01*
X40880Y179089D01*
X40925Y179224D01*
X40974Y179358D01*
X41027Y179490D01*
X41083Y179621D01*
X41143Y179750D01*
X41207Y179878D01*
X41274Y180003D01*
X41345Y180127D01*
X41419Y180249D01*
X41496Y180368D01*
X41577Y180486D01*
X41661Y180601D01*
X41748Y180713D01*
X41839Y180823D01*
X41932Y180931D01*
X42029Y181036D01*
X42128Y181138D01*
X42230Y181237D01*
X42335Y181334D01*
X42443Y181427D01*
X42553Y181518D01*
X42665Y181605D01*
X42780Y181689D01*
X42898Y181770D01*
X43017Y181847D01*
X43139Y181921D01*
X43263Y181992D01*
X43388Y182059D01*
X43516Y182123D01*
X43645Y182183D01*
X43776Y182239D01*
X43908Y182292D01*
X44042Y182341D01*
X44177Y182386D01*
X44314Y182427D01*
X44451Y182465D01*
X44590Y182499D01*
X44729Y182528D01*
X44869Y182554D01*
X45010Y182576D01*
X45151Y182594D01*
X45293Y182608D01*
X45435Y182618D01*
X45578Y182624D01*
X45720Y182626D01*
X45862Y182624D01*
X46005Y182618D01*
X46147Y182608D01*
X46289Y182594D01*
X46430Y182576D01*
X46571Y182554D01*
X46711Y182528D01*
X46850Y182499D01*
X46989Y182465D01*
X47126Y182427D01*
X47263Y182386D01*
X47398Y182341D01*
X47532Y182292D01*
X47664Y182239D01*
X47795Y182183D01*
X47924Y182123D01*
X48052Y182059D01*
X48177Y181992D01*
X48301Y181921D01*
X48423Y181847D01*
X48542Y181770D01*
X48660Y181689D01*
X48775Y181605D01*
X48887Y181518D01*
X48997Y181427D01*
X49105Y181334D01*
X49210Y181237D01*
X49312Y181138D01*
X49411Y181036D01*
X49508Y180931D01*
X49601Y180823D01*
X49692Y180713D01*
X49779Y180601D01*
X49863Y180486D01*
X49944Y180368D01*
X50021Y180249D01*
X50095Y180127D01*
X50166Y180003D01*
X50233Y179878D01*
X50297Y179750D01*
X50357Y179621D01*
X50413Y179490D01*
X50466Y179358D01*
X50515Y179224D01*
X50560Y179089D01*
X50601Y178952D01*
X50639Y178815D01*
X50673Y178676D01*
X50702Y178537D01*
X50728Y178397D01*
X50750Y178256D01*
X50768Y178115D01*
X50782Y177973D01*
X50792Y177831D01*
X50798Y177688D01*
X50800Y177546D01*
X50798Y177404D01*
X50792Y177261D01*
X50782Y177119D01*
X50768Y176977D01*
X50750Y176836D01*
X50728Y176695D01*
X50702Y176555D01*
X50673Y176416D01*
X50639Y176277D01*
X50601Y176140D01*
X50560Y176003D01*
X50515Y175868D01*
X50466Y175734D01*
X50413Y175602D01*
X50357Y175471D01*
X50297Y175342D01*
X50233Y175214D01*
X50166Y175089D01*
X50095Y174965D01*
X50021Y174843D01*
X49944Y174724D01*
X49863Y174606D01*
X49779Y174491D01*
X49692Y174379D01*
X49601Y174269D01*
X49508Y174161D01*
X49411Y174056D01*
X49312Y173954D01*
X49210Y173855D01*
X49105Y173758D01*
X48997Y173665D01*
X48887Y173574D01*
X48775Y173487D01*
X48660Y173403D01*
X48542Y173322D01*
X48423Y173245D01*
X48301Y173171D01*
X48177Y173100D01*
X48052Y173033D01*
X47924Y172969D01*
X47795Y172909D01*
X47664Y172853D01*
X47532Y172800D01*
X47398Y172751D01*
X47263Y172706D01*
X47126Y172665D01*
X46989Y172627D01*
X46850Y172593D01*
X46711Y172564D01*
X46571Y172538D01*
X46430Y172516D01*
X46289Y172498D01*
X46147Y172484D01*
X46005Y172474D01*
X45862Y172468D01*
X45720Y172466D01*
X45578Y172468D01*
X45435Y172474D01*
X45293Y172484D01*
X45151Y172498D01*
X45010Y172516D01*
X44869Y172538D01*
X44729Y172564D01*
X44590Y172593D01*
X44451Y172627D01*
X44314Y172665D01*
X44177Y172706D01*
X44042Y172751D01*
X43908Y172800D01*
X43776Y172853D01*
X43645Y172909D01*
X43516Y172969D01*
X43388Y173033D01*
X43263Y173100D01*
X43139Y173171D01*
X43017Y173245D01*
X42898Y173322D01*
X42780Y173403D01*
X42665Y173487D01*
X42553Y173574D01*
X42443Y173665D01*
X42335Y173758D01*
X42230Y173855D01*
X42128Y173954D01*
X42029Y174056D01*
X41932Y174161D01*
X41839Y174269D01*
X41748Y174379D01*
X41661Y174491D01*
X41577Y174606D01*
X41496Y174724D01*
X41419Y174843D01*
X41345Y174965D01*
X41274Y175089D01*
X41207Y175214D01*
X41143Y175342D01*
X41083Y175471D01*
X41027Y175602D01*
X40974Y175734D01*
X40925Y175868D01*
X40880Y176003D01*
X40839Y176140D01*
X40801Y176277D01*
X40767Y176416D01*
X40738Y176555D01*
X40712Y176695D01*
X40690Y176836D01*
X40672Y176977D01*
X40658Y177119D01*
X40648Y177261D01*
X40642Y177404D01*
X40640Y177546D01*
X40640Y127254D02*
X40642Y127396D01*
X40648Y127539D01*
X40658Y127681D01*
X40672Y127823D01*
X40690Y127964D01*
X40712Y128105D01*
X40738Y128245D01*
X40767Y128384D01*
X40801Y128523D01*
X40839Y128660D01*
X40880Y128797D01*
X40925Y128932D01*
X40974Y129066D01*
X41027Y129198D01*
X41083Y129329D01*
X41143Y129458D01*
X41207Y129586D01*
X41274Y129711D01*
X41345Y129835D01*
X41419Y129957D01*
X41496Y130076D01*
X41577Y130194D01*
X41661Y130309D01*
X41748Y130421D01*
X41839Y130531D01*
X41932Y130639D01*
X42029Y130744D01*
X42128Y130846D01*
X42230Y130945D01*
X42335Y131042D01*
X42443Y131135D01*
X42553Y131226D01*
X42665Y131313D01*
X42780Y131397D01*
X42898Y131478D01*
X43017Y131555D01*
X43139Y131629D01*
X43263Y131700D01*
X43388Y131767D01*
X43516Y131831D01*
X43645Y131891D01*
X43776Y131947D01*
X43908Y132000D01*
X44042Y132049D01*
X44177Y132094D01*
X44314Y132135D01*
X44451Y132173D01*
X44590Y132207D01*
X44729Y132236D01*
X44869Y132262D01*
X45010Y132284D01*
X45151Y132302D01*
X45293Y132316D01*
X45435Y132326D01*
X45578Y132332D01*
X45720Y132334D01*
X45862Y132332D01*
X46005Y132326D01*
X46147Y132316D01*
X46289Y132302D01*
X46430Y132284D01*
X46571Y132262D01*
X46711Y132236D01*
X46850Y132207D01*
X46989Y132173D01*
X47126Y132135D01*
X47263Y132094D01*
X47398Y132049D01*
X47532Y132000D01*
X47664Y131947D01*
X47795Y131891D01*
X47924Y131831D01*
X48052Y131767D01*
X48177Y131700D01*
X48301Y131629D01*
X48423Y131555D01*
X48542Y131478D01*
X48660Y131397D01*
X48775Y131313D01*
X48887Y131226D01*
X48997Y131135D01*
X49105Y131042D01*
X49210Y130945D01*
X49312Y130846D01*
X49411Y130744D01*
X49508Y130639D01*
X49601Y130531D01*
X49692Y130421D01*
X49779Y130309D01*
X49863Y130194D01*
X49944Y130076D01*
X50021Y129957D01*
X50095Y129835D01*
X50166Y129711D01*
X50233Y129586D01*
X50297Y129458D01*
X50357Y129329D01*
X50413Y129198D01*
X50466Y129066D01*
X50515Y128932D01*
X50560Y128797D01*
X50601Y128660D01*
X50639Y128523D01*
X50673Y128384D01*
X50702Y128245D01*
X50728Y128105D01*
X50750Y127964D01*
X50768Y127823D01*
X50782Y127681D01*
X50792Y127539D01*
X50798Y127396D01*
X50800Y127254D01*
X50798Y127112D01*
X50792Y126969D01*
X50782Y126827D01*
X50768Y126685D01*
X50750Y126544D01*
X50728Y126403D01*
X50702Y126263D01*
X50673Y126124D01*
X50639Y125985D01*
X50601Y125848D01*
X50560Y125711D01*
X50515Y125576D01*
X50466Y125442D01*
X50413Y125310D01*
X50357Y125179D01*
X50297Y125050D01*
X50233Y124922D01*
X50166Y124797D01*
X50095Y124673D01*
X50021Y124551D01*
X49944Y124432D01*
X49863Y124314D01*
X49779Y124199D01*
X49692Y124087D01*
X49601Y123977D01*
X49508Y123869D01*
X49411Y123764D01*
X49312Y123662D01*
X49210Y123563D01*
X49105Y123466D01*
X48997Y123373D01*
X48887Y123282D01*
X48775Y123195D01*
X48660Y123111D01*
X48542Y123030D01*
X48423Y122953D01*
X48301Y122879D01*
X48177Y122808D01*
X48052Y122741D01*
X47924Y122677D01*
X47795Y122617D01*
X47664Y122561D01*
X47532Y122508D01*
X47398Y122459D01*
X47263Y122414D01*
X47126Y122373D01*
X46989Y122335D01*
X46850Y122301D01*
X46711Y122272D01*
X46571Y122246D01*
X46430Y122224D01*
X46289Y122206D01*
X46147Y122192D01*
X46005Y122182D01*
X45862Y122176D01*
X45720Y122174D01*
X45578Y122176D01*
X45435Y122182D01*
X45293Y122192D01*
X45151Y122206D01*
X45010Y122224D01*
X44869Y122246D01*
X44729Y122272D01*
X44590Y122301D01*
X44451Y122335D01*
X44314Y122373D01*
X44177Y122414D01*
X44042Y122459D01*
X43908Y122508D01*
X43776Y122561D01*
X43645Y122617D01*
X43516Y122677D01*
X43388Y122741D01*
X43263Y122808D01*
X43139Y122879D01*
X43017Y122953D01*
X42898Y123030D01*
X42780Y123111D01*
X42665Y123195D01*
X42553Y123282D01*
X42443Y123373D01*
X42335Y123466D01*
X42230Y123563D01*
X42128Y123662D01*
X42029Y123764D01*
X41932Y123869D01*
X41839Y123977D01*
X41748Y124087D01*
X41661Y124199D01*
X41577Y124314D01*
X41496Y124432D01*
X41419Y124551D01*
X41345Y124673D01*
X41274Y124797D01*
X41207Y124922D01*
X41143Y125050D01*
X41083Y125179D01*
X41027Y125310D01*
X40974Y125442D01*
X40925Y125576D01*
X40880Y125711D01*
X40839Y125848D01*
X40801Y125985D01*
X40767Y126124D01*
X40738Y126263D01*
X40712Y126403D01*
X40690Y126544D01*
X40672Y126685D01*
X40658Y126827D01*
X40648Y126969D01*
X40642Y127112D01*
X40640Y127254D01*
D20*
X27305Y111379D02*
X27421Y111377D01*
X27538Y111371D01*
X27654Y111362D01*
X27769Y111349D01*
X27884Y111332D01*
X27999Y111311D01*
X28112Y111286D01*
X28225Y111258D01*
X28337Y111226D01*
X28448Y111190D01*
X28558Y111151D01*
X28666Y111108D01*
X28773Y111062D01*
X28878Y111012D01*
X28981Y110959D01*
X29083Y110903D01*
X29183Y110843D01*
X29281Y110780D01*
X29376Y110713D01*
X29470Y110644D01*
X29561Y110572D01*
X29650Y110497D01*
X29736Y110418D01*
X29819Y110337D01*
X29900Y110254D01*
X29979Y110168D01*
X30054Y110079D01*
X30126Y109988D01*
X30195Y109894D01*
X30262Y109799D01*
X30325Y109701D01*
X30385Y109601D01*
X30441Y109499D01*
X30494Y109396D01*
X30544Y109291D01*
X30590Y109184D01*
X30633Y109076D01*
X30672Y108966D01*
X30708Y108855D01*
X30740Y108743D01*
X30768Y108630D01*
X30793Y108517D01*
X30814Y108402D01*
X30831Y108287D01*
X30844Y108172D01*
X30853Y108056D01*
X30859Y107939D01*
X30861Y107823D01*
X30859Y107643D01*
X30852Y107464D01*
X30842Y107284D01*
X30827Y107105D01*
X30807Y106926D01*
X30784Y106748D01*
X30756Y106571D01*
X30724Y106394D01*
X30688Y106218D01*
X30647Y106043D01*
X30602Y105869D01*
X30553Y105696D01*
X30501Y105524D01*
X30443Y105353D01*
X30382Y105184D01*
X30317Y105017D01*
X30248Y104851D01*
X30175Y104687D01*
X30098Y104524D01*
X30017Y104364D01*
X29933Y104205D01*
X29844Y104049D01*
X29752Y103895D01*
X29656Y103743D01*
X29557Y103593D01*
X29454Y103445D01*
X29347Y103301D01*
X29237Y103158D01*
X29124Y103019D01*
X29007Y102882D01*
X28888Y102748D01*
X28765Y102617D01*
X28639Y102489D01*
X18415Y102934D02*
X18299Y102936D01*
X18182Y102942D01*
X18066Y102951D01*
X17951Y102964D01*
X17836Y102981D01*
X17721Y103002D01*
X17608Y103027D01*
X17495Y103055D01*
X17383Y103087D01*
X17272Y103123D01*
X17162Y103162D01*
X17054Y103205D01*
X16947Y103251D01*
X16842Y103301D01*
X16739Y103354D01*
X16637Y103410D01*
X16537Y103470D01*
X16439Y103533D01*
X16344Y103600D01*
X16250Y103669D01*
X16159Y103741D01*
X16070Y103816D01*
X15984Y103895D01*
X15901Y103976D01*
X15820Y104059D01*
X15741Y104145D01*
X15666Y104234D01*
X15594Y104325D01*
X15525Y104419D01*
X15458Y104514D01*
X15395Y104612D01*
X15335Y104712D01*
X15279Y104814D01*
X15226Y104917D01*
X15176Y105022D01*
X15130Y105129D01*
X15087Y105237D01*
X15048Y105347D01*
X15012Y105458D01*
X14980Y105570D01*
X14952Y105683D01*
X14927Y105796D01*
X14906Y105911D01*
X14889Y106026D01*
X14876Y106141D01*
X14867Y106257D01*
X14861Y106374D01*
X14859Y106490D01*
X14861Y106649D01*
X14867Y106808D01*
X14876Y106966D01*
X14889Y107125D01*
X14906Y107283D01*
X14927Y107440D01*
X14952Y107597D01*
X14980Y107754D01*
X15012Y107909D01*
X15047Y108064D01*
X15087Y108218D01*
X15130Y108371D01*
X15177Y108523D01*
X15227Y108674D01*
X15281Y108823D01*
X15338Y108972D01*
X15399Y109118D01*
X15463Y109264D01*
X15531Y109407D01*
X15602Y109549D01*
X15677Y109690D01*
X15755Y109828D01*
X15836Y109965D01*
X15920Y110099D01*
X16008Y110232D01*
X16099Y110363D01*
X16193Y110491D01*
X21527Y104711D02*
X21466Y104611D01*
X21401Y104513D01*
X21334Y104417D01*
X21263Y104324D01*
X21190Y104233D01*
X21113Y104144D01*
X21034Y104058D01*
X20952Y103974D01*
X20867Y103893D01*
X20780Y103815D01*
X20690Y103740D01*
X20598Y103667D01*
X20503Y103598D01*
X20407Y103532D01*
X20308Y103469D01*
X20207Y103409D01*
X20104Y103352D01*
X20000Y103299D01*
X19894Y103250D01*
X19786Y103203D01*
X19677Y103161D01*
X19567Y103121D01*
X19455Y103086D01*
X19342Y103054D01*
X19228Y103026D01*
X19114Y103001D01*
X18998Y102980D01*
X18882Y102963D01*
X18766Y102950D01*
X18649Y102941D01*
X18532Y102935D01*
X18415Y102933D01*
X24193Y109601D02*
X24254Y109701D01*
X24319Y109799D01*
X24386Y109895D01*
X24457Y109988D01*
X24530Y110079D01*
X24607Y110168D01*
X24686Y110254D01*
X24768Y110338D01*
X24853Y110419D01*
X24940Y110497D01*
X25030Y110572D01*
X25122Y110645D01*
X25217Y110714D01*
X25313Y110780D01*
X25412Y110843D01*
X25513Y110903D01*
X25616Y110960D01*
X25720Y111013D01*
X25826Y111062D01*
X25934Y111109D01*
X26043Y111151D01*
X26153Y111191D01*
X26265Y111226D01*
X26378Y111258D01*
X26492Y111286D01*
X26606Y111311D01*
X26722Y111332D01*
X26838Y111349D01*
X26954Y111362D01*
X27071Y111371D01*
X27188Y111377D01*
X27305Y111379D01*
X24194Y109601D02*
X21527Y104712D01*
X30861Y116710D02*
X14859Y122044D01*
X30861Y127378D01*
X26861Y126045D02*
X26861Y118044D01*
X30861Y133784D02*
X14859Y133784D01*
X30861Y133784D02*
X30861Y140896D01*
D13*
X41529Y110984D02*
X43448Y108585D01*
X41529Y110984D02*
X50165Y110984D01*
X50165Y108585D02*
X50165Y113383D01*
X41529Y162024D02*
X41531Y162116D01*
X41537Y162207D01*
X41546Y162298D01*
X41560Y162389D01*
X41577Y162479D01*
X41599Y162568D01*
X41624Y162656D01*
X41652Y162743D01*
X41685Y162829D01*
X41721Y162913D01*
X41760Y162996D01*
X41803Y163077D01*
X41850Y163156D01*
X41899Y163233D01*
X41952Y163308D01*
X42008Y163380D01*
X42067Y163450D01*
X42129Y163518D01*
X42194Y163583D01*
X42262Y163645D01*
X42332Y163704D01*
X42404Y163760D01*
X42479Y163813D01*
X42556Y163862D01*
X42635Y163909D01*
X42716Y163952D01*
X42799Y163991D01*
X42883Y164027D01*
X42969Y164060D01*
X43056Y164088D01*
X43144Y164113D01*
X43233Y164135D01*
X43323Y164152D01*
X43414Y164166D01*
X43505Y164175D01*
X43596Y164181D01*
X43688Y164183D01*
X41529Y162024D02*
X41531Y161921D01*
X41537Y161819D01*
X41546Y161717D01*
X41559Y161615D01*
X41576Y161514D01*
X41597Y161413D01*
X41621Y161314D01*
X41650Y161215D01*
X41681Y161118D01*
X41717Y161021D01*
X41755Y160926D01*
X41798Y160833D01*
X41844Y160741D01*
X41893Y160651D01*
X41945Y160563D01*
X42001Y160476D01*
X42060Y160392D01*
X42121Y160311D01*
X42186Y160231D01*
X42254Y160154D01*
X42325Y160079D01*
X42398Y160008D01*
X42474Y159939D01*
X42552Y159872D01*
X42633Y159809D01*
X42716Y159749D01*
X42801Y159692D01*
X42888Y159638D01*
X42978Y159587D01*
X43069Y159540D01*
X43161Y159496D01*
X43256Y159455D01*
X43351Y159418D01*
X43448Y159385D01*
X45367Y163463D02*
X45301Y163530D01*
X45232Y163594D01*
X45161Y163655D01*
X45087Y163713D01*
X45011Y163768D01*
X44933Y163820D01*
X44853Y163869D01*
X44771Y163915D01*
X44687Y163957D01*
X44601Y163996D01*
X44514Y164031D01*
X44426Y164062D01*
X44336Y164090D01*
X44246Y164115D01*
X44154Y164136D01*
X44062Y164153D01*
X43969Y164166D01*
X43876Y164175D01*
X43782Y164181D01*
X43688Y164183D01*
X45367Y163463D02*
X50165Y159385D01*
X50165Y164183D01*
D24*
X76200Y152400D03*
M02*
