G04 EAGLE Gerber X2 export*
%TF.Part,Single*%
%TF.FileFunction,Copper,L2,Bot,Mixed*%
%TF.FilePolarity,Positive*%
%TF.GenerationSoftware,Autodesk,EAGLE,8.6.3*%
%TF.CreationDate,2019-08-20T17:14:17Z*%
G75*
%MOMM*%
%FSLAX34Y34*%
%LPD*%
%AMOC8*
5,1,8,0,0,1.08239X$1,22.5*%
G01*
%ADD10P,1.924489X8X112.500000*%
%ADD11C,1.778000*%
%ADD12P,1.732040X8X292.500000*%
%ADD13C,1.905000*%
%ADD14P,2.061953X8X292.500000*%
%ADD15C,1.320800*%
%ADD16C,2.032000*%
%ADD17C,2.540000*%
%ADD18C,1.397000*%
%ADD19C,1.524000*%
%ADD20P,1.429621X8X112.500000*%
%ADD21C,1.981200*%
%ADD22P,1.814519X8X112.500000*%
%ADD23C,1.408000*%
%ADD24P,1.429621X8X22.500000*%
%ADD25P,1.429621X8X202.500000*%
%ADD26P,1.429621X8X292.500000*%
%ADD27P,1.429621X8X157.500000*%
%ADD28C,1.400000*%
%ADD29C,1.308000*%
%ADD30R,2.100000X2.100000*%
%ADD31P,1.814519X8X202.500000*%
%ADD32C,1.422400*%
%ADD33C,1.508000*%
%ADD34C,1.508000*%
%ADD35C,1.016000*%
%ADD36C,0.152400*%
%ADD37C,1.300000*%
%ADD38C,1.270000*%


D10*
X825500Y412750D03*
D11*
X825500Y387350D03*
D12*
X749300Y412750D03*
X749300Y387350D03*
X749300Y342900D03*
X749300Y317500D03*
D13*
X825500Y342900D03*
D14*
X825500Y292100D03*
D15*
X432054Y831850D02*
X418846Y831850D01*
X355854Y831850D02*
X342646Y831850D01*
D16*
X880110Y603250D03*
X753110Y603250D03*
D17*
X118110Y933450D02*
X118110Y958850D01*
X326390Y958850D02*
X326390Y933450D01*
X275590Y933450D02*
X275590Y958850D01*
X168910Y958850D02*
X168910Y933450D01*
D15*
X692150Y802894D02*
X692150Y789686D01*
X666750Y789686D02*
X666750Y802894D01*
X539750Y802894D02*
X539750Y789686D01*
X539750Y726694D02*
X539750Y713486D01*
X641350Y789686D02*
X641350Y802894D01*
X615950Y802894D02*
X615950Y789686D01*
X565150Y789686D02*
X565150Y802894D01*
X590550Y802894D02*
X590550Y789686D01*
X565150Y726694D02*
X565150Y713486D01*
X590550Y713486D02*
X590550Y726694D01*
X615950Y726694D02*
X615950Y713486D01*
X641350Y713486D02*
X641350Y726694D01*
X666750Y726694D02*
X666750Y713486D01*
X692150Y713486D02*
X692150Y726694D01*
D18*
X927735Y577850D02*
X941705Y577850D01*
X941705Y603250D02*
X927735Y603250D01*
X927735Y628650D02*
X941705Y628650D01*
X941705Y654050D02*
X927735Y654050D01*
X927735Y679450D02*
X941705Y679450D01*
D19*
X941070Y438150D02*
X925830Y438150D01*
X925830Y412750D02*
X941070Y412750D01*
X941070Y387350D02*
X925830Y387350D01*
D20*
X749300Y260350D03*
X730250Y273050D03*
X749300Y285750D03*
D21*
X314706Y806450D02*
X294894Y806450D01*
X294386Y866140D02*
X274574Y866140D01*
X274574Y746760D02*
X294386Y746760D01*
X172466Y746760D02*
X152654Y746760D01*
X152654Y866140D02*
X172466Y866140D01*
D22*
X273050Y44450D03*
X273050Y69850D03*
X203200Y44450D03*
X203200Y69850D03*
X133350Y44450D03*
X133350Y69850D03*
D23*
X520700Y76200D03*
X520700Y101600D03*
X520700Y127000D03*
X520700Y152400D03*
X520700Y177800D03*
X520700Y203200D03*
X520700Y228600D03*
X520700Y254000D03*
X520700Y279400D03*
X520700Y304800D03*
X520700Y330200D03*
X520700Y355600D03*
X520700Y381000D03*
X520700Y406400D03*
X520700Y431800D03*
X520700Y457200D03*
X520700Y482600D03*
X673100Y76200D03*
X673100Y101600D03*
X673100Y127000D03*
X673100Y152400D03*
X673100Y177800D03*
X673100Y203200D03*
X673100Y228600D03*
X673100Y254000D03*
X673100Y279400D03*
X673100Y304800D03*
X673100Y330200D03*
X673100Y355600D03*
X673100Y381000D03*
X673100Y406400D03*
X673100Y431800D03*
X673100Y457200D03*
X673100Y482600D03*
D15*
X241300Y355600D02*
X228092Y355600D01*
X228092Y330200D02*
X241300Y330200D01*
X317500Y330200D02*
X330708Y330200D01*
X330708Y355600D02*
X317500Y355600D01*
X241300Y304800D02*
X228092Y304800D01*
X317500Y304800D02*
X330708Y304800D01*
X241300Y254000D02*
X228092Y254000D01*
X228092Y228600D02*
X241300Y228600D01*
X317500Y228600D02*
X330708Y228600D01*
X330708Y254000D02*
X317500Y254000D01*
X241300Y203200D02*
X228092Y203200D01*
X317500Y203200D02*
X330708Y203200D01*
X241300Y152400D02*
X228092Y152400D01*
X228092Y127000D02*
X241300Y127000D01*
X317500Y127000D02*
X330708Y127000D01*
X330708Y152400D02*
X317500Y152400D01*
X241300Y101600D02*
X228092Y101600D01*
X317500Y101600D02*
X330708Y101600D01*
D20*
X469900Y50800D03*
X469900Y127000D03*
X444500Y628650D03*
X444500Y704850D03*
D24*
X127000Y374650D03*
X203200Y374650D03*
X523240Y829310D03*
X599440Y829310D03*
D25*
X690880Y943610D03*
X614680Y943610D03*
X618490Y871220D03*
X516890Y871220D03*
D24*
X127000Y273050D03*
X203200Y273050D03*
X127000Y171450D03*
X203200Y171450D03*
D26*
X355600Y381000D03*
X355600Y304800D03*
X355600Y279400D03*
X355600Y203200D03*
X355600Y177800D03*
X355600Y101600D03*
D24*
X516890Y943610D03*
X593090Y943610D03*
D25*
X593090Y909320D03*
X516890Y909320D03*
D20*
X394970Y50800D03*
X394970Y127000D03*
X431800Y50800D03*
X431800Y127000D03*
D27*
X462461Y749300D03*
X444500Y767261D03*
X426539Y749300D03*
D19*
X655320Y896620D02*
X670560Y896620D01*
X670560Y871220D02*
X655320Y871220D01*
X655320Y845820D02*
X670560Y845820D01*
D28*
X766050Y39900D02*
X780050Y39900D01*
D29*
X837050Y60360D02*
X837050Y73440D01*
X809050Y88360D02*
X809050Y101440D01*
D28*
X796050Y39900D02*
X782050Y39900D01*
D29*
X837050Y76360D02*
X837050Y89440D01*
X809050Y104360D02*
X809050Y117440D01*
D21*
X73406Y869696D02*
X53594Y869696D01*
X53594Y819404D02*
X73406Y819404D01*
X73406Y361696D02*
X53594Y361696D01*
X53594Y311404D02*
X73406Y311404D01*
X73406Y158496D02*
X53594Y158496D01*
X53594Y108204D02*
X73406Y108204D01*
X73406Y260096D02*
X53594Y260096D01*
X53594Y209804D02*
X73406Y209804D01*
D30*
X467890Y880640D03*
X425890Y880640D03*
X383890Y880640D03*
X383890Y935640D03*
X425890Y935640D03*
X467890Y935640D03*
D21*
X73406Y717296D02*
X53594Y717296D01*
X53594Y667004D02*
X73406Y667004D01*
X923544Y114554D02*
X943356Y114554D01*
X943356Y164846D02*
X923544Y164846D01*
D20*
X920750Y228600D03*
X920750Y304800D03*
D31*
X857250Y190500D03*
X831850Y190500D03*
D24*
X349250Y793750D03*
X425450Y793750D03*
D31*
X387350Y749300D03*
X361950Y749300D03*
D15*
X355600Y711454D02*
X355600Y698246D01*
X355600Y635254D02*
X355600Y622046D01*
D20*
X444500Y463550D03*
X444500Y539750D03*
D27*
X462461Y584200D03*
X444500Y602161D03*
X426539Y584200D03*
D21*
X314706Y641350D02*
X294894Y641350D01*
X294386Y701040D02*
X274574Y701040D01*
X274574Y581660D02*
X294386Y581660D01*
X172466Y581660D02*
X152654Y581660D01*
X152654Y701040D02*
X172466Y701040D01*
D20*
X400050Y628650D03*
X400050Y704850D03*
D31*
X387350Y584200D03*
X361950Y584200D03*
D32*
X749300Y659130D03*
X850900Y659130D03*
D25*
X742950Y838200D03*
X755650Y819150D03*
X768350Y838200D03*
X908050Y838200D03*
X920750Y819150D03*
X933450Y838200D03*
D20*
X857250Y711200D03*
X857250Y787400D03*
X819150Y711200D03*
X819150Y787400D03*
X933450Y711200D03*
X933450Y787400D03*
X895350Y711200D03*
X895350Y787400D03*
D25*
X876300Y825500D03*
X800100Y825500D03*
D26*
X781050Y787400D03*
X781050Y711200D03*
X742950Y787400D03*
X742950Y711200D03*
D33*
X858520Y933450D03*
X858520Y908050D03*
X833120Y933450D03*
X833120Y908050D03*
X807720Y933450D03*
X807720Y908050D03*
X782320Y933450D03*
X782320Y908050D03*
X756920Y933450D03*
X756920Y908050D03*
D22*
X755650Y165100D03*
X755650Y215900D03*
X781050Y190500D03*
X730250Y165100D03*
X730250Y215900D03*
X730250Y190500D03*
D26*
X882650Y304800D03*
X882650Y228600D03*
D19*
X205232Y301244D02*
X189992Y301244D01*
X189992Y346456D02*
X205232Y346456D01*
X140208Y301244D02*
X124968Y301244D01*
X124968Y346456D02*
X140208Y346456D01*
D34*
X157560Y301244D02*
X172640Y301244D01*
X172640Y346456D02*
X157560Y346456D01*
D19*
X189992Y199644D02*
X205232Y199644D01*
X205232Y244856D02*
X189992Y244856D01*
X140208Y199644D02*
X124968Y199644D01*
X124968Y244856D02*
X140208Y244856D01*
D34*
X157560Y199644D02*
X172640Y199644D01*
X172640Y244856D02*
X157560Y244856D01*
D19*
X189992Y98044D02*
X205232Y98044D01*
X205232Y143256D02*
X189992Y143256D01*
X140208Y98044D02*
X124968Y98044D01*
X124968Y143256D02*
X140208Y143256D01*
D34*
X157560Y98044D02*
X172640Y98044D01*
X172640Y143256D02*
X157560Y143256D01*
D15*
X355600Y533146D02*
X355600Y546354D01*
X355600Y470154D02*
X355600Y456946D01*
D20*
X444500Y304800D03*
X444500Y381000D03*
D27*
X462461Y419100D03*
X444500Y437061D03*
X426539Y419100D03*
D21*
X314706Y476250D02*
X294894Y476250D01*
X294386Y535940D02*
X274574Y535940D01*
X274574Y416560D02*
X294386Y416560D01*
X172466Y416560D02*
X152654Y416560D01*
X152654Y535940D02*
X172466Y535940D01*
D20*
X400050Y463550D03*
X400050Y539750D03*
D31*
X387350Y419100D03*
X361950Y419100D03*
D15*
X539750Y591566D02*
X539750Y604774D01*
X565150Y604774D02*
X565150Y591566D01*
X692150Y591566D02*
X692150Y604774D01*
X692150Y667766D02*
X692150Y680974D01*
X590550Y604774D02*
X590550Y591566D01*
X615950Y591566D02*
X615950Y604774D01*
X666750Y604774D02*
X666750Y591566D01*
X641350Y591566D02*
X641350Y604774D01*
X666750Y667766D02*
X666750Y680974D01*
X641350Y680974D02*
X641350Y667766D01*
X615950Y667766D02*
X615950Y680974D01*
X590550Y680974D02*
X590550Y667766D01*
X565150Y667766D02*
X565150Y680974D01*
X539750Y680974D02*
X539750Y667766D01*
D21*
X73406Y615696D02*
X53594Y615696D01*
X53594Y565404D02*
X73406Y565404D01*
X73406Y513588D02*
X53594Y513588D01*
X53594Y463550D02*
X73406Y463550D01*
X73406Y413512D02*
X53594Y413512D01*
D19*
X590550Y538480D02*
X590550Y553720D01*
X565150Y553720D02*
X565150Y538480D01*
X539750Y538480D02*
X539750Y553720D01*
X396240Y185420D02*
X396240Y170180D01*
X421640Y170180D02*
X421640Y185420D01*
X447040Y185420D02*
X447040Y170180D01*
X472440Y170180D02*
X472440Y185420D01*
D35*
X933196Y165100D02*
X933450Y164846D01*
X781050Y285750D02*
X749300Y285750D01*
X781050Y285750D02*
X781050Y266700D01*
X825500Y412750D02*
X933450Y412750D01*
X825500Y412750D02*
X749300Y412750D01*
X781050Y292100D02*
X781050Y285750D01*
X781050Y292100D02*
X781050Y317500D01*
X749300Y317500D01*
X809050Y110900D02*
X809050Y94900D01*
X837050Y82900D02*
X837050Y66900D01*
X825050Y110900D02*
X809050Y110900D01*
D36*
X825050Y110900D02*
X825500Y111350D01*
D35*
X837050Y110900D02*
X837050Y82900D01*
X837050Y110900D02*
X825050Y110900D01*
X809050Y165100D02*
X933196Y165100D01*
X809050Y165100D02*
X809050Y110900D01*
X809050Y165100D02*
X809050Y189230D01*
X809050Y257750D01*
X800100Y266700D01*
X781050Y266700D01*
X755650Y165100D02*
X730250Y165100D01*
X755650Y165100D02*
X809050Y165100D01*
X273050Y127000D02*
X241300Y127000D01*
X273050Y279400D02*
X273050Y330200D01*
X241300Y330200D01*
X273050Y279400D02*
X355600Y279400D01*
X355600Y177800D02*
X273050Y177800D01*
X273050Y127000D01*
X273050Y177800D02*
X273050Y228600D01*
X273050Y279400D01*
X273050Y228600D02*
X241300Y228600D01*
X273050Y330200D02*
X273050Y372110D01*
X101854Y819404D02*
X63500Y819404D01*
X114300Y831850D02*
X114300Y889000D01*
X127000Y901700D01*
X114300Y831850D02*
X101854Y819404D01*
X425890Y880640D02*
X425890Y894910D01*
X419100Y901700D01*
X383890Y901700D02*
X127000Y901700D01*
X383890Y901700D02*
X419100Y901700D01*
X383890Y901700D02*
X383890Y935640D01*
X482600Y796290D02*
X482600Y749300D01*
X482600Y796290D02*
X482600Y844550D01*
X482600Y749300D02*
X482600Y584200D01*
X482600Y749300D02*
X462461Y749300D01*
X203200Y69850D02*
X133350Y69850D01*
X203200Y69850D02*
X273050Y69850D01*
X273050Y127000D01*
X355600Y177800D02*
X396240Y177800D01*
X462461Y419100D02*
X482600Y419100D01*
X482600Y355600D01*
X482600Y419100D02*
X482600Y572770D01*
X482600Y584200D01*
X482600Y355600D02*
X520700Y355600D01*
X482600Y355600D02*
X393700Y355600D01*
X462461Y584200D02*
X482600Y584200D01*
X482600Y844550D02*
X476250Y850900D01*
X438150Y850900D01*
X425890Y863160D01*
X425890Y880640D01*
X660400Y406400D02*
X673100Y406400D01*
X711200Y406400D02*
X717550Y412750D01*
X711200Y406400D02*
X673100Y406400D01*
X717550Y317500D02*
X749300Y317500D01*
X717550Y317500D02*
X711200Y323850D01*
X711200Y406400D01*
X717550Y412750D02*
X749300Y412750D01*
X692150Y581660D02*
X692150Y598170D01*
X692150Y581660D02*
X684530Y574040D01*
X483870Y574040D01*
X482600Y572770D01*
X482600Y796290D02*
X539750Y796290D01*
X539750Y812800D01*
X556260Y829310D01*
X599440Y829310D01*
X655320Y829310D01*
X662940Y836930D01*
X662940Y845820D01*
X753110Y603250D02*
X779780Y603250D01*
X788670Y869950D02*
X782320Y876300D01*
X782320Y908050D01*
X788670Y869950D02*
X833120Y869950D01*
X833120Y908050D01*
X895350Y730250D02*
X895350Y711200D01*
X914400Y749300D02*
X946150Y749300D01*
X958850Y762000D01*
X958850Y857250D01*
X946150Y869950D01*
X908050Y869950D01*
X833120Y869950D01*
X914400Y749300D02*
X895350Y730250D01*
X908050Y838200D02*
X908050Y869950D01*
X895350Y711200D02*
X895350Y679450D01*
X934720Y679450D01*
X934720Y628650D02*
X895350Y628650D01*
X805180Y628650D01*
X779780Y603250D01*
X895350Y628650D02*
X895350Y679450D01*
X831850Y190500D02*
X830580Y189230D01*
X809050Y189230D01*
X825500Y292100D02*
X781050Y292100D01*
D37*
X552450Y304800D03*
D35*
X281940Y381000D02*
X273050Y372110D01*
X281940Y381000D02*
X355600Y381000D01*
X368300Y381000D01*
X393700Y355600D01*
X609600Y355600D02*
X660400Y406400D01*
X609600Y355600D02*
X552450Y355600D01*
X520700Y355600D01*
X552450Y355600D02*
X552450Y304800D01*
X421640Y177800D02*
X421640Y158750D01*
X411480Y148590D01*
X354330Y127000D02*
X317500Y127000D01*
X375920Y148590D02*
X411480Y148590D01*
X375920Y148590D02*
X354330Y127000D01*
D37*
X713740Y501650D03*
D35*
X387350Y44450D02*
X273050Y44450D01*
X387350Y44450D02*
X393700Y50800D01*
X394970Y50800D01*
X133350Y44450D02*
X133350Y27940D01*
X139700Y21590D01*
X469900Y30480D02*
X469900Y50800D01*
X461010Y21590D02*
X139700Y21590D01*
X461010Y21590D02*
X469900Y30480D01*
D38*
X666750Y796290D02*
X692150Y796290D01*
D35*
X615950Y796290D02*
X615950Y774700D01*
X622300Y768350D01*
X659130Y768350D01*
X666750Y772160D01*
X666750Y796290D01*
X361950Y749300D02*
X287020Y749300D01*
X284480Y746760D01*
X403679Y772160D02*
X426539Y749300D01*
X403679Y772160D02*
X374650Y772160D01*
X368300Y831850D02*
X349250Y831850D01*
X368300Y831850D02*
X374650Y825500D01*
X374650Y772160D01*
X361950Y762000D02*
X361950Y749300D01*
X361950Y762000D02*
X372110Y772160D01*
X374650Y772160D01*
X63754Y666750D02*
X63500Y667004D01*
X63754Y666750D02*
X82550Y666750D01*
X114300Y698500D01*
X114300Y755650D01*
X165100Y806450D01*
X304800Y806450D01*
X63500Y768350D02*
X63500Y717296D01*
X63500Y768350D02*
X82550Y787400D01*
X107950Y787400D01*
X162560Y842010D01*
X162560Y866140D01*
X448310Y906780D02*
X481330Y906780D01*
X448310Y906780D02*
X425890Y929200D01*
X425890Y935640D01*
X650240Y871220D02*
X662940Y871220D01*
X650240Y871220D02*
X631190Y852170D01*
X537210Y850900D01*
X516890Y871220D01*
X481330Y906780D01*
X648970Y943610D02*
X662940Y929640D01*
X662940Y896620D01*
X648970Y943610D02*
X614680Y943610D01*
X590550Y796290D02*
X565150Y796290D01*
X516890Y909320D02*
X516890Y943610D01*
X475860Y943610D02*
X467890Y935640D01*
X475860Y943610D02*
X516890Y943610D01*
D37*
X927100Y501650D03*
D35*
X933450Y508000D01*
X880110Y552450D02*
X880110Y603250D01*
X889000Y543560D02*
X925830Y543560D01*
X933450Y535940D01*
X889000Y543560D02*
X880110Y552450D01*
X933450Y535940D02*
X933450Y508000D01*
X934720Y603250D02*
X880110Y603250D01*
X825500Y387350D02*
X749300Y387350D01*
X825500Y387350D02*
X933450Y387350D01*
D37*
X552450Y381000D03*
D35*
X723900Y279400D02*
X730250Y273050D01*
X723900Y279400D02*
X673100Y279400D01*
X736600Y908050D02*
X756920Y908050D01*
X736600Y908050D02*
X730250Y914400D01*
X782320Y933450D02*
X782320Y971550D01*
X326390Y961390D02*
X326390Y946150D01*
X730250Y971550D02*
X782320Y971550D01*
X730250Y971550D02*
X336550Y971550D01*
X326390Y961390D01*
X730250Y971550D02*
X730250Y914400D01*
X857250Y190500D02*
X901700Y190500D01*
X920750Y209550D01*
X920750Y228600D01*
X361950Y584200D02*
X287020Y584200D01*
X284480Y581660D01*
X406219Y604520D02*
X426539Y584200D01*
X406219Y604520D02*
X361950Y604520D01*
X361950Y584200D01*
X361950Y604520D02*
X361950Y622300D01*
X355600Y628650D01*
X749300Y659130D02*
X749300Y673100D01*
X755650Y679450D01*
X806450Y679450D01*
X819150Y692150D01*
X819150Y711200D01*
X895350Y819150D02*
X920750Y819150D01*
X895350Y819150D02*
X882650Y819150D01*
X876300Y825500D01*
X895350Y819150D02*
X895350Y787400D01*
X787400Y838200D02*
X768350Y838200D01*
X787400Y838200D02*
X800100Y825500D01*
X781050Y787400D02*
X755650Y787400D01*
X742950Y787400D01*
X755650Y787400D02*
X755650Y819150D01*
X651510Y529590D02*
X651510Y495300D01*
X651510Y529590D02*
X656590Y534670D01*
X713740Y534670D01*
X730250Y551180D02*
X730250Y698500D01*
X742950Y711200D01*
X730250Y551180D02*
X713740Y534670D01*
X651510Y495300D02*
X588010Y431800D01*
X520700Y431800D01*
X165100Y346456D02*
X132588Y346456D01*
X165100Y346456D02*
X197612Y346456D01*
X127000Y374650D02*
X114300Y374650D01*
X101346Y361696D02*
X63500Y361696D01*
X101346Y361696D02*
X114300Y374650D01*
X158750Y374650D02*
X165100Y368300D01*
X165100Y346456D01*
X158750Y374650D02*
X127000Y374650D01*
X165100Y244856D02*
X197612Y244856D01*
X165100Y244856D02*
X132588Y244856D01*
X127000Y273050D02*
X114300Y273050D01*
X101346Y260096D02*
X63500Y260096D01*
X101346Y260096D02*
X114300Y273050D01*
X127000Y273050D02*
X158750Y273050D01*
X165100Y266700D01*
X165100Y244856D01*
X165100Y143256D02*
X197612Y143256D01*
X165100Y143256D02*
X132588Y143256D01*
X127000Y171450D02*
X114300Y171450D01*
X101346Y158496D02*
X63500Y158496D01*
X101346Y158496D02*
X114300Y171450D01*
X127000Y171450D02*
X152400Y171450D01*
X165100Y158750D01*
X165100Y143256D01*
X629920Y505460D02*
X629920Y543560D01*
X640080Y553720D01*
X702310Y553720D02*
X708660Y560070D01*
X702310Y553720D02*
X640080Y553720D01*
X708660Y925830D02*
X690880Y943610D01*
X708660Y925830D02*
X708660Y560070D01*
X629920Y505460D02*
X607060Y482600D01*
X520700Y482600D01*
X673100Y177800D02*
X698500Y177800D01*
X711200Y190500D01*
X730250Y190500D01*
X781050Y190500D01*
X361950Y419100D02*
X287020Y419100D01*
X284480Y416560D01*
X411299Y440690D02*
X426539Y419100D01*
X361950Y419100D02*
X361950Y440690D01*
X411299Y440690D01*
X361950Y440690D02*
X361950Y457200D01*
X355600Y463550D01*
X590550Y704850D02*
X590550Y720090D01*
X590550Y704850D02*
X582930Y697230D01*
X570230Y697230D01*
X565150Y692150D01*
X565150Y674370D01*
X520700Y76200D02*
X401320Y76200D01*
X394970Y83820D01*
X394970Y127000D01*
X438150Y101600D02*
X520700Y101600D01*
X438150Y101600D02*
X431800Y107950D01*
X431800Y127000D01*
X469900Y127000D02*
X520700Y127000D01*
X63500Y565404D02*
X139446Y641350D01*
X304800Y641350D01*
X63754Y615950D02*
X63500Y615696D01*
X63754Y615950D02*
X76200Y615950D01*
X161290Y701040D01*
X162560Y701040D01*
X76200Y476250D02*
X63500Y463550D01*
X76200Y476250D02*
X304800Y476250D01*
X85852Y535940D02*
X63500Y513588D01*
X85852Y535940D02*
X162560Y535940D01*
X162560Y416560D02*
X66548Y416560D01*
X63500Y413512D01*
X472440Y177800D02*
X520700Y177800D01*
X520700Y152400D02*
X452120Y152400D01*
X447040Y157480D02*
X447040Y177800D01*
X447040Y157480D02*
X452120Y152400D01*
X539750Y720090D02*
X565150Y720090D01*
X635000Y628650D02*
X641350Y622300D01*
X516890Y635000D02*
X516890Y709930D01*
X525780Y718820D01*
X539750Y720090D01*
X641350Y622300D02*
X641350Y598170D01*
X635000Y628650D02*
X523240Y628650D01*
X516890Y635000D01*
M02*
