M48
;GenerationSoftware,Autodesk,EAGLE,8.6.3*%
;CreationDate,2019-08-20T17:14:13Z*%
FMAT,2
ICI,OFF
METRIC,TZ,000.000
T12C0.800
T11C0.813
T10C0.850
T9C0.889
T8C0.900
T7C1.000
T6C1.016
T5C1.200
T4C1.270
T3C1.321
T2C1.400
T1C3.969
%
G90
M71
T1
X95250Y3810
X3810Y3810
X3810Y95250
X95250Y95250
T2
X46789Y88064
X46789Y93564
X42589Y88064
X38389Y93564
X42589Y93564
X38389Y88064
T3
X6350Y66700
X6350Y71730
X28448Y58166
X16256Y58166
X16256Y70104
X93345Y11455
X6350Y61570
X6350Y20980
X6350Y26010
X6350Y10820
X6350Y15850
X6350Y31140
X6350Y51359
X6350Y56540
X11811Y94615
X32639Y94615
X27559Y94615
X16891Y94615
X6350Y36170
X6350Y81940
X6350Y86970
X30480Y80645
X28448Y86614
X28448Y74676
X16256Y74676
X16256Y86614
X16256Y53594
X16256Y41656
X28448Y41656
X28448Y53594
X6350Y41351
X6350Y46355
X30480Y47625
X93345Y16485
X30480Y64135
X28448Y70104
T4
X88011Y60325
X75311Y60325
T5
X52070Y5080
X67310Y5080
X67310Y50800
X52070Y50800
T6
X66294Y89662
X66294Y84582
X66294Y87122
X44704Y17780
X42164Y17780
X39624Y17780
X53975Y54610
X19761Y30124
X56515Y54610
X59055Y54610
X47244Y17780
X93345Y43815
X93345Y41275
X93345Y38735
X13259Y9804
X13259Y14326
X19761Y14326
X19761Y9804
X13259Y24486
X13259Y19964
X19761Y24486
X19761Y19964
X13259Y34646
X13259Y30124
X19761Y34646
T7
X75692Y90805
X83312Y90805
X16510Y34646
X16510Y19964
X16510Y24486
X16510Y9804
X16510Y30124
X75692Y93345
X78232Y90805
X78232Y93345
X80772Y90805
X80772Y93345
X83312Y93345
X85852Y90805
X85852Y93345
X16510Y14326
T8
X67310Y30480
X67310Y33020
X67310Y35560
X67310Y38100
X67310Y40640
X67310Y43180
X67310Y45720
X67310Y48260
X52070Y10160
X52070Y17780
X52070Y20320
X67310Y12700
X52070Y25400
X52070Y27940
X52070Y30480
X52070Y33020
X52070Y22860
X52070Y35560
X52070Y38100
X52070Y40640
X52070Y43180
X52070Y12700
X52070Y48260
X67310Y7620
X67310Y10160
X67310Y15240
X67310Y17780
X52070Y45720
X67310Y20320
X67310Y22860
X67310Y25400
X52070Y15240
X67310Y27940
X52070Y7620
T9
X93472Y67945
X93472Y65405
X93472Y62865
X93472Y60325
X93472Y57785
T10
X71374Y50165
X92710Y50165
X55245Y38100
X55245Y30480
T11
X82550Y41275
X82550Y38735
X74930Y41275
X74930Y38735
X74930Y34290
X74930Y31750
X82550Y34290
X82550Y29210
X42545Y83185
X34925Y83185
X69215Y79629
X66675Y79629
X53975Y79629
X53975Y72009
X64135Y79629
X42654Y74930
X66675Y72009
X64135Y72009
X61595Y72009
X56515Y72009
X92075Y22860
X59055Y79629
X44450Y76726
X46246Y74930
X43180Y12700
X43180Y5080
X39497Y12700
X39497Y5080
X51689Y90932
X59309Y90932
X59309Y94361
X51689Y94361
X35560Y10160
X35560Y17780
X35560Y20320
X35560Y27940
X35560Y30480
X35560Y38100
X20320Y17145
X12700Y17145
X56515Y79629
X92075Y30480
X85725Y19050
X83185Y19050
X34925Y79375
X42545Y79375
X38735Y74930
X36195Y74930
X35560Y70485
X35560Y62865
X44450Y46355
X44450Y53975
X46246Y58420
X44450Y60216
X42654Y58420
X20320Y27305
X12700Y27305
X51689Y87122
X61849Y87122
X61468Y94361
X40005Y62865
X40005Y70485
X38735Y58420
X36195Y58420
X61595Y79629
X46246Y41910
X74295Y83820
X75565Y81915
X76835Y83820
X90805Y83820
X92075Y81915
X93345Y83820
X85725Y71120
X85725Y78740
X81915Y71120
X81915Y78740
X93345Y71120
X93345Y78740
X89535Y71120
X89535Y78740
X87630Y82550
X80010Y82550
X78105Y78740
X78105Y71120
X74295Y78740
X74295Y71120
X69088Y94361
X59944Y82931
X52324Y82931
X20320Y37465
X12700Y37465
X44450Y70485
X44450Y62865
X46990Y12700
X46990Y5080
X31750Y10160
X75565Y16510
X75565Y21590
X78105Y19050
X73025Y16510
X73025Y21590
X73025Y19050
X88265Y30480
X88265Y22860
X24130Y10160
X31750Y12700
X24130Y12700
X24130Y15240
X31750Y20320
X24130Y20320
X31750Y25400
X31750Y22860
X24130Y22860
X24130Y25400
X31750Y30480
X24130Y30480
X31750Y35560
X31750Y33020
X24130Y33020
X24130Y35560
X59055Y72009
X13335Y6985
X35560Y53975
X35560Y46355
X44450Y30480
X44450Y38100
X31750Y15240
X44450Y43706
X42654Y41910
X13335Y4445
X20320Y6985
X20320Y4445
X27305Y6985
X27305Y4445
X40005Y46355
X40005Y53975
X38735Y41910
X36195Y41910
X53975Y59817
X56515Y59817
X69215Y59817
X69215Y67437
X59055Y59817
X61595Y59817
X66675Y59817
X64135Y59817
X66675Y67437
X64135Y67437
X61595Y67437
X59055Y67437
X56515Y67437
X53975Y67437
X74930Y28575
X73025Y27305
X74930Y26035
X69215Y72009
T12
X77305Y3990
X83705Y6690
X80905Y9490
X78905Y3990
X80905Y11090
X83705Y8290
X74930Y65913
X85090Y65913
M30