G04 EAGLE Gerber X2 export*
%TF.Part,Single*%
%TF.FileFunction,Profile,NP*%
%TF.FilePolarity,Positive*%
%TF.GenerationSoftware,Autodesk,EAGLE,8.6.3*%
%TF.CreationDate,2019-08-20T17:14:19Z*%
G75*
%MOMM*%
%FSLAX34Y34*%
%LPD*%
%AMOC8*
5,1,8,0,0,1.08239X$1,22.5*%
G01*
%ADD10C,0.254000*%


D10*
X0Y12700D02*
X48Y11593D01*
X193Y10495D01*
X433Y9413D01*
X766Y8356D01*
X1190Y7333D01*
X1701Y6350D01*
X2297Y5416D01*
X2971Y4537D01*
X3720Y3720D01*
X4537Y2971D01*
X5416Y2297D01*
X6350Y1701D01*
X7333Y1190D01*
X8356Y766D01*
X9413Y433D01*
X10495Y193D01*
X11593Y48D01*
X12700Y0D01*
X977900Y0D01*
X979007Y48D01*
X980105Y193D01*
X981187Y433D01*
X982244Y766D01*
X983267Y1190D01*
X984250Y1701D01*
X985184Y2297D01*
X986063Y2971D01*
X986880Y3720D01*
X987629Y4537D01*
X988303Y5416D01*
X988899Y6350D01*
X989410Y7333D01*
X989834Y8356D01*
X990167Y9413D01*
X990407Y10495D01*
X990552Y11593D01*
X990600Y12700D01*
X990600Y977900D01*
X990552Y979007D01*
X990407Y980105D01*
X990167Y981187D01*
X989834Y982244D01*
X989410Y983267D01*
X988899Y984250D01*
X988303Y985184D01*
X987629Y986063D01*
X986880Y986880D01*
X986063Y987629D01*
X985184Y988303D01*
X984250Y988899D01*
X983267Y989410D01*
X982244Y989834D01*
X981187Y990167D01*
X980105Y990407D01*
X979007Y990552D01*
X977900Y990600D01*
X12700Y990600D01*
X11593Y990552D01*
X10495Y990407D01*
X9413Y990167D01*
X8356Y989834D01*
X7333Y989410D01*
X6350Y988899D01*
X5416Y988303D01*
X4537Y987629D01*
X3720Y986880D01*
X2971Y986063D01*
X2297Y985184D01*
X1701Y984250D01*
X1190Y983267D01*
X766Y982244D01*
X433Y981187D01*
X193Y980105D01*
X48Y979007D01*
X0Y977900D01*
X0Y12700D01*
X833050Y59900D02*
X841050Y59900D01*
X841050Y89900D01*
X833050Y89900D01*
X833050Y59900D01*
X763550Y35900D02*
X798550Y35900D01*
X798550Y43900D01*
X763550Y43900D01*
X763550Y35900D01*
X805050Y87900D02*
X813050Y87900D01*
X813050Y117900D01*
X805050Y117900D01*
X805050Y87900D01*
X57944Y951900D02*
X57871Y950703D01*
X57727Y949513D01*
X57511Y948333D01*
X57224Y947169D01*
X56867Y946024D01*
X56442Y944903D01*
X55949Y943809D01*
X55392Y942747D01*
X54772Y941721D01*
X54090Y940734D01*
X53351Y939790D01*
X52556Y938892D01*
X51708Y938044D01*
X50810Y937249D01*
X49866Y936510D01*
X48879Y935828D01*
X47853Y935208D01*
X46791Y934651D01*
X45697Y934158D01*
X44576Y933733D01*
X43431Y933376D01*
X42267Y933089D01*
X41087Y932873D01*
X39897Y932729D01*
X38700Y932656D01*
X37500Y932656D01*
X36303Y932729D01*
X35113Y932873D01*
X33933Y933089D01*
X32769Y933376D01*
X31624Y933733D01*
X30503Y934158D01*
X29409Y934651D01*
X28347Y935208D01*
X27321Y935828D01*
X26334Y936510D01*
X25390Y937249D01*
X24492Y938044D01*
X23644Y938892D01*
X22849Y939790D01*
X22110Y940734D01*
X21428Y941721D01*
X20808Y942747D01*
X20251Y943809D01*
X19758Y944903D01*
X19333Y946024D01*
X18976Y947169D01*
X18689Y948333D01*
X18473Y949513D01*
X18329Y950703D01*
X18256Y951900D01*
X18256Y953100D01*
X18329Y954297D01*
X18473Y955487D01*
X18689Y956667D01*
X18976Y957831D01*
X19333Y958976D01*
X19758Y960097D01*
X20251Y961191D01*
X20808Y962253D01*
X21428Y963279D01*
X22110Y964266D01*
X22849Y965210D01*
X23644Y966108D01*
X24492Y966956D01*
X25390Y967751D01*
X26334Y968490D01*
X27321Y969172D01*
X28347Y969792D01*
X29409Y970349D01*
X30503Y970842D01*
X31624Y971267D01*
X32769Y971624D01*
X33933Y971911D01*
X35113Y972127D01*
X36303Y972271D01*
X37500Y972344D01*
X38700Y972344D01*
X39897Y972271D01*
X41087Y972127D01*
X42267Y971911D01*
X43431Y971624D01*
X44576Y971267D01*
X45697Y970842D01*
X46791Y970349D01*
X47853Y969792D01*
X48879Y969172D01*
X49866Y968490D01*
X50810Y967751D01*
X51708Y966956D01*
X52556Y966108D01*
X53351Y965210D01*
X54090Y964266D01*
X54772Y963279D01*
X55392Y962253D01*
X55949Y961191D01*
X56442Y960097D01*
X56867Y958976D01*
X57224Y957831D01*
X57511Y956667D01*
X57727Y955487D01*
X57871Y954297D01*
X57944Y953100D01*
X57944Y951900D01*
X972344Y951900D02*
X972271Y950703D01*
X972127Y949513D01*
X971911Y948333D01*
X971624Y947169D01*
X971267Y946024D01*
X970842Y944903D01*
X970349Y943809D01*
X969792Y942747D01*
X969172Y941721D01*
X968490Y940734D01*
X967751Y939790D01*
X966956Y938892D01*
X966108Y938044D01*
X965210Y937249D01*
X964266Y936510D01*
X963279Y935828D01*
X962253Y935208D01*
X961191Y934651D01*
X960097Y934158D01*
X958976Y933733D01*
X957831Y933376D01*
X956667Y933089D01*
X955487Y932873D01*
X954297Y932729D01*
X953100Y932656D01*
X951900Y932656D01*
X950703Y932729D01*
X949513Y932873D01*
X948333Y933089D01*
X947169Y933376D01*
X946024Y933733D01*
X944903Y934158D01*
X943809Y934651D01*
X942747Y935208D01*
X941721Y935828D01*
X940734Y936510D01*
X939790Y937249D01*
X938892Y938044D01*
X938044Y938892D01*
X937249Y939790D01*
X936510Y940734D01*
X935828Y941721D01*
X935208Y942747D01*
X934651Y943809D01*
X934158Y944903D01*
X933733Y946024D01*
X933376Y947169D01*
X933089Y948333D01*
X932873Y949513D01*
X932729Y950703D01*
X932656Y951900D01*
X932656Y953100D01*
X932729Y954297D01*
X932873Y955487D01*
X933089Y956667D01*
X933376Y957831D01*
X933733Y958976D01*
X934158Y960097D01*
X934651Y961191D01*
X935208Y962253D01*
X935828Y963279D01*
X936510Y964266D01*
X937249Y965210D01*
X938044Y966108D01*
X938892Y966956D01*
X939790Y967751D01*
X940734Y968490D01*
X941721Y969172D01*
X942747Y969792D01*
X943809Y970349D01*
X944903Y970842D01*
X946024Y971267D01*
X947169Y971624D01*
X948333Y971911D01*
X949513Y972127D01*
X950703Y972271D01*
X951900Y972344D01*
X953100Y972344D01*
X954297Y972271D01*
X955487Y972127D01*
X956667Y971911D01*
X957831Y971624D01*
X958976Y971267D01*
X960097Y970842D01*
X961191Y970349D01*
X962253Y969792D01*
X963279Y969172D01*
X964266Y968490D01*
X965210Y967751D01*
X966108Y966956D01*
X966956Y966108D01*
X967751Y965210D01*
X968490Y964266D01*
X969172Y963279D01*
X969792Y962253D01*
X970349Y961191D01*
X970842Y960097D01*
X971267Y958976D01*
X971624Y957831D01*
X971911Y956667D01*
X972127Y955487D01*
X972271Y954297D01*
X972344Y953100D01*
X972344Y951900D01*
X972344Y37500D02*
X972271Y36303D01*
X972127Y35113D01*
X971911Y33933D01*
X971624Y32769D01*
X971267Y31624D01*
X970842Y30503D01*
X970349Y29409D01*
X969792Y28347D01*
X969172Y27321D01*
X968490Y26334D01*
X967751Y25390D01*
X966956Y24492D01*
X966108Y23644D01*
X965210Y22849D01*
X964266Y22110D01*
X963279Y21428D01*
X962253Y20808D01*
X961191Y20251D01*
X960097Y19758D01*
X958976Y19333D01*
X957831Y18976D01*
X956667Y18689D01*
X955487Y18473D01*
X954297Y18329D01*
X953100Y18256D01*
X951900Y18256D01*
X950703Y18329D01*
X949513Y18473D01*
X948333Y18689D01*
X947169Y18976D01*
X946024Y19333D01*
X944903Y19758D01*
X943809Y20251D01*
X942747Y20808D01*
X941721Y21428D01*
X940734Y22110D01*
X939790Y22849D01*
X938892Y23644D01*
X938044Y24492D01*
X937249Y25390D01*
X936510Y26334D01*
X935828Y27321D01*
X935208Y28347D01*
X934651Y29409D01*
X934158Y30503D01*
X933733Y31624D01*
X933376Y32769D01*
X933089Y33933D01*
X932873Y35113D01*
X932729Y36303D01*
X932656Y37500D01*
X932656Y38700D01*
X932729Y39897D01*
X932873Y41087D01*
X933089Y42267D01*
X933376Y43431D01*
X933733Y44576D01*
X934158Y45697D01*
X934651Y46791D01*
X935208Y47853D01*
X935828Y48879D01*
X936510Y49866D01*
X937249Y50810D01*
X938044Y51708D01*
X938892Y52556D01*
X939790Y53351D01*
X940734Y54090D01*
X941721Y54772D01*
X942747Y55392D01*
X943809Y55949D01*
X944903Y56442D01*
X946024Y56867D01*
X947169Y57224D01*
X948333Y57511D01*
X949513Y57727D01*
X950703Y57871D01*
X951900Y57944D01*
X953100Y57944D01*
X954297Y57871D01*
X955487Y57727D01*
X956667Y57511D01*
X957831Y57224D01*
X958976Y56867D01*
X960097Y56442D01*
X961191Y55949D01*
X962253Y55392D01*
X963279Y54772D01*
X964266Y54090D01*
X965210Y53351D01*
X966108Y52556D01*
X966956Y51708D01*
X967751Y50810D01*
X968490Y49866D01*
X969172Y48879D01*
X969792Y47853D01*
X970349Y46791D01*
X970842Y45697D01*
X971267Y44576D01*
X971624Y43431D01*
X971911Y42267D01*
X972127Y41087D01*
X972271Y39897D01*
X972344Y38700D01*
X972344Y37500D01*
X57944Y37500D02*
X57871Y36303D01*
X57727Y35113D01*
X57511Y33933D01*
X57224Y32769D01*
X56867Y31624D01*
X56442Y30503D01*
X55949Y29409D01*
X55392Y28347D01*
X54772Y27321D01*
X54090Y26334D01*
X53351Y25390D01*
X52556Y24492D01*
X51708Y23644D01*
X50810Y22849D01*
X49866Y22110D01*
X48879Y21428D01*
X47853Y20808D01*
X46791Y20251D01*
X45697Y19758D01*
X44576Y19333D01*
X43431Y18976D01*
X42267Y18689D01*
X41087Y18473D01*
X39897Y18329D01*
X38700Y18256D01*
X37500Y18256D01*
X36303Y18329D01*
X35113Y18473D01*
X33933Y18689D01*
X32769Y18976D01*
X31624Y19333D01*
X30503Y19758D01*
X29409Y20251D01*
X28347Y20808D01*
X27321Y21428D01*
X26334Y22110D01*
X25390Y22849D01*
X24492Y23644D01*
X23644Y24492D01*
X22849Y25390D01*
X22110Y26334D01*
X21428Y27321D01*
X20808Y28347D01*
X20251Y29409D01*
X19758Y30503D01*
X19333Y31624D01*
X18976Y32769D01*
X18689Y33933D01*
X18473Y35113D01*
X18329Y36303D01*
X18256Y37500D01*
X18256Y38700D01*
X18329Y39897D01*
X18473Y41087D01*
X18689Y42267D01*
X18976Y43431D01*
X19333Y44576D01*
X19758Y45697D01*
X20251Y46791D01*
X20808Y47853D01*
X21428Y48879D01*
X22110Y49866D01*
X22849Y50810D01*
X23644Y51708D01*
X24492Y52556D01*
X25390Y53351D01*
X26334Y54090D01*
X27321Y54772D01*
X28347Y55392D01*
X29409Y55949D01*
X30503Y56442D01*
X31624Y56867D01*
X32769Y57224D01*
X33933Y57511D01*
X35113Y57727D01*
X36303Y57871D01*
X37500Y57944D01*
X38700Y57944D01*
X39897Y57871D01*
X41087Y57727D01*
X42267Y57511D01*
X43431Y57224D01*
X44576Y56867D01*
X45697Y56442D01*
X46791Y55949D01*
X47853Y55392D01*
X48879Y54772D01*
X49866Y54090D01*
X50810Y53351D01*
X51708Y52556D01*
X52556Y51708D01*
X53351Y50810D01*
X54090Y49866D01*
X54772Y48879D01*
X55392Y47853D01*
X55949Y46791D01*
X56442Y45697D01*
X56867Y44576D01*
X57224Y43431D01*
X57511Y42267D01*
X57727Y41087D01*
X57871Y39897D01*
X57944Y38700D01*
X57944Y37500D01*
X57944Y951900D02*
X57871Y950703D01*
X57727Y949513D01*
X57511Y948333D01*
X57224Y947169D01*
X56867Y946024D01*
X56442Y944903D01*
X55949Y943809D01*
X55392Y942747D01*
X54772Y941721D01*
X54090Y940734D01*
X53351Y939790D01*
X52556Y938892D01*
X51708Y938044D01*
X50810Y937249D01*
X49866Y936510D01*
X48879Y935828D01*
X47853Y935208D01*
X46791Y934651D01*
X45697Y934158D01*
X44576Y933733D01*
X43431Y933376D01*
X42267Y933089D01*
X41087Y932873D01*
X39897Y932729D01*
X38700Y932656D01*
X37500Y932656D01*
X36303Y932729D01*
X35113Y932873D01*
X33933Y933089D01*
X32769Y933376D01*
X31624Y933733D01*
X30503Y934158D01*
X29409Y934651D01*
X28347Y935208D01*
X27321Y935828D01*
X26334Y936510D01*
X25390Y937249D01*
X24492Y938044D01*
X23644Y938892D01*
X22849Y939790D01*
X22110Y940734D01*
X21428Y941721D01*
X20808Y942747D01*
X20251Y943809D01*
X19758Y944903D01*
X19333Y946024D01*
X18976Y947169D01*
X18689Y948333D01*
X18473Y949513D01*
X18329Y950703D01*
X18256Y951900D01*
X18256Y953100D01*
X18329Y954297D01*
X18473Y955487D01*
X18689Y956667D01*
X18976Y957831D01*
X19333Y958976D01*
X19758Y960097D01*
X20251Y961191D01*
X20808Y962253D01*
X21428Y963279D01*
X22110Y964266D01*
X22849Y965210D01*
X23644Y966108D01*
X24492Y966956D01*
X25390Y967751D01*
X26334Y968490D01*
X27321Y969172D01*
X28347Y969792D01*
X29409Y970349D01*
X30503Y970842D01*
X31624Y971267D01*
X32769Y971624D01*
X33933Y971911D01*
X35113Y972127D01*
X36303Y972271D01*
X37500Y972344D01*
X38700Y972344D01*
X39897Y972271D01*
X41087Y972127D01*
X42267Y971911D01*
X43431Y971624D01*
X44576Y971267D01*
X45697Y970842D01*
X46791Y970349D01*
X47853Y969792D01*
X48879Y969172D01*
X49866Y968490D01*
X50810Y967751D01*
X51708Y966956D01*
X52556Y966108D01*
X53351Y965210D01*
X54090Y964266D01*
X54772Y963279D01*
X55392Y962253D01*
X55949Y961191D01*
X56442Y960097D01*
X56867Y958976D01*
X57224Y957831D01*
X57511Y956667D01*
X57727Y955487D01*
X57871Y954297D01*
X57944Y953100D01*
X57944Y951900D01*
X972344Y951900D02*
X972271Y950703D01*
X972127Y949513D01*
X971911Y948333D01*
X971624Y947169D01*
X971267Y946024D01*
X970842Y944903D01*
X970349Y943809D01*
X969792Y942747D01*
X969172Y941721D01*
X968490Y940734D01*
X967751Y939790D01*
X966956Y938892D01*
X966108Y938044D01*
X965210Y937249D01*
X964266Y936510D01*
X963279Y935828D01*
X962253Y935208D01*
X961191Y934651D01*
X960097Y934158D01*
X958976Y933733D01*
X957831Y933376D01*
X956667Y933089D01*
X955487Y932873D01*
X954297Y932729D01*
X953100Y932656D01*
X951900Y932656D01*
X950703Y932729D01*
X949513Y932873D01*
X948333Y933089D01*
X947169Y933376D01*
X946024Y933733D01*
X944903Y934158D01*
X943809Y934651D01*
X942747Y935208D01*
X941721Y935828D01*
X940734Y936510D01*
X939790Y937249D01*
X938892Y938044D01*
X938044Y938892D01*
X937249Y939790D01*
X936510Y940734D01*
X935828Y941721D01*
X935208Y942747D01*
X934651Y943809D01*
X934158Y944903D01*
X933733Y946024D01*
X933376Y947169D01*
X933089Y948333D01*
X932873Y949513D01*
X932729Y950703D01*
X932656Y951900D01*
X932656Y953100D01*
X932729Y954297D01*
X932873Y955487D01*
X933089Y956667D01*
X933376Y957831D01*
X933733Y958976D01*
X934158Y960097D01*
X934651Y961191D01*
X935208Y962253D01*
X935828Y963279D01*
X936510Y964266D01*
X937249Y965210D01*
X938044Y966108D01*
X938892Y966956D01*
X939790Y967751D01*
X940734Y968490D01*
X941721Y969172D01*
X942747Y969792D01*
X943809Y970349D01*
X944903Y970842D01*
X946024Y971267D01*
X947169Y971624D01*
X948333Y971911D01*
X949513Y972127D01*
X950703Y972271D01*
X951900Y972344D01*
X953100Y972344D01*
X954297Y972271D01*
X955487Y972127D01*
X956667Y971911D01*
X957831Y971624D01*
X958976Y971267D01*
X960097Y970842D01*
X961191Y970349D01*
X962253Y969792D01*
X963279Y969172D01*
X964266Y968490D01*
X965210Y967751D01*
X966108Y966956D01*
X966956Y966108D01*
X967751Y965210D01*
X968490Y964266D01*
X969172Y963279D01*
X969792Y962253D01*
X970349Y961191D01*
X970842Y960097D01*
X971267Y958976D01*
X971624Y957831D01*
X971911Y956667D01*
X972127Y955487D01*
X972271Y954297D01*
X972344Y953100D01*
X972344Y951900D01*
X972344Y37500D02*
X972271Y36303D01*
X972127Y35113D01*
X971911Y33933D01*
X971624Y32769D01*
X971267Y31624D01*
X970842Y30503D01*
X970349Y29409D01*
X969792Y28347D01*
X969172Y27321D01*
X968490Y26334D01*
X967751Y25390D01*
X966956Y24492D01*
X966108Y23644D01*
X965210Y22849D01*
X964266Y22110D01*
X963279Y21428D01*
X962253Y20808D01*
X961191Y20251D01*
X960097Y19758D01*
X958976Y19333D01*
X957831Y18976D01*
X956667Y18689D01*
X955487Y18473D01*
X954297Y18329D01*
X953100Y18256D01*
X951900Y18256D01*
X950703Y18329D01*
X949513Y18473D01*
X948333Y18689D01*
X947169Y18976D01*
X946024Y19333D01*
X944903Y19758D01*
X943809Y20251D01*
X942747Y20808D01*
X941721Y21428D01*
X940734Y22110D01*
X939790Y22849D01*
X938892Y23644D01*
X938044Y24492D01*
X937249Y25390D01*
X936510Y26334D01*
X935828Y27321D01*
X935208Y28347D01*
X934651Y29409D01*
X934158Y30503D01*
X933733Y31624D01*
X933376Y32769D01*
X933089Y33933D01*
X932873Y35113D01*
X932729Y36303D01*
X932656Y37500D01*
X932656Y38700D01*
X932729Y39897D01*
X932873Y41087D01*
X933089Y42267D01*
X933376Y43431D01*
X933733Y44576D01*
X934158Y45697D01*
X934651Y46791D01*
X935208Y47853D01*
X935828Y48879D01*
X936510Y49866D01*
X937249Y50810D01*
X938044Y51708D01*
X938892Y52556D01*
X939790Y53351D01*
X940734Y54090D01*
X941721Y54772D01*
X942747Y55392D01*
X943809Y55949D01*
X944903Y56442D01*
X946024Y56867D01*
X947169Y57224D01*
X948333Y57511D01*
X949513Y57727D01*
X950703Y57871D01*
X951900Y57944D01*
X953100Y57944D01*
X954297Y57871D01*
X955487Y57727D01*
X956667Y57511D01*
X957831Y57224D01*
X958976Y56867D01*
X960097Y56442D01*
X961191Y55949D01*
X962253Y55392D01*
X963279Y54772D01*
X964266Y54090D01*
X965210Y53351D01*
X966108Y52556D01*
X966956Y51708D01*
X967751Y50810D01*
X968490Y49866D01*
X969172Y48879D01*
X969792Y47853D01*
X970349Y46791D01*
X970842Y45697D01*
X971267Y44576D01*
X971624Y43431D01*
X971911Y42267D01*
X972127Y41087D01*
X972271Y39897D01*
X972344Y38700D01*
X972344Y37500D01*
X57944Y37500D02*
X57871Y36303D01*
X57727Y35113D01*
X57511Y33933D01*
X57224Y32769D01*
X56867Y31624D01*
X56442Y30503D01*
X55949Y29409D01*
X55392Y28347D01*
X54772Y27321D01*
X54090Y26334D01*
X53351Y25390D01*
X52556Y24492D01*
X51708Y23644D01*
X50810Y22849D01*
X49866Y22110D01*
X48879Y21428D01*
X47853Y20808D01*
X46791Y20251D01*
X45697Y19758D01*
X44576Y19333D01*
X43431Y18976D01*
X42267Y18689D01*
X41087Y18473D01*
X39897Y18329D01*
X38700Y18256D01*
X37500Y18256D01*
X36303Y18329D01*
X35113Y18473D01*
X33933Y18689D01*
X32769Y18976D01*
X31624Y19333D01*
X30503Y19758D01*
X29409Y20251D01*
X28347Y20808D01*
X27321Y21428D01*
X26334Y22110D01*
X25390Y22849D01*
X24492Y23644D01*
X23644Y24492D01*
X22849Y25390D01*
X22110Y26334D01*
X21428Y27321D01*
X20808Y28347D01*
X20251Y29409D01*
X19758Y30503D01*
X19333Y31624D01*
X18976Y32769D01*
X18689Y33933D01*
X18473Y35113D01*
X18329Y36303D01*
X18256Y37500D01*
X18256Y38700D01*
X18329Y39897D01*
X18473Y41087D01*
X18689Y42267D01*
X18976Y43431D01*
X19333Y44576D01*
X19758Y45697D01*
X20251Y46791D01*
X20808Y47853D01*
X21428Y48879D01*
X22110Y49866D01*
X22849Y50810D01*
X23644Y51708D01*
X24492Y52556D01*
X25390Y53351D01*
X26334Y54090D01*
X27321Y54772D01*
X28347Y55392D01*
X29409Y55949D01*
X30503Y56442D01*
X31624Y56867D01*
X32769Y57224D01*
X33933Y57511D01*
X35113Y57727D01*
X36303Y57871D01*
X37500Y57944D01*
X38700Y57944D01*
X39897Y57871D01*
X41087Y57727D01*
X42267Y57511D01*
X43431Y57224D01*
X44576Y56867D01*
X45697Y56442D01*
X46791Y55949D01*
X47853Y55392D01*
X48879Y54772D01*
X49866Y54090D01*
X50810Y53351D01*
X51708Y52556D01*
X52556Y51708D01*
X53351Y50810D01*
X54090Y49866D01*
X54772Y48879D01*
X55392Y47853D01*
X55949Y46791D01*
X56442Y45697D01*
X56867Y44576D01*
X57224Y43431D01*
X57511Y42267D01*
X57727Y41087D01*
X57871Y39897D01*
X57944Y38700D01*
X57944Y37500D01*
X526700Y50463D02*
X526625Y49793D01*
X526475Y49136D01*
X526252Y48500D01*
X525960Y47893D01*
X525601Y47323D01*
X525181Y46796D01*
X524704Y46319D01*
X524178Y45899D01*
X523607Y45540D01*
X523000Y45248D01*
X522364Y45025D01*
X521707Y44875D01*
X521037Y44800D01*
X520363Y44800D01*
X519693Y44875D01*
X519036Y45025D01*
X518400Y45248D01*
X517793Y45540D01*
X517223Y45899D01*
X516696Y46319D01*
X516219Y46796D01*
X515799Y47323D01*
X515440Y47893D01*
X515148Y48500D01*
X514925Y49136D01*
X514775Y49793D01*
X514700Y50463D01*
X514700Y51137D01*
X514775Y51807D01*
X514925Y52464D01*
X515148Y53100D01*
X515440Y53707D01*
X515799Y54278D01*
X516219Y54804D01*
X516696Y55281D01*
X517223Y55701D01*
X517793Y56060D01*
X518400Y56352D01*
X519036Y56575D01*
X519693Y56725D01*
X520363Y56800D01*
X521037Y56800D01*
X521707Y56725D01*
X522364Y56575D01*
X523000Y56352D01*
X523607Y56060D01*
X524178Y55701D01*
X524704Y55281D01*
X525181Y54804D01*
X525601Y54278D01*
X525960Y53707D01*
X526252Y53100D01*
X526475Y52464D01*
X526625Y51807D01*
X526700Y51137D01*
X526700Y50463D01*
X679100Y50463D02*
X679025Y49793D01*
X678875Y49136D01*
X678652Y48500D01*
X678360Y47893D01*
X678001Y47323D01*
X677581Y46796D01*
X677104Y46319D01*
X676578Y45899D01*
X676007Y45540D01*
X675400Y45248D01*
X674764Y45025D01*
X674107Y44875D01*
X673437Y44800D01*
X672763Y44800D01*
X672093Y44875D01*
X671436Y45025D01*
X670800Y45248D01*
X670193Y45540D01*
X669623Y45899D01*
X669096Y46319D01*
X668619Y46796D01*
X668199Y47323D01*
X667840Y47893D01*
X667548Y48500D01*
X667325Y49136D01*
X667175Y49793D01*
X667100Y50463D01*
X667100Y51137D01*
X667175Y51807D01*
X667325Y52464D01*
X667548Y53100D01*
X667840Y53707D01*
X668199Y54278D01*
X668619Y54804D01*
X669096Y55281D01*
X669623Y55701D01*
X670193Y56060D01*
X670800Y56352D01*
X671436Y56575D01*
X672093Y56725D01*
X672763Y56800D01*
X673437Y56800D01*
X674107Y56725D01*
X674764Y56575D01*
X675400Y56352D01*
X676007Y56060D01*
X676578Y55701D01*
X677104Y55281D01*
X677581Y54804D01*
X678001Y54278D01*
X678360Y53707D01*
X678652Y53100D01*
X678875Y52464D01*
X679025Y51807D01*
X679100Y51137D01*
X679100Y50463D01*
X526700Y507663D02*
X526625Y506993D01*
X526475Y506336D01*
X526252Y505700D01*
X525960Y505093D01*
X525601Y504523D01*
X525181Y503996D01*
X524704Y503519D01*
X524178Y503099D01*
X523607Y502740D01*
X523000Y502448D01*
X522364Y502225D01*
X521707Y502075D01*
X521037Y502000D01*
X520363Y502000D01*
X519693Y502075D01*
X519036Y502225D01*
X518400Y502448D01*
X517793Y502740D01*
X517223Y503099D01*
X516696Y503519D01*
X516219Y503996D01*
X515799Y504523D01*
X515440Y505093D01*
X515148Y505700D01*
X514925Y506336D01*
X514775Y506993D01*
X514700Y507663D01*
X514700Y508337D01*
X514775Y509007D01*
X514925Y509664D01*
X515148Y510300D01*
X515440Y510907D01*
X515799Y511478D01*
X516219Y512004D01*
X516696Y512481D01*
X517223Y512901D01*
X517793Y513260D01*
X518400Y513552D01*
X519036Y513775D01*
X519693Y513925D01*
X520363Y514000D01*
X521037Y514000D01*
X521707Y513925D01*
X522364Y513775D01*
X523000Y513552D01*
X523607Y513260D01*
X524178Y512901D01*
X524704Y512481D01*
X525181Y512004D01*
X525601Y511478D01*
X525960Y510907D01*
X526252Y510300D01*
X526475Y509664D01*
X526625Y509007D01*
X526700Y508337D01*
X526700Y507663D01*
X679100Y507663D02*
X679025Y506993D01*
X678875Y506336D01*
X678652Y505700D01*
X678360Y505093D01*
X678001Y504523D01*
X677581Y503996D01*
X677104Y503519D01*
X676578Y503099D01*
X676007Y502740D01*
X675400Y502448D01*
X674764Y502225D01*
X674107Y502075D01*
X673437Y502000D01*
X672763Y502000D01*
X672093Y502075D01*
X671436Y502225D01*
X670800Y502448D01*
X670193Y502740D01*
X669623Y503099D01*
X669096Y503519D01*
X668619Y503996D01*
X668199Y504523D01*
X667840Y505093D01*
X667548Y505700D01*
X667325Y506336D01*
X667175Y506993D01*
X667100Y507663D01*
X667100Y508337D01*
X667175Y509007D01*
X667325Y509664D01*
X667548Y510300D01*
X667840Y510907D01*
X668199Y511478D01*
X668619Y512004D01*
X669096Y512481D01*
X669623Y512901D01*
X670193Y513260D01*
X670800Y513552D01*
X671436Y513775D01*
X672093Y513925D01*
X672763Y514000D01*
X673437Y514000D01*
X674107Y513925D01*
X674764Y513775D01*
X675400Y513552D01*
X676007Y513260D01*
X676578Y512901D01*
X677104Y512481D01*
X677581Y512004D01*
X678001Y511478D01*
X678360Y510907D01*
X678652Y510300D01*
X678875Y509664D01*
X679025Y509007D01*
X679100Y508337D01*
X679100Y507663D01*
M02*
