G04 EAGLE Gerber X2 export*
%TF.Part,Single*%
%TF.FileFunction,Legend,Bot,1*%
%TF.FilePolarity,Positive*%
%TF.GenerationSoftware,Autodesk,EAGLE,8.6.3*%
%TF.CreationDate,2019-08-20T17:14:43Z*%
G75*
%MOMM*%
%FSLAX34Y34*%
%LPD*%
%AMOC8*
5,1,8,0,0,1.08239X$1,22.5*%
G01*
%ADD10C,0.152400*%


D10*
X601472Y28138D02*
X617728Y28138D01*
X617728Y32653D02*
X617728Y23622D01*
X607794Y41160D02*
X607794Y45224D01*
X607794Y41160D02*
X607792Y41048D01*
X607786Y40937D01*
X607776Y40826D01*
X607763Y40715D01*
X607745Y40605D01*
X607723Y40496D01*
X607698Y40387D01*
X607669Y40279D01*
X607636Y40173D01*
X607599Y40067D01*
X607559Y39963D01*
X607515Y39861D01*
X607467Y39760D01*
X607416Y39661D01*
X607361Y39563D01*
X607303Y39468D01*
X607242Y39375D01*
X607177Y39284D01*
X607109Y39195D01*
X607038Y39109D01*
X606965Y39026D01*
X606888Y38945D01*
X606808Y38866D01*
X606726Y38791D01*
X606641Y38719D01*
X606554Y38649D01*
X606464Y38583D01*
X606372Y38520D01*
X606277Y38460D01*
X606181Y38404D01*
X606083Y38351D01*
X605983Y38302D01*
X605881Y38256D01*
X605778Y38214D01*
X605673Y38175D01*
X605567Y38140D01*
X605460Y38109D01*
X605352Y38082D01*
X605243Y38058D01*
X605133Y38039D01*
X605023Y38023D01*
X604912Y38011D01*
X604800Y38003D01*
X604689Y37999D01*
X604577Y37999D01*
X604466Y38003D01*
X604354Y38011D01*
X604243Y38023D01*
X604133Y38039D01*
X604023Y38058D01*
X603914Y38082D01*
X603806Y38109D01*
X603699Y38140D01*
X603593Y38175D01*
X603488Y38214D01*
X603385Y38256D01*
X603283Y38302D01*
X603183Y38351D01*
X603085Y38404D01*
X602989Y38460D01*
X602894Y38520D01*
X602802Y38583D01*
X602712Y38649D01*
X602625Y38719D01*
X602540Y38791D01*
X602458Y38866D01*
X602378Y38945D01*
X602301Y39026D01*
X602228Y39109D01*
X602157Y39195D01*
X602089Y39284D01*
X602024Y39375D01*
X601963Y39468D01*
X601905Y39563D01*
X601850Y39661D01*
X601799Y39760D01*
X601751Y39861D01*
X601707Y39963D01*
X601667Y40067D01*
X601630Y40173D01*
X601597Y40279D01*
X601568Y40387D01*
X601543Y40496D01*
X601521Y40605D01*
X601503Y40715D01*
X601490Y40826D01*
X601480Y40937D01*
X601474Y41048D01*
X601472Y41160D01*
X601472Y45224D01*
X609600Y45224D01*
X609600Y45223D02*
X609701Y45221D01*
X609802Y45215D01*
X609903Y45206D01*
X610004Y45193D01*
X610104Y45176D01*
X610203Y45155D01*
X610301Y45131D01*
X610398Y45103D01*
X610495Y45071D01*
X610590Y45036D01*
X610683Y44997D01*
X610775Y44955D01*
X610866Y44909D01*
X610955Y44860D01*
X611041Y44808D01*
X611126Y44752D01*
X611209Y44694D01*
X611289Y44632D01*
X611367Y44567D01*
X611443Y44500D01*
X611516Y44430D01*
X611586Y44357D01*
X611653Y44281D01*
X611718Y44203D01*
X611780Y44123D01*
X611838Y44040D01*
X611894Y43955D01*
X611946Y43869D01*
X611995Y43780D01*
X612041Y43689D01*
X612083Y43597D01*
X612122Y43504D01*
X612157Y43409D01*
X612189Y43312D01*
X612217Y43215D01*
X612241Y43117D01*
X612262Y43018D01*
X612279Y42918D01*
X612292Y42817D01*
X612301Y42716D01*
X612307Y42615D01*
X612309Y42514D01*
X612309Y38902D01*
X612309Y52746D02*
X601472Y52746D01*
X612309Y52746D02*
X612309Y58165D01*
X610503Y58165D01*
X612309Y62804D02*
X598763Y62804D01*
X598659Y62802D01*
X598556Y62796D01*
X598452Y62786D01*
X598349Y62772D01*
X598247Y62754D01*
X598146Y62733D01*
X598045Y62707D01*
X597946Y62678D01*
X597847Y62645D01*
X597750Y62608D01*
X597655Y62567D01*
X597561Y62523D01*
X597469Y62475D01*
X597379Y62424D01*
X597290Y62369D01*
X597204Y62311D01*
X597121Y62249D01*
X597039Y62185D01*
X596961Y62117D01*
X596885Y62047D01*
X596811Y61974D01*
X596741Y61897D01*
X596673Y61819D01*
X596609Y61737D01*
X596547Y61654D01*
X596489Y61568D01*
X596434Y61479D01*
X596383Y61389D01*
X596335Y61297D01*
X596291Y61203D01*
X596250Y61108D01*
X596213Y61011D01*
X596180Y60912D01*
X596151Y60813D01*
X596125Y60712D01*
X596104Y60611D01*
X596086Y60509D01*
X596072Y60406D01*
X596062Y60302D01*
X596056Y60199D01*
X596054Y60095D01*
X596053Y60095D02*
X596053Y59192D01*
X616825Y62353D02*
X617728Y62353D01*
X617728Y63256D01*
X616825Y63256D01*
X616825Y62353D01*
X601472Y72044D02*
X601472Y76560D01*
X601472Y72044D02*
X601474Y71943D01*
X601480Y71842D01*
X601489Y71741D01*
X601502Y71640D01*
X601519Y71540D01*
X601540Y71441D01*
X601564Y71343D01*
X601592Y71246D01*
X601624Y71149D01*
X601659Y71054D01*
X601698Y70961D01*
X601740Y70869D01*
X601786Y70778D01*
X601835Y70690D01*
X601887Y70603D01*
X601943Y70518D01*
X602001Y70435D01*
X602063Y70355D01*
X602128Y70277D01*
X602195Y70201D01*
X602265Y70128D01*
X602338Y70058D01*
X602414Y69991D01*
X602492Y69926D01*
X602572Y69864D01*
X602655Y69806D01*
X602740Y69750D01*
X602827Y69698D01*
X602915Y69649D01*
X603006Y69603D01*
X603098Y69561D01*
X603191Y69522D01*
X603286Y69487D01*
X603383Y69455D01*
X603480Y69427D01*
X603578Y69403D01*
X603677Y69382D01*
X603777Y69365D01*
X603878Y69352D01*
X603979Y69343D01*
X604080Y69337D01*
X604181Y69335D01*
X608697Y69335D01*
X608816Y69337D01*
X608936Y69343D01*
X609055Y69353D01*
X609173Y69367D01*
X609292Y69384D01*
X609409Y69406D01*
X609526Y69431D01*
X609641Y69461D01*
X609756Y69494D01*
X609870Y69531D01*
X609982Y69571D01*
X610093Y69616D01*
X610202Y69664D01*
X610310Y69715D01*
X610416Y69770D01*
X610520Y69829D01*
X610622Y69891D01*
X610722Y69956D01*
X610820Y70025D01*
X610916Y70097D01*
X611009Y70172D01*
X611099Y70249D01*
X611187Y70330D01*
X611272Y70414D01*
X611354Y70501D01*
X611434Y70590D01*
X611510Y70682D01*
X611584Y70776D01*
X611654Y70873D01*
X611721Y70971D01*
X611785Y71072D01*
X611845Y71176D01*
X611902Y71281D01*
X611955Y71388D01*
X612005Y71496D01*
X612051Y71606D01*
X612093Y71718D01*
X612132Y71831D01*
X612167Y71945D01*
X612198Y72060D01*
X612226Y72177D01*
X612249Y72294D01*
X612269Y72411D01*
X612285Y72530D01*
X612297Y72649D01*
X612305Y72768D01*
X612309Y72887D01*
X612309Y73007D01*
X612305Y73126D01*
X612297Y73245D01*
X612285Y73364D01*
X612269Y73483D01*
X612249Y73600D01*
X612226Y73717D01*
X612198Y73834D01*
X612167Y73949D01*
X612132Y74063D01*
X612093Y74176D01*
X612051Y74288D01*
X612005Y74398D01*
X611955Y74506D01*
X611902Y74613D01*
X611845Y74718D01*
X611785Y74822D01*
X611721Y74923D01*
X611654Y75021D01*
X611584Y75118D01*
X611510Y75212D01*
X611434Y75304D01*
X611354Y75393D01*
X611272Y75480D01*
X611187Y75564D01*
X611099Y75645D01*
X611009Y75722D01*
X610916Y75797D01*
X610820Y75869D01*
X610722Y75938D01*
X610622Y76003D01*
X610520Y76065D01*
X610416Y76124D01*
X610310Y76179D01*
X610202Y76230D01*
X610093Y76278D01*
X609982Y76323D01*
X609870Y76363D01*
X609756Y76400D01*
X609641Y76433D01*
X609526Y76463D01*
X609409Y76488D01*
X609292Y76510D01*
X609173Y76527D01*
X609055Y76541D01*
X608936Y76551D01*
X608816Y76557D01*
X608697Y76559D01*
X608697Y76560D02*
X606891Y76560D01*
X606891Y69335D01*
X612309Y81584D02*
X612309Y87003D01*
X617728Y83391D02*
X604181Y83391D01*
X604080Y83393D01*
X603979Y83399D01*
X603878Y83408D01*
X603777Y83421D01*
X603677Y83438D01*
X603578Y83459D01*
X603480Y83483D01*
X603383Y83511D01*
X603286Y83543D01*
X603191Y83578D01*
X603098Y83617D01*
X603006Y83659D01*
X602915Y83705D01*
X602827Y83754D01*
X602740Y83806D01*
X602655Y83862D01*
X602572Y83920D01*
X602492Y83982D01*
X602414Y84047D01*
X602338Y84114D01*
X602265Y84184D01*
X602195Y84257D01*
X602128Y84333D01*
X602063Y84411D01*
X602001Y84491D01*
X601943Y84574D01*
X601887Y84659D01*
X601835Y84746D01*
X601786Y84834D01*
X601740Y84925D01*
X601698Y85017D01*
X601659Y85110D01*
X601624Y85205D01*
X601592Y85302D01*
X601564Y85399D01*
X601540Y85497D01*
X601519Y85596D01*
X601502Y85696D01*
X601489Y85797D01*
X601480Y85898D01*
X601474Y85999D01*
X601472Y86100D01*
X601472Y87003D01*
X607794Y95869D02*
X607794Y99933D01*
X607794Y95869D02*
X607792Y95757D01*
X607786Y95646D01*
X607776Y95535D01*
X607763Y95424D01*
X607745Y95314D01*
X607723Y95205D01*
X607698Y95096D01*
X607669Y94988D01*
X607636Y94882D01*
X607599Y94776D01*
X607559Y94672D01*
X607515Y94570D01*
X607467Y94469D01*
X607416Y94370D01*
X607361Y94272D01*
X607303Y94177D01*
X607242Y94084D01*
X607177Y93993D01*
X607109Y93904D01*
X607038Y93818D01*
X606965Y93735D01*
X606888Y93654D01*
X606808Y93575D01*
X606726Y93500D01*
X606641Y93428D01*
X606554Y93358D01*
X606464Y93292D01*
X606372Y93229D01*
X606277Y93169D01*
X606181Y93113D01*
X606083Y93060D01*
X605983Y93011D01*
X605881Y92965D01*
X605778Y92923D01*
X605673Y92884D01*
X605567Y92849D01*
X605460Y92818D01*
X605352Y92791D01*
X605243Y92767D01*
X605133Y92748D01*
X605023Y92732D01*
X604912Y92720D01*
X604800Y92712D01*
X604689Y92708D01*
X604577Y92708D01*
X604466Y92712D01*
X604354Y92720D01*
X604243Y92732D01*
X604133Y92748D01*
X604023Y92767D01*
X603914Y92791D01*
X603806Y92818D01*
X603699Y92849D01*
X603593Y92884D01*
X603488Y92923D01*
X603385Y92965D01*
X603283Y93011D01*
X603183Y93060D01*
X603085Y93113D01*
X602989Y93169D01*
X602894Y93229D01*
X602802Y93292D01*
X602712Y93358D01*
X602625Y93428D01*
X602540Y93500D01*
X602458Y93575D01*
X602378Y93654D01*
X602301Y93735D01*
X602228Y93818D01*
X602157Y93904D01*
X602089Y93993D01*
X602024Y94084D01*
X601963Y94177D01*
X601905Y94272D01*
X601850Y94370D01*
X601799Y94469D01*
X601751Y94570D01*
X601707Y94672D01*
X601667Y94776D01*
X601630Y94882D01*
X601597Y94988D01*
X601568Y95096D01*
X601543Y95205D01*
X601521Y95314D01*
X601503Y95424D01*
X601490Y95535D01*
X601480Y95646D01*
X601474Y95757D01*
X601472Y95869D01*
X601472Y99933D01*
X609600Y99933D01*
X609701Y99931D01*
X609802Y99925D01*
X609903Y99916D01*
X610004Y99903D01*
X610104Y99886D01*
X610203Y99865D01*
X610301Y99841D01*
X610398Y99813D01*
X610495Y99781D01*
X610590Y99746D01*
X610683Y99707D01*
X610775Y99665D01*
X610866Y99619D01*
X610955Y99570D01*
X611041Y99518D01*
X611126Y99462D01*
X611209Y99404D01*
X611289Y99342D01*
X611367Y99277D01*
X611443Y99210D01*
X611516Y99140D01*
X611586Y99067D01*
X611653Y98991D01*
X611718Y98913D01*
X611780Y98833D01*
X611838Y98750D01*
X611894Y98665D01*
X611946Y98579D01*
X611995Y98490D01*
X612041Y98399D01*
X612083Y98307D01*
X612122Y98214D01*
X612157Y98119D01*
X612189Y98022D01*
X612217Y97925D01*
X612241Y97827D01*
X612262Y97728D01*
X612279Y97628D01*
X612292Y97527D01*
X612301Y97426D01*
X612307Y97325D01*
X612309Y97224D01*
X612309Y93611D01*
X617728Y122338D02*
X601472Y122338D01*
X601472Y117822D01*
X601474Y117721D01*
X601480Y117620D01*
X601489Y117519D01*
X601502Y117418D01*
X601519Y117318D01*
X601540Y117219D01*
X601564Y117121D01*
X601592Y117024D01*
X601624Y116927D01*
X601659Y116832D01*
X601698Y116739D01*
X601740Y116647D01*
X601786Y116556D01*
X601835Y116468D01*
X601887Y116381D01*
X601943Y116296D01*
X602001Y116213D01*
X602063Y116133D01*
X602128Y116055D01*
X602195Y115979D01*
X602265Y115906D01*
X602338Y115836D01*
X602414Y115769D01*
X602492Y115704D01*
X602572Y115642D01*
X602655Y115584D01*
X602740Y115528D01*
X602827Y115476D01*
X602915Y115427D01*
X603006Y115381D01*
X603098Y115339D01*
X603191Y115300D01*
X603286Y115265D01*
X603383Y115233D01*
X603480Y115205D01*
X603578Y115181D01*
X603677Y115160D01*
X603777Y115143D01*
X603878Y115130D01*
X603979Y115121D01*
X604080Y115115D01*
X604181Y115113D01*
X609600Y115113D01*
X609701Y115115D01*
X609802Y115121D01*
X609903Y115130D01*
X610004Y115143D01*
X610104Y115160D01*
X610203Y115181D01*
X610301Y115205D01*
X610398Y115233D01*
X610495Y115265D01*
X610590Y115300D01*
X610683Y115339D01*
X610775Y115381D01*
X610866Y115427D01*
X610955Y115476D01*
X611041Y115528D01*
X611126Y115584D01*
X611209Y115642D01*
X611289Y115704D01*
X611367Y115769D01*
X611443Y115836D01*
X611516Y115906D01*
X611586Y115979D01*
X611653Y116055D01*
X611718Y116133D01*
X611780Y116213D01*
X611838Y116296D01*
X611894Y116381D01*
X611946Y116467D01*
X611995Y116556D01*
X612041Y116647D01*
X612083Y116739D01*
X612122Y116832D01*
X612157Y116927D01*
X612189Y117024D01*
X612217Y117121D01*
X612241Y117219D01*
X612262Y117318D01*
X612279Y117418D01*
X612292Y117519D01*
X612301Y117620D01*
X612307Y117721D01*
X612309Y117822D01*
X612309Y122338D01*
X601472Y131964D02*
X601472Y136479D01*
X601472Y131964D02*
X601474Y131863D01*
X601480Y131762D01*
X601489Y131661D01*
X601502Y131560D01*
X601519Y131460D01*
X601540Y131361D01*
X601564Y131263D01*
X601592Y131166D01*
X601624Y131069D01*
X601659Y130974D01*
X601698Y130881D01*
X601740Y130789D01*
X601786Y130698D01*
X601835Y130610D01*
X601887Y130523D01*
X601943Y130438D01*
X602001Y130355D01*
X602063Y130275D01*
X602128Y130197D01*
X602195Y130121D01*
X602265Y130048D01*
X602338Y129978D01*
X602414Y129911D01*
X602492Y129846D01*
X602572Y129784D01*
X602655Y129726D01*
X602740Y129670D01*
X602827Y129618D01*
X602915Y129569D01*
X603006Y129523D01*
X603098Y129481D01*
X603191Y129442D01*
X603286Y129407D01*
X603383Y129375D01*
X603480Y129347D01*
X603578Y129323D01*
X603677Y129302D01*
X603777Y129285D01*
X603878Y129272D01*
X603979Y129263D01*
X604080Y129257D01*
X604181Y129255D01*
X604181Y129254D02*
X608697Y129254D01*
X608697Y129255D02*
X608816Y129257D01*
X608936Y129263D01*
X609055Y129273D01*
X609173Y129287D01*
X609292Y129304D01*
X609409Y129326D01*
X609526Y129351D01*
X609641Y129381D01*
X609756Y129414D01*
X609870Y129451D01*
X609982Y129491D01*
X610093Y129536D01*
X610202Y129584D01*
X610310Y129635D01*
X610416Y129690D01*
X610520Y129749D01*
X610622Y129811D01*
X610722Y129876D01*
X610820Y129945D01*
X610916Y130017D01*
X611009Y130092D01*
X611099Y130169D01*
X611187Y130250D01*
X611272Y130334D01*
X611354Y130421D01*
X611434Y130510D01*
X611510Y130602D01*
X611584Y130696D01*
X611654Y130793D01*
X611721Y130891D01*
X611785Y130992D01*
X611845Y131096D01*
X611902Y131201D01*
X611955Y131308D01*
X612005Y131416D01*
X612051Y131526D01*
X612093Y131638D01*
X612132Y131751D01*
X612167Y131865D01*
X612198Y131980D01*
X612226Y132097D01*
X612249Y132214D01*
X612269Y132331D01*
X612285Y132450D01*
X612297Y132569D01*
X612305Y132688D01*
X612309Y132807D01*
X612309Y132927D01*
X612305Y133046D01*
X612297Y133165D01*
X612285Y133284D01*
X612269Y133403D01*
X612249Y133520D01*
X612226Y133637D01*
X612198Y133754D01*
X612167Y133869D01*
X612132Y133983D01*
X612093Y134096D01*
X612051Y134208D01*
X612005Y134318D01*
X611955Y134426D01*
X611902Y134533D01*
X611845Y134638D01*
X611785Y134742D01*
X611721Y134843D01*
X611654Y134941D01*
X611584Y135038D01*
X611510Y135132D01*
X611434Y135224D01*
X611354Y135313D01*
X611272Y135400D01*
X611187Y135484D01*
X611099Y135565D01*
X611009Y135642D01*
X610916Y135717D01*
X610820Y135789D01*
X610722Y135858D01*
X610622Y135923D01*
X610520Y135985D01*
X610416Y136044D01*
X610310Y136099D01*
X610202Y136150D01*
X610093Y136198D01*
X609982Y136243D01*
X609870Y136283D01*
X609756Y136320D01*
X609641Y136353D01*
X609526Y136383D01*
X609409Y136408D01*
X609292Y136430D01*
X609173Y136447D01*
X609055Y136461D01*
X608936Y136471D01*
X608816Y136477D01*
X608697Y136479D01*
X606891Y136479D01*
X606891Y129254D01*
X601472Y152666D02*
X617728Y152666D01*
X601472Y150860D02*
X601472Y154472D01*
X617728Y154472D02*
X617728Y150860D01*
X612309Y161038D02*
X601472Y161038D01*
X612309Y161038D02*
X612309Y165553D01*
X612307Y165654D01*
X612301Y165755D01*
X612292Y165856D01*
X612279Y165957D01*
X612262Y166057D01*
X612241Y166156D01*
X612217Y166254D01*
X612189Y166351D01*
X612157Y166448D01*
X612122Y166543D01*
X612083Y166636D01*
X612041Y166728D01*
X611995Y166819D01*
X611946Y166908D01*
X611894Y166994D01*
X611838Y167079D01*
X611780Y167162D01*
X611718Y167242D01*
X611653Y167320D01*
X611586Y167396D01*
X611516Y167469D01*
X611443Y167539D01*
X611367Y167606D01*
X611289Y167671D01*
X611209Y167733D01*
X611126Y167791D01*
X611041Y167847D01*
X610955Y167899D01*
X610866Y167948D01*
X610775Y167994D01*
X610683Y168036D01*
X610590Y168075D01*
X610495Y168110D01*
X610398Y168142D01*
X610301Y168170D01*
X610203Y168194D01*
X610104Y168215D01*
X610004Y168232D01*
X609903Y168245D01*
X609802Y168254D01*
X609701Y168260D01*
X609600Y168262D01*
X609600Y168263D02*
X601472Y168263D01*
X612309Y173808D02*
X612309Y179227D01*
X617728Y175615D02*
X604181Y175615D01*
X604080Y175617D01*
X603979Y175623D01*
X603878Y175632D01*
X603777Y175645D01*
X603677Y175662D01*
X603578Y175683D01*
X603480Y175707D01*
X603383Y175735D01*
X603286Y175767D01*
X603191Y175802D01*
X603098Y175841D01*
X603006Y175883D01*
X602915Y175929D01*
X602827Y175978D01*
X602740Y176030D01*
X602655Y176086D01*
X602572Y176144D01*
X602492Y176206D01*
X602414Y176271D01*
X602338Y176338D01*
X602265Y176408D01*
X602195Y176481D01*
X602128Y176557D01*
X602063Y176635D01*
X602001Y176715D01*
X601943Y176798D01*
X601887Y176883D01*
X601835Y176970D01*
X601786Y177058D01*
X601740Y177149D01*
X601698Y177241D01*
X601659Y177334D01*
X601624Y177429D01*
X601592Y177526D01*
X601564Y177623D01*
X601540Y177721D01*
X601519Y177820D01*
X601502Y177920D01*
X601489Y178021D01*
X601480Y178122D01*
X601474Y178223D01*
X601472Y178324D01*
X601472Y179227D01*
X601472Y187715D02*
X601472Y192230D01*
X601472Y187715D02*
X601474Y187614D01*
X601480Y187513D01*
X601489Y187412D01*
X601502Y187311D01*
X601519Y187211D01*
X601540Y187112D01*
X601564Y187014D01*
X601592Y186917D01*
X601624Y186820D01*
X601659Y186725D01*
X601698Y186632D01*
X601740Y186540D01*
X601786Y186449D01*
X601835Y186361D01*
X601887Y186274D01*
X601943Y186189D01*
X602001Y186106D01*
X602063Y186026D01*
X602128Y185948D01*
X602195Y185872D01*
X602265Y185799D01*
X602338Y185729D01*
X602414Y185662D01*
X602492Y185597D01*
X602572Y185535D01*
X602655Y185477D01*
X602740Y185421D01*
X602827Y185369D01*
X602915Y185320D01*
X603006Y185274D01*
X603098Y185232D01*
X603191Y185193D01*
X603286Y185158D01*
X603383Y185126D01*
X603480Y185098D01*
X603578Y185074D01*
X603677Y185053D01*
X603777Y185036D01*
X603878Y185023D01*
X603979Y185014D01*
X604080Y185008D01*
X604181Y185006D01*
X608697Y185006D01*
X608816Y185008D01*
X608936Y185014D01*
X609055Y185024D01*
X609173Y185038D01*
X609292Y185055D01*
X609409Y185077D01*
X609526Y185102D01*
X609641Y185132D01*
X609756Y185165D01*
X609870Y185202D01*
X609982Y185242D01*
X610093Y185287D01*
X610202Y185335D01*
X610310Y185386D01*
X610416Y185441D01*
X610520Y185500D01*
X610622Y185562D01*
X610722Y185627D01*
X610820Y185696D01*
X610916Y185768D01*
X611009Y185843D01*
X611099Y185920D01*
X611187Y186001D01*
X611272Y186085D01*
X611354Y186172D01*
X611434Y186261D01*
X611510Y186353D01*
X611584Y186447D01*
X611654Y186544D01*
X611721Y186642D01*
X611785Y186743D01*
X611845Y186847D01*
X611902Y186952D01*
X611955Y187059D01*
X612005Y187167D01*
X612051Y187277D01*
X612093Y187389D01*
X612132Y187502D01*
X612167Y187616D01*
X612198Y187731D01*
X612226Y187848D01*
X612249Y187965D01*
X612269Y188082D01*
X612285Y188201D01*
X612297Y188320D01*
X612305Y188439D01*
X612309Y188558D01*
X612309Y188678D01*
X612305Y188797D01*
X612297Y188916D01*
X612285Y189035D01*
X612269Y189154D01*
X612249Y189271D01*
X612226Y189388D01*
X612198Y189505D01*
X612167Y189620D01*
X612132Y189734D01*
X612093Y189847D01*
X612051Y189959D01*
X612005Y190069D01*
X611955Y190177D01*
X611902Y190284D01*
X611845Y190389D01*
X611785Y190493D01*
X611721Y190594D01*
X611654Y190692D01*
X611584Y190789D01*
X611510Y190883D01*
X611434Y190975D01*
X611354Y191064D01*
X611272Y191151D01*
X611187Y191235D01*
X611099Y191316D01*
X611009Y191393D01*
X610916Y191468D01*
X610820Y191540D01*
X610722Y191609D01*
X610622Y191674D01*
X610520Y191736D01*
X610416Y191795D01*
X610310Y191850D01*
X610202Y191901D01*
X610093Y191949D01*
X609982Y191994D01*
X609870Y192034D01*
X609756Y192071D01*
X609641Y192104D01*
X609526Y192134D01*
X609409Y192159D01*
X609292Y192181D01*
X609173Y192198D01*
X609055Y192212D01*
X608936Y192222D01*
X608816Y192228D01*
X608697Y192230D01*
X606891Y192230D01*
X606891Y185006D01*
X612309Y199158D02*
X601472Y199158D01*
X612309Y199158D02*
X612309Y204577D01*
X610503Y204577D01*
X615019Y210382D02*
X601472Y210382D01*
X615019Y210383D02*
X615123Y210385D01*
X615226Y210391D01*
X615330Y210401D01*
X615433Y210415D01*
X615535Y210433D01*
X615636Y210454D01*
X615737Y210480D01*
X615836Y210509D01*
X615935Y210542D01*
X616032Y210579D01*
X616127Y210620D01*
X616221Y210664D01*
X616313Y210712D01*
X616403Y210763D01*
X616492Y210818D01*
X616578Y210876D01*
X616661Y210938D01*
X616743Y211002D01*
X616821Y211070D01*
X616897Y211140D01*
X616971Y211213D01*
X617041Y211290D01*
X617109Y211368D01*
X617173Y211450D01*
X617235Y211533D01*
X617293Y211619D01*
X617348Y211708D01*
X617399Y211798D01*
X617447Y211890D01*
X617491Y211984D01*
X617532Y212079D01*
X617569Y212176D01*
X617602Y212275D01*
X617631Y212374D01*
X617657Y212475D01*
X617678Y212576D01*
X617696Y212678D01*
X617710Y212781D01*
X617720Y212885D01*
X617726Y212988D01*
X617728Y213092D01*
X617728Y213995D01*
X612309Y213995D02*
X612309Y208576D01*
X607794Y221440D02*
X607794Y225504D01*
X607794Y221440D02*
X607792Y221328D01*
X607786Y221217D01*
X607776Y221106D01*
X607763Y220995D01*
X607745Y220885D01*
X607723Y220776D01*
X607698Y220667D01*
X607669Y220559D01*
X607636Y220453D01*
X607599Y220347D01*
X607559Y220243D01*
X607515Y220141D01*
X607467Y220040D01*
X607416Y219941D01*
X607361Y219843D01*
X607303Y219748D01*
X607242Y219655D01*
X607177Y219564D01*
X607109Y219475D01*
X607038Y219389D01*
X606965Y219306D01*
X606888Y219225D01*
X606808Y219146D01*
X606726Y219071D01*
X606641Y218999D01*
X606554Y218929D01*
X606464Y218863D01*
X606372Y218800D01*
X606277Y218740D01*
X606181Y218684D01*
X606083Y218631D01*
X605983Y218582D01*
X605881Y218536D01*
X605778Y218494D01*
X605673Y218455D01*
X605567Y218420D01*
X605460Y218389D01*
X605352Y218362D01*
X605243Y218338D01*
X605133Y218319D01*
X605023Y218303D01*
X604912Y218291D01*
X604800Y218283D01*
X604689Y218279D01*
X604577Y218279D01*
X604466Y218283D01*
X604354Y218291D01*
X604243Y218303D01*
X604133Y218319D01*
X604023Y218338D01*
X603914Y218362D01*
X603806Y218389D01*
X603699Y218420D01*
X603593Y218455D01*
X603488Y218494D01*
X603385Y218536D01*
X603283Y218582D01*
X603183Y218631D01*
X603085Y218684D01*
X602989Y218740D01*
X602894Y218800D01*
X602802Y218863D01*
X602712Y218929D01*
X602625Y218999D01*
X602540Y219071D01*
X602458Y219146D01*
X602378Y219225D01*
X602301Y219306D01*
X602228Y219389D01*
X602157Y219475D01*
X602089Y219564D01*
X602024Y219655D01*
X601963Y219748D01*
X601905Y219843D01*
X601850Y219941D01*
X601799Y220040D01*
X601751Y220141D01*
X601707Y220243D01*
X601667Y220347D01*
X601630Y220453D01*
X601597Y220559D01*
X601568Y220667D01*
X601543Y220776D01*
X601521Y220885D01*
X601503Y220995D01*
X601490Y221106D01*
X601480Y221217D01*
X601474Y221328D01*
X601472Y221440D01*
X601472Y225504D01*
X609600Y225504D01*
X609600Y225503D02*
X609701Y225501D01*
X609802Y225495D01*
X609903Y225486D01*
X610004Y225473D01*
X610104Y225456D01*
X610203Y225435D01*
X610301Y225411D01*
X610398Y225383D01*
X610495Y225351D01*
X610590Y225316D01*
X610683Y225277D01*
X610775Y225235D01*
X610866Y225189D01*
X610955Y225140D01*
X611041Y225088D01*
X611126Y225032D01*
X611209Y224974D01*
X611289Y224912D01*
X611367Y224847D01*
X611443Y224780D01*
X611516Y224710D01*
X611586Y224637D01*
X611653Y224561D01*
X611718Y224483D01*
X611780Y224403D01*
X611838Y224320D01*
X611894Y224235D01*
X611946Y224149D01*
X611995Y224060D01*
X612041Y223969D01*
X612083Y223877D01*
X612122Y223784D01*
X612157Y223689D01*
X612189Y223592D01*
X612217Y223495D01*
X612241Y223397D01*
X612262Y223298D01*
X612279Y223198D01*
X612292Y223097D01*
X612301Y222996D01*
X612307Y222895D01*
X612309Y222794D01*
X612309Y219182D01*
X612309Y231899D02*
X612309Y239124D01*
X601472Y231899D01*
X601472Y239124D01*
X601472Y252498D02*
X617728Y257916D01*
X601472Y263335D01*
X605536Y261980D02*
X605536Y253852D01*
X601472Y269499D02*
X612309Y269499D01*
X612309Y274918D01*
X610503Y274918D01*
X617728Y286986D02*
X601472Y286986D01*
X601472Y282471D01*
X601474Y282370D01*
X601480Y282269D01*
X601489Y282168D01*
X601502Y282067D01*
X601519Y281967D01*
X601540Y281868D01*
X601564Y281770D01*
X601592Y281673D01*
X601624Y281576D01*
X601659Y281481D01*
X601698Y281388D01*
X601740Y281296D01*
X601786Y281205D01*
X601835Y281117D01*
X601887Y281030D01*
X601943Y280945D01*
X602001Y280862D01*
X602063Y280782D01*
X602128Y280704D01*
X602195Y280628D01*
X602265Y280555D01*
X602338Y280485D01*
X602414Y280418D01*
X602492Y280353D01*
X602572Y280291D01*
X602655Y280233D01*
X602740Y280177D01*
X602827Y280125D01*
X602915Y280076D01*
X603006Y280030D01*
X603098Y279988D01*
X603191Y279949D01*
X603286Y279914D01*
X603383Y279882D01*
X603480Y279854D01*
X603578Y279830D01*
X603677Y279809D01*
X603777Y279792D01*
X603878Y279779D01*
X603979Y279770D01*
X604080Y279764D01*
X604181Y279762D01*
X609600Y279762D01*
X609701Y279764D01*
X609802Y279770D01*
X609903Y279779D01*
X610004Y279792D01*
X610104Y279809D01*
X610203Y279830D01*
X610301Y279854D01*
X610398Y279882D01*
X610495Y279914D01*
X610590Y279949D01*
X610683Y279988D01*
X610775Y280030D01*
X610866Y280076D01*
X610955Y280125D01*
X611041Y280177D01*
X611126Y280233D01*
X611209Y280291D01*
X611289Y280353D01*
X611367Y280418D01*
X611443Y280485D01*
X611516Y280555D01*
X611586Y280628D01*
X611653Y280704D01*
X611718Y280782D01*
X611780Y280862D01*
X611838Y280945D01*
X611894Y281030D01*
X611946Y281117D01*
X611995Y281205D01*
X612041Y281296D01*
X612083Y281388D01*
X612122Y281481D01*
X612157Y281576D01*
X612189Y281673D01*
X612217Y281770D01*
X612241Y281868D01*
X612262Y281967D01*
X612279Y282067D01*
X612292Y282168D01*
X612301Y282269D01*
X612307Y282370D01*
X612309Y282471D01*
X612309Y286986D01*
X612309Y294424D02*
X604181Y294424D01*
X604080Y294426D01*
X603979Y294432D01*
X603878Y294441D01*
X603777Y294454D01*
X603677Y294471D01*
X603578Y294492D01*
X603480Y294516D01*
X603383Y294544D01*
X603286Y294576D01*
X603191Y294611D01*
X603098Y294650D01*
X603006Y294692D01*
X602915Y294738D01*
X602827Y294787D01*
X602740Y294839D01*
X602655Y294895D01*
X602572Y294953D01*
X602492Y295015D01*
X602414Y295080D01*
X602338Y295147D01*
X602265Y295217D01*
X602195Y295290D01*
X602128Y295366D01*
X602063Y295444D01*
X602001Y295524D01*
X601943Y295607D01*
X601887Y295692D01*
X601835Y295779D01*
X601786Y295867D01*
X601740Y295958D01*
X601698Y296050D01*
X601659Y296143D01*
X601624Y296238D01*
X601592Y296335D01*
X601564Y296432D01*
X601540Y296530D01*
X601519Y296629D01*
X601502Y296729D01*
X601489Y296830D01*
X601480Y296931D01*
X601474Y297032D01*
X601472Y297133D01*
X601472Y301649D01*
X612309Y301649D01*
X612309Y308457D02*
X601472Y308457D01*
X616825Y308006D02*
X617728Y308006D01*
X617728Y308909D01*
X616825Y308909D01*
X616825Y308006D01*
X612309Y315266D02*
X601472Y315266D01*
X612309Y315266D02*
X612309Y319781D01*
X612307Y319882D01*
X612301Y319983D01*
X612292Y320084D01*
X612279Y320185D01*
X612262Y320285D01*
X612241Y320384D01*
X612217Y320482D01*
X612189Y320579D01*
X612157Y320676D01*
X612122Y320771D01*
X612083Y320864D01*
X612041Y320956D01*
X611995Y321047D01*
X611946Y321136D01*
X611894Y321222D01*
X611838Y321307D01*
X611780Y321390D01*
X611718Y321470D01*
X611653Y321548D01*
X611586Y321624D01*
X611516Y321697D01*
X611443Y321767D01*
X611367Y321834D01*
X611289Y321899D01*
X611209Y321961D01*
X611126Y322019D01*
X611041Y322075D01*
X610955Y322127D01*
X610866Y322176D01*
X610775Y322222D01*
X610683Y322264D01*
X610590Y322303D01*
X610495Y322338D01*
X610398Y322370D01*
X610301Y322398D01*
X610203Y322422D01*
X610104Y322443D01*
X610004Y322460D01*
X609903Y322473D01*
X609802Y322482D01*
X609701Y322488D01*
X609600Y322490D01*
X601472Y322490D01*
X605084Y329334D02*
X608697Y329334D01*
X608816Y329336D01*
X608936Y329342D01*
X609055Y329352D01*
X609173Y329366D01*
X609292Y329383D01*
X609409Y329405D01*
X609526Y329430D01*
X609641Y329460D01*
X609756Y329493D01*
X609870Y329530D01*
X609982Y329570D01*
X610093Y329615D01*
X610202Y329663D01*
X610310Y329714D01*
X610416Y329769D01*
X610520Y329828D01*
X610622Y329890D01*
X610722Y329955D01*
X610820Y330024D01*
X610916Y330096D01*
X611009Y330171D01*
X611099Y330248D01*
X611187Y330329D01*
X611272Y330413D01*
X611354Y330500D01*
X611434Y330589D01*
X611510Y330681D01*
X611584Y330775D01*
X611654Y330872D01*
X611721Y330970D01*
X611785Y331071D01*
X611845Y331175D01*
X611902Y331280D01*
X611955Y331387D01*
X612005Y331495D01*
X612051Y331605D01*
X612093Y331717D01*
X612132Y331830D01*
X612167Y331944D01*
X612198Y332059D01*
X612226Y332176D01*
X612249Y332293D01*
X612269Y332410D01*
X612285Y332529D01*
X612297Y332648D01*
X612305Y332767D01*
X612309Y332886D01*
X612309Y333006D01*
X612305Y333125D01*
X612297Y333244D01*
X612285Y333363D01*
X612269Y333482D01*
X612249Y333599D01*
X612226Y333716D01*
X612198Y333833D01*
X612167Y333948D01*
X612132Y334062D01*
X612093Y334175D01*
X612051Y334287D01*
X612005Y334397D01*
X611955Y334505D01*
X611902Y334612D01*
X611845Y334717D01*
X611785Y334821D01*
X611721Y334922D01*
X611654Y335020D01*
X611584Y335117D01*
X611510Y335211D01*
X611434Y335303D01*
X611354Y335392D01*
X611272Y335479D01*
X611187Y335563D01*
X611099Y335644D01*
X611009Y335721D01*
X610916Y335796D01*
X610820Y335868D01*
X610722Y335937D01*
X610622Y336002D01*
X610520Y336064D01*
X610416Y336123D01*
X610310Y336178D01*
X610202Y336229D01*
X610093Y336277D01*
X609982Y336322D01*
X609870Y336362D01*
X609756Y336399D01*
X609641Y336432D01*
X609526Y336462D01*
X609409Y336487D01*
X609292Y336509D01*
X609173Y336526D01*
X609055Y336540D01*
X608936Y336550D01*
X608816Y336556D01*
X608697Y336558D01*
X608697Y336559D02*
X605084Y336559D01*
X605084Y336558D02*
X604965Y336556D01*
X604845Y336550D01*
X604726Y336540D01*
X604608Y336526D01*
X604489Y336509D01*
X604372Y336487D01*
X604255Y336462D01*
X604140Y336432D01*
X604025Y336399D01*
X603911Y336362D01*
X603799Y336322D01*
X603688Y336277D01*
X603579Y336229D01*
X603471Y336178D01*
X603365Y336123D01*
X603261Y336064D01*
X603159Y336002D01*
X603059Y335937D01*
X602961Y335868D01*
X602865Y335796D01*
X602772Y335721D01*
X602682Y335644D01*
X602594Y335563D01*
X602509Y335479D01*
X602427Y335392D01*
X602347Y335303D01*
X602271Y335211D01*
X602197Y335117D01*
X602127Y335020D01*
X602060Y334922D01*
X601996Y334821D01*
X601936Y334717D01*
X601879Y334612D01*
X601826Y334505D01*
X601776Y334397D01*
X601730Y334287D01*
X601688Y334175D01*
X601649Y334062D01*
X601614Y333948D01*
X601583Y333833D01*
X601555Y333716D01*
X601532Y333599D01*
X601512Y333482D01*
X601496Y333363D01*
X601484Y333244D01*
X601476Y333125D01*
X601472Y333006D01*
X601472Y332886D01*
X601476Y332767D01*
X601484Y332648D01*
X601496Y332529D01*
X601512Y332410D01*
X601532Y332293D01*
X601555Y332176D01*
X601583Y332059D01*
X601614Y331944D01*
X601649Y331830D01*
X601688Y331717D01*
X601730Y331605D01*
X601776Y331495D01*
X601826Y331387D01*
X601879Y331280D01*
X601936Y331175D01*
X601996Y331071D01*
X602060Y330970D01*
X602127Y330872D01*
X602197Y330775D01*
X602271Y330681D01*
X602347Y330589D01*
X602427Y330500D01*
X602509Y330413D01*
X602594Y330329D01*
X602682Y330248D01*
X602772Y330171D01*
X602865Y330096D01*
X602961Y330024D01*
X603059Y329955D01*
X603159Y329890D01*
X603261Y329828D01*
X603365Y329769D01*
X603471Y329714D01*
X603579Y329663D01*
X603688Y329615D01*
X603799Y329570D01*
X603911Y329530D01*
X604025Y329493D01*
X604140Y329460D01*
X604255Y329430D01*
X604372Y329405D01*
X604489Y329383D01*
X604608Y329366D01*
X604726Y329352D01*
X604845Y329342D01*
X604965Y329336D01*
X605084Y329334D01*
X601472Y342341D02*
X601472Y343244D01*
X601472Y342341D02*
X602375Y342341D01*
X602375Y343244D01*
X601472Y343244D01*
X597860Y341889D01*
X601472Y349932D02*
X617728Y349932D01*
X608697Y355351D01*
X617728Y360770D01*
X601472Y360770D01*
X601472Y368551D02*
X617728Y368551D01*
X617728Y373066D01*
X617726Y373197D01*
X617720Y373329D01*
X617711Y373460D01*
X617697Y373590D01*
X617680Y373721D01*
X617659Y373850D01*
X617635Y373979D01*
X617606Y374107D01*
X617574Y374235D01*
X617538Y374361D01*
X617499Y374486D01*
X617456Y374611D01*
X617409Y374733D01*
X617359Y374855D01*
X617305Y374975D01*
X617248Y375093D01*
X617187Y375209D01*
X617123Y375324D01*
X617056Y375437D01*
X616985Y375548D01*
X616911Y375656D01*
X616834Y375763D01*
X616754Y375867D01*
X616671Y375969D01*
X616586Y376068D01*
X616497Y376165D01*
X616405Y376259D01*
X616311Y376351D01*
X616214Y376440D01*
X616115Y376525D01*
X616013Y376608D01*
X615909Y376688D01*
X615802Y376765D01*
X615694Y376839D01*
X615583Y376910D01*
X615470Y376977D01*
X615355Y377041D01*
X615239Y377102D01*
X615121Y377159D01*
X615001Y377213D01*
X614879Y377263D01*
X614757Y377310D01*
X614632Y377353D01*
X614507Y377392D01*
X614381Y377428D01*
X614253Y377460D01*
X614125Y377489D01*
X613996Y377513D01*
X613867Y377534D01*
X613736Y377551D01*
X613606Y377565D01*
X613475Y377574D01*
X613343Y377580D01*
X613212Y377582D01*
X605988Y377582D01*
X605857Y377580D01*
X605725Y377574D01*
X605594Y377565D01*
X605464Y377551D01*
X605333Y377534D01*
X605204Y377513D01*
X605075Y377489D01*
X604947Y377460D01*
X604819Y377428D01*
X604693Y377392D01*
X604568Y377353D01*
X604443Y377310D01*
X604321Y377263D01*
X604199Y377213D01*
X604079Y377159D01*
X603961Y377102D01*
X603845Y377041D01*
X603730Y376977D01*
X603617Y376910D01*
X603506Y376839D01*
X603398Y376765D01*
X603291Y376688D01*
X603187Y376608D01*
X603085Y376525D01*
X602986Y376440D01*
X602889Y376351D01*
X602795Y376259D01*
X602703Y376165D01*
X602614Y376068D01*
X602529Y375969D01*
X602446Y375867D01*
X602366Y375763D01*
X602289Y375656D01*
X602215Y375548D01*
X602144Y375437D01*
X602077Y375324D01*
X602013Y375209D01*
X601952Y375093D01*
X601895Y374975D01*
X601841Y374855D01*
X601791Y374733D01*
X601744Y374611D01*
X601701Y374486D01*
X601662Y374361D01*
X601626Y374235D01*
X601594Y374107D01*
X601565Y373979D01*
X601541Y373850D01*
X601520Y373721D01*
X601503Y373590D01*
X601489Y373460D01*
X601480Y373329D01*
X601474Y373197D01*
X601472Y373066D01*
X601472Y368551D01*
X610503Y385435D02*
X610503Y389951D01*
X610504Y389951D02*
X610502Y390084D01*
X610496Y390216D01*
X610486Y390348D01*
X610473Y390480D01*
X610455Y390612D01*
X610434Y390742D01*
X610409Y390873D01*
X610380Y391002D01*
X610347Y391130D01*
X610311Y391258D01*
X610271Y391384D01*
X610227Y391509D01*
X610179Y391633D01*
X610128Y391755D01*
X610073Y391876D01*
X610015Y391995D01*
X609953Y392113D01*
X609888Y392228D01*
X609819Y392342D01*
X609748Y392453D01*
X609672Y392562D01*
X609594Y392669D01*
X609513Y392774D01*
X609428Y392876D01*
X609341Y392976D01*
X609251Y393073D01*
X609158Y393168D01*
X609062Y393259D01*
X608964Y393348D01*
X608863Y393434D01*
X608759Y393517D01*
X608653Y393597D01*
X608545Y393673D01*
X608435Y393747D01*
X608322Y393817D01*
X608208Y393884D01*
X608091Y393947D01*
X607973Y394007D01*
X607853Y394064D01*
X607731Y394117D01*
X607608Y394166D01*
X607484Y394212D01*
X607358Y394254D01*
X607231Y394292D01*
X607103Y394327D01*
X606974Y394358D01*
X606845Y394385D01*
X606714Y394408D01*
X606583Y394428D01*
X606451Y394443D01*
X606319Y394455D01*
X606187Y394463D01*
X606054Y394467D01*
X605922Y394467D01*
X605789Y394463D01*
X605657Y394455D01*
X605525Y394443D01*
X605393Y394428D01*
X605262Y394408D01*
X605131Y394385D01*
X605002Y394358D01*
X604873Y394327D01*
X604745Y394292D01*
X604618Y394254D01*
X604492Y394212D01*
X604368Y394166D01*
X604245Y394117D01*
X604123Y394064D01*
X604003Y394007D01*
X603885Y393947D01*
X603768Y393884D01*
X603654Y393817D01*
X603541Y393747D01*
X603431Y393673D01*
X603323Y393597D01*
X603217Y393517D01*
X603113Y393434D01*
X603012Y393348D01*
X602914Y393259D01*
X602818Y393168D01*
X602725Y393073D01*
X602635Y392976D01*
X602548Y392876D01*
X602463Y392774D01*
X602382Y392669D01*
X602304Y392562D01*
X602228Y392453D01*
X602157Y392342D01*
X602088Y392228D01*
X602023Y392113D01*
X601961Y391995D01*
X601903Y391876D01*
X601848Y391755D01*
X601797Y391633D01*
X601749Y391509D01*
X601705Y391384D01*
X601665Y391258D01*
X601629Y391130D01*
X601596Y391002D01*
X601567Y390873D01*
X601542Y390742D01*
X601521Y390612D01*
X601503Y390480D01*
X601490Y390348D01*
X601480Y390216D01*
X601474Y390084D01*
X601472Y389951D01*
X601472Y385435D01*
X617728Y385435D01*
X617728Y389951D01*
X617726Y390070D01*
X617720Y390190D01*
X617710Y390309D01*
X617696Y390427D01*
X617679Y390546D01*
X617657Y390663D01*
X617632Y390780D01*
X617602Y390895D01*
X617569Y391010D01*
X617532Y391124D01*
X617492Y391236D01*
X617447Y391347D01*
X617399Y391456D01*
X617348Y391564D01*
X617293Y391670D01*
X617234Y391774D01*
X617172Y391876D01*
X617107Y391976D01*
X617038Y392074D01*
X616966Y392170D01*
X616891Y392263D01*
X616814Y392353D01*
X616733Y392441D01*
X616649Y392526D01*
X616562Y392608D01*
X616473Y392688D01*
X616381Y392764D01*
X616287Y392838D01*
X616190Y392908D01*
X616092Y392975D01*
X615991Y393039D01*
X615887Y393099D01*
X615782Y393156D01*
X615675Y393209D01*
X615567Y393259D01*
X615457Y393305D01*
X615345Y393347D01*
X615232Y393386D01*
X615118Y393421D01*
X615003Y393452D01*
X614886Y393480D01*
X614769Y393503D01*
X614652Y393523D01*
X614533Y393539D01*
X614414Y393551D01*
X614295Y393559D01*
X614176Y393563D01*
X614056Y393563D01*
X613937Y393559D01*
X613818Y393551D01*
X613699Y393539D01*
X613580Y393523D01*
X613463Y393503D01*
X613346Y393480D01*
X613229Y393452D01*
X613114Y393421D01*
X613000Y393386D01*
X612887Y393347D01*
X612775Y393305D01*
X612665Y393259D01*
X612557Y393209D01*
X612450Y393156D01*
X612345Y393099D01*
X612241Y393039D01*
X612140Y392975D01*
X612042Y392908D01*
X611945Y392838D01*
X611851Y392764D01*
X611759Y392688D01*
X611670Y392608D01*
X611583Y392526D01*
X611499Y392441D01*
X611418Y392353D01*
X611341Y392263D01*
X611266Y392170D01*
X611194Y392074D01*
X611125Y391976D01*
X611060Y391876D01*
X610998Y391774D01*
X610939Y391670D01*
X610884Y391564D01*
X610833Y391456D01*
X610785Y391347D01*
X610740Y391236D01*
X610700Y391124D01*
X610663Y391010D01*
X610630Y390895D01*
X610600Y390780D01*
X610575Y390663D01*
X610553Y390546D01*
X610536Y390427D01*
X610522Y390309D01*
X610512Y390190D01*
X610506Y390070D01*
X610504Y389951D01*
X601472Y399656D02*
X601472Y400559D01*
X601472Y399656D02*
X602375Y399656D01*
X602375Y400559D01*
X601472Y400559D01*
X597860Y399204D01*
X601472Y410160D02*
X601472Y413772D01*
X601472Y410160D02*
X601474Y410042D01*
X601480Y409924D01*
X601489Y409806D01*
X601503Y409689D01*
X601520Y409572D01*
X601541Y409455D01*
X601566Y409340D01*
X601595Y409225D01*
X601628Y409111D01*
X601664Y408999D01*
X601704Y408888D01*
X601747Y408778D01*
X601794Y408669D01*
X601844Y408562D01*
X601899Y408457D01*
X601956Y408354D01*
X602017Y408253D01*
X602081Y408153D01*
X602148Y408056D01*
X602218Y407961D01*
X602292Y407869D01*
X602368Y407778D01*
X602448Y407691D01*
X602530Y407606D01*
X602615Y407524D01*
X602702Y407444D01*
X602793Y407368D01*
X602885Y407294D01*
X602980Y407224D01*
X603077Y407157D01*
X603177Y407093D01*
X603278Y407032D01*
X603381Y406975D01*
X603486Y406920D01*
X603593Y406870D01*
X603702Y406823D01*
X603812Y406780D01*
X603923Y406740D01*
X604035Y406704D01*
X604149Y406671D01*
X604264Y406642D01*
X604379Y406617D01*
X604496Y406596D01*
X604613Y406579D01*
X604730Y406565D01*
X604848Y406556D01*
X604966Y406550D01*
X605084Y406548D01*
X605084Y406547D02*
X614116Y406547D01*
X614116Y406548D02*
X614234Y406550D01*
X614352Y406556D01*
X614470Y406565D01*
X614587Y406579D01*
X614704Y406596D01*
X614821Y406617D01*
X614936Y406642D01*
X615051Y406671D01*
X615165Y406704D01*
X615277Y406740D01*
X615388Y406780D01*
X615498Y406823D01*
X615607Y406870D01*
X615714Y406920D01*
X615819Y406974D01*
X615922Y407032D01*
X616023Y407093D01*
X616123Y407157D01*
X616220Y407224D01*
X616315Y407294D01*
X616407Y407368D01*
X616498Y407444D01*
X616585Y407524D01*
X616670Y407606D01*
X616752Y407691D01*
X616832Y407778D01*
X616908Y407869D01*
X616982Y407961D01*
X617052Y408056D01*
X617119Y408153D01*
X617183Y408253D01*
X617244Y408354D01*
X617301Y408457D01*
X617355Y408562D01*
X617406Y408669D01*
X617453Y408778D01*
X617496Y408888D01*
X617536Y408999D01*
X617572Y409111D01*
X617605Y409225D01*
X617634Y409340D01*
X617659Y409455D01*
X617680Y409572D01*
X617697Y409689D01*
X617711Y409806D01*
X617720Y409924D01*
X617726Y410042D01*
X617728Y410160D01*
X617728Y413772D01*
X601472Y423186D02*
X601472Y426798D01*
X601472Y423186D02*
X601474Y423068D01*
X601480Y422950D01*
X601489Y422832D01*
X601503Y422715D01*
X601520Y422598D01*
X601541Y422481D01*
X601566Y422366D01*
X601595Y422251D01*
X601628Y422137D01*
X601664Y422025D01*
X601704Y421914D01*
X601747Y421804D01*
X601794Y421695D01*
X601844Y421588D01*
X601899Y421483D01*
X601956Y421380D01*
X602017Y421279D01*
X602081Y421179D01*
X602148Y421082D01*
X602218Y420987D01*
X602292Y420895D01*
X602368Y420804D01*
X602448Y420717D01*
X602530Y420632D01*
X602615Y420550D01*
X602702Y420470D01*
X602793Y420394D01*
X602885Y420320D01*
X602980Y420250D01*
X603077Y420183D01*
X603177Y420119D01*
X603278Y420058D01*
X603381Y420001D01*
X603486Y419946D01*
X603593Y419896D01*
X603702Y419849D01*
X603812Y419806D01*
X603923Y419766D01*
X604035Y419730D01*
X604149Y419697D01*
X604264Y419668D01*
X604379Y419643D01*
X604496Y419622D01*
X604613Y419605D01*
X604730Y419591D01*
X604848Y419582D01*
X604966Y419576D01*
X605084Y419574D01*
X605084Y419573D02*
X614116Y419573D01*
X614116Y419574D02*
X614234Y419576D01*
X614352Y419582D01*
X614470Y419591D01*
X614587Y419605D01*
X614704Y419622D01*
X614821Y419643D01*
X614936Y419668D01*
X615051Y419697D01*
X615165Y419730D01*
X615277Y419766D01*
X615388Y419806D01*
X615498Y419849D01*
X615607Y419896D01*
X615714Y419946D01*
X615819Y420000D01*
X615922Y420058D01*
X616023Y420119D01*
X616123Y420183D01*
X616220Y420250D01*
X616315Y420320D01*
X616407Y420394D01*
X616498Y420470D01*
X616585Y420550D01*
X616670Y420632D01*
X616752Y420717D01*
X616832Y420804D01*
X616908Y420895D01*
X616982Y420987D01*
X617052Y421082D01*
X617119Y421179D01*
X617183Y421279D01*
X617244Y421380D01*
X617301Y421483D01*
X617355Y421588D01*
X617406Y421695D01*
X617453Y421804D01*
X617496Y421914D01*
X617536Y422025D01*
X617572Y422137D01*
X617605Y422251D01*
X617634Y422366D01*
X617659Y422481D01*
X617680Y422598D01*
X617697Y422715D01*
X617711Y422832D01*
X617720Y422950D01*
X617726Y423068D01*
X617728Y423186D01*
X617728Y426798D01*
X617728Y436112D02*
X601472Y436112D01*
X617728Y431597D02*
X617728Y440628D01*
X617728Y450701D02*
X601472Y445283D01*
X601472Y456120D02*
X617728Y450701D01*
X605536Y454765D02*
X605536Y446637D01*
X601472Y462368D02*
X617728Y462368D01*
X601472Y462368D02*
X601472Y469593D01*
X601472Y476096D02*
X617728Y476096D01*
X617728Y485127D02*
X607794Y476096D01*
X611406Y479709D02*
X601472Y485127D01*
X574802Y29041D02*
X591058Y23622D01*
X591058Y34459D02*
X574802Y29041D01*
X574802Y42727D02*
X574802Y47242D01*
X574802Y42727D02*
X574804Y42626D01*
X574810Y42525D01*
X574819Y42424D01*
X574832Y42323D01*
X574849Y42223D01*
X574870Y42124D01*
X574894Y42026D01*
X574922Y41929D01*
X574954Y41832D01*
X574989Y41737D01*
X575028Y41644D01*
X575070Y41552D01*
X575116Y41461D01*
X575165Y41372D01*
X575217Y41286D01*
X575273Y41201D01*
X575331Y41118D01*
X575393Y41038D01*
X575458Y40960D01*
X575525Y40884D01*
X575595Y40811D01*
X575668Y40741D01*
X575744Y40674D01*
X575822Y40609D01*
X575902Y40547D01*
X575985Y40489D01*
X576070Y40433D01*
X576157Y40381D01*
X576245Y40332D01*
X576336Y40286D01*
X576428Y40244D01*
X576521Y40205D01*
X576616Y40170D01*
X576713Y40138D01*
X576810Y40110D01*
X576908Y40086D01*
X577007Y40065D01*
X577107Y40048D01*
X577208Y40035D01*
X577309Y40026D01*
X577410Y40020D01*
X577511Y40018D01*
X577511Y40017D02*
X582027Y40017D01*
X582027Y40018D02*
X582146Y40020D01*
X582266Y40026D01*
X582385Y40036D01*
X582503Y40050D01*
X582622Y40067D01*
X582739Y40089D01*
X582856Y40114D01*
X582971Y40144D01*
X583086Y40177D01*
X583200Y40214D01*
X583312Y40254D01*
X583423Y40299D01*
X583532Y40347D01*
X583640Y40398D01*
X583746Y40453D01*
X583850Y40512D01*
X583952Y40574D01*
X584052Y40639D01*
X584150Y40708D01*
X584246Y40780D01*
X584339Y40855D01*
X584429Y40932D01*
X584517Y41013D01*
X584602Y41097D01*
X584684Y41184D01*
X584764Y41273D01*
X584840Y41365D01*
X584914Y41459D01*
X584984Y41556D01*
X585051Y41654D01*
X585115Y41755D01*
X585175Y41859D01*
X585232Y41964D01*
X585285Y42071D01*
X585335Y42179D01*
X585381Y42289D01*
X585423Y42401D01*
X585462Y42514D01*
X585497Y42628D01*
X585528Y42743D01*
X585556Y42860D01*
X585579Y42977D01*
X585599Y43094D01*
X585615Y43213D01*
X585627Y43332D01*
X585635Y43451D01*
X585639Y43570D01*
X585639Y43690D01*
X585635Y43809D01*
X585627Y43928D01*
X585615Y44047D01*
X585599Y44166D01*
X585579Y44283D01*
X585556Y44400D01*
X585528Y44517D01*
X585497Y44632D01*
X585462Y44746D01*
X585423Y44859D01*
X585381Y44971D01*
X585335Y45081D01*
X585285Y45189D01*
X585232Y45296D01*
X585175Y45401D01*
X585115Y45505D01*
X585051Y45606D01*
X584984Y45704D01*
X584914Y45801D01*
X584840Y45895D01*
X584764Y45987D01*
X584684Y46076D01*
X584602Y46163D01*
X584517Y46247D01*
X584429Y46328D01*
X584339Y46405D01*
X584246Y46480D01*
X584150Y46552D01*
X584052Y46621D01*
X583952Y46686D01*
X583850Y46748D01*
X583746Y46807D01*
X583640Y46862D01*
X583532Y46913D01*
X583423Y46961D01*
X583312Y47006D01*
X583200Y47046D01*
X583086Y47083D01*
X582971Y47116D01*
X582856Y47146D01*
X582739Y47171D01*
X582622Y47193D01*
X582503Y47210D01*
X582385Y47224D01*
X582266Y47234D01*
X582146Y47240D01*
X582027Y47242D01*
X580221Y47242D01*
X580221Y40017D01*
X574802Y54170D02*
X585639Y54170D01*
X585639Y59589D01*
X583833Y59589D01*
X581124Y65861D02*
X579318Y70376D01*
X581124Y65861D02*
X581161Y65773D01*
X581202Y65687D01*
X581246Y65602D01*
X581294Y65519D01*
X581345Y65439D01*
X581399Y65360D01*
X581457Y65284D01*
X581517Y65210D01*
X581581Y65138D01*
X581647Y65070D01*
X581717Y65004D01*
X581788Y64941D01*
X581863Y64880D01*
X581939Y64823D01*
X582018Y64770D01*
X582099Y64719D01*
X582182Y64672D01*
X582267Y64628D01*
X582354Y64588D01*
X582442Y64551D01*
X582532Y64518D01*
X582623Y64488D01*
X582715Y64463D01*
X582808Y64441D01*
X582902Y64423D01*
X582996Y64408D01*
X583091Y64398D01*
X583187Y64392D01*
X583282Y64389D01*
X583378Y64390D01*
X583473Y64396D01*
X583569Y64405D01*
X583663Y64418D01*
X583757Y64434D01*
X583851Y64455D01*
X583943Y64480D01*
X584034Y64508D01*
X584124Y64540D01*
X584213Y64575D01*
X584300Y64614D01*
X584386Y64657D01*
X584470Y64703D01*
X584551Y64753D01*
X584631Y64805D01*
X584709Y64861D01*
X584784Y64921D01*
X584856Y64983D01*
X584926Y65048D01*
X584994Y65116D01*
X585058Y65186D01*
X585120Y65259D01*
X585178Y65335D01*
X585234Y65413D01*
X585286Y65493D01*
X585335Y65575D01*
X585380Y65659D01*
X585422Y65745D01*
X585461Y65832D01*
X585496Y65921D01*
X585527Y66012D01*
X585554Y66103D01*
X585578Y66196D01*
X585598Y66289D01*
X585614Y66383D01*
X585626Y66478D01*
X585635Y66573D01*
X585639Y66669D01*
X585640Y66764D01*
X585633Y67011D01*
X585621Y67257D01*
X585603Y67503D01*
X585578Y67749D01*
X585548Y67993D01*
X585512Y68237D01*
X585471Y68480D01*
X585423Y68722D01*
X585369Y68963D01*
X585310Y69202D01*
X585245Y69440D01*
X585174Y69676D01*
X585098Y69911D01*
X585016Y70144D01*
X584928Y70374D01*
X584835Y70602D01*
X584737Y70829D01*
X579317Y70377D02*
X579280Y70465D01*
X579239Y70551D01*
X579195Y70636D01*
X579147Y70719D01*
X579096Y70799D01*
X579042Y70878D01*
X578984Y70954D01*
X578924Y71028D01*
X578860Y71100D01*
X578794Y71168D01*
X578724Y71234D01*
X578653Y71297D01*
X578578Y71358D01*
X578502Y71415D01*
X578423Y71468D01*
X578342Y71519D01*
X578259Y71566D01*
X578174Y71610D01*
X578087Y71650D01*
X577999Y71687D01*
X577909Y71720D01*
X577818Y71750D01*
X577726Y71775D01*
X577633Y71797D01*
X577539Y71815D01*
X577445Y71830D01*
X577350Y71840D01*
X577254Y71846D01*
X577159Y71849D01*
X577063Y71848D01*
X576968Y71842D01*
X576872Y71833D01*
X576778Y71820D01*
X576684Y71804D01*
X576590Y71783D01*
X576498Y71758D01*
X576407Y71730D01*
X576317Y71698D01*
X576228Y71663D01*
X576141Y71624D01*
X576055Y71581D01*
X575971Y71535D01*
X575890Y71485D01*
X575810Y71433D01*
X575732Y71377D01*
X575657Y71317D01*
X575585Y71255D01*
X575515Y71190D01*
X575447Y71122D01*
X575383Y71052D01*
X575321Y70979D01*
X575263Y70903D01*
X575207Y70825D01*
X575155Y70745D01*
X575106Y70663D01*
X575061Y70579D01*
X575019Y70493D01*
X574980Y70406D01*
X574945Y70317D01*
X574914Y70226D01*
X574887Y70135D01*
X574863Y70042D01*
X574843Y69949D01*
X574827Y69855D01*
X574815Y69760D01*
X574806Y69665D01*
X574802Y69569D01*
X574801Y69474D01*
X574802Y69473D02*
X574811Y69111D01*
X574829Y68749D01*
X574856Y68388D01*
X574891Y68028D01*
X574934Y67668D01*
X574986Y67309D01*
X575047Y66952D01*
X575116Y66597D01*
X575193Y66243D01*
X575279Y65891D01*
X575373Y65541D01*
X575476Y65193D01*
X575586Y64848D01*
X575705Y64506D01*
X574802Y78018D02*
X585639Y78018D01*
X590155Y77567D02*
X591058Y77567D01*
X591058Y78470D01*
X590155Y78470D01*
X590155Y77567D01*
X582027Y84306D02*
X578414Y84306D01*
X582027Y84306D02*
X582146Y84308D01*
X582266Y84314D01*
X582385Y84324D01*
X582503Y84338D01*
X582622Y84355D01*
X582739Y84377D01*
X582856Y84402D01*
X582971Y84432D01*
X583086Y84465D01*
X583200Y84502D01*
X583312Y84542D01*
X583423Y84587D01*
X583532Y84635D01*
X583640Y84686D01*
X583746Y84741D01*
X583850Y84800D01*
X583952Y84862D01*
X584052Y84927D01*
X584150Y84996D01*
X584246Y85068D01*
X584339Y85143D01*
X584429Y85220D01*
X584517Y85301D01*
X584602Y85385D01*
X584684Y85472D01*
X584764Y85561D01*
X584840Y85653D01*
X584914Y85747D01*
X584984Y85844D01*
X585051Y85942D01*
X585115Y86043D01*
X585175Y86147D01*
X585232Y86252D01*
X585285Y86359D01*
X585335Y86467D01*
X585381Y86577D01*
X585423Y86689D01*
X585462Y86802D01*
X585497Y86916D01*
X585528Y87031D01*
X585556Y87148D01*
X585579Y87265D01*
X585599Y87382D01*
X585615Y87501D01*
X585627Y87620D01*
X585635Y87739D01*
X585639Y87858D01*
X585639Y87978D01*
X585635Y88097D01*
X585627Y88216D01*
X585615Y88335D01*
X585599Y88454D01*
X585579Y88571D01*
X585556Y88688D01*
X585528Y88805D01*
X585497Y88920D01*
X585462Y89034D01*
X585423Y89147D01*
X585381Y89259D01*
X585335Y89369D01*
X585285Y89477D01*
X585232Y89584D01*
X585175Y89689D01*
X585115Y89793D01*
X585051Y89894D01*
X584984Y89992D01*
X584914Y90089D01*
X584840Y90183D01*
X584764Y90275D01*
X584684Y90364D01*
X584602Y90451D01*
X584517Y90535D01*
X584429Y90616D01*
X584339Y90693D01*
X584246Y90768D01*
X584150Y90840D01*
X584052Y90909D01*
X583952Y90974D01*
X583850Y91036D01*
X583746Y91095D01*
X583640Y91150D01*
X583532Y91201D01*
X583423Y91249D01*
X583312Y91294D01*
X583200Y91334D01*
X583086Y91371D01*
X582971Y91404D01*
X582856Y91434D01*
X582739Y91459D01*
X582622Y91481D01*
X582503Y91498D01*
X582385Y91512D01*
X582266Y91522D01*
X582146Y91528D01*
X582027Y91530D01*
X582027Y91531D02*
X578414Y91531D01*
X578414Y91530D02*
X578295Y91528D01*
X578175Y91522D01*
X578056Y91512D01*
X577938Y91498D01*
X577819Y91481D01*
X577702Y91459D01*
X577585Y91434D01*
X577470Y91404D01*
X577355Y91371D01*
X577241Y91334D01*
X577129Y91294D01*
X577018Y91249D01*
X576909Y91201D01*
X576801Y91150D01*
X576695Y91095D01*
X576591Y91036D01*
X576489Y90974D01*
X576389Y90909D01*
X576291Y90840D01*
X576195Y90768D01*
X576102Y90693D01*
X576012Y90616D01*
X575924Y90535D01*
X575839Y90451D01*
X575757Y90364D01*
X575677Y90275D01*
X575601Y90183D01*
X575527Y90089D01*
X575457Y89992D01*
X575390Y89894D01*
X575326Y89793D01*
X575266Y89689D01*
X575209Y89584D01*
X575156Y89477D01*
X575106Y89369D01*
X575060Y89259D01*
X575018Y89147D01*
X574979Y89034D01*
X574944Y88920D01*
X574913Y88805D01*
X574885Y88688D01*
X574862Y88571D01*
X574842Y88454D01*
X574826Y88335D01*
X574814Y88216D01*
X574806Y88097D01*
X574802Y87978D01*
X574802Y87858D01*
X574806Y87739D01*
X574814Y87620D01*
X574826Y87501D01*
X574842Y87382D01*
X574862Y87265D01*
X574885Y87148D01*
X574913Y87031D01*
X574944Y86916D01*
X574979Y86802D01*
X575018Y86689D01*
X575060Y86577D01*
X575106Y86467D01*
X575156Y86359D01*
X575209Y86252D01*
X575266Y86147D01*
X575326Y86043D01*
X575390Y85942D01*
X575457Y85844D01*
X575527Y85747D01*
X575601Y85653D01*
X575677Y85561D01*
X575757Y85472D01*
X575839Y85385D01*
X575924Y85301D01*
X576012Y85220D01*
X576102Y85143D01*
X576195Y85068D01*
X576291Y84996D01*
X576389Y84927D01*
X576489Y84862D01*
X576591Y84800D01*
X576695Y84741D01*
X576801Y84686D01*
X576909Y84635D01*
X577018Y84587D01*
X577129Y84542D01*
X577241Y84502D01*
X577355Y84465D01*
X577470Y84432D01*
X577585Y84402D01*
X577702Y84377D01*
X577819Y84355D01*
X577938Y84338D01*
X578056Y84324D01*
X578175Y84314D01*
X578295Y84308D01*
X578414Y84306D01*
X589703Y87015D02*
X592864Y89724D01*
X585639Y98374D02*
X574802Y98374D01*
X585639Y98374D02*
X585639Y102889D01*
X585637Y102990D01*
X585631Y103091D01*
X585622Y103192D01*
X585609Y103293D01*
X585592Y103393D01*
X585571Y103492D01*
X585547Y103590D01*
X585519Y103687D01*
X585487Y103784D01*
X585452Y103879D01*
X585413Y103972D01*
X585371Y104064D01*
X585325Y104155D01*
X585276Y104244D01*
X585224Y104330D01*
X585168Y104415D01*
X585110Y104498D01*
X585048Y104578D01*
X584983Y104656D01*
X584916Y104732D01*
X584846Y104805D01*
X584773Y104875D01*
X584697Y104942D01*
X584619Y105007D01*
X584539Y105069D01*
X584456Y105127D01*
X584371Y105183D01*
X584285Y105235D01*
X584196Y105284D01*
X584105Y105330D01*
X584013Y105372D01*
X583920Y105411D01*
X583825Y105446D01*
X583728Y105478D01*
X583631Y105506D01*
X583533Y105530D01*
X583434Y105551D01*
X583334Y105568D01*
X583233Y105581D01*
X583132Y105590D01*
X583031Y105596D01*
X582930Y105598D01*
X582930Y105599D02*
X574802Y105599D01*
X587446Y120918D02*
X591058Y125433D01*
X574802Y125433D01*
X574802Y120918D02*
X574802Y129949D01*
X574802Y135923D02*
X575705Y135923D01*
X575705Y136827D01*
X574802Y136827D01*
X574802Y135923D01*
X586994Y151832D02*
X587119Y151830D01*
X587244Y151824D01*
X587369Y151815D01*
X587493Y151801D01*
X587617Y151784D01*
X587741Y151763D01*
X587863Y151738D01*
X587985Y151709D01*
X588106Y151677D01*
X588226Y151641D01*
X588345Y151601D01*
X588462Y151558D01*
X588578Y151511D01*
X588693Y151460D01*
X588805Y151406D01*
X588917Y151348D01*
X589026Y151288D01*
X589133Y151223D01*
X589239Y151156D01*
X589342Y151085D01*
X589443Y151011D01*
X589542Y150934D01*
X589638Y150854D01*
X589732Y150771D01*
X589823Y150686D01*
X589912Y150597D01*
X589997Y150506D01*
X590080Y150412D01*
X590160Y150316D01*
X590237Y150217D01*
X590311Y150116D01*
X590382Y150013D01*
X590449Y149907D01*
X590514Y149800D01*
X590574Y149691D01*
X590632Y149579D01*
X590686Y149467D01*
X590737Y149352D01*
X590784Y149236D01*
X590827Y149119D01*
X590867Y149000D01*
X590903Y148880D01*
X590935Y148759D01*
X590964Y148637D01*
X590989Y148515D01*
X591010Y148391D01*
X591027Y148267D01*
X591041Y148143D01*
X591050Y148018D01*
X591056Y147893D01*
X591058Y147768D01*
X591056Y147625D01*
X591050Y147483D01*
X591040Y147340D01*
X591027Y147198D01*
X591009Y147057D01*
X590988Y146915D01*
X590963Y146775D01*
X590934Y146635D01*
X590901Y146496D01*
X590864Y146358D01*
X590824Y146221D01*
X590780Y146086D01*
X590732Y145951D01*
X590680Y145818D01*
X590625Y145686D01*
X590566Y145556D01*
X590504Y145428D01*
X590438Y145301D01*
X590369Y145176D01*
X590297Y145053D01*
X590221Y144933D01*
X590142Y144814D01*
X590059Y144697D01*
X589974Y144583D01*
X589885Y144471D01*
X589794Y144362D01*
X589699Y144255D01*
X589602Y144150D01*
X589501Y144049D01*
X589398Y143950D01*
X589293Y143854D01*
X589184Y143761D01*
X589073Y143671D01*
X588960Y143584D01*
X588845Y143500D01*
X588727Y143420D01*
X588607Y143342D01*
X588485Y143268D01*
X588361Y143198D01*
X588235Y143130D01*
X588107Y143067D01*
X587978Y143006D01*
X587847Y142949D01*
X587715Y142896D01*
X587581Y142847D01*
X587446Y142801D01*
X583833Y150477D02*
X583925Y150571D01*
X584019Y150661D01*
X584116Y150749D01*
X584216Y150834D01*
X584318Y150916D01*
X584423Y150995D01*
X584530Y151070D01*
X584639Y151142D01*
X584750Y151211D01*
X584864Y151277D01*
X584979Y151339D01*
X585096Y151398D01*
X585215Y151453D01*
X585335Y151504D01*
X585457Y151552D01*
X585580Y151597D01*
X585704Y151637D01*
X585830Y151674D01*
X585957Y151707D01*
X586084Y151736D01*
X586213Y151762D01*
X586342Y151783D01*
X586472Y151801D01*
X586602Y151814D01*
X586732Y151824D01*
X586863Y151830D01*
X586994Y151832D01*
X583833Y150478D02*
X574802Y142801D01*
X574802Y151832D01*
X564388Y29041D02*
X548132Y23622D01*
X548132Y34459D02*
X564388Y29041D01*
X552196Y33105D02*
X552196Y24977D01*
X548132Y42653D02*
X548132Y47169D01*
X548132Y42653D02*
X548134Y42552D01*
X548140Y42451D01*
X548149Y42350D01*
X548162Y42249D01*
X548179Y42149D01*
X548200Y42050D01*
X548224Y41952D01*
X548252Y41855D01*
X548284Y41758D01*
X548319Y41663D01*
X548358Y41570D01*
X548400Y41478D01*
X548446Y41387D01*
X548495Y41298D01*
X548547Y41212D01*
X548603Y41127D01*
X548661Y41044D01*
X548723Y40964D01*
X548788Y40886D01*
X548855Y40810D01*
X548925Y40737D01*
X548998Y40667D01*
X549074Y40600D01*
X549152Y40535D01*
X549232Y40473D01*
X549315Y40415D01*
X549400Y40359D01*
X549487Y40307D01*
X549575Y40258D01*
X549666Y40212D01*
X549758Y40170D01*
X549851Y40131D01*
X549946Y40096D01*
X550043Y40064D01*
X550140Y40036D01*
X550238Y40012D01*
X550337Y39991D01*
X550437Y39974D01*
X550538Y39961D01*
X550639Y39952D01*
X550740Y39946D01*
X550841Y39944D01*
X556260Y39944D01*
X556361Y39946D01*
X556462Y39952D01*
X556563Y39961D01*
X556664Y39974D01*
X556764Y39991D01*
X556863Y40012D01*
X556961Y40036D01*
X557058Y40064D01*
X557155Y40096D01*
X557250Y40131D01*
X557343Y40170D01*
X557435Y40212D01*
X557526Y40258D01*
X557615Y40307D01*
X557701Y40359D01*
X557786Y40415D01*
X557869Y40473D01*
X557949Y40535D01*
X558027Y40600D01*
X558103Y40667D01*
X558176Y40737D01*
X558246Y40810D01*
X558313Y40886D01*
X558378Y40964D01*
X558440Y41044D01*
X558498Y41127D01*
X558554Y41212D01*
X558606Y41298D01*
X558655Y41387D01*
X558701Y41478D01*
X558743Y41570D01*
X558782Y41663D01*
X558817Y41758D01*
X558849Y41855D01*
X558877Y41952D01*
X558901Y42050D01*
X558922Y42149D01*
X558939Y42249D01*
X558952Y42350D01*
X558961Y42451D01*
X558967Y42552D01*
X558969Y42653D01*
X558969Y47169D01*
X545423Y47169D01*
X545319Y47167D01*
X545216Y47161D01*
X545112Y47151D01*
X545009Y47137D01*
X544907Y47119D01*
X544806Y47098D01*
X544705Y47072D01*
X544606Y47043D01*
X544507Y47010D01*
X544410Y46973D01*
X544315Y46932D01*
X544221Y46888D01*
X544129Y46840D01*
X544039Y46789D01*
X543950Y46734D01*
X543864Y46676D01*
X543781Y46614D01*
X543699Y46550D01*
X543621Y46482D01*
X543545Y46412D01*
X543471Y46339D01*
X543401Y46262D01*
X543333Y46184D01*
X543269Y46102D01*
X543207Y46019D01*
X543149Y45933D01*
X543094Y45844D01*
X543043Y45754D01*
X542995Y45662D01*
X542951Y45568D01*
X542910Y45473D01*
X542873Y45376D01*
X542840Y45277D01*
X542811Y45178D01*
X542785Y45077D01*
X542764Y44976D01*
X542746Y44874D01*
X542732Y44771D01*
X542722Y44667D01*
X542716Y44564D01*
X542714Y44460D01*
X542713Y44460D02*
X542713Y40847D01*
X551744Y54085D02*
X555357Y54085D01*
X555357Y54086D02*
X555476Y54088D01*
X555596Y54094D01*
X555715Y54104D01*
X555833Y54118D01*
X555952Y54135D01*
X556069Y54157D01*
X556186Y54182D01*
X556301Y54212D01*
X556416Y54245D01*
X556530Y54282D01*
X556642Y54322D01*
X556753Y54367D01*
X556862Y54415D01*
X556970Y54466D01*
X557076Y54521D01*
X557180Y54580D01*
X557282Y54642D01*
X557382Y54707D01*
X557480Y54776D01*
X557576Y54848D01*
X557669Y54923D01*
X557759Y55000D01*
X557847Y55081D01*
X557932Y55165D01*
X558014Y55252D01*
X558094Y55341D01*
X558170Y55433D01*
X558244Y55527D01*
X558314Y55624D01*
X558381Y55722D01*
X558445Y55823D01*
X558505Y55927D01*
X558562Y56032D01*
X558615Y56139D01*
X558665Y56247D01*
X558711Y56357D01*
X558753Y56469D01*
X558792Y56582D01*
X558827Y56696D01*
X558858Y56811D01*
X558886Y56928D01*
X558909Y57045D01*
X558929Y57162D01*
X558945Y57281D01*
X558957Y57400D01*
X558965Y57519D01*
X558969Y57638D01*
X558969Y57758D01*
X558965Y57877D01*
X558957Y57996D01*
X558945Y58115D01*
X558929Y58234D01*
X558909Y58351D01*
X558886Y58468D01*
X558858Y58585D01*
X558827Y58700D01*
X558792Y58814D01*
X558753Y58927D01*
X558711Y59039D01*
X558665Y59149D01*
X558615Y59257D01*
X558562Y59364D01*
X558505Y59469D01*
X558445Y59573D01*
X558381Y59674D01*
X558314Y59772D01*
X558244Y59869D01*
X558170Y59963D01*
X558094Y60055D01*
X558014Y60144D01*
X557932Y60231D01*
X557847Y60315D01*
X557759Y60396D01*
X557669Y60473D01*
X557576Y60548D01*
X557480Y60620D01*
X557382Y60689D01*
X557282Y60754D01*
X557180Y60816D01*
X557076Y60875D01*
X556970Y60930D01*
X556862Y60981D01*
X556753Y61029D01*
X556642Y61074D01*
X556530Y61114D01*
X556416Y61151D01*
X556301Y61184D01*
X556186Y61214D01*
X556069Y61239D01*
X555952Y61261D01*
X555833Y61278D01*
X555715Y61292D01*
X555596Y61302D01*
X555476Y61308D01*
X555357Y61310D01*
X551744Y61310D01*
X551625Y61308D01*
X551505Y61302D01*
X551386Y61292D01*
X551268Y61278D01*
X551149Y61261D01*
X551032Y61239D01*
X550915Y61214D01*
X550800Y61184D01*
X550685Y61151D01*
X550571Y61114D01*
X550459Y61074D01*
X550348Y61029D01*
X550239Y60981D01*
X550131Y60930D01*
X550025Y60875D01*
X549921Y60816D01*
X549819Y60754D01*
X549719Y60689D01*
X549621Y60620D01*
X549525Y60548D01*
X549432Y60473D01*
X549342Y60396D01*
X549254Y60315D01*
X549169Y60231D01*
X549087Y60144D01*
X549007Y60055D01*
X548931Y59963D01*
X548857Y59869D01*
X548787Y59772D01*
X548720Y59674D01*
X548656Y59573D01*
X548596Y59469D01*
X548539Y59364D01*
X548486Y59257D01*
X548436Y59149D01*
X548390Y59039D01*
X548348Y58927D01*
X548309Y58814D01*
X548274Y58700D01*
X548243Y58585D01*
X548215Y58468D01*
X548192Y58351D01*
X548172Y58234D01*
X548156Y58115D01*
X548144Y57996D01*
X548136Y57877D01*
X548132Y57758D01*
X548132Y57638D01*
X548136Y57519D01*
X548144Y57400D01*
X548156Y57281D01*
X548172Y57162D01*
X548192Y57045D01*
X548215Y56928D01*
X548243Y56811D01*
X548274Y56696D01*
X548309Y56582D01*
X548348Y56469D01*
X548390Y56357D01*
X548436Y56247D01*
X548486Y56139D01*
X548539Y56032D01*
X548596Y55927D01*
X548656Y55823D01*
X548720Y55722D01*
X548787Y55624D01*
X548857Y55527D01*
X548931Y55433D01*
X549007Y55341D01*
X549087Y55252D01*
X549169Y55165D01*
X549254Y55081D01*
X549342Y55000D01*
X549432Y54923D01*
X549525Y54848D01*
X549621Y54776D01*
X549719Y54707D01*
X549819Y54642D01*
X549921Y54580D01*
X550025Y54521D01*
X550131Y54466D01*
X550239Y54415D01*
X550348Y54367D01*
X550459Y54322D01*
X550571Y54282D01*
X550685Y54245D01*
X550800Y54212D01*
X550915Y54182D01*
X551032Y54157D01*
X551149Y54135D01*
X551268Y54118D01*
X551386Y54104D01*
X551505Y54094D01*
X551625Y54088D01*
X551744Y54086D01*
X554454Y68987D02*
X552648Y73503D01*
X554454Y68987D02*
X554491Y68899D01*
X554532Y68813D01*
X554576Y68728D01*
X554624Y68645D01*
X554675Y68565D01*
X554729Y68486D01*
X554787Y68410D01*
X554847Y68336D01*
X554911Y68264D01*
X554977Y68196D01*
X555047Y68130D01*
X555118Y68067D01*
X555193Y68006D01*
X555269Y67949D01*
X555348Y67896D01*
X555429Y67845D01*
X555512Y67798D01*
X555597Y67754D01*
X555684Y67714D01*
X555772Y67677D01*
X555862Y67644D01*
X555953Y67614D01*
X556045Y67589D01*
X556138Y67567D01*
X556232Y67549D01*
X556326Y67534D01*
X556421Y67524D01*
X556517Y67518D01*
X556612Y67515D01*
X556708Y67516D01*
X556803Y67522D01*
X556899Y67531D01*
X556993Y67544D01*
X557087Y67560D01*
X557181Y67581D01*
X557273Y67606D01*
X557364Y67634D01*
X557454Y67666D01*
X557543Y67701D01*
X557630Y67740D01*
X557716Y67783D01*
X557800Y67829D01*
X557881Y67879D01*
X557961Y67931D01*
X558039Y67987D01*
X558114Y68047D01*
X558186Y68109D01*
X558256Y68174D01*
X558324Y68242D01*
X558388Y68312D01*
X558450Y68385D01*
X558508Y68461D01*
X558564Y68539D01*
X558616Y68619D01*
X558665Y68701D01*
X558710Y68785D01*
X558752Y68871D01*
X558791Y68958D01*
X558826Y69047D01*
X558857Y69138D01*
X558884Y69229D01*
X558908Y69322D01*
X558928Y69415D01*
X558944Y69509D01*
X558956Y69604D01*
X558965Y69699D01*
X558969Y69795D01*
X558970Y69890D01*
X558963Y70137D01*
X558951Y70383D01*
X558933Y70629D01*
X558908Y70875D01*
X558878Y71119D01*
X558842Y71363D01*
X558801Y71606D01*
X558753Y71848D01*
X558699Y72089D01*
X558640Y72328D01*
X558575Y72566D01*
X558504Y72802D01*
X558428Y73037D01*
X558346Y73270D01*
X558258Y73500D01*
X558165Y73728D01*
X558067Y73955D01*
X552647Y73503D02*
X552610Y73591D01*
X552569Y73677D01*
X552525Y73762D01*
X552477Y73845D01*
X552426Y73925D01*
X552372Y74004D01*
X552314Y74080D01*
X552254Y74154D01*
X552190Y74226D01*
X552124Y74294D01*
X552054Y74360D01*
X551983Y74423D01*
X551908Y74484D01*
X551832Y74541D01*
X551753Y74594D01*
X551672Y74645D01*
X551589Y74692D01*
X551504Y74736D01*
X551417Y74776D01*
X551329Y74813D01*
X551239Y74846D01*
X551148Y74876D01*
X551056Y74901D01*
X550963Y74923D01*
X550869Y74941D01*
X550775Y74956D01*
X550680Y74966D01*
X550584Y74972D01*
X550489Y74975D01*
X550393Y74974D01*
X550298Y74968D01*
X550202Y74959D01*
X550108Y74946D01*
X550014Y74930D01*
X549920Y74909D01*
X549828Y74884D01*
X549737Y74856D01*
X549647Y74824D01*
X549558Y74789D01*
X549471Y74750D01*
X549385Y74707D01*
X549301Y74661D01*
X549220Y74611D01*
X549140Y74559D01*
X549062Y74503D01*
X548987Y74443D01*
X548915Y74381D01*
X548845Y74316D01*
X548777Y74248D01*
X548713Y74178D01*
X548651Y74105D01*
X548593Y74029D01*
X548537Y73951D01*
X548485Y73871D01*
X548436Y73789D01*
X548391Y73705D01*
X548349Y73619D01*
X548310Y73532D01*
X548275Y73443D01*
X548244Y73352D01*
X548217Y73261D01*
X548193Y73168D01*
X548173Y73075D01*
X548157Y72981D01*
X548145Y72886D01*
X548136Y72791D01*
X548132Y72695D01*
X548131Y72600D01*
X548132Y72599D02*
X548141Y72237D01*
X548159Y71875D01*
X548186Y71514D01*
X548221Y71154D01*
X548264Y70794D01*
X548316Y70435D01*
X548377Y70078D01*
X548446Y69723D01*
X548523Y69369D01*
X548609Y69017D01*
X548703Y68667D01*
X548806Y68319D01*
X548916Y67974D01*
X549035Y67632D01*
X558969Y79882D02*
X558969Y85301D01*
X564388Y81689D02*
X550841Y81689D01*
X550740Y81691D01*
X550639Y81697D01*
X550538Y81706D01*
X550437Y81719D01*
X550337Y81736D01*
X550238Y81757D01*
X550140Y81781D01*
X550043Y81809D01*
X549946Y81841D01*
X549851Y81876D01*
X549758Y81915D01*
X549666Y81957D01*
X549575Y82003D01*
X549487Y82052D01*
X549400Y82104D01*
X549315Y82160D01*
X549232Y82218D01*
X549152Y82280D01*
X549074Y82345D01*
X548998Y82412D01*
X548925Y82482D01*
X548855Y82555D01*
X548788Y82631D01*
X548723Y82709D01*
X548661Y82789D01*
X548603Y82872D01*
X548547Y82957D01*
X548495Y83044D01*
X548446Y83132D01*
X548400Y83223D01*
X548358Y83315D01*
X548319Y83408D01*
X548284Y83503D01*
X548252Y83600D01*
X548224Y83697D01*
X548200Y83795D01*
X548179Y83894D01*
X548162Y83994D01*
X548149Y84095D01*
X548140Y84196D01*
X548134Y84297D01*
X548132Y84398D01*
X548132Y85301D01*
X551744Y91079D02*
X555357Y91079D01*
X555357Y91080D02*
X555476Y91082D01*
X555596Y91088D01*
X555715Y91098D01*
X555833Y91112D01*
X555952Y91129D01*
X556069Y91151D01*
X556186Y91176D01*
X556301Y91206D01*
X556416Y91239D01*
X556530Y91276D01*
X556642Y91316D01*
X556753Y91361D01*
X556862Y91409D01*
X556970Y91460D01*
X557076Y91515D01*
X557180Y91574D01*
X557282Y91636D01*
X557382Y91701D01*
X557480Y91770D01*
X557576Y91842D01*
X557669Y91917D01*
X557759Y91994D01*
X557847Y92075D01*
X557932Y92159D01*
X558014Y92246D01*
X558094Y92335D01*
X558170Y92427D01*
X558244Y92521D01*
X558314Y92618D01*
X558381Y92716D01*
X558445Y92817D01*
X558505Y92921D01*
X558562Y93026D01*
X558615Y93133D01*
X558665Y93241D01*
X558711Y93351D01*
X558753Y93463D01*
X558792Y93576D01*
X558827Y93690D01*
X558858Y93805D01*
X558886Y93922D01*
X558909Y94039D01*
X558929Y94156D01*
X558945Y94275D01*
X558957Y94394D01*
X558965Y94513D01*
X558969Y94632D01*
X558969Y94752D01*
X558965Y94871D01*
X558957Y94990D01*
X558945Y95109D01*
X558929Y95228D01*
X558909Y95345D01*
X558886Y95462D01*
X558858Y95579D01*
X558827Y95694D01*
X558792Y95808D01*
X558753Y95921D01*
X558711Y96033D01*
X558665Y96143D01*
X558615Y96251D01*
X558562Y96358D01*
X558505Y96463D01*
X558445Y96567D01*
X558381Y96668D01*
X558314Y96766D01*
X558244Y96863D01*
X558170Y96957D01*
X558094Y97049D01*
X558014Y97138D01*
X557932Y97225D01*
X557847Y97309D01*
X557759Y97390D01*
X557669Y97467D01*
X557576Y97542D01*
X557480Y97614D01*
X557382Y97683D01*
X557282Y97748D01*
X557180Y97810D01*
X557076Y97869D01*
X556970Y97924D01*
X556862Y97975D01*
X556753Y98023D01*
X556642Y98068D01*
X556530Y98108D01*
X556416Y98145D01*
X556301Y98178D01*
X556186Y98208D01*
X556069Y98233D01*
X555952Y98255D01*
X555833Y98272D01*
X555715Y98286D01*
X555596Y98296D01*
X555476Y98302D01*
X555357Y98304D01*
X551744Y98304D01*
X551625Y98302D01*
X551505Y98296D01*
X551386Y98286D01*
X551268Y98272D01*
X551149Y98255D01*
X551032Y98233D01*
X550915Y98208D01*
X550800Y98178D01*
X550685Y98145D01*
X550571Y98108D01*
X550459Y98068D01*
X550348Y98023D01*
X550239Y97975D01*
X550131Y97924D01*
X550025Y97869D01*
X549921Y97810D01*
X549819Y97748D01*
X549719Y97683D01*
X549621Y97614D01*
X549525Y97542D01*
X549432Y97467D01*
X549342Y97390D01*
X549254Y97309D01*
X549169Y97225D01*
X549087Y97138D01*
X549007Y97049D01*
X548931Y96957D01*
X548857Y96863D01*
X548787Y96766D01*
X548720Y96668D01*
X548656Y96567D01*
X548596Y96463D01*
X548539Y96358D01*
X548486Y96251D01*
X548436Y96143D01*
X548390Y96033D01*
X548348Y95921D01*
X548309Y95808D01*
X548274Y95694D01*
X548243Y95579D01*
X548215Y95462D01*
X548192Y95345D01*
X548172Y95228D01*
X548156Y95109D01*
X548144Y94990D01*
X548136Y94871D01*
X548132Y94752D01*
X548132Y94632D01*
X548136Y94513D01*
X548144Y94394D01*
X548156Y94275D01*
X548172Y94156D01*
X548192Y94039D01*
X548215Y93922D01*
X548243Y93805D01*
X548274Y93690D01*
X548309Y93576D01*
X548348Y93463D01*
X548390Y93351D01*
X548436Y93241D01*
X548486Y93133D01*
X548539Y93026D01*
X548596Y92921D01*
X548656Y92817D01*
X548720Y92716D01*
X548787Y92618D01*
X548857Y92521D01*
X548931Y92427D01*
X549007Y92335D01*
X549087Y92246D01*
X549169Y92159D01*
X549254Y92075D01*
X549342Y91994D01*
X549432Y91917D01*
X549525Y91842D01*
X549621Y91770D01*
X549719Y91701D01*
X549819Y91636D01*
X549921Y91574D01*
X550025Y91515D01*
X550131Y91460D01*
X550239Y91409D01*
X550348Y91361D01*
X550459Y91316D01*
X550571Y91276D01*
X550685Y91239D01*
X550800Y91206D01*
X550915Y91176D01*
X551032Y91151D01*
X551149Y91129D01*
X551268Y91112D01*
X551386Y91098D01*
X551505Y91088D01*
X551625Y91082D01*
X551744Y91080D01*
X554454Y104904D02*
X554454Y115742D01*
X564388Y127448D02*
X564386Y127573D01*
X564380Y127698D01*
X564371Y127823D01*
X564357Y127947D01*
X564340Y128071D01*
X564319Y128195D01*
X564294Y128317D01*
X564265Y128439D01*
X564233Y128560D01*
X564197Y128680D01*
X564157Y128799D01*
X564114Y128916D01*
X564067Y129032D01*
X564016Y129147D01*
X563962Y129259D01*
X563904Y129371D01*
X563844Y129480D01*
X563779Y129587D01*
X563712Y129693D01*
X563641Y129796D01*
X563567Y129897D01*
X563490Y129996D01*
X563410Y130092D01*
X563327Y130186D01*
X563242Y130277D01*
X563153Y130366D01*
X563062Y130451D01*
X562968Y130534D01*
X562872Y130614D01*
X562773Y130691D01*
X562672Y130765D01*
X562569Y130836D01*
X562463Y130903D01*
X562356Y130968D01*
X562247Y131028D01*
X562135Y131086D01*
X562023Y131140D01*
X561908Y131191D01*
X561792Y131238D01*
X561675Y131281D01*
X561556Y131321D01*
X561436Y131357D01*
X561315Y131389D01*
X561193Y131418D01*
X561071Y131443D01*
X560947Y131464D01*
X560823Y131481D01*
X560699Y131495D01*
X560574Y131504D01*
X560449Y131510D01*
X560324Y131512D01*
X564388Y127448D02*
X564386Y127305D01*
X564380Y127163D01*
X564370Y127020D01*
X564357Y126878D01*
X564339Y126737D01*
X564318Y126595D01*
X564293Y126455D01*
X564264Y126315D01*
X564231Y126176D01*
X564194Y126038D01*
X564154Y125901D01*
X564110Y125766D01*
X564062Y125631D01*
X564010Y125498D01*
X563955Y125366D01*
X563896Y125236D01*
X563834Y125108D01*
X563768Y124981D01*
X563699Y124856D01*
X563627Y124733D01*
X563551Y124613D01*
X563472Y124494D01*
X563389Y124377D01*
X563304Y124263D01*
X563215Y124151D01*
X563124Y124042D01*
X563029Y123935D01*
X562932Y123830D01*
X562831Y123729D01*
X562728Y123630D01*
X562623Y123534D01*
X562514Y123441D01*
X562403Y123351D01*
X562290Y123264D01*
X562175Y123180D01*
X562057Y123100D01*
X561937Y123022D01*
X561815Y122948D01*
X561691Y122878D01*
X561565Y122810D01*
X561437Y122747D01*
X561308Y122686D01*
X561177Y122629D01*
X561045Y122576D01*
X560911Y122527D01*
X560776Y122481D01*
X557163Y130157D02*
X557255Y130251D01*
X557349Y130341D01*
X557446Y130429D01*
X557546Y130514D01*
X557648Y130596D01*
X557753Y130675D01*
X557860Y130750D01*
X557969Y130822D01*
X558080Y130891D01*
X558194Y130957D01*
X558309Y131019D01*
X558426Y131078D01*
X558545Y131133D01*
X558665Y131184D01*
X558787Y131232D01*
X558910Y131277D01*
X559034Y131317D01*
X559160Y131354D01*
X559287Y131387D01*
X559414Y131416D01*
X559543Y131442D01*
X559672Y131463D01*
X559802Y131481D01*
X559932Y131494D01*
X560062Y131504D01*
X560193Y131510D01*
X560324Y131512D01*
X557163Y130157D02*
X548132Y122481D01*
X548132Y131512D01*
X556260Y138112D02*
X556580Y138116D01*
X556899Y138127D01*
X557219Y138146D01*
X557537Y138173D01*
X557855Y138207D01*
X558172Y138249D01*
X558488Y138299D01*
X558803Y138356D01*
X559116Y138420D01*
X559428Y138492D01*
X559738Y138571D01*
X560045Y138658D01*
X560351Y138752D01*
X560654Y138853D01*
X560955Y138962D01*
X561253Y139077D01*
X561549Y139200D01*
X561841Y139330D01*
X562130Y139467D01*
X562131Y139467D02*
X562239Y139506D01*
X562346Y139549D01*
X562451Y139595D01*
X562555Y139646D01*
X562657Y139699D01*
X562757Y139756D01*
X562855Y139817D01*
X562950Y139881D01*
X563044Y139948D01*
X563135Y140019D01*
X563224Y140092D01*
X563310Y140169D01*
X563393Y140248D01*
X563474Y140330D01*
X563552Y140415D01*
X563626Y140503D01*
X563698Y140593D01*
X563766Y140685D01*
X563832Y140780D01*
X563894Y140877D01*
X563952Y140976D01*
X564008Y141078D01*
X564059Y141180D01*
X564107Y141285D01*
X564152Y141391D01*
X564193Y141499D01*
X564230Y141608D01*
X564263Y141718D01*
X564292Y141830D01*
X564318Y141942D01*
X564340Y142055D01*
X564357Y142169D01*
X564371Y142283D01*
X564381Y142398D01*
X564387Y142513D01*
X564389Y142628D01*
X564388Y142628D02*
X564386Y142743D01*
X564380Y142858D01*
X564370Y142973D01*
X564356Y143087D01*
X564339Y143201D01*
X564317Y143314D01*
X564291Y143426D01*
X564262Y143538D01*
X564229Y143648D01*
X564192Y143757D01*
X564151Y143865D01*
X564106Y143971D01*
X564058Y144076D01*
X564007Y144178D01*
X563951Y144279D01*
X563893Y144379D01*
X563831Y144476D01*
X563766Y144570D01*
X563697Y144663D01*
X563625Y144753D01*
X563551Y144841D01*
X563473Y144926D01*
X563392Y145008D01*
X563309Y145087D01*
X563223Y145164D01*
X563134Y145237D01*
X563043Y145308D01*
X562949Y145375D01*
X562854Y145439D01*
X562756Y145500D01*
X562656Y145557D01*
X562554Y145610D01*
X562450Y145661D01*
X562345Y145707D01*
X562238Y145750D01*
X562130Y145789D01*
X562130Y145788D02*
X561841Y145925D01*
X561549Y146055D01*
X561253Y146178D01*
X560955Y146293D01*
X560654Y146402D01*
X560351Y146503D01*
X560045Y146597D01*
X559738Y146684D01*
X559428Y146763D01*
X559116Y146835D01*
X558803Y146899D01*
X558488Y146956D01*
X558172Y147006D01*
X557855Y147048D01*
X557537Y147082D01*
X557219Y147109D01*
X556899Y147128D01*
X556580Y147139D01*
X556260Y147143D01*
X556260Y138112D02*
X555940Y138116D01*
X555621Y138127D01*
X555301Y138146D01*
X554983Y138173D01*
X554665Y138207D01*
X554348Y138249D01*
X554032Y138299D01*
X553717Y138356D01*
X553404Y138420D01*
X553092Y138492D01*
X552782Y138571D01*
X552475Y138658D01*
X552169Y138752D01*
X551866Y138853D01*
X551565Y138962D01*
X551267Y139077D01*
X550971Y139200D01*
X550679Y139330D01*
X550390Y139467D01*
X550282Y139506D01*
X550175Y139549D01*
X550070Y139595D01*
X549966Y139646D01*
X549864Y139699D01*
X549764Y139756D01*
X549666Y139817D01*
X549571Y139881D01*
X549477Y139948D01*
X549386Y140019D01*
X549297Y140092D01*
X549211Y140169D01*
X549128Y140248D01*
X549047Y140330D01*
X548969Y140415D01*
X548895Y140503D01*
X548823Y140593D01*
X548754Y140686D01*
X548689Y140780D01*
X548627Y140877D01*
X548569Y140977D01*
X548513Y141078D01*
X548462Y141180D01*
X548414Y141285D01*
X548369Y141391D01*
X548328Y141499D01*
X548291Y141608D01*
X548258Y141718D01*
X548229Y141830D01*
X548203Y141942D01*
X548181Y142055D01*
X548164Y142169D01*
X548150Y142283D01*
X548140Y142398D01*
X548134Y142513D01*
X548132Y142628D01*
X550390Y145788D02*
X550679Y145925D01*
X550971Y146055D01*
X551267Y146178D01*
X551565Y146293D01*
X551866Y146402D01*
X552169Y146503D01*
X552475Y146597D01*
X552782Y146684D01*
X553092Y146763D01*
X553404Y146835D01*
X553717Y146899D01*
X554032Y146956D01*
X554348Y147006D01*
X554665Y147048D01*
X554983Y147082D01*
X555301Y147109D01*
X555621Y147128D01*
X555940Y147139D01*
X556260Y147143D01*
X550390Y145789D02*
X550282Y145750D01*
X550175Y145707D01*
X550070Y145661D01*
X549966Y145610D01*
X549864Y145557D01*
X549764Y145500D01*
X549666Y145439D01*
X549571Y145375D01*
X549477Y145308D01*
X549386Y145237D01*
X549297Y145164D01*
X549211Y145087D01*
X549128Y145008D01*
X549047Y144926D01*
X548969Y144841D01*
X548895Y144753D01*
X548823Y144663D01*
X548754Y144570D01*
X548689Y144476D01*
X548627Y144379D01*
X548569Y144279D01*
X548513Y144178D01*
X548462Y144075D01*
X548414Y143971D01*
X548369Y143865D01*
X548328Y143757D01*
X548291Y143648D01*
X548258Y143538D01*
X548229Y143426D01*
X548203Y143314D01*
X548181Y143201D01*
X548164Y143087D01*
X548150Y142973D01*
X548140Y142858D01*
X548134Y142743D01*
X548132Y142628D01*
X551744Y139015D02*
X560776Y146240D01*
X560776Y153743D02*
X564388Y158259D01*
X548132Y158259D01*
X548132Y162774D02*
X548132Y153743D01*
X555357Y172987D02*
X555357Y178406D01*
X555357Y172987D02*
X555359Y172869D01*
X555365Y172751D01*
X555374Y172633D01*
X555388Y172516D01*
X555405Y172399D01*
X555426Y172282D01*
X555451Y172167D01*
X555480Y172052D01*
X555513Y171938D01*
X555549Y171826D01*
X555589Y171715D01*
X555632Y171605D01*
X555679Y171496D01*
X555729Y171389D01*
X555784Y171284D01*
X555841Y171181D01*
X555902Y171080D01*
X555966Y170980D01*
X556033Y170883D01*
X556103Y170788D01*
X556177Y170696D01*
X556253Y170605D01*
X556333Y170518D01*
X556415Y170433D01*
X556500Y170351D01*
X556587Y170271D01*
X556678Y170195D01*
X556770Y170121D01*
X556865Y170051D01*
X556962Y169984D01*
X557062Y169920D01*
X557163Y169859D01*
X557266Y169802D01*
X557371Y169747D01*
X557478Y169697D01*
X557587Y169650D01*
X557697Y169607D01*
X557808Y169567D01*
X557920Y169531D01*
X558034Y169498D01*
X558149Y169469D01*
X558264Y169444D01*
X558381Y169423D01*
X558498Y169406D01*
X558615Y169392D01*
X558733Y169383D01*
X558851Y169377D01*
X558969Y169375D01*
X558969Y169374D02*
X559872Y169374D01*
X560005Y169376D01*
X560137Y169382D01*
X560269Y169392D01*
X560401Y169405D01*
X560533Y169423D01*
X560663Y169444D01*
X560794Y169469D01*
X560923Y169498D01*
X561051Y169531D01*
X561179Y169567D01*
X561305Y169607D01*
X561430Y169651D01*
X561554Y169699D01*
X561676Y169750D01*
X561797Y169805D01*
X561916Y169863D01*
X562034Y169925D01*
X562149Y169990D01*
X562263Y170059D01*
X562374Y170130D01*
X562483Y170206D01*
X562590Y170284D01*
X562695Y170365D01*
X562797Y170450D01*
X562897Y170537D01*
X562994Y170627D01*
X563089Y170720D01*
X563180Y170816D01*
X563269Y170914D01*
X563355Y171015D01*
X563438Y171119D01*
X563518Y171225D01*
X563594Y171333D01*
X563668Y171443D01*
X563738Y171556D01*
X563805Y171670D01*
X563868Y171787D01*
X563928Y171905D01*
X563985Y172025D01*
X564038Y172147D01*
X564087Y172270D01*
X564133Y172394D01*
X564175Y172520D01*
X564213Y172647D01*
X564248Y172775D01*
X564279Y172904D01*
X564306Y173033D01*
X564329Y173164D01*
X564349Y173295D01*
X564364Y173427D01*
X564376Y173559D01*
X564384Y173691D01*
X564388Y173824D01*
X564388Y173956D01*
X564384Y174089D01*
X564376Y174221D01*
X564364Y174353D01*
X564349Y174485D01*
X564329Y174616D01*
X564306Y174747D01*
X564279Y174876D01*
X564248Y175005D01*
X564213Y175133D01*
X564175Y175260D01*
X564133Y175386D01*
X564087Y175510D01*
X564038Y175633D01*
X563985Y175755D01*
X563928Y175875D01*
X563868Y175993D01*
X563805Y176110D01*
X563738Y176224D01*
X563668Y176337D01*
X563594Y176447D01*
X563518Y176555D01*
X563438Y176661D01*
X563355Y176765D01*
X563269Y176866D01*
X563180Y176964D01*
X563089Y177060D01*
X562994Y177153D01*
X562897Y177243D01*
X562797Y177330D01*
X562695Y177415D01*
X562590Y177496D01*
X562483Y177574D01*
X562374Y177650D01*
X562263Y177721D01*
X562149Y177790D01*
X562034Y177855D01*
X561916Y177917D01*
X561797Y177975D01*
X561676Y178030D01*
X561554Y178081D01*
X561430Y178129D01*
X561305Y178173D01*
X561179Y178213D01*
X561051Y178249D01*
X560923Y178282D01*
X560794Y178311D01*
X560663Y178336D01*
X560533Y178357D01*
X560401Y178375D01*
X560269Y178388D01*
X560137Y178398D01*
X560005Y178404D01*
X559872Y178406D01*
X555357Y178406D01*
X555182Y178404D01*
X555008Y178398D01*
X554834Y178387D01*
X554660Y178372D01*
X554486Y178353D01*
X554313Y178330D01*
X554141Y178303D01*
X553969Y178271D01*
X553798Y178236D01*
X553628Y178196D01*
X553459Y178152D01*
X553291Y178104D01*
X553124Y178052D01*
X552959Y177996D01*
X552795Y177936D01*
X552632Y177873D01*
X552472Y177805D01*
X552312Y177733D01*
X552155Y177658D01*
X551999Y177578D01*
X551846Y177495D01*
X551694Y177409D01*
X551545Y177318D01*
X551398Y177224D01*
X551253Y177127D01*
X551110Y177026D01*
X550970Y176922D01*
X550833Y176814D01*
X550698Y176703D01*
X550566Y176589D01*
X550437Y176472D01*
X550310Y176351D01*
X550187Y176228D01*
X550066Y176101D01*
X549949Y175972D01*
X549835Y175840D01*
X549724Y175705D01*
X549616Y175568D01*
X549512Y175428D01*
X549411Y175285D01*
X549314Y175140D01*
X549220Y174993D01*
X549129Y174844D01*
X549043Y174692D01*
X548960Y174539D01*
X548880Y174383D01*
X548805Y174226D01*
X548733Y174066D01*
X548665Y173906D01*
X548602Y173743D01*
X548542Y173579D01*
X548486Y173414D01*
X548434Y173247D01*
X548386Y173079D01*
X548342Y172910D01*
X548302Y172740D01*
X548267Y172569D01*
X548235Y172397D01*
X548208Y172225D01*
X548185Y172052D01*
X548166Y171878D01*
X548151Y171704D01*
X548140Y171530D01*
X548134Y171356D01*
X548132Y171181D01*
X678349Y628142D02*
X678231Y628144D01*
X678113Y628150D01*
X677995Y628159D01*
X677878Y628173D01*
X677761Y628190D01*
X677644Y628211D01*
X677529Y628236D01*
X677414Y628265D01*
X677300Y628298D01*
X677188Y628334D01*
X677077Y628374D01*
X676967Y628417D01*
X676858Y628464D01*
X676751Y628514D01*
X676646Y628569D01*
X676543Y628626D01*
X676442Y628687D01*
X676342Y628751D01*
X676245Y628818D01*
X676150Y628888D01*
X676058Y628962D01*
X675967Y629038D01*
X675880Y629118D01*
X675795Y629200D01*
X675713Y629285D01*
X675633Y629372D01*
X675557Y629463D01*
X675483Y629555D01*
X675413Y629650D01*
X675346Y629747D01*
X675282Y629847D01*
X675221Y629948D01*
X675164Y630051D01*
X675109Y630156D01*
X675059Y630263D01*
X675012Y630372D01*
X674969Y630482D01*
X674929Y630593D01*
X674893Y630705D01*
X674860Y630819D01*
X674831Y630934D01*
X674806Y631049D01*
X674785Y631166D01*
X674768Y631283D01*
X674754Y631400D01*
X674745Y631518D01*
X674739Y631636D01*
X674737Y631754D01*
X678349Y628142D02*
X678532Y628144D01*
X678714Y628151D01*
X678896Y628162D01*
X679078Y628177D01*
X679260Y628197D01*
X679441Y628221D01*
X679621Y628249D01*
X679801Y628281D01*
X679980Y628318D01*
X680157Y628359D01*
X680334Y628405D01*
X680510Y628454D01*
X680685Y628508D01*
X680858Y628566D01*
X681029Y628628D01*
X681200Y628694D01*
X681368Y628765D01*
X681535Y628839D01*
X681700Y628917D01*
X681863Y628999D01*
X682024Y629085D01*
X682183Y629175D01*
X682340Y629269D01*
X682494Y629366D01*
X682646Y629467D01*
X682796Y629572D01*
X682943Y629680D01*
X683087Y629791D01*
X683229Y629906D01*
X683368Y630025D01*
X683504Y630147D01*
X683637Y630272D01*
X683767Y630400D01*
X683316Y640786D02*
X683314Y640904D01*
X683308Y641022D01*
X683299Y641140D01*
X683285Y641257D01*
X683268Y641374D01*
X683247Y641491D01*
X683222Y641606D01*
X683193Y641721D01*
X683160Y641835D01*
X683124Y641947D01*
X683084Y642058D01*
X683041Y642168D01*
X682994Y642277D01*
X682944Y642384D01*
X682889Y642489D01*
X682832Y642592D01*
X682771Y642693D01*
X682707Y642793D01*
X682640Y642890D01*
X682570Y642985D01*
X682496Y643077D01*
X682420Y643168D01*
X682340Y643255D01*
X682258Y643340D01*
X682173Y643422D01*
X682086Y643502D01*
X681995Y643578D01*
X681903Y643652D01*
X681808Y643722D01*
X681711Y643789D01*
X681611Y643853D01*
X681510Y643914D01*
X681407Y643971D01*
X681302Y644026D01*
X681195Y644076D01*
X681086Y644123D01*
X680976Y644166D01*
X680865Y644206D01*
X680753Y644242D01*
X680639Y644275D01*
X680524Y644304D01*
X680409Y644329D01*
X680292Y644350D01*
X680175Y644367D01*
X680058Y644381D01*
X679940Y644390D01*
X679822Y644396D01*
X679704Y644398D01*
X679543Y644396D01*
X679381Y644390D01*
X679220Y644381D01*
X679059Y644367D01*
X678899Y644350D01*
X678739Y644329D01*
X678579Y644304D01*
X678420Y644275D01*
X678262Y644243D01*
X678105Y644207D01*
X677949Y644167D01*
X677793Y644123D01*
X677639Y644075D01*
X677486Y644024D01*
X677334Y643970D01*
X677183Y643911D01*
X677034Y643850D01*
X676887Y643784D01*
X676741Y643715D01*
X676596Y643643D01*
X676454Y643567D01*
X676313Y643488D01*
X676174Y643406D01*
X676038Y643320D01*
X675903Y643231D01*
X675770Y643139D01*
X675640Y643043D01*
X681511Y637625D02*
X681612Y637687D01*
X681712Y637752D01*
X681809Y637821D01*
X681904Y637893D01*
X681997Y637967D01*
X682087Y638045D01*
X682175Y638126D01*
X682260Y638209D01*
X682342Y638295D01*
X682421Y638384D01*
X682498Y638475D01*
X682571Y638569D01*
X682642Y638665D01*
X682709Y638763D01*
X682773Y638863D01*
X682834Y638966D01*
X682891Y639070D01*
X682945Y639176D01*
X682995Y639284D01*
X683042Y639393D01*
X683086Y639504D01*
X683126Y639616D01*
X683162Y639730D01*
X683194Y639844D01*
X683223Y639960D01*
X683248Y640076D01*
X683269Y640193D01*
X683286Y640311D01*
X683300Y640429D01*
X683309Y640548D01*
X683315Y640667D01*
X683317Y640786D01*
X676543Y634915D02*
X676442Y634853D01*
X676342Y634788D01*
X676245Y634719D01*
X676150Y634647D01*
X676057Y634573D01*
X675967Y634495D01*
X675879Y634414D01*
X675794Y634331D01*
X675712Y634245D01*
X675633Y634156D01*
X675556Y634065D01*
X675483Y633971D01*
X675412Y633875D01*
X675345Y633777D01*
X675281Y633677D01*
X675220Y633574D01*
X675163Y633470D01*
X675109Y633364D01*
X675059Y633256D01*
X675012Y633147D01*
X674968Y633036D01*
X674928Y632924D01*
X674892Y632810D01*
X674860Y632696D01*
X674831Y632580D01*
X674806Y632464D01*
X674785Y632347D01*
X674768Y632229D01*
X674754Y632111D01*
X674745Y631992D01*
X674739Y631873D01*
X674737Y631754D01*
X676543Y634915D02*
X681510Y637625D01*
X667269Y644398D02*
X667269Y628142D01*
X669075Y628142D02*
X665462Y628142D01*
X665462Y644398D02*
X669075Y644398D01*
X652436Y637173D02*
X649727Y637173D01*
X649727Y628142D01*
X655146Y628142D01*
X655264Y628144D01*
X655382Y628150D01*
X655500Y628159D01*
X655617Y628173D01*
X655734Y628190D01*
X655851Y628211D01*
X655966Y628236D01*
X656081Y628265D01*
X656195Y628298D01*
X656307Y628334D01*
X656418Y628374D01*
X656528Y628417D01*
X656637Y628464D01*
X656744Y628514D01*
X656849Y628569D01*
X656952Y628626D01*
X657053Y628687D01*
X657153Y628751D01*
X657250Y628818D01*
X657345Y628888D01*
X657437Y628962D01*
X657528Y629038D01*
X657615Y629118D01*
X657700Y629200D01*
X657782Y629285D01*
X657862Y629372D01*
X657938Y629463D01*
X658012Y629555D01*
X658082Y629650D01*
X658149Y629747D01*
X658213Y629847D01*
X658274Y629948D01*
X658331Y630051D01*
X658386Y630156D01*
X658436Y630263D01*
X658483Y630372D01*
X658526Y630482D01*
X658566Y630593D01*
X658602Y630705D01*
X658635Y630819D01*
X658664Y630934D01*
X658689Y631049D01*
X658710Y631166D01*
X658727Y631283D01*
X658741Y631400D01*
X658750Y631518D01*
X658756Y631636D01*
X658758Y631754D01*
X658758Y640786D01*
X658756Y640904D01*
X658750Y641022D01*
X658741Y641140D01*
X658727Y641257D01*
X658710Y641374D01*
X658689Y641491D01*
X658664Y641606D01*
X658635Y641721D01*
X658602Y641835D01*
X658566Y641947D01*
X658526Y642058D01*
X658483Y642168D01*
X658436Y642277D01*
X658386Y642384D01*
X658331Y642489D01*
X658274Y642592D01*
X658213Y642693D01*
X658149Y642793D01*
X658082Y642890D01*
X658012Y642985D01*
X657938Y643077D01*
X657862Y643168D01*
X657782Y643255D01*
X657700Y643340D01*
X657615Y643422D01*
X657528Y643502D01*
X657437Y643578D01*
X657345Y643652D01*
X657250Y643722D01*
X657153Y643789D01*
X657053Y643853D01*
X656952Y643914D01*
X656849Y643971D01*
X656744Y644026D01*
X656637Y644076D01*
X656528Y644123D01*
X656418Y644166D01*
X656307Y644206D01*
X656195Y644242D01*
X656081Y644275D01*
X655966Y644304D01*
X655851Y644329D01*
X655734Y644350D01*
X655617Y644367D01*
X655500Y644381D01*
X655382Y644390D01*
X655264Y644396D01*
X655146Y644398D01*
X649727Y644398D01*
X643509Y644398D02*
X638090Y636722D01*
X632672Y644398D01*
X638090Y636722D02*
X638090Y628142D01*
X637032Y29577D02*
X637032Y22352D01*
X653288Y22352D01*
X653288Y29577D01*
X646063Y27771D02*
X646063Y22352D01*
X643354Y36564D02*
X641548Y41079D01*
X643354Y36564D02*
X643391Y36476D01*
X643432Y36390D01*
X643476Y36305D01*
X643524Y36222D01*
X643575Y36142D01*
X643629Y36063D01*
X643687Y35987D01*
X643747Y35913D01*
X643811Y35841D01*
X643877Y35773D01*
X643947Y35707D01*
X644018Y35644D01*
X644093Y35583D01*
X644169Y35526D01*
X644248Y35473D01*
X644329Y35422D01*
X644412Y35375D01*
X644497Y35331D01*
X644584Y35291D01*
X644672Y35254D01*
X644762Y35221D01*
X644853Y35191D01*
X644945Y35166D01*
X645038Y35144D01*
X645132Y35126D01*
X645226Y35111D01*
X645321Y35101D01*
X645417Y35095D01*
X645512Y35092D01*
X645608Y35093D01*
X645703Y35099D01*
X645799Y35108D01*
X645893Y35121D01*
X645987Y35137D01*
X646081Y35158D01*
X646173Y35183D01*
X646264Y35211D01*
X646354Y35243D01*
X646443Y35278D01*
X646530Y35317D01*
X646616Y35360D01*
X646700Y35406D01*
X646781Y35456D01*
X646861Y35508D01*
X646939Y35564D01*
X647014Y35624D01*
X647086Y35686D01*
X647156Y35751D01*
X647224Y35819D01*
X647288Y35889D01*
X647350Y35962D01*
X647408Y36038D01*
X647464Y36116D01*
X647516Y36196D01*
X647565Y36278D01*
X647610Y36362D01*
X647652Y36448D01*
X647691Y36535D01*
X647726Y36624D01*
X647757Y36715D01*
X647784Y36806D01*
X647808Y36899D01*
X647828Y36992D01*
X647844Y37086D01*
X647856Y37181D01*
X647865Y37276D01*
X647869Y37372D01*
X647870Y37467D01*
X647863Y37714D01*
X647851Y37960D01*
X647833Y38206D01*
X647808Y38452D01*
X647778Y38696D01*
X647742Y38940D01*
X647701Y39183D01*
X647653Y39425D01*
X647599Y39666D01*
X647540Y39905D01*
X647475Y40143D01*
X647404Y40379D01*
X647328Y40614D01*
X647246Y40847D01*
X647158Y41077D01*
X647065Y41305D01*
X646967Y41532D01*
X641547Y41080D02*
X641510Y41168D01*
X641469Y41254D01*
X641425Y41339D01*
X641377Y41422D01*
X641326Y41502D01*
X641272Y41581D01*
X641214Y41657D01*
X641154Y41731D01*
X641090Y41803D01*
X641024Y41871D01*
X640954Y41937D01*
X640883Y42000D01*
X640808Y42061D01*
X640732Y42118D01*
X640653Y42171D01*
X640572Y42222D01*
X640489Y42269D01*
X640404Y42313D01*
X640317Y42353D01*
X640229Y42390D01*
X640139Y42423D01*
X640048Y42453D01*
X639956Y42478D01*
X639863Y42500D01*
X639769Y42518D01*
X639675Y42533D01*
X639580Y42543D01*
X639484Y42549D01*
X639389Y42552D01*
X639293Y42551D01*
X639198Y42545D01*
X639102Y42536D01*
X639008Y42523D01*
X638914Y42507D01*
X638820Y42486D01*
X638728Y42461D01*
X638637Y42433D01*
X638547Y42401D01*
X638458Y42366D01*
X638371Y42327D01*
X638285Y42284D01*
X638201Y42238D01*
X638120Y42188D01*
X638040Y42136D01*
X637962Y42080D01*
X637887Y42020D01*
X637815Y41958D01*
X637745Y41893D01*
X637677Y41825D01*
X637613Y41755D01*
X637551Y41682D01*
X637493Y41606D01*
X637437Y41528D01*
X637385Y41448D01*
X637336Y41366D01*
X637291Y41282D01*
X637249Y41196D01*
X637210Y41109D01*
X637175Y41020D01*
X637144Y40929D01*
X637117Y40838D01*
X637093Y40745D01*
X637073Y40652D01*
X637057Y40558D01*
X637045Y40463D01*
X637036Y40368D01*
X637032Y40272D01*
X637031Y40177D01*
X637032Y40176D02*
X637041Y39814D01*
X637059Y39452D01*
X637086Y39091D01*
X637121Y38731D01*
X637164Y38371D01*
X637216Y38012D01*
X637277Y37655D01*
X637346Y37300D01*
X637423Y36946D01*
X637509Y36594D01*
X637603Y36244D01*
X637706Y35896D01*
X637816Y35551D01*
X637935Y35209D01*
X647869Y47459D02*
X647869Y52878D01*
X653288Y49265D02*
X639741Y49265D01*
X639741Y49266D02*
X639640Y49268D01*
X639539Y49274D01*
X639438Y49283D01*
X639337Y49296D01*
X639237Y49313D01*
X639138Y49334D01*
X639040Y49358D01*
X638943Y49386D01*
X638846Y49418D01*
X638751Y49453D01*
X638658Y49492D01*
X638566Y49534D01*
X638475Y49580D01*
X638387Y49629D01*
X638300Y49681D01*
X638215Y49737D01*
X638132Y49795D01*
X638052Y49857D01*
X637974Y49922D01*
X637898Y49989D01*
X637825Y50059D01*
X637755Y50132D01*
X637688Y50208D01*
X637623Y50286D01*
X637561Y50366D01*
X637503Y50449D01*
X637447Y50534D01*
X637395Y50620D01*
X637346Y50709D01*
X637300Y50800D01*
X637258Y50892D01*
X637219Y50985D01*
X637184Y51080D01*
X637152Y51177D01*
X637124Y51274D01*
X637100Y51372D01*
X637079Y51471D01*
X637062Y51571D01*
X637049Y51672D01*
X637040Y51773D01*
X637034Y51874D01*
X637032Y51975D01*
X637032Y52878D01*
X643354Y61744D02*
X643354Y65808D01*
X643354Y61744D02*
X643352Y61632D01*
X643346Y61521D01*
X643336Y61410D01*
X643323Y61299D01*
X643305Y61189D01*
X643283Y61080D01*
X643258Y60971D01*
X643229Y60863D01*
X643196Y60757D01*
X643159Y60651D01*
X643119Y60547D01*
X643075Y60445D01*
X643027Y60344D01*
X642976Y60245D01*
X642921Y60147D01*
X642863Y60052D01*
X642802Y59959D01*
X642737Y59868D01*
X642669Y59779D01*
X642598Y59693D01*
X642525Y59610D01*
X642448Y59529D01*
X642368Y59450D01*
X642286Y59375D01*
X642201Y59303D01*
X642114Y59233D01*
X642024Y59167D01*
X641932Y59104D01*
X641837Y59044D01*
X641741Y58988D01*
X641643Y58935D01*
X641543Y58886D01*
X641441Y58840D01*
X641338Y58798D01*
X641233Y58759D01*
X641127Y58724D01*
X641020Y58693D01*
X640912Y58666D01*
X640803Y58642D01*
X640693Y58623D01*
X640583Y58607D01*
X640472Y58595D01*
X640360Y58587D01*
X640249Y58583D01*
X640137Y58583D01*
X640026Y58587D01*
X639914Y58595D01*
X639803Y58607D01*
X639693Y58623D01*
X639583Y58642D01*
X639474Y58666D01*
X639366Y58693D01*
X639259Y58724D01*
X639153Y58759D01*
X639048Y58798D01*
X638945Y58840D01*
X638843Y58886D01*
X638743Y58935D01*
X638645Y58988D01*
X638549Y59044D01*
X638454Y59104D01*
X638362Y59167D01*
X638272Y59233D01*
X638185Y59303D01*
X638100Y59375D01*
X638018Y59450D01*
X637938Y59529D01*
X637861Y59610D01*
X637788Y59693D01*
X637717Y59779D01*
X637649Y59868D01*
X637584Y59959D01*
X637523Y60052D01*
X637465Y60147D01*
X637410Y60245D01*
X637359Y60344D01*
X637311Y60445D01*
X637267Y60547D01*
X637227Y60651D01*
X637190Y60757D01*
X637157Y60863D01*
X637128Y60971D01*
X637103Y61080D01*
X637081Y61189D01*
X637063Y61299D01*
X637050Y61410D01*
X637040Y61521D01*
X637034Y61632D01*
X637032Y61744D01*
X637032Y65808D01*
X645160Y65808D01*
X645160Y65807D02*
X645261Y65805D01*
X645362Y65799D01*
X645463Y65790D01*
X645564Y65777D01*
X645664Y65760D01*
X645763Y65739D01*
X645861Y65715D01*
X645958Y65687D01*
X646055Y65655D01*
X646150Y65620D01*
X646243Y65581D01*
X646335Y65539D01*
X646426Y65493D01*
X646515Y65444D01*
X646601Y65392D01*
X646686Y65336D01*
X646769Y65278D01*
X646849Y65216D01*
X646927Y65151D01*
X647003Y65084D01*
X647076Y65014D01*
X647146Y64941D01*
X647213Y64865D01*
X647278Y64787D01*
X647340Y64707D01*
X647398Y64624D01*
X647454Y64539D01*
X647506Y64453D01*
X647555Y64364D01*
X647601Y64273D01*
X647643Y64181D01*
X647682Y64088D01*
X647717Y63993D01*
X647749Y63896D01*
X647777Y63799D01*
X647801Y63701D01*
X647822Y63602D01*
X647839Y63502D01*
X647852Y63401D01*
X647861Y63300D01*
X647867Y63199D01*
X647869Y63098D01*
X647869Y59486D01*
X637032Y75451D02*
X637032Y79064D01*
X637032Y75451D02*
X637034Y75350D01*
X637040Y75249D01*
X637049Y75148D01*
X637062Y75047D01*
X637079Y74947D01*
X637100Y74848D01*
X637124Y74750D01*
X637152Y74653D01*
X637184Y74556D01*
X637219Y74461D01*
X637258Y74368D01*
X637300Y74276D01*
X637346Y74185D01*
X637395Y74097D01*
X637447Y74010D01*
X637503Y73925D01*
X637561Y73842D01*
X637623Y73762D01*
X637688Y73684D01*
X637755Y73608D01*
X637825Y73535D01*
X637898Y73465D01*
X637974Y73398D01*
X638052Y73333D01*
X638132Y73271D01*
X638215Y73213D01*
X638300Y73157D01*
X638387Y73105D01*
X638475Y73056D01*
X638566Y73010D01*
X638658Y72968D01*
X638751Y72929D01*
X638846Y72894D01*
X638943Y72862D01*
X639040Y72834D01*
X639138Y72810D01*
X639237Y72789D01*
X639337Y72772D01*
X639438Y72759D01*
X639539Y72750D01*
X639640Y72744D01*
X639741Y72742D01*
X645160Y72742D01*
X645261Y72744D01*
X645362Y72750D01*
X645463Y72759D01*
X645564Y72772D01*
X645664Y72789D01*
X645763Y72810D01*
X645861Y72834D01*
X645958Y72862D01*
X646055Y72894D01*
X646150Y72929D01*
X646243Y72968D01*
X646335Y73010D01*
X646426Y73056D01*
X646515Y73105D01*
X646601Y73157D01*
X646686Y73213D01*
X646769Y73271D01*
X646849Y73333D01*
X646927Y73398D01*
X647003Y73465D01*
X647076Y73535D01*
X647146Y73608D01*
X647213Y73684D01*
X647278Y73762D01*
X647340Y73842D01*
X647398Y73925D01*
X647454Y74010D01*
X647506Y74096D01*
X647555Y74185D01*
X647601Y74276D01*
X647643Y74368D01*
X647682Y74461D01*
X647717Y74556D01*
X647749Y74653D01*
X647777Y74750D01*
X647801Y74848D01*
X647822Y74947D01*
X647839Y75047D01*
X647852Y75148D01*
X647861Y75249D01*
X647867Y75350D01*
X647869Y75451D01*
X647869Y79064D01*
X647869Y84673D02*
X637032Y84673D01*
X652385Y84222D02*
X653288Y84222D01*
X653288Y85125D01*
X652385Y85125D01*
X652385Y84222D01*
X644257Y90961D02*
X640644Y90961D01*
X644257Y90961D02*
X644376Y90963D01*
X644496Y90969D01*
X644615Y90979D01*
X644733Y90993D01*
X644852Y91010D01*
X644969Y91032D01*
X645086Y91057D01*
X645201Y91087D01*
X645316Y91120D01*
X645430Y91157D01*
X645542Y91197D01*
X645653Y91242D01*
X645762Y91290D01*
X645870Y91341D01*
X645976Y91396D01*
X646080Y91455D01*
X646182Y91517D01*
X646282Y91582D01*
X646380Y91651D01*
X646476Y91723D01*
X646569Y91798D01*
X646659Y91875D01*
X646747Y91956D01*
X646832Y92040D01*
X646914Y92127D01*
X646994Y92216D01*
X647070Y92308D01*
X647144Y92402D01*
X647214Y92499D01*
X647281Y92597D01*
X647345Y92698D01*
X647405Y92802D01*
X647462Y92907D01*
X647515Y93014D01*
X647565Y93122D01*
X647611Y93232D01*
X647653Y93344D01*
X647692Y93457D01*
X647727Y93571D01*
X647758Y93686D01*
X647786Y93803D01*
X647809Y93920D01*
X647829Y94037D01*
X647845Y94156D01*
X647857Y94275D01*
X647865Y94394D01*
X647869Y94513D01*
X647869Y94633D01*
X647865Y94752D01*
X647857Y94871D01*
X647845Y94990D01*
X647829Y95109D01*
X647809Y95226D01*
X647786Y95343D01*
X647758Y95460D01*
X647727Y95575D01*
X647692Y95689D01*
X647653Y95802D01*
X647611Y95914D01*
X647565Y96024D01*
X647515Y96132D01*
X647462Y96239D01*
X647405Y96344D01*
X647345Y96448D01*
X647281Y96549D01*
X647214Y96647D01*
X647144Y96744D01*
X647070Y96838D01*
X646994Y96930D01*
X646914Y97019D01*
X646832Y97106D01*
X646747Y97190D01*
X646659Y97271D01*
X646569Y97348D01*
X646476Y97423D01*
X646380Y97495D01*
X646282Y97564D01*
X646182Y97629D01*
X646080Y97691D01*
X645976Y97750D01*
X645870Y97805D01*
X645762Y97856D01*
X645653Y97904D01*
X645542Y97949D01*
X645430Y97989D01*
X645316Y98026D01*
X645201Y98059D01*
X645086Y98089D01*
X644969Y98114D01*
X644852Y98136D01*
X644733Y98153D01*
X644615Y98167D01*
X644496Y98177D01*
X644376Y98183D01*
X644257Y98185D01*
X640644Y98185D01*
X640525Y98183D01*
X640405Y98177D01*
X640286Y98167D01*
X640168Y98153D01*
X640049Y98136D01*
X639932Y98114D01*
X639815Y98089D01*
X639700Y98059D01*
X639585Y98026D01*
X639471Y97989D01*
X639359Y97949D01*
X639248Y97904D01*
X639139Y97856D01*
X639031Y97805D01*
X638925Y97750D01*
X638821Y97691D01*
X638719Y97629D01*
X638619Y97564D01*
X638521Y97495D01*
X638425Y97423D01*
X638332Y97348D01*
X638242Y97271D01*
X638154Y97190D01*
X638069Y97106D01*
X637987Y97019D01*
X637907Y96930D01*
X637831Y96838D01*
X637757Y96744D01*
X637687Y96647D01*
X637620Y96549D01*
X637556Y96448D01*
X637496Y96344D01*
X637439Y96239D01*
X637386Y96132D01*
X637336Y96024D01*
X637290Y95914D01*
X637248Y95802D01*
X637209Y95689D01*
X637174Y95575D01*
X637143Y95460D01*
X637115Y95343D01*
X637092Y95226D01*
X637072Y95109D01*
X637056Y94990D01*
X637044Y94871D01*
X637036Y94752D01*
X637032Y94633D01*
X637032Y94513D01*
X637036Y94394D01*
X637044Y94275D01*
X637056Y94156D01*
X637072Y94037D01*
X637092Y93920D01*
X637115Y93803D01*
X637143Y93686D01*
X637174Y93571D01*
X637209Y93457D01*
X637248Y93344D01*
X637290Y93232D01*
X637336Y93122D01*
X637386Y93014D01*
X637439Y92907D01*
X637496Y92802D01*
X637556Y92698D01*
X637620Y92597D01*
X637687Y92499D01*
X637757Y92402D01*
X637831Y92308D01*
X637907Y92216D01*
X637987Y92127D01*
X638069Y92040D01*
X638154Y91956D01*
X638242Y91875D01*
X638332Y91798D01*
X638425Y91723D01*
X638521Y91651D01*
X638619Y91582D01*
X638719Y91517D01*
X638821Y91455D01*
X638925Y91396D01*
X639031Y91341D01*
X639139Y91290D01*
X639248Y91242D01*
X639359Y91197D01*
X639471Y91157D01*
X639585Y91120D01*
X639700Y91087D01*
X639815Y91057D01*
X639932Y91032D01*
X640049Y91010D01*
X640168Y90993D01*
X640286Y90979D01*
X640405Y90969D01*
X640525Y90963D01*
X640644Y90961D01*
X637032Y105029D02*
X647869Y105029D01*
X647869Y109544D01*
X647867Y109645D01*
X647861Y109746D01*
X647852Y109847D01*
X647839Y109948D01*
X647822Y110048D01*
X647801Y110147D01*
X647777Y110245D01*
X647749Y110342D01*
X647717Y110439D01*
X647682Y110534D01*
X647643Y110627D01*
X647601Y110719D01*
X647555Y110810D01*
X647506Y110899D01*
X647454Y110985D01*
X647398Y111070D01*
X647340Y111153D01*
X647278Y111233D01*
X647213Y111311D01*
X647146Y111387D01*
X647076Y111460D01*
X647003Y111530D01*
X646927Y111597D01*
X646849Y111662D01*
X646769Y111724D01*
X646686Y111782D01*
X646601Y111838D01*
X646515Y111890D01*
X646426Y111939D01*
X646335Y111985D01*
X646243Y112027D01*
X646150Y112066D01*
X646055Y112101D01*
X645958Y112133D01*
X645861Y112161D01*
X645763Y112185D01*
X645664Y112206D01*
X645564Y112223D01*
X645463Y112236D01*
X645362Y112245D01*
X645261Y112251D01*
X645160Y112253D01*
X645160Y112254D02*
X637032Y112254D01*
X643354Y122184D02*
X643354Y126248D01*
X643354Y122184D02*
X643352Y122072D01*
X643346Y121961D01*
X643336Y121850D01*
X643323Y121739D01*
X643305Y121629D01*
X643283Y121520D01*
X643258Y121411D01*
X643229Y121303D01*
X643196Y121197D01*
X643159Y121091D01*
X643119Y120987D01*
X643075Y120885D01*
X643027Y120784D01*
X642976Y120685D01*
X642921Y120587D01*
X642863Y120492D01*
X642802Y120399D01*
X642737Y120308D01*
X642669Y120219D01*
X642598Y120133D01*
X642525Y120050D01*
X642448Y119969D01*
X642368Y119890D01*
X642286Y119815D01*
X642201Y119743D01*
X642114Y119673D01*
X642024Y119607D01*
X641932Y119544D01*
X641837Y119484D01*
X641741Y119428D01*
X641643Y119375D01*
X641543Y119326D01*
X641441Y119280D01*
X641338Y119238D01*
X641233Y119199D01*
X641127Y119164D01*
X641020Y119133D01*
X640912Y119106D01*
X640803Y119082D01*
X640693Y119063D01*
X640583Y119047D01*
X640472Y119035D01*
X640360Y119027D01*
X640249Y119023D01*
X640137Y119023D01*
X640026Y119027D01*
X639914Y119035D01*
X639803Y119047D01*
X639693Y119063D01*
X639583Y119082D01*
X639474Y119106D01*
X639366Y119133D01*
X639259Y119164D01*
X639153Y119199D01*
X639048Y119238D01*
X638945Y119280D01*
X638843Y119326D01*
X638743Y119375D01*
X638645Y119428D01*
X638549Y119484D01*
X638454Y119544D01*
X638362Y119607D01*
X638272Y119673D01*
X638185Y119743D01*
X638100Y119815D01*
X638018Y119890D01*
X637938Y119969D01*
X637861Y120050D01*
X637788Y120133D01*
X637717Y120219D01*
X637649Y120308D01*
X637584Y120399D01*
X637523Y120492D01*
X637465Y120587D01*
X637410Y120685D01*
X637359Y120784D01*
X637311Y120885D01*
X637267Y120987D01*
X637227Y121091D01*
X637190Y121197D01*
X637157Y121303D01*
X637128Y121411D01*
X637103Y121520D01*
X637081Y121629D01*
X637063Y121739D01*
X637050Y121850D01*
X637040Y121961D01*
X637034Y122072D01*
X637032Y122184D01*
X637032Y126248D01*
X645160Y126248D01*
X645261Y126246D01*
X645362Y126240D01*
X645463Y126231D01*
X645564Y126218D01*
X645664Y126201D01*
X645763Y126180D01*
X645861Y126156D01*
X645958Y126128D01*
X646055Y126096D01*
X646150Y126061D01*
X646243Y126022D01*
X646335Y125980D01*
X646426Y125934D01*
X646515Y125885D01*
X646601Y125833D01*
X646686Y125777D01*
X646769Y125719D01*
X646849Y125657D01*
X646927Y125592D01*
X647003Y125525D01*
X647076Y125455D01*
X647146Y125382D01*
X647213Y125306D01*
X647278Y125228D01*
X647340Y125148D01*
X647398Y125065D01*
X647454Y124980D01*
X647506Y124894D01*
X647555Y124805D01*
X647601Y124714D01*
X647643Y124622D01*
X647682Y124529D01*
X647717Y124434D01*
X647749Y124337D01*
X647777Y124240D01*
X647801Y124142D01*
X647822Y124043D01*
X647839Y123943D01*
X647852Y123842D01*
X647861Y123741D01*
X647867Y123640D01*
X647869Y123539D01*
X647869Y119927D01*
X647869Y133964D02*
X637032Y133964D01*
X647869Y133964D02*
X647869Y142092D01*
X647867Y142193D01*
X647861Y142294D01*
X647852Y142395D01*
X647839Y142496D01*
X647822Y142596D01*
X647801Y142695D01*
X647777Y142793D01*
X647749Y142890D01*
X647717Y142987D01*
X647682Y143082D01*
X647643Y143175D01*
X647601Y143267D01*
X647555Y143358D01*
X647506Y143447D01*
X647454Y143533D01*
X647398Y143618D01*
X647340Y143701D01*
X647278Y143781D01*
X647213Y143859D01*
X647146Y143935D01*
X647076Y144008D01*
X647003Y144078D01*
X646927Y144145D01*
X646849Y144210D01*
X646769Y144272D01*
X646686Y144330D01*
X646601Y144386D01*
X646515Y144438D01*
X646426Y144487D01*
X646335Y144533D01*
X646243Y144575D01*
X646150Y144614D01*
X646055Y144649D01*
X645958Y144681D01*
X645861Y144709D01*
X645763Y144733D01*
X645664Y144754D01*
X645564Y144771D01*
X645463Y144784D01*
X645362Y144793D01*
X645261Y144799D01*
X645160Y144801D01*
X637032Y144801D01*
X637032Y139383D02*
X647869Y139383D01*
X647869Y151888D02*
X637032Y151888D01*
X652385Y151436D02*
X653288Y151436D01*
X653288Y152339D01*
X652385Y152339D01*
X652385Y151436D01*
X637032Y160884D02*
X637032Y165400D01*
X637032Y160884D02*
X637034Y160783D01*
X637040Y160682D01*
X637049Y160581D01*
X637062Y160480D01*
X637079Y160380D01*
X637100Y160281D01*
X637124Y160183D01*
X637152Y160086D01*
X637184Y159989D01*
X637219Y159894D01*
X637258Y159801D01*
X637300Y159709D01*
X637346Y159618D01*
X637395Y159530D01*
X637447Y159443D01*
X637503Y159358D01*
X637561Y159275D01*
X637623Y159195D01*
X637688Y159117D01*
X637755Y159041D01*
X637825Y158968D01*
X637898Y158898D01*
X637974Y158831D01*
X638052Y158766D01*
X638132Y158704D01*
X638215Y158646D01*
X638300Y158590D01*
X638387Y158538D01*
X638475Y158489D01*
X638566Y158443D01*
X638658Y158401D01*
X638751Y158362D01*
X638846Y158327D01*
X638943Y158295D01*
X639040Y158267D01*
X639138Y158243D01*
X639237Y158222D01*
X639337Y158205D01*
X639438Y158192D01*
X639539Y158183D01*
X639640Y158177D01*
X639741Y158175D01*
X644257Y158175D01*
X644376Y158177D01*
X644496Y158183D01*
X644615Y158193D01*
X644733Y158207D01*
X644852Y158224D01*
X644969Y158246D01*
X645086Y158271D01*
X645201Y158301D01*
X645316Y158334D01*
X645430Y158371D01*
X645542Y158411D01*
X645653Y158456D01*
X645762Y158504D01*
X645870Y158555D01*
X645976Y158610D01*
X646080Y158669D01*
X646182Y158731D01*
X646282Y158796D01*
X646380Y158865D01*
X646476Y158937D01*
X646569Y159012D01*
X646659Y159089D01*
X646747Y159170D01*
X646832Y159254D01*
X646914Y159341D01*
X646994Y159430D01*
X647070Y159522D01*
X647144Y159616D01*
X647214Y159713D01*
X647281Y159811D01*
X647345Y159912D01*
X647405Y160016D01*
X647462Y160121D01*
X647515Y160228D01*
X647565Y160336D01*
X647611Y160446D01*
X647653Y160558D01*
X647692Y160671D01*
X647727Y160785D01*
X647758Y160900D01*
X647786Y161017D01*
X647809Y161134D01*
X647829Y161251D01*
X647845Y161370D01*
X647857Y161489D01*
X647865Y161608D01*
X647869Y161727D01*
X647869Y161847D01*
X647865Y161966D01*
X647857Y162085D01*
X647845Y162204D01*
X647829Y162323D01*
X647809Y162440D01*
X647786Y162557D01*
X647758Y162674D01*
X647727Y162789D01*
X647692Y162903D01*
X647653Y163016D01*
X647611Y163128D01*
X647565Y163238D01*
X647515Y163346D01*
X647462Y163453D01*
X647405Y163558D01*
X647345Y163662D01*
X647281Y163763D01*
X647214Y163861D01*
X647144Y163958D01*
X647070Y164052D01*
X646994Y164144D01*
X646914Y164233D01*
X646832Y164320D01*
X646747Y164404D01*
X646659Y164485D01*
X646569Y164562D01*
X646476Y164637D01*
X646380Y164709D01*
X646282Y164778D01*
X646182Y164843D01*
X646080Y164905D01*
X645976Y164964D01*
X645870Y165019D01*
X645762Y165070D01*
X645653Y165118D01*
X645542Y165163D01*
X645430Y165203D01*
X645316Y165240D01*
X645201Y165273D01*
X645086Y165303D01*
X644969Y165328D01*
X644852Y165350D01*
X644733Y165367D01*
X644615Y165381D01*
X644496Y165391D01*
X644376Y165397D01*
X644257Y165399D01*
X644257Y165400D02*
X642451Y165400D01*
X642451Y158175D01*
X637032Y172243D02*
X647869Y172243D01*
X647869Y176758D01*
X647867Y176859D01*
X647861Y176960D01*
X647852Y177061D01*
X647839Y177162D01*
X647822Y177262D01*
X647801Y177361D01*
X647777Y177459D01*
X647749Y177556D01*
X647717Y177653D01*
X647682Y177748D01*
X647643Y177841D01*
X647601Y177933D01*
X647555Y178024D01*
X647506Y178113D01*
X647454Y178199D01*
X647398Y178284D01*
X647340Y178367D01*
X647278Y178447D01*
X647213Y178525D01*
X647146Y178601D01*
X647076Y178674D01*
X647003Y178744D01*
X646927Y178811D01*
X646849Y178876D01*
X646769Y178938D01*
X646686Y178996D01*
X646601Y179052D01*
X646515Y179104D01*
X646426Y179153D01*
X646335Y179199D01*
X646243Y179241D01*
X646150Y179280D01*
X646055Y179315D01*
X645958Y179347D01*
X645861Y179375D01*
X645763Y179399D01*
X645664Y179420D01*
X645564Y179437D01*
X645463Y179450D01*
X645362Y179459D01*
X645261Y179465D01*
X645160Y179467D01*
X645160Y179468D02*
X637032Y179468D01*
X647869Y185014D02*
X647869Y190432D01*
X653288Y186820D02*
X639741Y186820D01*
X639640Y186822D01*
X639539Y186828D01*
X639438Y186837D01*
X639337Y186850D01*
X639237Y186867D01*
X639138Y186888D01*
X639040Y186912D01*
X638943Y186940D01*
X638846Y186972D01*
X638751Y187007D01*
X638658Y187046D01*
X638566Y187088D01*
X638475Y187134D01*
X638387Y187183D01*
X638300Y187235D01*
X638215Y187291D01*
X638132Y187349D01*
X638052Y187411D01*
X637974Y187476D01*
X637898Y187543D01*
X637825Y187613D01*
X637755Y187686D01*
X637688Y187762D01*
X637623Y187840D01*
X637561Y187920D01*
X637503Y188003D01*
X637447Y188088D01*
X637395Y188175D01*
X637346Y188263D01*
X637300Y188354D01*
X637258Y188446D01*
X637219Y188539D01*
X637184Y188634D01*
X637152Y188731D01*
X637124Y188828D01*
X637100Y188926D01*
X637079Y189025D01*
X637062Y189125D01*
X637049Y189226D01*
X637040Y189327D01*
X637034Y189428D01*
X637032Y189529D01*
X637032Y190432D01*
X640644Y196211D02*
X644257Y196211D01*
X644376Y196213D01*
X644496Y196219D01*
X644615Y196229D01*
X644733Y196243D01*
X644852Y196260D01*
X644969Y196282D01*
X645086Y196307D01*
X645201Y196337D01*
X645316Y196370D01*
X645430Y196407D01*
X645542Y196447D01*
X645653Y196492D01*
X645762Y196540D01*
X645870Y196591D01*
X645976Y196646D01*
X646080Y196705D01*
X646182Y196767D01*
X646282Y196832D01*
X646380Y196901D01*
X646476Y196973D01*
X646569Y197048D01*
X646659Y197125D01*
X646747Y197206D01*
X646832Y197290D01*
X646914Y197377D01*
X646994Y197466D01*
X647070Y197558D01*
X647144Y197652D01*
X647214Y197749D01*
X647281Y197847D01*
X647345Y197948D01*
X647405Y198052D01*
X647462Y198157D01*
X647515Y198264D01*
X647565Y198372D01*
X647611Y198482D01*
X647653Y198594D01*
X647692Y198707D01*
X647727Y198821D01*
X647758Y198936D01*
X647786Y199053D01*
X647809Y199170D01*
X647829Y199287D01*
X647845Y199406D01*
X647857Y199525D01*
X647865Y199644D01*
X647869Y199763D01*
X647869Y199883D01*
X647865Y200002D01*
X647857Y200121D01*
X647845Y200240D01*
X647829Y200359D01*
X647809Y200476D01*
X647786Y200593D01*
X647758Y200710D01*
X647727Y200825D01*
X647692Y200939D01*
X647653Y201052D01*
X647611Y201164D01*
X647565Y201274D01*
X647515Y201382D01*
X647462Y201489D01*
X647405Y201594D01*
X647345Y201698D01*
X647281Y201799D01*
X647214Y201897D01*
X647144Y201994D01*
X647070Y202088D01*
X646994Y202180D01*
X646914Y202269D01*
X646832Y202356D01*
X646747Y202440D01*
X646659Y202521D01*
X646569Y202598D01*
X646476Y202673D01*
X646380Y202745D01*
X646282Y202814D01*
X646182Y202879D01*
X646080Y202941D01*
X645976Y203000D01*
X645870Y203055D01*
X645762Y203106D01*
X645653Y203154D01*
X645542Y203199D01*
X645430Y203239D01*
X645316Y203276D01*
X645201Y203309D01*
X645086Y203339D01*
X644969Y203364D01*
X644852Y203386D01*
X644733Y203403D01*
X644615Y203417D01*
X644496Y203427D01*
X644376Y203433D01*
X644257Y203435D01*
X644257Y203436D02*
X640644Y203436D01*
X640644Y203435D02*
X640525Y203433D01*
X640405Y203427D01*
X640286Y203417D01*
X640168Y203403D01*
X640049Y203386D01*
X639932Y203364D01*
X639815Y203339D01*
X639700Y203309D01*
X639585Y203276D01*
X639471Y203239D01*
X639359Y203199D01*
X639248Y203154D01*
X639139Y203106D01*
X639031Y203055D01*
X638925Y203000D01*
X638821Y202941D01*
X638719Y202879D01*
X638619Y202814D01*
X638521Y202745D01*
X638425Y202673D01*
X638332Y202598D01*
X638242Y202521D01*
X638154Y202440D01*
X638069Y202356D01*
X637987Y202269D01*
X637907Y202180D01*
X637831Y202088D01*
X637757Y201994D01*
X637687Y201897D01*
X637620Y201799D01*
X637556Y201698D01*
X637496Y201594D01*
X637439Y201489D01*
X637386Y201382D01*
X637336Y201274D01*
X637290Y201164D01*
X637248Y201052D01*
X637209Y200939D01*
X637174Y200825D01*
X637143Y200710D01*
X637115Y200593D01*
X637092Y200476D01*
X637072Y200359D01*
X637056Y200240D01*
X637044Y200121D01*
X637036Y200002D01*
X637032Y199883D01*
X637032Y199763D01*
X637036Y199644D01*
X637044Y199525D01*
X637056Y199406D01*
X637072Y199287D01*
X637092Y199170D01*
X637115Y199053D01*
X637143Y198936D01*
X637174Y198821D01*
X637209Y198707D01*
X637248Y198594D01*
X637290Y198482D01*
X637336Y198372D01*
X637386Y198264D01*
X637439Y198157D01*
X637496Y198052D01*
X637556Y197948D01*
X637620Y197847D01*
X637687Y197749D01*
X637757Y197652D01*
X637831Y197558D01*
X637907Y197466D01*
X637987Y197377D01*
X638069Y197290D01*
X638154Y197206D01*
X638242Y197125D01*
X638332Y197048D01*
X638425Y196973D01*
X638521Y196901D01*
X638619Y196832D01*
X638719Y196767D01*
X638821Y196705D01*
X638925Y196646D01*
X639031Y196591D01*
X639139Y196540D01*
X639248Y196492D01*
X639359Y196447D01*
X639471Y196407D01*
X639585Y196370D01*
X639700Y196337D01*
X639815Y196307D01*
X639932Y196282D01*
X640049Y196260D01*
X640168Y196243D01*
X640286Y196229D01*
X640405Y196219D01*
X640525Y196213D01*
X640644Y196211D01*
X643354Y211113D02*
X641548Y215628D01*
X643354Y211112D02*
X643391Y211024D01*
X643432Y210938D01*
X643476Y210853D01*
X643524Y210770D01*
X643575Y210690D01*
X643629Y210611D01*
X643687Y210535D01*
X643747Y210461D01*
X643811Y210389D01*
X643877Y210321D01*
X643947Y210255D01*
X644018Y210192D01*
X644093Y210131D01*
X644169Y210074D01*
X644248Y210021D01*
X644329Y209970D01*
X644412Y209923D01*
X644497Y209879D01*
X644584Y209839D01*
X644672Y209802D01*
X644762Y209769D01*
X644853Y209739D01*
X644945Y209714D01*
X645038Y209692D01*
X645132Y209674D01*
X645226Y209659D01*
X645321Y209649D01*
X645417Y209643D01*
X645512Y209640D01*
X645608Y209641D01*
X645703Y209647D01*
X645799Y209656D01*
X645893Y209669D01*
X645987Y209685D01*
X646081Y209706D01*
X646173Y209731D01*
X646264Y209759D01*
X646354Y209791D01*
X646443Y209826D01*
X646530Y209865D01*
X646616Y209908D01*
X646700Y209954D01*
X646781Y210004D01*
X646861Y210056D01*
X646939Y210112D01*
X647014Y210172D01*
X647086Y210234D01*
X647156Y210299D01*
X647224Y210367D01*
X647288Y210437D01*
X647350Y210510D01*
X647408Y210586D01*
X647464Y210664D01*
X647516Y210744D01*
X647565Y210826D01*
X647610Y210910D01*
X647652Y210996D01*
X647691Y211083D01*
X647726Y211172D01*
X647757Y211263D01*
X647784Y211354D01*
X647808Y211447D01*
X647828Y211540D01*
X647844Y211634D01*
X647856Y211729D01*
X647865Y211824D01*
X647869Y211920D01*
X647870Y212015D01*
X647863Y212262D01*
X647851Y212508D01*
X647833Y212754D01*
X647808Y213000D01*
X647778Y213244D01*
X647742Y213488D01*
X647701Y213731D01*
X647653Y213973D01*
X647599Y214214D01*
X647540Y214453D01*
X647475Y214691D01*
X647404Y214927D01*
X647328Y215162D01*
X647246Y215395D01*
X647158Y215625D01*
X647065Y215853D01*
X646967Y216080D01*
X641547Y215628D02*
X641510Y215716D01*
X641469Y215802D01*
X641425Y215887D01*
X641377Y215970D01*
X641326Y216050D01*
X641272Y216129D01*
X641214Y216205D01*
X641154Y216279D01*
X641090Y216351D01*
X641024Y216419D01*
X640954Y216485D01*
X640883Y216548D01*
X640808Y216609D01*
X640732Y216666D01*
X640653Y216719D01*
X640572Y216770D01*
X640489Y216817D01*
X640404Y216861D01*
X640317Y216901D01*
X640229Y216938D01*
X640139Y216971D01*
X640048Y217001D01*
X639956Y217026D01*
X639863Y217048D01*
X639769Y217066D01*
X639675Y217081D01*
X639580Y217091D01*
X639484Y217097D01*
X639389Y217100D01*
X639293Y217099D01*
X639198Y217093D01*
X639102Y217084D01*
X639008Y217071D01*
X638914Y217055D01*
X638820Y217034D01*
X638728Y217009D01*
X638637Y216981D01*
X638547Y216949D01*
X638458Y216914D01*
X638371Y216875D01*
X638285Y216832D01*
X638201Y216786D01*
X638120Y216736D01*
X638040Y216684D01*
X637962Y216628D01*
X637887Y216568D01*
X637815Y216506D01*
X637745Y216441D01*
X637677Y216373D01*
X637613Y216303D01*
X637551Y216230D01*
X637493Y216154D01*
X637437Y216076D01*
X637385Y215996D01*
X637336Y215914D01*
X637291Y215830D01*
X637249Y215744D01*
X637210Y215657D01*
X637175Y215568D01*
X637144Y215477D01*
X637117Y215386D01*
X637093Y215293D01*
X637073Y215200D01*
X637057Y215106D01*
X637045Y215011D01*
X637036Y214916D01*
X637032Y214820D01*
X637031Y214725D01*
X637032Y214725D02*
X637041Y214363D01*
X637059Y214001D01*
X637086Y213640D01*
X637121Y213280D01*
X637164Y212920D01*
X637216Y212561D01*
X637277Y212204D01*
X637346Y211849D01*
X637423Y211495D01*
X637509Y211143D01*
X637603Y210793D01*
X637706Y210445D01*
X637816Y210100D01*
X637935Y209758D01*
X641548Y232302D02*
X653288Y232302D01*
X641548Y232301D02*
X641415Y232303D01*
X641283Y232309D01*
X641151Y232319D01*
X641019Y232332D01*
X640887Y232350D01*
X640757Y232371D01*
X640626Y232396D01*
X640497Y232425D01*
X640369Y232458D01*
X640241Y232494D01*
X640115Y232534D01*
X639990Y232578D01*
X639866Y232626D01*
X639744Y232677D01*
X639623Y232732D01*
X639504Y232790D01*
X639386Y232852D01*
X639271Y232917D01*
X639157Y232986D01*
X639046Y233057D01*
X638937Y233133D01*
X638830Y233211D01*
X638725Y233292D01*
X638623Y233377D01*
X638523Y233464D01*
X638426Y233554D01*
X638331Y233647D01*
X638240Y233743D01*
X638151Y233841D01*
X638065Y233942D01*
X637982Y234046D01*
X637902Y234152D01*
X637826Y234260D01*
X637752Y234370D01*
X637682Y234483D01*
X637615Y234597D01*
X637552Y234714D01*
X637492Y234832D01*
X637435Y234952D01*
X637382Y235074D01*
X637333Y235197D01*
X637287Y235321D01*
X637245Y235447D01*
X637207Y235574D01*
X637172Y235702D01*
X637141Y235831D01*
X637114Y235960D01*
X637091Y236091D01*
X637071Y236222D01*
X637056Y236354D01*
X637044Y236486D01*
X637036Y236618D01*
X637032Y236751D01*
X637032Y236883D01*
X637036Y237016D01*
X637044Y237148D01*
X637056Y237280D01*
X637071Y237412D01*
X637091Y237543D01*
X637114Y237674D01*
X637141Y237803D01*
X637172Y237932D01*
X637207Y238060D01*
X637245Y238187D01*
X637287Y238313D01*
X637333Y238437D01*
X637382Y238560D01*
X637435Y238682D01*
X637492Y238802D01*
X637552Y238920D01*
X637615Y239037D01*
X637682Y239151D01*
X637752Y239264D01*
X637826Y239374D01*
X637902Y239482D01*
X637982Y239588D01*
X638065Y239692D01*
X638151Y239793D01*
X638240Y239891D01*
X638331Y239987D01*
X638426Y240080D01*
X638523Y240170D01*
X638623Y240257D01*
X638725Y240342D01*
X638830Y240423D01*
X638937Y240501D01*
X639046Y240577D01*
X639157Y240648D01*
X639271Y240717D01*
X639386Y240782D01*
X639504Y240844D01*
X639623Y240902D01*
X639744Y240957D01*
X639866Y241008D01*
X639990Y241056D01*
X640115Y241100D01*
X640241Y241140D01*
X640369Y241176D01*
X640497Y241209D01*
X640626Y241238D01*
X640757Y241263D01*
X640887Y241284D01*
X641019Y241302D01*
X641151Y241315D01*
X641283Y241325D01*
X641415Y241331D01*
X641548Y241333D01*
X653288Y241333D01*
X660061Y239075D02*
X657352Y235462D01*
X647869Y248836D02*
X637032Y248836D01*
X647869Y248836D02*
X647869Y253351D01*
X647867Y253452D01*
X647861Y253553D01*
X647852Y253654D01*
X647839Y253755D01*
X647822Y253855D01*
X647801Y253954D01*
X647777Y254052D01*
X647749Y254149D01*
X647717Y254246D01*
X647682Y254341D01*
X647643Y254434D01*
X647601Y254526D01*
X647555Y254617D01*
X647506Y254706D01*
X647454Y254792D01*
X647398Y254877D01*
X647340Y254960D01*
X647278Y255040D01*
X647213Y255118D01*
X647146Y255194D01*
X647076Y255267D01*
X647003Y255337D01*
X646927Y255404D01*
X646849Y255469D01*
X646769Y255531D01*
X646686Y255589D01*
X646601Y255645D01*
X646515Y255697D01*
X646426Y255746D01*
X646335Y255792D01*
X646243Y255834D01*
X646150Y255873D01*
X646055Y255908D01*
X645958Y255940D01*
X645861Y255968D01*
X645763Y255992D01*
X645664Y256013D01*
X645564Y256030D01*
X645463Y256043D01*
X645362Y256052D01*
X645261Y256058D01*
X645160Y256060D01*
X645160Y256061D02*
X637032Y256061D01*
X637032Y262869D02*
X647869Y262869D01*
X652385Y262418D02*
X653288Y262418D01*
X653288Y263321D01*
X652385Y263321D01*
X652385Y262418D01*
X637032Y271883D02*
X637032Y275496D01*
X637032Y271883D02*
X637034Y271782D01*
X637040Y271681D01*
X637049Y271580D01*
X637062Y271479D01*
X637079Y271379D01*
X637100Y271280D01*
X637124Y271182D01*
X637152Y271085D01*
X637184Y270988D01*
X637219Y270893D01*
X637258Y270800D01*
X637300Y270708D01*
X637346Y270617D01*
X637395Y270529D01*
X637447Y270442D01*
X637503Y270357D01*
X637561Y270274D01*
X637623Y270194D01*
X637688Y270116D01*
X637755Y270040D01*
X637825Y269967D01*
X637898Y269897D01*
X637974Y269830D01*
X638052Y269765D01*
X638132Y269703D01*
X638215Y269645D01*
X638300Y269589D01*
X638387Y269537D01*
X638475Y269488D01*
X638566Y269442D01*
X638658Y269400D01*
X638751Y269361D01*
X638846Y269326D01*
X638943Y269294D01*
X639040Y269266D01*
X639138Y269242D01*
X639237Y269221D01*
X639337Y269204D01*
X639438Y269191D01*
X639539Y269182D01*
X639640Y269176D01*
X639741Y269174D01*
X645160Y269174D01*
X645261Y269176D01*
X645362Y269182D01*
X645463Y269191D01*
X645564Y269204D01*
X645664Y269221D01*
X645763Y269242D01*
X645861Y269266D01*
X645958Y269294D01*
X646055Y269326D01*
X646150Y269361D01*
X646243Y269400D01*
X646335Y269442D01*
X646426Y269488D01*
X646515Y269537D01*
X646601Y269589D01*
X646686Y269645D01*
X646769Y269703D01*
X646849Y269765D01*
X646927Y269830D01*
X647003Y269897D01*
X647076Y269967D01*
X647146Y270040D01*
X647213Y270116D01*
X647278Y270194D01*
X647340Y270274D01*
X647398Y270357D01*
X647454Y270442D01*
X647506Y270529D01*
X647555Y270617D01*
X647601Y270708D01*
X647643Y270800D01*
X647682Y270893D01*
X647717Y270988D01*
X647749Y271085D01*
X647777Y271182D01*
X647801Y271280D01*
X647822Y271379D01*
X647839Y271479D01*
X647852Y271580D01*
X647861Y271681D01*
X647867Y271782D01*
X647869Y271883D01*
X647869Y275496D01*
X644257Y281140D02*
X640644Y281140D01*
X644257Y281141D02*
X644376Y281143D01*
X644496Y281149D01*
X644615Y281159D01*
X644733Y281173D01*
X644852Y281190D01*
X644969Y281212D01*
X645086Y281237D01*
X645201Y281267D01*
X645316Y281300D01*
X645430Y281337D01*
X645542Y281377D01*
X645653Y281422D01*
X645762Y281470D01*
X645870Y281521D01*
X645976Y281576D01*
X646080Y281635D01*
X646182Y281697D01*
X646282Y281762D01*
X646380Y281831D01*
X646476Y281903D01*
X646569Y281978D01*
X646659Y282055D01*
X646747Y282136D01*
X646832Y282220D01*
X646914Y282307D01*
X646994Y282396D01*
X647070Y282488D01*
X647144Y282582D01*
X647214Y282679D01*
X647281Y282777D01*
X647345Y282878D01*
X647405Y282982D01*
X647462Y283087D01*
X647515Y283194D01*
X647565Y283302D01*
X647611Y283412D01*
X647653Y283524D01*
X647692Y283637D01*
X647727Y283751D01*
X647758Y283866D01*
X647786Y283983D01*
X647809Y284100D01*
X647829Y284217D01*
X647845Y284336D01*
X647857Y284455D01*
X647865Y284574D01*
X647869Y284693D01*
X647869Y284813D01*
X647865Y284932D01*
X647857Y285051D01*
X647845Y285170D01*
X647829Y285289D01*
X647809Y285406D01*
X647786Y285523D01*
X647758Y285640D01*
X647727Y285755D01*
X647692Y285869D01*
X647653Y285982D01*
X647611Y286094D01*
X647565Y286204D01*
X647515Y286312D01*
X647462Y286419D01*
X647405Y286524D01*
X647345Y286628D01*
X647281Y286729D01*
X647214Y286827D01*
X647144Y286924D01*
X647070Y287018D01*
X646994Y287110D01*
X646914Y287199D01*
X646832Y287286D01*
X646747Y287370D01*
X646659Y287451D01*
X646569Y287528D01*
X646476Y287603D01*
X646380Y287675D01*
X646282Y287744D01*
X646182Y287809D01*
X646080Y287871D01*
X645976Y287930D01*
X645870Y287985D01*
X645762Y288036D01*
X645653Y288084D01*
X645542Y288129D01*
X645430Y288169D01*
X645316Y288206D01*
X645201Y288239D01*
X645086Y288269D01*
X644969Y288294D01*
X644852Y288316D01*
X644733Y288333D01*
X644615Y288347D01*
X644496Y288357D01*
X644376Y288363D01*
X644257Y288365D01*
X640644Y288365D01*
X640525Y288363D01*
X640405Y288357D01*
X640286Y288347D01*
X640168Y288333D01*
X640049Y288316D01*
X639932Y288294D01*
X639815Y288269D01*
X639700Y288239D01*
X639585Y288206D01*
X639471Y288169D01*
X639359Y288129D01*
X639248Y288084D01*
X639139Y288036D01*
X639031Y287985D01*
X638925Y287930D01*
X638821Y287871D01*
X638719Y287809D01*
X638619Y287744D01*
X638521Y287675D01*
X638425Y287603D01*
X638332Y287528D01*
X638242Y287451D01*
X638154Y287370D01*
X638069Y287286D01*
X637987Y287199D01*
X637907Y287110D01*
X637831Y287018D01*
X637757Y286924D01*
X637687Y286827D01*
X637620Y286729D01*
X637556Y286628D01*
X637496Y286524D01*
X637439Y286419D01*
X637386Y286312D01*
X637336Y286204D01*
X637290Y286094D01*
X637248Y285982D01*
X637209Y285869D01*
X637174Y285755D01*
X637143Y285640D01*
X637115Y285523D01*
X637092Y285406D01*
X637072Y285289D01*
X637056Y285170D01*
X637044Y285051D01*
X637036Y284932D01*
X637032Y284813D01*
X637032Y284693D01*
X637036Y284574D01*
X637044Y284455D01*
X637056Y284336D01*
X637072Y284217D01*
X637092Y284100D01*
X637115Y283983D01*
X637143Y283866D01*
X637174Y283751D01*
X637209Y283637D01*
X637248Y283524D01*
X637290Y283412D01*
X637336Y283302D01*
X637386Y283194D01*
X637439Y283087D01*
X637496Y282982D01*
X637556Y282878D01*
X637620Y282777D01*
X637687Y282679D01*
X637757Y282582D01*
X637831Y282488D01*
X637907Y282396D01*
X637987Y282307D01*
X638069Y282220D01*
X638154Y282136D01*
X638242Y282055D01*
X638332Y281978D01*
X638425Y281903D01*
X638521Y281831D01*
X638619Y281762D01*
X638719Y281697D01*
X638821Y281635D01*
X638925Y281576D01*
X639031Y281521D01*
X639139Y281470D01*
X639248Y281422D01*
X639359Y281377D01*
X639471Y281337D01*
X639585Y281300D01*
X639700Y281267D01*
X639815Y281237D01*
X639932Y281212D01*
X640049Y281190D01*
X640168Y281173D01*
X640286Y281159D01*
X640405Y281149D01*
X640525Y281143D01*
X640644Y281141D01*
X643354Y296042D02*
X641548Y300558D01*
X643354Y296042D02*
X643391Y295954D01*
X643432Y295868D01*
X643476Y295783D01*
X643524Y295700D01*
X643575Y295620D01*
X643629Y295541D01*
X643687Y295465D01*
X643747Y295391D01*
X643811Y295319D01*
X643877Y295251D01*
X643947Y295185D01*
X644018Y295122D01*
X644093Y295061D01*
X644169Y295004D01*
X644248Y294951D01*
X644329Y294900D01*
X644412Y294853D01*
X644497Y294809D01*
X644584Y294769D01*
X644672Y294732D01*
X644762Y294699D01*
X644853Y294669D01*
X644945Y294644D01*
X645038Y294622D01*
X645132Y294604D01*
X645226Y294589D01*
X645321Y294579D01*
X645417Y294573D01*
X645512Y294570D01*
X645608Y294571D01*
X645703Y294577D01*
X645799Y294586D01*
X645893Y294599D01*
X645987Y294615D01*
X646081Y294636D01*
X646173Y294661D01*
X646264Y294689D01*
X646354Y294721D01*
X646443Y294756D01*
X646530Y294795D01*
X646616Y294838D01*
X646700Y294884D01*
X646781Y294934D01*
X646861Y294986D01*
X646939Y295042D01*
X647014Y295102D01*
X647086Y295164D01*
X647156Y295229D01*
X647224Y295297D01*
X647288Y295367D01*
X647350Y295440D01*
X647408Y295516D01*
X647464Y295594D01*
X647516Y295674D01*
X647565Y295756D01*
X647610Y295840D01*
X647652Y295926D01*
X647691Y296013D01*
X647726Y296102D01*
X647757Y296193D01*
X647784Y296284D01*
X647808Y296377D01*
X647828Y296470D01*
X647844Y296564D01*
X647856Y296659D01*
X647865Y296754D01*
X647869Y296850D01*
X647870Y296945D01*
X647863Y297192D01*
X647851Y297438D01*
X647833Y297684D01*
X647808Y297930D01*
X647778Y298174D01*
X647742Y298418D01*
X647701Y298661D01*
X647653Y298903D01*
X647599Y299144D01*
X647540Y299383D01*
X647475Y299621D01*
X647404Y299857D01*
X647328Y300092D01*
X647246Y300325D01*
X647158Y300555D01*
X647065Y300783D01*
X646967Y301010D01*
X641547Y300558D02*
X641510Y300646D01*
X641469Y300732D01*
X641425Y300817D01*
X641377Y300900D01*
X641326Y300980D01*
X641272Y301059D01*
X641214Y301135D01*
X641154Y301209D01*
X641090Y301281D01*
X641024Y301349D01*
X640954Y301415D01*
X640883Y301478D01*
X640808Y301539D01*
X640732Y301596D01*
X640653Y301649D01*
X640572Y301700D01*
X640489Y301747D01*
X640404Y301791D01*
X640317Y301831D01*
X640229Y301868D01*
X640139Y301901D01*
X640048Y301931D01*
X639956Y301956D01*
X639863Y301978D01*
X639769Y301996D01*
X639675Y302011D01*
X639580Y302021D01*
X639484Y302027D01*
X639389Y302030D01*
X639293Y302029D01*
X639198Y302023D01*
X639102Y302014D01*
X639008Y302001D01*
X638914Y301985D01*
X638820Y301964D01*
X638728Y301939D01*
X638637Y301911D01*
X638547Y301879D01*
X638458Y301844D01*
X638371Y301805D01*
X638285Y301762D01*
X638201Y301716D01*
X638120Y301666D01*
X638040Y301614D01*
X637962Y301558D01*
X637887Y301498D01*
X637815Y301436D01*
X637745Y301371D01*
X637677Y301303D01*
X637613Y301233D01*
X637551Y301160D01*
X637493Y301084D01*
X637437Y301006D01*
X637385Y300926D01*
X637336Y300844D01*
X637291Y300760D01*
X637249Y300674D01*
X637210Y300587D01*
X637175Y300498D01*
X637144Y300407D01*
X637117Y300316D01*
X637093Y300223D01*
X637073Y300130D01*
X637057Y300036D01*
X637045Y299941D01*
X637036Y299846D01*
X637032Y299750D01*
X637031Y299655D01*
X637032Y299654D02*
X637041Y299292D01*
X637059Y298930D01*
X637086Y298569D01*
X637121Y298209D01*
X637164Y297849D01*
X637216Y297490D01*
X637277Y297133D01*
X637346Y296778D01*
X637423Y296424D01*
X637509Y296072D01*
X637603Y295722D01*
X637706Y295374D01*
X637816Y295029D01*
X637935Y294687D01*
X637032Y323723D02*
X653288Y323723D01*
X637032Y323723D02*
X637032Y319207D01*
X637034Y319106D01*
X637040Y319005D01*
X637049Y318904D01*
X637062Y318803D01*
X637079Y318703D01*
X637100Y318604D01*
X637124Y318506D01*
X637152Y318409D01*
X637184Y318312D01*
X637219Y318217D01*
X637258Y318124D01*
X637300Y318032D01*
X637346Y317941D01*
X637395Y317853D01*
X637447Y317766D01*
X637503Y317681D01*
X637561Y317598D01*
X637623Y317518D01*
X637688Y317440D01*
X637755Y317364D01*
X637825Y317291D01*
X637898Y317221D01*
X637974Y317154D01*
X638052Y317089D01*
X638132Y317027D01*
X638215Y316969D01*
X638300Y316913D01*
X638387Y316861D01*
X638475Y316812D01*
X638566Y316766D01*
X638658Y316724D01*
X638751Y316685D01*
X638846Y316650D01*
X638943Y316618D01*
X639040Y316590D01*
X639138Y316566D01*
X639237Y316545D01*
X639337Y316528D01*
X639438Y316515D01*
X639539Y316506D01*
X639640Y316500D01*
X639741Y316498D01*
X645160Y316498D01*
X645261Y316500D01*
X645362Y316506D01*
X645463Y316515D01*
X645564Y316528D01*
X645664Y316545D01*
X645763Y316566D01*
X645861Y316590D01*
X645958Y316618D01*
X646055Y316650D01*
X646150Y316685D01*
X646243Y316724D01*
X646335Y316766D01*
X646426Y316812D01*
X646515Y316861D01*
X646601Y316913D01*
X646686Y316969D01*
X646769Y317027D01*
X646849Y317089D01*
X646927Y317154D01*
X647003Y317221D01*
X647076Y317291D01*
X647146Y317364D01*
X647213Y317440D01*
X647278Y317518D01*
X647340Y317598D01*
X647398Y317681D01*
X647454Y317766D01*
X647506Y317853D01*
X647555Y317941D01*
X647601Y318032D01*
X647643Y318124D01*
X647682Y318217D01*
X647717Y318312D01*
X647749Y318409D01*
X647777Y318506D01*
X647801Y318604D01*
X647822Y318703D01*
X647839Y318803D01*
X647852Y318904D01*
X647861Y319005D01*
X647867Y319106D01*
X647869Y319207D01*
X647869Y323723D01*
X637032Y333349D02*
X637032Y337864D01*
X637032Y333349D02*
X637034Y333248D01*
X637040Y333147D01*
X637049Y333046D01*
X637062Y332945D01*
X637079Y332845D01*
X637100Y332746D01*
X637124Y332648D01*
X637152Y332551D01*
X637184Y332454D01*
X637219Y332359D01*
X637258Y332266D01*
X637300Y332174D01*
X637346Y332083D01*
X637395Y331995D01*
X637447Y331908D01*
X637503Y331823D01*
X637561Y331740D01*
X637623Y331660D01*
X637688Y331582D01*
X637755Y331506D01*
X637825Y331433D01*
X637898Y331363D01*
X637974Y331296D01*
X638052Y331231D01*
X638132Y331169D01*
X638215Y331111D01*
X638300Y331055D01*
X638387Y331003D01*
X638475Y330954D01*
X638566Y330908D01*
X638658Y330866D01*
X638751Y330827D01*
X638846Y330792D01*
X638943Y330760D01*
X639040Y330732D01*
X639138Y330708D01*
X639237Y330687D01*
X639337Y330670D01*
X639438Y330657D01*
X639539Y330648D01*
X639640Y330642D01*
X639741Y330640D01*
X639741Y330639D02*
X644257Y330639D01*
X644257Y330640D02*
X644376Y330642D01*
X644496Y330648D01*
X644615Y330658D01*
X644733Y330672D01*
X644852Y330689D01*
X644969Y330711D01*
X645086Y330736D01*
X645201Y330766D01*
X645316Y330799D01*
X645430Y330836D01*
X645542Y330876D01*
X645653Y330921D01*
X645762Y330969D01*
X645870Y331020D01*
X645976Y331075D01*
X646080Y331134D01*
X646182Y331196D01*
X646282Y331261D01*
X646380Y331330D01*
X646476Y331402D01*
X646569Y331477D01*
X646659Y331554D01*
X646747Y331635D01*
X646832Y331719D01*
X646914Y331806D01*
X646994Y331895D01*
X647070Y331987D01*
X647144Y332081D01*
X647214Y332178D01*
X647281Y332276D01*
X647345Y332377D01*
X647405Y332481D01*
X647462Y332586D01*
X647515Y332693D01*
X647565Y332801D01*
X647611Y332911D01*
X647653Y333023D01*
X647692Y333136D01*
X647727Y333250D01*
X647758Y333365D01*
X647786Y333482D01*
X647809Y333599D01*
X647829Y333716D01*
X647845Y333835D01*
X647857Y333954D01*
X647865Y334073D01*
X647869Y334192D01*
X647869Y334312D01*
X647865Y334431D01*
X647857Y334550D01*
X647845Y334669D01*
X647829Y334788D01*
X647809Y334905D01*
X647786Y335022D01*
X647758Y335139D01*
X647727Y335254D01*
X647692Y335368D01*
X647653Y335481D01*
X647611Y335593D01*
X647565Y335703D01*
X647515Y335811D01*
X647462Y335918D01*
X647405Y336023D01*
X647345Y336127D01*
X647281Y336228D01*
X647214Y336326D01*
X647144Y336423D01*
X647070Y336517D01*
X646994Y336609D01*
X646914Y336698D01*
X646832Y336785D01*
X646747Y336869D01*
X646659Y336950D01*
X646569Y337027D01*
X646476Y337102D01*
X646380Y337174D01*
X646282Y337243D01*
X646182Y337308D01*
X646080Y337370D01*
X645976Y337429D01*
X645870Y337484D01*
X645762Y337535D01*
X645653Y337583D01*
X645542Y337628D01*
X645430Y337668D01*
X645316Y337705D01*
X645201Y337738D01*
X645086Y337768D01*
X644969Y337793D01*
X644852Y337815D01*
X644733Y337832D01*
X644615Y337846D01*
X644496Y337856D01*
X644376Y337862D01*
X644257Y337864D01*
X642451Y337864D01*
X642451Y330639D01*
X637032Y353322D02*
X653288Y353322D01*
X644257Y358741D01*
X653288Y364159D01*
X637032Y364159D01*
X637032Y373990D02*
X637032Y378505D01*
X637032Y373990D02*
X637034Y373889D01*
X637040Y373788D01*
X637049Y373687D01*
X637062Y373586D01*
X637079Y373486D01*
X637100Y373387D01*
X637124Y373289D01*
X637152Y373192D01*
X637184Y373095D01*
X637219Y373000D01*
X637258Y372907D01*
X637300Y372815D01*
X637346Y372724D01*
X637395Y372636D01*
X637447Y372549D01*
X637503Y372464D01*
X637561Y372381D01*
X637623Y372301D01*
X637688Y372223D01*
X637755Y372147D01*
X637825Y372074D01*
X637898Y372004D01*
X637974Y371937D01*
X638052Y371872D01*
X638132Y371810D01*
X638215Y371752D01*
X638300Y371696D01*
X638387Y371644D01*
X638475Y371595D01*
X638566Y371549D01*
X638658Y371507D01*
X638751Y371468D01*
X638846Y371433D01*
X638943Y371401D01*
X639040Y371373D01*
X639138Y371349D01*
X639237Y371328D01*
X639337Y371311D01*
X639438Y371298D01*
X639539Y371289D01*
X639640Y371283D01*
X639741Y371281D01*
X639741Y371280D02*
X644257Y371280D01*
X644257Y371281D02*
X644376Y371283D01*
X644496Y371289D01*
X644615Y371299D01*
X644733Y371313D01*
X644852Y371330D01*
X644969Y371352D01*
X645086Y371377D01*
X645201Y371407D01*
X645316Y371440D01*
X645430Y371477D01*
X645542Y371517D01*
X645653Y371562D01*
X645762Y371610D01*
X645870Y371661D01*
X645976Y371716D01*
X646080Y371775D01*
X646182Y371837D01*
X646282Y371902D01*
X646380Y371971D01*
X646476Y372043D01*
X646569Y372118D01*
X646659Y372195D01*
X646747Y372276D01*
X646832Y372360D01*
X646914Y372447D01*
X646994Y372536D01*
X647070Y372628D01*
X647144Y372722D01*
X647214Y372819D01*
X647281Y372917D01*
X647345Y373018D01*
X647405Y373122D01*
X647462Y373227D01*
X647515Y373334D01*
X647565Y373442D01*
X647611Y373552D01*
X647653Y373664D01*
X647692Y373777D01*
X647727Y373891D01*
X647758Y374006D01*
X647786Y374123D01*
X647809Y374240D01*
X647829Y374357D01*
X647845Y374476D01*
X647857Y374595D01*
X647865Y374714D01*
X647869Y374833D01*
X647869Y374953D01*
X647865Y375072D01*
X647857Y375191D01*
X647845Y375310D01*
X647829Y375429D01*
X647809Y375546D01*
X647786Y375663D01*
X647758Y375780D01*
X647727Y375895D01*
X647692Y376009D01*
X647653Y376122D01*
X647611Y376234D01*
X647565Y376344D01*
X647515Y376452D01*
X647462Y376559D01*
X647405Y376664D01*
X647345Y376768D01*
X647281Y376869D01*
X647214Y376967D01*
X647144Y377064D01*
X647070Y377158D01*
X646994Y377250D01*
X646914Y377339D01*
X646832Y377426D01*
X646747Y377510D01*
X646659Y377591D01*
X646569Y377668D01*
X646476Y377743D01*
X646380Y377815D01*
X646282Y377884D01*
X646182Y377949D01*
X646080Y378011D01*
X645976Y378070D01*
X645870Y378125D01*
X645762Y378176D01*
X645653Y378224D01*
X645542Y378269D01*
X645430Y378309D01*
X645316Y378346D01*
X645201Y378379D01*
X645086Y378409D01*
X644969Y378434D01*
X644852Y378456D01*
X644733Y378473D01*
X644615Y378487D01*
X644496Y378497D01*
X644376Y378503D01*
X644257Y378505D01*
X642451Y378505D01*
X642451Y371280D01*
X651933Y373990D02*
X655094Y376699D01*
X647869Y391531D02*
X637032Y384306D01*
X637032Y391531D02*
X647869Y384306D01*
X647869Y397298D02*
X637032Y397298D01*
X652385Y396846D02*
X653288Y396846D01*
X653288Y397749D01*
X652385Y397749D01*
X652385Y396846D01*
X637032Y406312D02*
X637032Y409924D01*
X637032Y406312D02*
X637034Y406211D01*
X637040Y406110D01*
X637049Y406009D01*
X637062Y405908D01*
X637079Y405808D01*
X637100Y405709D01*
X637124Y405611D01*
X637152Y405514D01*
X637184Y405417D01*
X637219Y405322D01*
X637258Y405229D01*
X637300Y405137D01*
X637346Y405046D01*
X637395Y404958D01*
X637447Y404871D01*
X637503Y404786D01*
X637561Y404703D01*
X637623Y404623D01*
X637688Y404545D01*
X637755Y404469D01*
X637825Y404396D01*
X637898Y404326D01*
X637974Y404259D01*
X638052Y404194D01*
X638132Y404132D01*
X638215Y404074D01*
X638300Y404018D01*
X638387Y403966D01*
X638475Y403917D01*
X638566Y403871D01*
X638658Y403829D01*
X638751Y403790D01*
X638846Y403755D01*
X638943Y403723D01*
X639040Y403695D01*
X639138Y403671D01*
X639237Y403650D01*
X639337Y403633D01*
X639438Y403620D01*
X639539Y403611D01*
X639640Y403605D01*
X639741Y403603D01*
X645160Y403603D01*
X645261Y403605D01*
X645362Y403611D01*
X645463Y403620D01*
X645564Y403633D01*
X645664Y403650D01*
X645763Y403671D01*
X645861Y403695D01*
X645958Y403723D01*
X646055Y403755D01*
X646150Y403790D01*
X646243Y403829D01*
X646335Y403871D01*
X646426Y403917D01*
X646515Y403966D01*
X646601Y404018D01*
X646686Y404074D01*
X646769Y404132D01*
X646849Y404194D01*
X646927Y404259D01*
X647003Y404326D01*
X647076Y404396D01*
X647146Y404469D01*
X647213Y404545D01*
X647278Y404623D01*
X647340Y404703D01*
X647398Y404786D01*
X647454Y404871D01*
X647506Y404958D01*
X647555Y405046D01*
X647601Y405137D01*
X647643Y405229D01*
X647682Y405322D01*
X647717Y405417D01*
X647749Y405514D01*
X647777Y405611D01*
X647801Y405709D01*
X647822Y405808D01*
X647839Y405908D01*
X647852Y406009D01*
X647861Y406110D01*
X647867Y406211D01*
X647869Y406312D01*
X647869Y409924D01*
X644257Y415569D02*
X640644Y415569D01*
X644257Y415569D02*
X644376Y415571D01*
X644496Y415577D01*
X644615Y415587D01*
X644733Y415601D01*
X644852Y415618D01*
X644969Y415640D01*
X645086Y415665D01*
X645201Y415695D01*
X645316Y415728D01*
X645430Y415765D01*
X645542Y415805D01*
X645653Y415850D01*
X645762Y415898D01*
X645870Y415949D01*
X645976Y416004D01*
X646080Y416063D01*
X646182Y416125D01*
X646282Y416190D01*
X646380Y416259D01*
X646476Y416331D01*
X646569Y416406D01*
X646659Y416483D01*
X646747Y416564D01*
X646832Y416648D01*
X646914Y416735D01*
X646994Y416824D01*
X647070Y416916D01*
X647144Y417010D01*
X647214Y417107D01*
X647281Y417205D01*
X647345Y417306D01*
X647405Y417410D01*
X647462Y417515D01*
X647515Y417622D01*
X647565Y417730D01*
X647611Y417840D01*
X647653Y417952D01*
X647692Y418065D01*
X647727Y418179D01*
X647758Y418294D01*
X647786Y418411D01*
X647809Y418528D01*
X647829Y418645D01*
X647845Y418764D01*
X647857Y418883D01*
X647865Y419002D01*
X647869Y419121D01*
X647869Y419241D01*
X647865Y419360D01*
X647857Y419479D01*
X647845Y419598D01*
X647829Y419717D01*
X647809Y419834D01*
X647786Y419951D01*
X647758Y420068D01*
X647727Y420183D01*
X647692Y420297D01*
X647653Y420410D01*
X647611Y420522D01*
X647565Y420632D01*
X647515Y420740D01*
X647462Y420847D01*
X647405Y420952D01*
X647345Y421056D01*
X647281Y421157D01*
X647214Y421255D01*
X647144Y421352D01*
X647070Y421446D01*
X646994Y421538D01*
X646914Y421627D01*
X646832Y421714D01*
X646747Y421798D01*
X646659Y421879D01*
X646569Y421956D01*
X646476Y422031D01*
X646380Y422103D01*
X646282Y422172D01*
X646182Y422237D01*
X646080Y422299D01*
X645976Y422358D01*
X645870Y422413D01*
X645762Y422464D01*
X645653Y422512D01*
X645542Y422557D01*
X645430Y422597D01*
X645316Y422634D01*
X645201Y422667D01*
X645086Y422697D01*
X644969Y422722D01*
X644852Y422744D01*
X644733Y422761D01*
X644615Y422775D01*
X644496Y422785D01*
X644376Y422791D01*
X644257Y422793D01*
X644257Y422794D02*
X640644Y422794D01*
X640644Y422793D02*
X640525Y422791D01*
X640405Y422785D01*
X640286Y422775D01*
X640168Y422761D01*
X640049Y422744D01*
X639932Y422722D01*
X639815Y422697D01*
X639700Y422667D01*
X639585Y422634D01*
X639471Y422597D01*
X639359Y422557D01*
X639248Y422512D01*
X639139Y422464D01*
X639031Y422413D01*
X638925Y422358D01*
X638821Y422299D01*
X638719Y422237D01*
X638619Y422172D01*
X638521Y422103D01*
X638425Y422031D01*
X638332Y421956D01*
X638242Y421879D01*
X638154Y421798D01*
X638069Y421714D01*
X637987Y421627D01*
X637907Y421538D01*
X637831Y421446D01*
X637757Y421352D01*
X637687Y421255D01*
X637620Y421157D01*
X637556Y421056D01*
X637496Y420952D01*
X637439Y420847D01*
X637386Y420740D01*
X637336Y420632D01*
X637290Y420522D01*
X637248Y420410D01*
X637209Y420297D01*
X637174Y420183D01*
X637143Y420068D01*
X637115Y419951D01*
X637092Y419834D01*
X637072Y419717D01*
X637056Y419598D01*
X637044Y419479D01*
X637036Y419360D01*
X637032Y419241D01*
X637032Y419121D01*
X637036Y419002D01*
X637044Y418883D01*
X637056Y418764D01*
X637072Y418645D01*
X637092Y418528D01*
X637115Y418411D01*
X637143Y418294D01*
X637174Y418179D01*
X637209Y418065D01*
X637248Y417952D01*
X637290Y417840D01*
X637336Y417730D01*
X637386Y417622D01*
X637439Y417515D01*
X637496Y417410D01*
X637556Y417306D01*
X637620Y417205D01*
X637687Y417107D01*
X637757Y417010D01*
X637831Y416916D01*
X637907Y416824D01*
X637987Y416735D01*
X638069Y416648D01*
X638154Y416564D01*
X638242Y416483D01*
X638332Y416406D01*
X638425Y416331D01*
X638521Y416259D01*
X638619Y416190D01*
X638719Y416125D01*
X638821Y416063D01*
X638925Y416004D01*
X639031Y415949D01*
X639139Y415898D01*
X639248Y415850D01*
X639359Y415805D01*
X639471Y415765D01*
X639585Y415728D01*
X639700Y415695D01*
X639815Y415665D01*
X639932Y415640D01*
X640049Y415618D01*
X640168Y415601D01*
X640286Y415587D01*
X640405Y415577D01*
X640525Y415571D01*
X640644Y415569D01*
X637032Y442489D02*
X637034Y442607D01*
X637040Y442725D01*
X637049Y442843D01*
X637063Y442960D01*
X637080Y443077D01*
X637101Y443194D01*
X637126Y443309D01*
X637155Y443424D01*
X637188Y443538D01*
X637224Y443650D01*
X637264Y443761D01*
X637307Y443871D01*
X637354Y443980D01*
X637404Y444087D01*
X637459Y444192D01*
X637516Y444295D01*
X637577Y444396D01*
X637641Y444496D01*
X637708Y444593D01*
X637778Y444688D01*
X637852Y444780D01*
X637928Y444871D01*
X638008Y444958D01*
X638090Y445043D01*
X638175Y445125D01*
X638262Y445205D01*
X638353Y445281D01*
X638445Y445355D01*
X638540Y445425D01*
X638637Y445492D01*
X638737Y445556D01*
X638838Y445617D01*
X638941Y445674D01*
X639046Y445729D01*
X639153Y445779D01*
X639262Y445826D01*
X639372Y445869D01*
X639483Y445909D01*
X639595Y445945D01*
X639709Y445978D01*
X639824Y446007D01*
X639939Y446032D01*
X640056Y446053D01*
X640173Y446070D01*
X640290Y446084D01*
X640408Y446093D01*
X640526Y446099D01*
X640644Y446101D01*
X637032Y442489D02*
X637034Y442306D01*
X637041Y442124D01*
X637052Y441942D01*
X637067Y441760D01*
X637087Y441578D01*
X637110Y441397D01*
X637139Y441217D01*
X637171Y441037D01*
X637208Y440858D01*
X637249Y440681D01*
X637295Y440504D01*
X637344Y440328D01*
X637398Y440154D01*
X637456Y439980D01*
X637518Y439809D01*
X637584Y439639D01*
X637655Y439470D01*
X637729Y439303D01*
X637807Y439138D01*
X637889Y438975D01*
X637975Y438814D01*
X638065Y438655D01*
X638159Y438498D01*
X638256Y438344D01*
X638357Y438192D01*
X638462Y438042D01*
X638570Y437895D01*
X638681Y437751D01*
X638796Y437609D01*
X638915Y437470D01*
X639037Y437334D01*
X639162Y437201D01*
X639290Y437071D01*
X649676Y437523D02*
X649794Y437525D01*
X649912Y437531D01*
X650030Y437540D01*
X650147Y437554D01*
X650264Y437571D01*
X650381Y437592D01*
X650496Y437617D01*
X650611Y437646D01*
X650725Y437679D01*
X650837Y437715D01*
X650948Y437755D01*
X651058Y437798D01*
X651167Y437845D01*
X651274Y437895D01*
X651379Y437950D01*
X651482Y438007D01*
X651583Y438068D01*
X651683Y438132D01*
X651780Y438199D01*
X651875Y438269D01*
X651967Y438343D01*
X652058Y438419D01*
X652145Y438499D01*
X652230Y438581D01*
X652312Y438666D01*
X652392Y438753D01*
X652468Y438844D01*
X652542Y438936D01*
X652612Y439031D01*
X652679Y439128D01*
X652743Y439228D01*
X652804Y439329D01*
X652862Y439432D01*
X652916Y439537D01*
X652966Y439644D01*
X653013Y439753D01*
X653057Y439863D01*
X653096Y439974D01*
X653132Y440087D01*
X653165Y440200D01*
X653194Y440315D01*
X653219Y440430D01*
X653240Y440547D01*
X653257Y440664D01*
X653271Y440781D01*
X653280Y440899D01*
X653286Y441017D01*
X653288Y441135D01*
X653288Y441134D02*
X653286Y441295D01*
X653280Y441457D01*
X653271Y441618D01*
X653257Y441779D01*
X653240Y441939D01*
X653219Y442099D01*
X653194Y442259D01*
X653165Y442418D01*
X653133Y442576D01*
X653097Y442733D01*
X653057Y442889D01*
X653013Y443045D01*
X652965Y443199D01*
X652914Y443352D01*
X652860Y443504D01*
X652801Y443655D01*
X652740Y443804D01*
X652674Y443951D01*
X652605Y444097D01*
X652533Y444242D01*
X652457Y444384D01*
X652378Y444525D01*
X652296Y444664D01*
X652210Y444800D01*
X652121Y444935D01*
X652029Y445068D01*
X651933Y445198D01*
X646515Y439328D02*
X646577Y439227D01*
X646642Y439127D01*
X646711Y439030D01*
X646783Y438935D01*
X646857Y438842D01*
X646935Y438752D01*
X647016Y438664D01*
X647099Y438579D01*
X647185Y438497D01*
X647274Y438418D01*
X647365Y438341D01*
X647459Y438268D01*
X647555Y438197D01*
X647653Y438130D01*
X647753Y438066D01*
X647856Y438005D01*
X647960Y437948D01*
X648066Y437894D01*
X648174Y437844D01*
X648283Y437797D01*
X648394Y437753D01*
X648506Y437713D01*
X648620Y437677D01*
X648734Y437645D01*
X648850Y437616D01*
X648966Y437591D01*
X649083Y437570D01*
X649201Y437553D01*
X649319Y437539D01*
X649438Y437530D01*
X649557Y437524D01*
X649676Y437522D01*
X643805Y444296D02*
X643743Y444397D01*
X643678Y444497D01*
X643609Y444594D01*
X643537Y444689D01*
X643463Y444782D01*
X643385Y444872D01*
X643304Y444960D01*
X643221Y445045D01*
X643135Y445127D01*
X643046Y445206D01*
X642955Y445283D01*
X642861Y445356D01*
X642765Y445427D01*
X642667Y445494D01*
X642567Y445558D01*
X642464Y445619D01*
X642360Y445676D01*
X642254Y445730D01*
X642146Y445780D01*
X642037Y445827D01*
X641926Y445871D01*
X641814Y445911D01*
X641700Y445947D01*
X641586Y445979D01*
X641470Y446008D01*
X641354Y446033D01*
X641237Y446054D01*
X641119Y446071D01*
X641001Y446085D01*
X640882Y446094D01*
X640763Y446100D01*
X640644Y446102D01*
X643805Y444295D02*
X646515Y439328D01*
X637935Y451555D02*
X637032Y451555D01*
X637935Y451555D02*
X637935Y452458D01*
X637032Y452458D01*
X637032Y451555D01*
X637032Y457530D02*
X653288Y462949D01*
X637032Y468367D01*
X641096Y467013D02*
X641096Y458885D01*
X637935Y473439D02*
X637032Y473439D01*
X637935Y473439D02*
X637935Y474342D01*
X637032Y474342D01*
X637032Y473439D01*
X637032Y495666D02*
X653288Y495666D01*
X637032Y495666D02*
X637032Y491151D01*
X637034Y491050D01*
X637040Y490949D01*
X637049Y490848D01*
X637062Y490747D01*
X637079Y490647D01*
X637100Y490548D01*
X637124Y490450D01*
X637152Y490353D01*
X637184Y490256D01*
X637219Y490161D01*
X637258Y490068D01*
X637300Y489976D01*
X637346Y489885D01*
X637395Y489797D01*
X637447Y489710D01*
X637503Y489625D01*
X637561Y489542D01*
X637623Y489462D01*
X637688Y489384D01*
X637755Y489308D01*
X637825Y489235D01*
X637898Y489165D01*
X637974Y489098D01*
X638052Y489033D01*
X638132Y488971D01*
X638215Y488913D01*
X638300Y488857D01*
X638387Y488805D01*
X638475Y488756D01*
X638566Y488710D01*
X638658Y488668D01*
X638751Y488629D01*
X638846Y488594D01*
X638943Y488562D01*
X639040Y488534D01*
X639138Y488510D01*
X639237Y488489D01*
X639337Y488472D01*
X639438Y488459D01*
X639539Y488450D01*
X639640Y488444D01*
X639741Y488442D01*
X639741Y488441D02*
X645160Y488441D01*
X645160Y488442D02*
X645261Y488444D01*
X645362Y488450D01*
X645463Y488459D01*
X645564Y488472D01*
X645664Y488489D01*
X645763Y488510D01*
X645861Y488534D01*
X645958Y488562D01*
X646055Y488594D01*
X646150Y488629D01*
X646243Y488668D01*
X646335Y488710D01*
X646426Y488756D01*
X646515Y488805D01*
X646601Y488857D01*
X646686Y488913D01*
X646769Y488971D01*
X646849Y489033D01*
X646927Y489098D01*
X647003Y489165D01*
X647076Y489235D01*
X647146Y489308D01*
X647213Y489384D01*
X647278Y489462D01*
X647340Y489542D01*
X647398Y489625D01*
X647454Y489710D01*
X647506Y489797D01*
X647555Y489885D01*
X647601Y489976D01*
X647643Y490068D01*
X647682Y490161D01*
X647717Y490256D01*
X647749Y490353D01*
X647777Y490450D01*
X647801Y490548D01*
X647822Y490647D01*
X647839Y490747D01*
X647852Y490848D01*
X647861Y490949D01*
X647867Y491050D01*
X647869Y491151D01*
X647869Y495666D01*
X637032Y505292D02*
X637032Y509808D01*
X637032Y505292D02*
X637034Y505191D01*
X637040Y505090D01*
X637049Y504989D01*
X637062Y504888D01*
X637079Y504788D01*
X637100Y504689D01*
X637124Y504591D01*
X637152Y504494D01*
X637184Y504397D01*
X637219Y504302D01*
X637258Y504209D01*
X637300Y504117D01*
X637346Y504026D01*
X637395Y503938D01*
X637447Y503851D01*
X637503Y503766D01*
X637561Y503683D01*
X637623Y503603D01*
X637688Y503525D01*
X637755Y503449D01*
X637825Y503376D01*
X637898Y503306D01*
X637974Y503239D01*
X638052Y503174D01*
X638132Y503112D01*
X638215Y503054D01*
X638300Y502998D01*
X638387Y502946D01*
X638475Y502897D01*
X638566Y502851D01*
X638658Y502809D01*
X638751Y502770D01*
X638846Y502735D01*
X638943Y502703D01*
X639040Y502675D01*
X639138Y502651D01*
X639237Y502630D01*
X639337Y502613D01*
X639438Y502600D01*
X639539Y502591D01*
X639640Y502585D01*
X639741Y502583D01*
X644257Y502583D01*
X644376Y502585D01*
X644496Y502591D01*
X644615Y502601D01*
X644733Y502615D01*
X644852Y502632D01*
X644969Y502654D01*
X645086Y502679D01*
X645201Y502709D01*
X645316Y502742D01*
X645430Y502779D01*
X645542Y502819D01*
X645653Y502864D01*
X645762Y502912D01*
X645870Y502963D01*
X645976Y503018D01*
X646080Y503077D01*
X646182Y503139D01*
X646282Y503204D01*
X646380Y503273D01*
X646476Y503345D01*
X646569Y503420D01*
X646659Y503497D01*
X646747Y503578D01*
X646832Y503662D01*
X646914Y503749D01*
X646994Y503838D01*
X647070Y503930D01*
X647144Y504024D01*
X647214Y504121D01*
X647281Y504219D01*
X647345Y504320D01*
X647405Y504424D01*
X647462Y504529D01*
X647515Y504636D01*
X647565Y504744D01*
X647611Y504854D01*
X647653Y504966D01*
X647692Y505079D01*
X647727Y505193D01*
X647758Y505308D01*
X647786Y505425D01*
X647809Y505542D01*
X647829Y505659D01*
X647845Y505778D01*
X647857Y505897D01*
X647865Y506016D01*
X647869Y506135D01*
X647869Y506255D01*
X647865Y506374D01*
X647857Y506493D01*
X647845Y506612D01*
X647829Y506731D01*
X647809Y506848D01*
X647786Y506965D01*
X647758Y507082D01*
X647727Y507197D01*
X647692Y507311D01*
X647653Y507424D01*
X647611Y507536D01*
X647565Y507646D01*
X647515Y507754D01*
X647462Y507861D01*
X647405Y507966D01*
X647345Y508070D01*
X647281Y508171D01*
X647214Y508269D01*
X647144Y508366D01*
X647070Y508460D01*
X646994Y508552D01*
X646914Y508641D01*
X646832Y508728D01*
X646747Y508812D01*
X646659Y508893D01*
X646569Y508970D01*
X646476Y509045D01*
X646380Y509117D01*
X646282Y509186D01*
X646182Y509251D01*
X646080Y509313D01*
X645976Y509372D01*
X645870Y509427D01*
X645762Y509478D01*
X645653Y509526D01*
X645542Y509571D01*
X645430Y509611D01*
X645316Y509648D01*
X645201Y509681D01*
X645086Y509711D01*
X644969Y509736D01*
X644852Y509758D01*
X644733Y509775D01*
X644615Y509789D01*
X644496Y509799D01*
X644376Y509805D01*
X644257Y509807D01*
X644257Y509808D02*
X642451Y509808D01*
X642451Y502583D01*
X637032Y528178D02*
X637032Y531791D01*
X637032Y528178D02*
X637034Y528060D01*
X637040Y527942D01*
X637049Y527824D01*
X637063Y527707D01*
X637080Y527590D01*
X637101Y527473D01*
X637126Y527358D01*
X637155Y527243D01*
X637188Y527129D01*
X637224Y527017D01*
X637264Y526906D01*
X637307Y526796D01*
X637354Y526687D01*
X637404Y526580D01*
X637459Y526475D01*
X637516Y526372D01*
X637577Y526271D01*
X637641Y526171D01*
X637708Y526074D01*
X637778Y525979D01*
X637852Y525887D01*
X637928Y525796D01*
X638008Y525709D01*
X638090Y525624D01*
X638175Y525542D01*
X638262Y525462D01*
X638353Y525386D01*
X638445Y525312D01*
X638540Y525242D01*
X638637Y525175D01*
X638737Y525111D01*
X638838Y525050D01*
X638941Y524993D01*
X639046Y524938D01*
X639153Y524888D01*
X639262Y524841D01*
X639372Y524798D01*
X639483Y524758D01*
X639595Y524722D01*
X639709Y524689D01*
X639824Y524660D01*
X639939Y524635D01*
X640056Y524614D01*
X640173Y524597D01*
X640290Y524583D01*
X640408Y524574D01*
X640526Y524568D01*
X640644Y524566D01*
X649676Y524566D01*
X649794Y524568D01*
X649912Y524574D01*
X650030Y524583D01*
X650147Y524597D01*
X650264Y524614D01*
X650381Y524635D01*
X650496Y524660D01*
X650611Y524689D01*
X650725Y524722D01*
X650837Y524758D01*
X650948Y524798D01*
X651058Y524841D01*
X651167Y524888D01*
X651274Y524938D01*
X651379Y524992D01*
X651482Y525050D01*
X651583Y525111D01*
X651683Y525175D01*
X651780Y525242D01*
X651875Y525312D01*
X651967Y525386D01*
X652058Y525462D01*
X652145Y525542D01*
X652230Y525624D01*
X652312Y525709D01*
X652392Y525796D01*
X652468Y525887D01*
X652542Y525979D01*
X652612Y526074D01*
X652679Y526171D01*
X652743Y526271D01*
X652804Y526372D01*
X652861Y526475D01*
X652915Y526580D01*
X652966Y526687D01*
X653013Y526796D01*
X653056Y526906D01*
X653096Y527017D01*
X653132Y527129D01*
X653165Y527243D01*
X653194Y527358D01*
X653219Y527473D01*
X653240Y527590D01*
X653257Y527707D01*
X653271Y527824D01*
X653280Y527942D01*
X653286Y528060D01*
X653288Y528178D01*
X653288Y531791D01*
X637935Y537006D02*
X637032Y537006D01*
X637935Y537006D02*
X637935Y537909D01*
X637032Y537909D01*
X637032Y537006D01*
X637032Y548399D02*
X653288Y542981D01*
X653288Y553818D02*
X637032Y548399D01*
X637032Y558890D02*
X637935Y558890D01*
X637935Y559793D01*
X637032Y559793D01*
X637032Y558890D01*
M02*
