G04 EAGLE Gerber X2 export*
%TF.Part,Single*%
%TF.FileFunction,Copper,L2,Bot,Mixed*%
%TF.FilePolarity,Positive*%
%TF.GenerationSoftware,Autodesk,EAGLE,8.6.3*%
%TF.CreationDate,2019-08-01T17:55:07Z*%
G75*
%MOMM*%
%FSLAX34Y34*%
%LPD*%
%AMOC8*
5,1,8,0,0,1.08239X$1,22.5*%
G01*
%ADD10P,1.924489X8X202.500000*%
%ADD11C,1.778000*%
%ADD12P,1.732040X8X22.500000*%
%ADD13C,1.905000*%
%ADD14P,2.061953X8X202.500000*%
%ADD15P,2.061953X8X22.500000*%
%ADD16C,1.320800*%
%ADD17C,2.032000*%
%ADD18C,2.540000*%
%ADD19C,1.397000*%
%ADD20C,1.524000*%
%ADD21P,1.429621X8X202.500000*%
%ADD22C,1.981200*%
%ADD23P,1.814519X8X112.500000*%
%ADD24C,1.408000*%
%ADD25P,1.429621X8X22.500000*%
%ADD26P,1.429621X8X112.500000*%
%ADD27P,1.429621X8X292.500000*%
%ADD28C,1.400000*%
%ADD29C,1.308000*%
%ADD30C,1.458000*%
%ADD31R,2.100000X2.100000*%
%ADD32P,1.578125X8X112.500000*%
%ADD33C,3.316000*%
%ADD34P,1.732040X8X202.500000*%
%ADD35P,1.814519X8X22.500000*%
%ADD36P,1.814519X8X202.500000*%
%ADD37C,1.270000*%
%ADD38C,1.275000*%
%ADD39C,1.056400*%


D10*
X685800Y609600D03*
D11*
X711200Y609600D03*
D12*
X685800Y546100D03*
X711200Y546100D03*
X596900Y546100D03*
X622300Y546100D03*
D13*
X914400Y165100D03*
D14*
X863600Y165100D03*
D13*
X584200Y609600D03*
D15*
X635000Y609600D03*
D16*
X273050Y178054D02*
X273050Y164846D01*
X273050Y101854D02*
X273050Y88646D01*
D17*
X711200Y190500D03*
X711200Y63500D03*
X767080Y787400D03*
X767080Y660400D03*
D18*
X215900Y904240D02*
X190500Y904240D01*
X190500Y695960D02*
X215900Y695960D01*
X215900Y746760D02*
X190500Y746760D01*
X190500Y853440D02*
X215900Y853440D01*
D16*
X279400Y844804D02*
X279400Y831596D01*
X304800Y831596D02*
X304800Y844804D01*
X431800Y844804D02*
X431800Y831596D01*
X431800Y907796D02*
X431800Y921004D01*
X330200Y844804D02*
X330200Y831596D01*
X355600Y831596D02*
X355600Y844804D01*
X406400Y844804D02*
X406400Y831596D01*
X381000Y831596D02*
X381000Y844804D01*
X406400Y907796D02*
X406400Y921004D01*
X381000Y921004D02*
X381000Y907796D01*
X355600Y907796D02*
X355600Y921004D01*
X330200Y921004D02*
X330200Y907796D01*
X304800Y907796D02*
X304800Y921004D01*
X279400Y921004D02*
X279400Y907796D01*
D19*
X793115Y165100D02*
X807085Y165100D01*
X807085Y139700D02*
X793115Y139700D01*
X793115Y114300D02*
X807085Y114300D01*
X807085Y88900D02*
X793115Y88900D01*
X793115Y63500D02*
X807085Y63500D01*
X812165Y812800D02*
X826135Y812800D01*
X826135Y787400D02*
X812165Y787400D01*
X812165Y762000D02*
X826135Y762000D01*
X826135Y736600D02*
X812165Y736600D01*
X812165Y711200D02*
X826135Y711200D01*
D20*
X660400Y680720D02*
X660400Y665480D01*
X685800Y665480D02*
X685800Y680720D01*
X711200Y680720D02*
X711200Y665480D01*
D21*
X749300Y406400D03*
X736600Y387350D03*
X723900Y406400D03*
D22*
X232156Y101600D02*
X212344Y101600D01*
X211836Y161290D02*
X192024Y161290D01*
X192024Y41910D02*
X211836Y41910D01*
X89916Y41910D02*
X70104Y41910D01*
X70104Y161290D02*
X89916Y161290D01*
D23*
X292100Y254000D03*
X292100Y279400D03*
X215900Y254000D03*
X215900Y279400D03*
X139700Y254000D03*
X139700Y279400D03*
D24*
X495300Y76200D03*
X495300Y101600D03*
X495300Y127000D03*
X495300Y152400D03*
X495300Y177800D03*
X495300Y203200D03*
X495300Y228600D03*
X495300Y254000D03*
X495300Y279400D03*
X495300Y304800D03*
X495300Y330200D03*
X495300Y355600D03*
X495300Y381000D03*
X495300Y406400D03*
X495300Y431800D03*
X495300Y457200D03*
X495300Y482600D03*
X647700Y76200D03*
X647700Y101600D03*
X647700Y127000D03*
X647700Y152400D03*
X647700Y177800D03*
X647700Y203200D03*
X647700Y228600D03*
X647700Y254000D03*
X647700Y279400D03*
X647700Y304800D03*
X647700Y330200D03*
X647700Y355600D03*
X647700Y381000D03*
X647700Y406400D03*
X647700Y431800D03*
X647700Y457200D03*
X647700Y482600D03*
D16*
X190500Y584200D02*
X177292Y584200D01*
X177292Y558800D02*
X190500Y558800D01*
X266700Y558800D02*
X279908Y558800D01*
X279908Y584200D02*
X266700Y584200D01*
X190500Y533400D02*
X177292Y533400D01*
X266700Y533400D02*
X279908Y533400D01*
X190500Y482600D02*
X177292Y482600D01*
X177292Y457200D02*
X190500Y457200D01*
X266700Y457200D02*
X279908Y457200D01*
X279908Y482600D02*
X266700Y482600D01*
X190500Y431800D02*
X177292Y431800D01*
X266700Y431800D02*
X279908Y431800D01*
X190500Y381000D02*
X177292Y381000D01*
X177292Y355600D02*
X190500Y355600D01*
X266700Y355600D02*
X279908Y355600D01*
X279908Y381000D02*
X266700Y381000D01*
X190500Y330200D02*
X177292Y330200D01*
X266700Y330200D02*
X279908Y330200D01*
D25*
X342900Y190500D03*
X419100Y190500D03*
D21*
X419100Y152400D03*
X342900Y152400D03*
D26*
X127000Y520700D03*
X127000Y596900D03*
D21*
X342900Y673100D03*
X266700Y673100D03*
D25*
X482600Y558800D03*
X558800Y558800D03*
D21*
X482600Y673100D03*
X381000Y673100D03*
D26*
X127000Y419100D03*
X127000Y495300D03*
X127000Y317500D03*
X127000Y393700D03*
D27*
X330200Y596900D03*
X330200Y520700D03*
X330200Y495300D03*
X330200Y419100D03*
X330200Y393700D03*
X330200Y317500D03*
D25*
X381000Y723900D03*
X457200Y723900D03*
D21*
X342900Y723900D03*
X266700Y723900D03*
D25*
X342900Y266700D03*
X419100Y266700D03*
X342900Y228600D03*
X419100Y228600D03*
D21*
X387350Y114300D03*
X361950Y114300D03*
X361950Y88900D03*
D20*
X520700Y665480D02*
X520700Y680720D01*
X546100Y680720D02*
X546100Y665480D01*
X571500Y665480D02*
X571500Y680720D01*
D28*
X585200Y849100D02*
X599200Y849100D01*
D29*
X528200Y828640D02*
X528200Y815560D01*
X556200Y800640D02*
X556200Y787560D01*
D28*
X569200Y849100D02*
X583200Y849100D01*
D29*
X528200Y812640D02*
X528200Y799560D01*
X556200Y784640D02*
X556200Y771560D01*
D22*
X126746Y904494D02*
X126746Y924306D01*
X76454Y924306D02*
X76454Y904494D01*
D30*
X829210Y421800D02*
X843790Y421800D01*
X843790Y441800D02*
X829210Y441800D01*
X829210Y396800D02*
X843790Y396800D01*
X843790Y466800D02*
X829210Y466800D01*
D22*
X73406Y533654D02*
X53594Y533654D01*
X53594Y583946D02*
X73406Y583946D01*
X73406Y330454D02*
X53594Y330454D01*
X53594Y380746D02*
X73406Y380746D01*
X73406Y432054D02*
X53594Y432054D01*
X53594Y482346D02*
X73406Y482346D01*
D31*
X116310Y766340D03*
X116310Y724340D03*
X116310Y682340D03*
X61310Y682340D03*
X61310Y724340D03*
X61310Y766340D03*
D32*
X816500Y622100D03*
X816500Y597100D03*
X836500Y597100D03*
X836500Y622100D03*
D33*
X863600Y549400D03*
X863600Y669800D03*
D22*
X73406Y228854D02*
X53594Y228854D01*
X53594Y279146D02*
X73406Y279146D01*
X660146Y904494D02*
X660146Y924306D01*
X609854Y924306D02*
X609854Y904494D01*
X558546Y904494D02*
X558546Y924306D01*
X508254Y924306D02*
X508254Y904494D01*
D34*
X901700Y88900D03*
X876300Y88900D03*
D21*
X342900Y774700D03*
X266700Y774700D03*
D35*
X406400Y774700D03*
X431800Y774700D03*
D26*
X311150Y95250D03*
X311150Y171450D03*
D36*
X298450Y50800D03*
X273050Y50800D03*
D37*
X63500Y380746D02*
X63246Y381000D01*
X25400Y381000D01*
X25400Y482600D01*
X25400Y571500D01*
X38100Y584200D01*
X63500Y584200D01*
X63500Y583946D01*
X63246Y482600D02*
X63500Y482346D01*
X63246Y482600D02*
X25400Y482600D01*
X25400Y939800D02*
X38100Y952500D01*
X25400Y939800D02*
X25400Y596900D01*
X38100Y584200D01*
X38100Y952500D02*
X558800Y952500D01*
X590550Y850750D02*
X592200Y849100D01*
X590550Y850750D02*
X590550Y863600D01*
X558546Y895604D01*
X558546Y914400D01*
X592200Y849100D02*
X649500Y849100D01*
X660400Y838200D01*
X660400Y812800D01*
X660400Y673100D01*
X660400Y812800D02*
X819150Y812800D01*
X558800Y914654D02*
X558546Y914400D01*
X558800Y914654D02*
X558800Y952500D01*
X444500Y876300D02*
X431800Y863600D01*
X571500Y673100D02*
X571500Y660400D01*
X596900Y635000D01*
X635000Y635000D01*
X685800Y635000D01*
X685800Y673100D01*
X685800Y635000D02*
X685800Y609600D01*
X508254Y822100D02*
X508254Y876300D01*
X635000Y406400D02*
X647700Y406400D01*
X767080Y660400D02*
X767080Y711200D01*
X767080Y742950D01*
X784860Y762000D01*
X819150Y762000D01*
X647700Y406400D02*
X622300Y406400D01*
X596900Y406400D01*
X546100Y355600D01*
X495300Y355600D01*
X304800Y292100D02*
X292100Y279400D01*
X387350Y292100D02*
X387350Y114300D01*
X387350Y292100D02*
X304800Y292100D01*
X292100Y279400D02*
X215900Y279400D01*
X139700Y279400D01*
X215900Y279400D02*
X215900Y355600D01*
X215900Y406400D01*
X215900Y457200D01*
X215900Y508000D01*
X215900Y558800D01*
X190500Y558800D01*
X190500Y457200D02*
X215900Y457200D01*
X215900Y355600D02*
X190500Y355600D01*
X419100Y355600D02*
X495300Y355600D01*
X419100Y355600D02*
X387350Y317500D01*
X387350Y292100D01*
X330200Y596900D02*
X330200Y609600D01*
X317500Y622300D01*
X266700Y622300D01*
X317500Y495300D02*
X330200Y495300D01*
X317500Y495300D02*
X304800Y508000D01*
X215900Y508000D01*
X317500Y393700D02*
X330200Y393700D01*
X317500Y393700D02*
X304800Y406400D01*
X215900Y406400D01*
X116310Y724340D02*
X101600Y723900D01*
X88900Y711200D01*
X88900Y685800D01*
X85440Y682340D02*
X85000Y681900D01*
X266700Y673100D02*
X266700Y622300D01*
X647700Y406400D02*
X723900Y406400D01*
X914400Y622100D02*
X914400Y698500D01*
X914400Y622100D02*
X914400Y466800D01*
X914400Y342900D01*
X901700Y330200D01*
X876300Y330200D01*
X863600Y317500D01*
X863600Y165100D01*
X508254Y876300D02*
X444500Y876300D01*
X431800Y863600D02*
X431800Y838200D01*
X819150Y711200D02*
X901700Y711200D01*
X914400Y698500D01*
X800100Y63500D02*
X711200Y63500D01*
X431800Y774700D02*
X431800Y838200D01*
X685800Y609600D02*
X685800Y546100D01*
X622300Y546100D01*
X622300Y406400D01*
X698500Y711200D02*
X767080Y711200D01*
X685800Y692150D02*
X685800Y673100D01*
X685800Y692150D02*
X698500Y711200D01*
X556200Y822100D02*
X528200Y822100D01*
X556200Y822100D02*
X556200Y794100D01*
X528200Y822100D02*
X508254Y822100D01*
X508254Y876300D02*
X508254Y914400D01*
X571500Y711200D02*
X571500Y673100D01*
X571500Y711200D02*
X546100Y736600D01*
X514350Y736600D02*
X508000Y742950D01*
X508254Y743204D01*
X514350Y736600D02*
X546100Y736600D01*
X508254Y743204D02*
X508254Y822100D01*
X836500Y466800D02*
X914400Y466800D01*
X914400Y622100D02*
X836500Y622100D01*
X819150Y711200D02*
X767080Y711200D01*
X863600Y165100D02*
X863600Y114300D01*
X800100Y114300D01*
X800100Y63500D02*
X863600Y63500D01*
X863600Y88900D01*
X863600Y114300D01*
X863600Y88900D02*
X876300Y88900D01*
X635000Y609600D02*
X635000Y635000D01*
X266700Y622300D02*
X215900Y622300D01*
X101600Y622300D01*
X88900Y635000D01*
X88900Y685800D01*
X215900Y622300D02*
X215900Y558800D01*
X85440Y682340D02*
X61310Y682340D01*
X85440Y682340D02*
X88900Y685800D01*
X254000Y901700D02*
X266700Y914400D01*
X254000Y901700D02*
X254000Y787400D01*
D38*
X927100Y901700D03*
D37*
X279400Y914400D02*
X266700Y914400D01*
X254000Y787400D02*
X266700Y774700D01*
X190500Y584200D02*
X139700Y584200D01*
X127000Y596900D01*
X139700Y482600D02*
X190500Y482600D01*
X139700Y482600D02*
X127000Y495300D01*
X114300Y431800D02*
X127000Y419100D01*
X114300Y431800D02*
X63754Y431800D01*
X63500Y432054D01*
X139700Y381000D02*
X190500Y381000D01*
X139700Y381000D02*
X127000Y393700D01*
X266700Y533400D02*
X317500Y533400D01*
X330200Y520700D01*
X317500Y431800D02*
X266700Y431800D01*
X317500Y431800D02*
X330200Y419100D01*
X317500Y330200D02*
X266700Y330200D01*
X317500Y330200D02*
X330200Y317500D01*
X304800Y838200D02*
X279400Y838200D01*
X304800Y838200D02*
X304800Y863600D01*
X317500Y876300D01*
X342900Y876300D01*
X355600Y863600D01*
X355600Y838200D01*
X264160Y41910D02*
X201930Y41910D01*
X264160Y41910D02*
X273050Y50800D01*
X273050Y95250D01*
X75946Y279146D02*
X63500Y279146D01*
X75946Y279146D02*
X76200Y279400D01*
X114300Y241300D01*
X114300Y190500D01*
X203200Y101600D01*
X222250Y101600D01*
X63500Y177800D02*
X63500Y228854D01*
X63500Y177800D02*
X80010Y161290D01*
X469900Y482600D02*
X495300Y482600D01*
X469900Y482600D02*
X457200Y495300D01*
X457200Y546100D01*
X469900Y558800D01*
X482600Y558800D01*
X381000Y673100D02*
X406400Y698500D01*
X533400Y711200D02*
X546100Y698500D01*
X546100Y673100D01*
X482600Y698500D02*
X406400Y698500D01*
X482600Y698500D02*
X495300Y711200D01*
X533400Y711200D01*
X533400Y558800D02*
X558800Y558800D01*
X533400Y558800D02*
X520700Y571500D01*
X520700Y673100D01*
X406400Y838200D02*
X381000Y838200D01*
X368300Y749300D02*
X342900Y723900D01*
X368300Y749300D02*
X368300Y800100D01*
X381000Y812800D01*
X381000Y838200D01*
X266700Y736600D02*
X203200Y800100D01*
X266700Y736600D02*
X266700Y723900D01*
X95070Y800100D02*
X61310Y766340D01*
X95070Y800100D02*
X203200Y800100D01*
X203200Y904240D02*
X193040Y914400D01*
X126746Y914400D01*
D38*
X720090Y273050D03*
D37*
X711200Y190500D02*
X711200Y152400D01*
X723900Y139700D01*
X800100Y139700D01*
X711200Y264160D02*
X720090Y273050D01*
X711200Y264160D02*
X711200Y190500D01*
D38*
X716280Y901700D03*
D37*
X342900Y132080D02*
X361950Y114300D01*
X342900Y132080D02*
X342900Y152400D01*
X711200Y609600D02*
X711200Y673100D01*
X711200Y444500D02*
X698500Y431800D01*
X647700Y431800D01*
X711200Y546100D02*
X711200Y609600D01*
X711200Y546100D02*
X711200Y444500D01*
X431800Y266700D02*
X419100Y266700D01*
X431800Y266700D02*
X444500Y254000D01*
X495300Y254000D01*
X495300Y228600D02*
X419100Y228600D01*
X444500Y203200D02*
X495300Y203200D01*
X444500Y203200D02*
X431800Y190500D01*
X419100Y190500D01*
X457200Y177800D02*
X495300Y177800D01*
X457200Y177800D02*
X431800Y152400D01*
X419100Y152400D01*
X330200Y812800D02*
X330200Y838200D01*
X330200Y812800D02*
X304800Y787400D01*
X304800Y723900D02*
X342900Y685800D01*
X342900Y673100D01*
X304800Y723900D02*
X304800Y787400D01*
X457200Y406400D02*
X495300Y406400D01*
X457200Y406400D02*
X419100Y444500D01*
X419100Y584200D01*
X342900Y660400D01*
X342900Y673100D01*
X647700Y279400D02*
X673100Y279400D01*
X736600Y342900D02*
X736600Y387350D01*
X736600Y342900D02*
X673100Y279400D01*
X815500Y441800D02*
X836500Y441800D01*
X815500Y441800D02*
X800100Y457200D01*
X836500Y547800D02*
X836500Y597100D01*
X836500Y547800D02*
X800100Y511400D01*
X800100Y457200D01*
X836500Y421800D02*
X833800Y419100D01*
X800100Y419100D01*
X773176Y446024D01*
X816500Y562500D02*
X816500Y597100D01*
X816500Y562500D02*
X773176Y519176D01*
X773176Y446024D01*
D38*
X930910Y273050D03*
D37*
X908050Y88900D02*
X901700Y88900D01*
X908050Y88900D02*
X914400Y95250D01*
X914400Y165100D01*
X152400Y711200D02*
X152400Y755650D01*
X167640Y695960D02*
X203200Y695960D01*
X167640Y695960D02*
X152400Y711200D01*
X141710Y766340D02*
X116310Y766340D01*
X141710Y766340D02*
X152400Y755650D01*
X114046Y533654D02*
X127000Y520700D01*
X114046Y533654D02*
X63500Y533654D01*
X63500Y330454D02*
X114046Y330454D01*
X127000Y317500D01*
X609854Y914400D02*
X609600Y914654D01*
X609600Y939800D01*
X622300Y952500D01*
X825500Y952500D01*
X863600Y914400D01*
X863600Y869950D01*
X895350Y838200D01*
X946150Y838200D01*
X958850Y825500D01*
D39*
X958850Y107950D03*
D37*
X958850Y825500D01*
X212090Y171450D02*
X201930Y161290D01*
X212090Y171450D02*
X273050Y171450D01*
X311150Y171450D01*
X311150Y95250D02*
X311150Y63500D01*
X298450Y50800D01*
M02*
