M48
;GenerationSoftware,Autodesk,EAGLE,8.6.3*%
;CreationDate,2019-08-01T17:55:05Z*%
FMAT,2
ICI,OFF
METRIC,TZ,000.000
T14C0.650
T13C0.800
T12C0.813
T11C0.850
T10C0.889
T9C0.900
T8C0.950
T7C1.016
T6C1.200
T5C1.270
T4C1.321
T3C1.400
T2C2.300
T1C3.969
%
G90
M71
T1
X95250Y93980
X34925Y3810
X10160Y83820
X95250Y3810
T2
X86360Y66980
X86360Y54940
X86360Y36610
X86360Y49750
T3
X6131Y72434
X6131Y68234
X6131Y76634
X11631Y72434
X11631Y76634
X11631Y68234
T4
X22225Y10160
X8001Y16129
X12675Y91440
X55855Y91440
X50825Y91440
X60985Y91440
X66015Y91440
X6350Y27915
X6350Y22885
X6350Y53365
X7645Y91440
X20193Y16129
X20320Y90424
X20320Y69596
X20320Y74676
X20320Y85344
X6350Y48235
X6350Y43205
X6350Y38075
X6350Y33045
X6350Y58395
X20193Y4191
X8001Y4191
T5
X76708Y66040
X71120Y19050
X71120Y6350
X76708Y78740
T6
X49530Y5080
X64770Y5080
X49530Y50800
X64770Y50800
T7
X54610Y67310
X68580Y67310
X71120Y67310
X66040Y67310
X57150Y67310
X52070Y67310
T8
X81650Y62210
X83650Y62210
X83650Y59710
X81650Y59710
X83650Y46680
X83650Y39680
X83650Y44180
X83650Y42180
T9
X64770Y33020
X64770Y38100
X64770Y7620
X64770Y35560
X64770Y10160
X49530Y20320
X64770Y30480
X64770Y12700
X64770Y15240
X64770Y20320
X64770Y22860
X64770Y25400
X64770Y27940
X64770Y48260
X64770Y45720
X64770Y43180
X64770Y40640
X49530Y7620
X49530Y10160
X49530Y43180
X49530Y15240
X49530Y17780
X64770Y17780
X49530Y22860
X49530Y25400
X49530Y27940
X49530Y30480
X49530Y33020
X49530Y35560
X49530Y38100
X49530Y40640
X49530Y12700
X49530Y45720
X49530Y48260
T10
X80010Y8890
X80010Y11430
X80010Y13970
X80010Y6350
X81915Y81280
X81915Y78740
X81915Y76200
X81915Y73660
X81915Y71120
X80010Y16510
T11
X71628Y90170
X93091Y27305
X92710Y90170
X72009Y27305
T12
X13970Y25400
X21590Y27940
X21590Y25400
X19050Y58420
X19050Y55880
X26670Y55880
X26670Y58420
X19050Y53340
X26670Y53340
X19050Y48260
X19050Y45720
X26670Y45720
X26670Y48260
X19050Y43180
X26670Y43180
X19050Y38100
X19050Y35560
X26670Y35560
X26670Y38100
X19050Y33020
X26670Y33020
X34290Y19050
X41910Y19050
X41910Y15240
X34290Y15240
X12700Y52070
X12700Y59690
X34290Y67310
X26670Y67310
X48260Y55880
X55880Y55880
X48260Y67310
X38100Y67310
X12700Y41910
X12700Y49530
X12700Y31750
X12700Y39370
X33020Y59690
X33020Y52070
X33020Y49530
X33020Y41910
X33020Y39370
X33020Y31750
X38100Y72390
X45720Y72390
X34290Y72390
X26670Y72390
X34290Y26670
X41910Y26670
X34290Y22860
X29210Y27940
X38735Y11430
X36195Y11430
X36195Y8890
X29210Y25400
X72390Y40640
X73660Y38735
X74930Y40640
X27305Y9525
X27940Y91440
X30480Y91440
X33020Y91440
X35560Y91440
X38100Y91440
X40640Y91440
X38100Y83820
X40640Y83820
X35560Y83820
X33020Y83820
X43180Y91440
X41910Y22860
X43180Y83820
X30480Y83820
X27940Y83820
X27305Y17145
X63500Y60960
X58420Y60960
X86360Y16510
X91440Y16510
X62230Y54610
X59690Y54610
X71120Y54610
X68580Y54610
X71120Y60960
X68580Y60960
X13970Y27940
X90170Y8890
X87630Y8890
X34290Y77470
X26670Y77470
X40640Y77470
X43180Y77470
X31115Y9525
X31115Y17145
X29845Y5080
X27305Y5080
T13
X55620Y79410
X57620Y84910
X52820Y80610
X55620Y77810
X59220Y84910
X52820Y82210
T14
X95885Y10795
M30