G04 EAGLE Gerber X2 export*
%TF.Part,Single*%
%TF.FileFunction,Legend,Bot,1*%
%TF.FilePolarity,Positive*%
%TF.GenerationSoftware,Autodesk,EAGLE,8.6.3*%
%TF.CreationDate,2019-08-01T17:55:09Z*%
G75*
%MOMM*%
%FSLAX34Y34*%
%LPD*%
%AMOC8*
5,1,8,0,0,1.08239X$1,22.5*%
G01*
%ADD10C,0.152400*%
%ADD11C,0.101600*%


D10*
X593852Y87828D02*
X610108Y87828D01*
X610108Y92343D02*
X610108Y83312D01*
X600174Y100850D02*
X600174Y104914D01*
X600174Y100850D02*
X600172Y100738D01*
X600166Y100627D01*
X600156Y100516D01*
X600143Y100405D01*
X600125Y100295D01*
X600103Y100186D01*
X600078Y100077D01*
X600049Y99969D01*
X600016Y99863D01*
X599979Y99757D01*
X599939Y99653D01*
X599895Y99551D01*
X599847Y99450D01*
X599796Y99351D01*
X599741Y99253D01*
X599683Y99158D01*
X599622Y99065D01*
X599557Y98974D01*
X599489Y98885D01*
X599418Y98799D01*
X599345Y98716D01*
X599268Y98635D01*
X599188Y98556D01*
X599106Y98481D01*
X599021Y98409D01*
X598934Y98339D01*
X598844Y98273D01*
X598752Y98210D01*
X598657Y98150D01*
X598561Y98094D01*
X598463Y98041D01*
X598363Y97992D01*
X598261Y97946D01*
X598158Y97904D01*
X598053Y97865D01*
X597947Y97830D01*
X597840Y97799D01*
X597732Y97772D01*
X597623Y97748D01*
X597513Y97729D01*
X597403Y97713D01*
X597292Y97701D01*
X597180Y97693D01*
X597069Y97689D01*
X596957Y97689D01*
X596846Y97693D01*
X596734Y97701D01*
X596623Y97713D01*
X596513Y97729D01*
X596403Y97748D01*
X596294Y97772D01*
X596186Y97799D01*
X596079Y97830D01*
X595973Y97865D01*
X595868Y97904D01*
X595765Y97946D01*
X595663Y97992D01*
X595563Y98041D01*
X595465Y98094D01*
X595369Y98150D01*
X595274Y98210D01*
X595182Y98273D01*
X595092Y98339D01*
X595005Y98409D01*
X594920Y98481D01*
X594838Y98556D01*
X594758Y98635D01*
X594681Y98716D01*
X594608Y98799D01*
X594537Y98885D01*
X594469Y98974D01*
X594404Y99065D01*
X594343Y99158D01*
X594285Y99253D01*
X594230Y99351D01*
X594179Y99450D01*
X594131Y99551D01*
X594087Y99653D01*
X594047Y99757D01*
X594010Y99863D01*
X593977Y99969D01*
X593948Y100077D01*
X593923Y100186D01*
X593901Y100295D01*
X593883Y100405D01*
X593870Y100516D01*
X593860Y100627D01*
X593854Y100738D01*
X593852Y100850D01*
X593852Y104914D01*
X601980Y104914D01*
X601980Y104913D02*
X602081Y104911D01*
X602182Y104905D01*
X602283Y104896D01*
X602384Y104883D01*
X602484Y104866D01*
X602583Y104845D01*
X602681Y104821D01*
X602778Y104793D01*
X602875Y104761D01*
X602970Y104726D01*
X603063Y104687D01*
X603155Y104645D01*
X603246Y104599D01*
X603335Y104550D01*
X603421Y104498D01*
X603506Y104442D01*
X603589Y104384D01*
X603669Y104322D01*
X603747Y104257D01*
X603823Y104190D01*
X603896Y104120D01*
X603966Y104047D01*
X604033Y103971D01*
X604098Y103893D01*
X604160Y103813D01*
X604218Y103730D01*
X604274Y103645D01*
X604326Y103559D01*
X604375Y103470D01*
X604421Y103379D01*
X604463Y103287D01*
X604502Y103194D01*
X604537Y103099D01*
X604569Y103002D01*
X604597Y102905D01*
X604621Y102807D01*
X604642Y102708D01*
X604659Y102608D01*
X604672Y102507D01*
X604681Y102406D01*
X604687Y102305D01*
X604689Y102204D01*
X604689Y98592D01*
X604689Y112436D02*
X593852Y112436D01*
X604689Y112436D02*
X604689Y117855D01*
X602883Y117855D01*
X604689Y122494D02*
X591143Y122494D01*
X591039Y122492D01*
X590936Y122486D01*
X590832Y122476D01*
X590729Y122462D01*
X590627Y122444D01*
X590526Y122423D01*
X590425Y122397D01*
X590326Y122368D01*
X590227Y122335D01*
X590130Y122298D01*
X590035Y122257D01*
X589941Y122213D01*
X589849Y122165D01*
X589759Y122114D01*
X589670Y122059D01*
X589584Y122001D01*
X589501Y121939D01*
X589419Y121875D01*
X589341Y121807D01*
X589265Y121737D01*
X589191Y121664D01*
X589121Y121587D01*
X589053Y121509D01*
X588989Y121427D01*
X588927Y121344D01*
X588869Y121258D01*
X588814Y121169D01*
X588763Y121079D01*
X588715Y120987D01*
X588671Y120893D01*
X588630Y120798D01*
X588593Y120701D01*
X588560Y120602D01*
X588531Y120503D01*
X588505Y120402D01*
X588484Y120301D01*
X588466Y120199D01*
X588452Y120096D01*
X588442Y119992D01*
X588436Y119889D01*
X588434Y119785D01*
X588433Y119785D02*
X588433Y118882D01*
X609205Y122043D02*
X610108Y122043D01*
X610108Y122946D01*
X609205Y122946D01*
X609205Y122043D01*
X593852Y131734D02*
X593852Y136250D01*
X593852Y131734D02*
X593854Y131633D01*
X593860Y131532D01*
X593869Y131431D01*
X593882Y131330D01*
X593899Y131230D01*
X593920Y131131D01*
X593944Y131033D01*
X593972Y130936D01*
X594004Y130839D01*
X594039Y130744D01*
X594078Y130651D01*
X594120Y130559D01*
X594166Y130468D01*
X594215Y130380D01*
X594267Y130293D01*
X594323Y130208D01*
X594381Y130125D01*
X594443Y130045D01*
X594508Y129967D01*
X594575Y129891D01*
X594645Y129818D01*
X594718Y129748D01*
X594794Y129681D01*
X594872Y129616D01*
X594952Y129554D01*
X595035Y129496D01*
X595120Y129440D01*
X595207Y129388D01*
X595295Y129339D01*
X595386Y129293D01*
X595478Y129251D01*
X595571Y129212D01*
X595666Y129177D01*
X595763Y129145D01*
X595860Y129117D01*
X595958Y129093D01*
X596057Y129072D01*
X596157Y129055D01*
X596258Y129042D01*
X596359Y129033D01*
X596460Y129027D01*
X596561Y129025D01*
X601077Y129025D01*
X601196Y129027D01*
X601316Y129033D01*
X601435Y129043D01*
X601553Y129057D01*
X601672Y129074D01*
X601789Y129096D01*
X601906Y129121D01*
X602021Y129151D01*
X602136Y129184D01*
X602250Y129221D01*
X602362Y129261D01*
X602473Y129306D01*
X602582Y129354D01*
X602690Y129405D01*
X602796Y129460D01*
X602900Y129519D01*
X603002Y129581D01*
X603102Y129646D01*
X603200Y129715D01*
X603296Y129787D01*
X603389Y129862D01*
X603479Y129939D01*
X603567Y130020D01*
X603652Y130104D01*
X603734Y130191D01*
X603814Y130280D01*
X603890Y130372D01*
X603964Y130466D01*
X604034Y130563D01*
X604101Y130661D01*
X604165Y130762D01*
X604225Y130866D01*
X604282Y130971D01*
X604335Y131078D01*
X604385Y131186D01*
X604431Y131296D01*
X604473Y131408D01*
X604512Y131521D01*
X604547Y131635D01*
X604578Y131750D01*
X604606Y131867D01*
X604629Y131984D01*
X604649Y132101D01*
X604665Y132220D01*
X604677Y132339D01*
X604685Y132458D01*
X604689Y132577D01*
X604689Y132697D01*
X604685Y132816D01*
X604677Y132935D01*
X604665Y133054D01*
X604649Y133173D01*
X604629Y133290D01*
X604606Y133407D01*
X604578Y133524D01*
X604547Y133639D01*
X604512Y133753D01*
X604473Y133866D01*
X604431Y133978D01*
X604385Y134088D01*
X604335Y134196D01*
X604282Y134303D01*
X604225Y134408D01*
X604165Y134512D01*
X604101Y134613D01*
X604034Y134711D01*
X603964Y134808D01*
X603890Y134902D01*
X603814Y134994D01*
X603734Y135083D01*
X603652Y135170D01*
X603567Y135254D01*
X603479Y135335D01*
X603389Y135412D01*
X603296Y135487D01*
X603200Y135559D01*
X603102Y135628D01*
X603002Y135693D01*
X602900Y135755D01*
X602796Y135814D01*
X602690Y135869D01*
X602582Y135920D01*
X602473Y135968D01*
X602362Y136013D01*
X602250Y136053D01*
X602136Y136090D01*
X602021Y136123D01*
X601906Y136153D01*
X601789Y136178D01*
X601672Y136200D01*
X601553Y136217D01*
X601435Y136231D01*
X601316Y136241D01*
X601196Y136247D01*
X601077Y136249D01*
X601077Y136250D02*
X599271Y136250D01*
X599271Y129025D01*
X604689Y141274D02*
X604689Y146693D01*
X610108Y143081D02*
X596561Y143081D01*
X596460Y143083D01*
X596359Y143089D01*
X596258Y143098D01*
X596157Y143111D01*
X596057Y143128D01*
X595958Y143149D01*
X595860Y143173D01*
X595763Y143201D01*
X595666Y143233D01*
X595571Y143268D01*
X595478Y143307D01*
X595386Y143349D01*
X595295Y143395D01*
X595207Y143444D01*
X595120Y143496D01*
X595035Y143552D01*
X594952Y143610D01*
X594872Y143672D01*
X594794Y143737D01*
X594718Y143804D01*
X594645Y143874D01*
X594575Y143947D01*
X594508Y144023D01*
X594443Y144101D01*
X594381Y144181D01*
X594323Y144264D01*
X594267Y144349D01*
X594215Y144436D01*
X594166Y144524D01*
X594120Y144615D01*
X594078Y144707D01*
X594039Y144800D01*
X594004Y144895D01*
X593972Y144992D01*
X593944Y145089D01*
X593920Y145187D01*
X593899Y145286D01*
X593882Y145386D01*
X593869Y145487D01*
X593860Y145588D01*
X593854Y145689D01*
X593852Y145790D01*
X593852Y146693D01*
X600174Y155559D02*
X600174Y159623D01*
X600174Y155559D02*
X600172Y155447D01*
X600166Y155336D01*
X600156Y155225D01*
X600143Y155114D01*
X600125Y155004D01*
X600103Y154895D01*
X600078Y154786D01*
X600049Y154678D01*
X600016Y154572D01*
X599979Y154466D01*
X599939Y154362D01*
X599895Y154260D01*
X599847Y154159D01*
X599796Y154060D01*
X599741Y153962D01*
X599683Y153867D01*
X599622Y153774D01*
X599557Y153683D01*
X599489Y153594D01*
X599418Y153508D01*
X599345Y153425D01*
X599268Y153344D01*
X599188Y153265D01*
X599106Y153190D01*
X599021Y153118D01*
X598934Y153048D01*
X598844Y152982D01*
X598752Y152919D01*
X598657Y152859D01*
X598561Y152803D01*
X598463Y152750D01*
X598363Y152701D01*
X598261Y152655D01*
X598158Y152613D01*
X598053Y152574D01*
X597947Y152539D01*
X597840Y152508D01*
X597732Y152481D01*
X597623Y152457D01*
X597513Y152438D01*
X597403Y152422D01*
X597292Y152410D01*
X597180Y152402D01*
X597069Y152398D01*
X596957Y152398D01*
X596846Y152402D01*
X596734Y152410D01*
X596623Y152422D01*
X596513Y152438D01*
X596403Y152457D01*
X596294Y152481D01*
X596186Y152508D01*
X596079Y152539D01*
X595973Y152574D01*
X595868Y152613D01*
X595765Y152655D01*
X595663Y152701D01*
X595563Y152750D01*
X595465Y152803D01*
X595369Y152859D01*
X595274Y152919D01*
X595182Y152982D01*
X595092Y153048D01*
X595005Y153118D01*
X594920Y153190D01*
X594838Y153265D01*
X594758Y153344D01*
X594681Y153425D01*
X594608Y153508D01*
X594537Y153594D01*
X594469Y153683D01*
X594404Y153774D01*
X594343Y153867D01*
X594285Y153962D01*
X594230Y154060D01*
X594179Y154159D01*
X594131Y154260D01*
X594087Y154362D01*
X594047Y154466D01*
X594010Y154572D01*
X593977Y154678D01*
X593948Y154786D01*
X593923Y154895D01*
X593901Y155004D01*
X593883Y155114D01*
X593870Y155225D01*
X593860Y155336D01*
X593854Y155447D01*
X593852Y155559D01*
X593852Y159623D01*
X601980Y159623D01*
X602081Y159621D01*
X602182Y159615D01*
X602283Y159606D01*
X602384Y159593D01*
X602484Y159576D01*
X602583Y159555D01*
X602681Y159531D01*
X602778Y159503D01*
X602875Y159471D01*
X602970Y159436D01*
X603063Y159397D01*
X603155Y159355D01*
X603246Y159309D01*
X603335Y159260D01*
X603421Y159208D01*
X603506Y159152D01*
X603589Y159094D01*
X603669Y159032D01*
X603747Y158967D01*
X603823Y158900D01*
X603896Y158830D01*
X603966Y158757D01*
X604033Y158681D01*
X604098Y158603D01*
X604160Y158523D01*
X604218Y158440D01*
X604274Y158355D01*
X604326Y158269D01*
X604375Y158180D01*
X604421Y158089D01*
X604463Y157997D01*
X604502Y157904D01*
X604537Y157809D01*
X604569Y157712D01*
X604597Y157615D01*
X604621Y157517D01*
X604642Y157418D01*
X604659Y157318D01*
X604672Y157217D01*
X604681Y157116D01*
X604687Y157015D01*
X604689Y156914D01*
X604689Y153301D01*
X610108Y182028D02*
X593852Y182028D01*
X593852Y177512D01*
X593854Y177411D01*
X593860Y177310D01*
X593869Y177209D01*
X593882Y177108D01*
X593899Y177008D01*
X593920Y176909D01*
X593944Y176811D01*
X593972Y176714D01*
X594004Y176617D01*
X594039Y176522D01*
X594078Y176429D01*
X594120Y176337D01*
X594166Y176246D01*
X594215Y176158D01*
X594267Y176071D01*
X594323Y175986D01*
X594381Y175903D01*
X594443Y175823D01*
X594508Y175745D01*
X594575Y175669D01*
X594645Y175596D01*
X594718Y175526D01*
X594794Y175459D01*
X594872Y175394D01*
X594952Y175332D01*
X595035Y175274D01*
X595120Y175218D01*
X595207Y175166D01*
X595295Y175117D01*
X595386Y175071D01*
X595478Y175029D01*
X595571Y174990D01*
X595666Y174955D01*
X595763Y174923D01*
X595860Y174895D01*
X595958Y174871D01*
X596057Y174850D01*
X596157Y174833D01*
X596258Y174820D01*
X596359Y174811D01*
X596460Y174805D01*
X596561Y174803D01*
X601980Y174803D01*
X602081Y174805D01*
X602182Y174811D01*
X602283Y174820D01*
X602384Y174833D01*
X602484Y174850D01*
X602583Y174871D01*
X602681Y174895D01*
X602778Y174923D01*
X602875Y174955D01*
X602970Y174990D01*
X603063Y175029D01*
X603155Y175071D01*
X603246Y175117D01*
X603335Y175166D01*
X603421Y175218D01*
X603506Y175274D01*
X603589Y175332D01*
X603669Y175394D01*
X603747Y175459D01*
X603823Y175526D01*
X603896Y175596D01*
X603966Y175669D01*
X604033Y175745D01*
X604098Y175823D01*
X604160Y175903D01*
X604218Y175986D01*
X604274Y176071D01*
X604326Y176157D01*
X604375Y176246D01*
X604421Y176337D01*
X604463Y176429D01*
X604502Y176522D01*
X604537Y176617D01*
X604569Y176714D01*
X604597Y176811D01*
X604621Y176909D01*
X604642Y177008D01*
X604659Y177108D01*
X604672Y177209D01*
X604681Y177310D01*
X604687Y177411D01*
X604689Y177512D01*
X604689Y182028D01*
X593852Y191654D02*
X593852Y196169D01*
X593852Y191654D02*
X593854Y191553D01*
X593860Y191452D01*
X593869Y191351D01*
X593882Y191250D01*
X593899Y191150D01*
X593920Y191051D01*
X593944Y190953D01*
X593972Y190856D01*
X594004Y190759D01*
X594039Y190664D01*
X594078Y190571D01*
X594120Y190479D01*
X594166Y190388D01*
X594215Y190300D01*
X594267Y190213D01*
X594323Y190128D01*
X594381Y190045D01*
X594443Y189965D01*
X594508Y189887D01*
X594575Y189811D01*
X594645Y189738D01*
X594718Y189668D01*
X594794Y189601D01*
X594872Y189536D01*
X594952Y189474D01*
X595035Y189416D01*
X595120Y189360D01*
X595207Y189308D01*
X595295Y189259D01*
X595386Y189213D01*
X595478Y189171D01*
X595571Y189132D01*
X595666Y189097D01*
X595763Y189065D01*
X595860Y189037D01*
X595958Y189013D01*
X596057Y188992D01*
X596157Y188975D01*
X596258Y188962D01*
X596359Y188953D01*
X596460Y188947D01*
X596561Y188945D01*
X596561Y188944D02*
X601077Y188944D01*
X601077Y188945D02*
X601196Y188947D01*
X601316Y188953D01*
X601435Y188963D01*
X601553Y188977D01*
X601672Y188994D01*
X601789Y189016D01*
X601906Y189041D01*
X602021Y189071D01*
X602136Y189104D01*
X602250Y189141D01*
X602362Y189181D01*
X602473Y189226D01*
X602582Y189274D01*
X602690Y189325D01*
X602796Y189380D01*
X602900Y189439D01*
X603002Y189501D01*
X603102Y189566D01*
X603200Y189635D01*
X603296Y189707D01*
X603389Y189782D01*
X603479Y189859D01*
X603567Y189940D01*
X603652Y190024D01*
X603734Y190111D01*
X603814Y190200D01*
X603890Y190292D01*
X603964Y190386D01*
X604034Y190483D01*
X604101Y190581D01*
X604165Y190682D01*
X604225Y190786D01*
X604282Y190891D01*
X604335Y190998D01*
X604385Y191106D01*
X604431Y191216D01*
X604473Y191328D01*
X604512Y191441D01*
X604547Y191555D01*
X604578Y191670D01*
X604606Y191787D01*
X604629Y191904D01*
X604649Y192021D01*
X604665Y192140D01*
X604677Y192259D01*
X604685Y192378D01*
X604689Y192497D01*
X604689Y192617D01*
X604685Y192736D01*
X604677Y192855D01*
X604665Y192974D01*
X604649Y193093D01*
X604629Y193210D01*
X604606Y193327D01*
X604578Y193444D01*
X604547Y193559D01*
X604512Y193673D01*
X604473Y193786D01*
X604431Y193898D01*
X604385Y194008D01*
X604335Y194116D01*
X604282Y194223D01*
X604225Y194328D01*
X604165Y194432D01*
X604101Y194533D01*
X604034Y194631D01*
X603964Y194728D01*
X603890Y194822D01*
X603814Y194914D01*
X603734Y195003D01*
X603652Y195090D01*
X603567Y195174D01*
X603479Y195255D01*
X603389Y195332D01*
X603296Y195407D01*
X603200Y195479D01*
X603102Y195548D01*
X603002Y195613D01*
X602900Y195675D01*
X602796Y195734D01*
X602690Y195789D01*
X602582Y195840D01*
X602473Y195888D01*
X602362Y195933D01*
X602250Y195973D01*
X602136Y196010D01*
X602021Y196043D01*
X601906Y196073D01*
X601789Y196098D01*
X601672Y196120D01*
X601553Y196137D01*
X601435Y196151D01*
X601316Y196161D01*
X601196Y196167D01*
X601077Y196169D01*
X599271Y196169D01*
X599271Y188944D01*
X593852Y212356D02*
X610108Y212356D01*
X593852Y210550D02*
X593852Y214162D01*
X610108Y214162D02*
X610108Y210550D01*
X604689Y220728D02*
X593852Y220728D01*
X604689Y220728D02*
X604689Y225243D01*
X604687Y225344D01*
X604681Y225445D01*
X604672Y225546D01*
X604659Y225647D01*
X604642Y225747D01*
X604621Y225846D01*
X604597Y225944D01*
X604569Y226041D01*
X604537Y226138D01*
X604502Y226233D01*
X604463Y226326D01*
X604421Y226418D01*
X604375Y226509D01*
X604326Y226598D01*
X604274Y226684D01*
X604218Y226769D01*
X604160Y226852D01*
X604098Y226932D01*
X604033Y227010D01*
X603966Y227086D01*
X603896Y227159D01*
X603823Y227229D01*
X603747Y227296D01*
X603669Y227361D01*
X603589Y227423D01*
X603506Y227481D01*
X603421Y227537D01*
X603335Y227589D01*
X603246Y227638D01*
X603155Y227684D01*
X603063Y227726D01*
X602970Y227765D01*
X602875Y227800D01*
X602778Y227832D01*
X602681Y227860D01*
X602583Y227884D01*
X602484Y227905D01*
X602384Y227922D01*
X602283Y227935D01*
X602182Y227944D01*
X602081Y227950D01*
X601980Y227952D01*
X601980Y227953D02*
X593852Y227953D01*
X604689Y233498D02*
X604689Y238917D01*
X610108Y235305D02*
X596561Y235305D01*
X596460Y235307D01*
X596359Y235313D01*
X596258Y235322D01*
X596157Y235335D01*
X596057Y235352D01*
X595958Y235373D01*
X595860Y235397D01*
X595763Y235425D01*
X595666Y235457D01*
X595571Y235492D01*
X595478Y235531D01*
X595386Y235573D01*
X595295Y235619D01*
X595207Y235668D01*
X595120Y235720D01*
X595035Y235776D01*
X594952Y235834D01*
X594872Y235896D01*
X594794Y235961D01*
X594718Y236028D01*
X594645Y236098D01*
X594575Y236171D01*
X594508Y236247D01*
X594443Y236325D01*
X594381Y236405D01*
X594323Y236488D01*
X594267Y236573D01*
X594215Y236660D01*
X594166Y236748D01*
X594120Y236839D01*
X594078Y236931D01*
X594039Y237024D01*
X594004Y237119D01*
X593972Y237216D01*
X593944Y237313D01*
X593920Y237411D01*
X593899Y237510D01*
X593882Y237610D01*
X593869Y237711D01*
X593860Y237812D01*
X593854Y237913D01*
X593852Y238014D01*
X593852Y238917D01*
X593852Y247405D02*
X593852Y251920D01*
X593852Y247405D02*
X593854Y247304D01*
X593860Y247203D01*
X593869Y247102D01*
X593882Y247001D01*
X593899Y246901D01*
X593920Y246802D01*
X593944Y246704D01*
X593972Y246607D01*
X594004Y246510D01*
X594039Y246415D01*
X594078Y246322D01*
X594120Y246230D01*
X594166Y246139D01*
X594215Y246051D01*
X594267Y245964D01*
X594323Y245879D01*
X594381Y245796D01*
X594443Y245716D01*
X594508Y245638D01*
X594575Y245562D01*
X594645Y245489D01*
X594718Y245419D01*
X594794Y245352D01*
X594872Y245287D01*
X594952Y245225D01*
X595035Y245167D01*
X595120Y245111D01*
X595207Y245059D01*
X595295Y245010D01*
X595386Y244964D01*
X595478Y244922D01*
X595571Y244883D01*
X595666Y244848D01*
X595763Y244816D01*
X595860Y244788D01*
X595958Y244764D01*
X596057Y244743D01*
X596157Y244726D01*
X596258Y244713D01*
X596359Y244704D01*
X596460Y244698D01*
X596561Y244696D01*
X601077Y244696D01*
X601196Y244698D01*
X601316Y244704D01*
X601435Y244714D01*
X601553Y244728D01*
X601672Y244745D01*
X601789Y244767D01*
X601906Y244792D01*
X602021Y244822D01*
X602136Y244855D01*
X602250Y244892D01*
X602362Y244932D01*
X602473Y244977D01*
X602582Y245025D01*
X602690Y245076D01*
X602796Y245131D01*
X602900Y245190D01*
X603002Y245252D01*
X603102Y245317D01*
X603200Y245386D01*
X603296Y245458D01*
X603389Y245533D01*
X603479Y245610D01*
X603567Y245691D01*
X603652Y245775D01*
X603734Y245862D01*
X603814Y245951D01*
X603890Y246043D01*
X603964Y246137D01*
X604034Y246234D01*
X604101Y246332D01*
X604165Y246433D01*
X604225Y246537D01*
X604282Y246642D01*
X604335Y246749D01*
X604385Y246857D01*
X604431Y246967D01*
X604473Y247079D01*
X604512Y247192D01*
X604547Y247306D01*
X604578Y247421D01*
X604606Y247538D01*
X604629Y247655D01*
X604649Y247772D01*
X604665Y247891D01*
X604677Y248010D01*
X604685Y248129D01*
X604689Y248248D01*
X604689Y248368D01*
X604685Y248487D01*
X604677Y248606D01*
X604665Y248725D01*
X604649Y248844D01*
X604629Y248961D01*
X604606Y249078D01*
X604578Y249195D01*
X604547Y249310D01*
X604512Y249424D01*
X604473Y249537D01*
X604431Y249649D01*
X604385Y249759D01*
X604335Y249867D01*
X604282Y249974D01*
X604225Y250079D01*
X604165Y250183D01*
X604101Y250284D01*
X604034Y250382D01*
X603964Y250479D01*
X603890Y250573D01*
X603814Y250665D01*
X603734Y250754D01*
X603652Y250841D01*
X603567Y250925D01*
X603479Y251006D01*
X603389Y251083D01*
X603296Y251158D01*
X603200Y251230D01*
X603102Y251299D01*
X603002Y251364D01*
X602900Y251426D01*
X602796Y251485D01*
X602690Y251540D01*
X602582Y251591D01*
X602473Y251639D01*
X602362Y251684D01*
X602250Y251724D01*
X602136Y251761D01*
X602021Y251794D01*
X601906Y251824D01*
X601789Y251849D01*
X601672Y251871D01*
X601553Y251888D01*
X601435Y251902D01*
X601316Y251912D01*
X601196Y251918D01*
X601077Y251920D01*
X599271Y251920D01*
X599271Y244696D01*
X604689Y258848D02*
X593852Y258848D01*
X604689Y258848D02*
X604689Y264267D01*
X602883Y264267D01*
X607399Y270072D02*
X593852Y270072D01*
X607399Y270073D02*
X607503Y270075D01*
X607606Y270081D01*
X607710Y270091D01*
X607813Y270105D01*
X607915Y270123D01*
X608016Y270144D01*
X608117Y270170D01*
X608216Y270199D01*
X608315Y270232D01*
X608412Y270269D01*
X608507Y270310D01*
X608601Y270354D01*
X608693Y270402D01*
X608783Y270453D01*
X608872Y270508D01*
X608958Y270566D01*
X609041Y270628D01*
X609123Y270692D01*
X609201Y270760D01*
X609277Y270830D01*
X609351Y270903D01*
X609421Y270980D01*
X609489Y271058D01*
X609553Y271140D01*
X609615Y271223D01*
X609673Y271309D01*
X609728Y271398D01*
X609779Y271488D01*
X609827Y271580D01*
X609871Y271674D01*
X609912Y271769D01*
X609949Y271866D01*
X609982Y271965D01*
X610011Y272064D01*
X610037Y272165D01*
X610058Y272266D01*
X610076Y272368D01*
X610090Y272471D01*
X610100Y272575D01*
X610106Y272678D01*
X610108Y272782D01*
X610108Y273685D01*
X604689Y273685D02*
X604689Y268266D01*
X600174Y281130D02*
X600174Y285194D01*
X600174Y281130D02*
X600172Y281018D01*
X600166Y280907D01*
X600156Y280796D01*
X600143Y280685D01*
X600125Y280575D01*
X600103Y280466D01*
X600078Y280357D01*
X600049Y280249D01*
X600016Y280143D01*
X599979Y280037D01*
X599939Y279933D01*
X599895Y279831D01*
X599847Y279730D01*
X599796Y279631D01*
X599741Y279533D01*
X599683Y279438D01*
X599622Y279345D01*
X599557Y279254D01*
X599489Y279165D01*
X599418Y279079D01*
X599345Y278996D01*
X599268Y278915D01*
X599188Y278836D01*
X599106Y278761D01*
X599021Y278689D01*
X598934Y278619D01*
X598844Y278553D01*
X598752Y278490D01*
X598657Y278430D01*
X598561Y278374D01*
X598463Y278321D01*
X598363Y278272D01*
X598261Y278226D01*
X598158Y278184D01*
X598053Y278145D01*
X597947Y278110D01*
X597840Y278079D01*
X597732Y278052D01*
X597623Y278028D01*
X597513Y278009D01*
X597403Y277993D01*
X597292Y277981D01*
X597180Y277973D01*
X597069Y277969D01*
X596957Y277969D01*
X596846Y277973D01*
X596734Y277981D01*
X596623Y277993D01*
X596513Y278009D01*
X596403Y278028D01*
X596294Y278052D01*
X596186Y278079D01*
X596079Y278110D01*
X595973Y278145D01*
X595868Y278184D01*
X595765Y278226D01*
X595663Y278272D01*
X595563Y278321D01*
X595465Y278374D01*
X595369Y278430D01*
X595274Y278490D01*
X595182Y278553D01*
X595092Y278619D01*
X595005Y278689D01*
X594920Y278761D01*
X594838Y278836D01*
X594758Y278915D01*
X594681Y278996D01*
X594608Y279079D01*
X594537Y279165D01*
X594469Y279254D01*
X594404Y279345D01*
X594343Y279438D01*
X594285Y279533D01*
X594230Y279631D01*
X594179Y279730D01*
X594131Y279831D01*
X594087Y279933D01*
X594047Y280037D01*
X594010Y280143D01*
X593977Y280249D01*
X593948Y280357D01*
X593923Y280466D01*
X593901Y280575D01*
X593883Y280685D01*
X593870Y280796D01*
X593860Y280907D01*
X593854Y281018D01*
X593852Y281130D01*
X593852Y285194D01*
X601980Y285194D01*
X601980Y285193D02*
X602081Y285191D01*
X602182Y285185D01*
X602283Y285176D01*
X602384Y285163D01*
X602484Y285146D01*
X602583Y285125D01*
X602681Y285101D01*
X602778Y285073D01*
X602875Y285041D01*
X602970Y285006D01*
X603063Y284967D01*
X603155Y284925D01*
X603246Y284879D01*
X603335Y284830D01*
X603421Y284778D01*
X603506Y284722D01*
X603589Y284664D01*
X603669Y284602D01*
X603747Y284537D01*
X603823Y284470D01*
X603896Y284400D01*
X603966Y284327D01*
X604033Y284251D01*
X604098Y284173D01*
X604160Y284093D01*
X604218Y284010D01*
X604274Y283925D01*
X604326Y283839D01*
X604375Y283750D01*
X604421Y283659D01*
X604463Y283567D01*
X604502Y283474D01*
X604537Y283379D01*
X604569Y283282D01*
X604597Y283185D01*
X604621Y283087D01*
X604642Y282988D01*
X604659Y282888D01*
X604672Y282787D01*
X604681Y282686D01*
X604687Y282585D01*
X604689Y282484D01*
X604689Y278872D01*
X604689Y291589D02*
X604689Y298814D01*
X593852Y291589D01*
X593852Y298814D01*
X593852Y312188D02*
X610108Y317606D01*
X593852Y323025D01*
X597916Y321670D02*
X597916Y313542D01*
X593852Y329189D02*
X604689Y329189D01*
X604689Y334608D01*
X602883Y334608D01*
X610108Y346676D02*
X593852Y346676D01*
X593852Y342161D01*
X593854Y342060D01*
X593860Y341959D01*
X593869Y341858D01*
X593882Y341757D01*
X593899Y341657D01*
X593920Y341558D01*
X593944Y341460D01*
X593972Y341363D01*
X594004Y341266D01*
X594039Y341171D01*
X594078Y341078D01*
X594120Y340986D01*
X594166Y340895D01*
X594215Y340807D01*
X594267Y340720D01*
X594323Y340635D01*
X594381Y340552D01*
X594443Y340472D01*
X594508Y340394D01*
X594575Y340318D01*
X594645Y340245D01*
X594718Y340175D01*
X594794Y340108D01*
X594872Y340043D01*
X594952Y339981D01*
X595035Y339923D01*
X595120Y339867D01*
X595207Y339815D01*
X595295Y339766D01*
X595386Y339720D01*
X595478Y339678D01*
X595571Y339639D01*
X595666Y339604D01*
X595763Y339572D01*
X595860Y339544D01*
X595958Y339520D01*
X596057Y339499D01*
X596157Y339482D01*
X596258Y339469D01*
X596359Y339460D01*
X596460Y339454D01*
X596561Y339452D01*
X601980Y339452D01*
X602081Y339454D01*
X602182Y339460D01*
X602283Y339469D01*
X602384Y339482D01*
X602484Y339499D01*
X602583Y339520D01*
X602681Y339544D01*
X602778Y339572D01*
X602875Y339604D01*
X602970Y339639D01*
X603063Y339678D01*
X603155Y339720D01*
X603246Y339766D01*
X603335Y339815D01*
X603421Y339867D01*
X603506Y339923D01*
X603589Y339981D01*
X603669Y340043D01*
X603747Y340108D01*
X603823Y340175D01*
X603896Y340245D01*
X603966Y340318D01*
X604033Y340394D01*
X604098Y340472D01*
X604160Y340552D01*
X604218Y340635D01*
X604274Y340720D01*
X604326Y340807D01*
X604375Y340895D01*
X604421Y340986D01*
X604463Y341078D01*
X604502Y341171D01*
X604537Y341266D01*
X604569Y341363D01*
X604597Y341460D01*
X604621Y341558D01*
X604642Y341657D01*
X604659Y341757D01*
X604672Y341858D01*
X604681Y341959D01*
X604687Y342060D01*
X604689Y342161D01*
X604689Y346676D01*
X604689Y354114D02*
X596561Y354114D01*
X596460Y354116D01*
X596359Y354122D01*
X596258Y354131D01*
X596157Y354144D01*
X596057Y354161D01*
X595958Y354182D01*
X595860Y354206D01*
X595763Y354234D01*
X595666Y354266D01*
X595571Y354301D01*
X595478Y354340D01*
X595386Y354382D01*
X595295Y354428D01*
X595207Y354477D01*
X595120Y354529D01*
X595035Y354585D01*
X594952Y354643D01*
X594872Y354705D01*
X594794Y354770D01*
X594718Y354837D01*
X594645Y354907D01*
X594575Y354980D01*
X594508Y355056D01*
X594443Y355134D01*
X594381Y355214D01*
X594323Y355297D01*
X594267Y355382D01*
X594215Y355469D01*
X594166Y355557D01*
X594120Y355648D01*
X594078Y355740D01*
X594039Y355833D01*
X594004Y355928D01*
X593972Y356025D01*
X593944Y356122D01*
X593920Y356220D01*
X593899Y356319D01*
X593882Y356419D01*
X593869Y356520D01*
X593860Y356621D01*
X593854Y356722D01*
X593852Y356823D01*
X593852Y361339D01*
X604689Y361339D01*
X604689Y368147D02*
X593852Y368147D01*
X609205Y367696D02*
X610108Y367696D01*
X610108Y368599D01*
X609205Y368599D01*
X609205Y367696D01*
X604689Y374956D02*
X593852Y374956D01*
X604689Y374956D02*
X604689Y379471D01*
X604687Y379572D01*
X604681Y379673D01*
X604672Y379774D01*
X604659Y379875D01*
X604642Y379975D01*
X604621Y380074D01*
X604597Y380172D01*
X604569Y380269D01*
X604537Y380366D01*
X604502Y380461D01*
X604463Y380554D01*
X604421Y380646D01*
X604375Y380737D01*
X604326Y380826D01*
X604274Y380912D01*
X604218Y380997D01*
X604160Y381080D01*
X604098Y381160D01*
X604033Y381238D01*
X603966Y381314D01*
X603896Y381387D01*
X603823Y381457D01*
X603747Y381524D01*
X603669Y381589D01*
X603589Y381651D01*
X603506Y381709D01*
X603421Y381765D01*
X603335Y381817D01*
X603246Y381866D01*
X603155Y381912D01*
X603063Y381954D01*
X602970Y381993D01*
X602875Y382028D01*
X602778Y382060D01*
X602681Y382088D01*
X602583Y382112D01*
X602484Y382133D01*
X602384Y382150D01*
X602283Y382163D01*
X602182Y382172D01*
X602081Y382178D01*
X601980Y382180D01*
X593852Y382180D01*
X597464Y389024D02*
X601077Y389024D01*
X601196Y389026D01*
X601316Y389032D01*
X601435Y389042D01*
X601553Y389056D01*
X601672Y389073D01*
X601789Y389095D01*
X601906Y389120D01*
X602021Y389150D01*
X602136Y389183D01*
X602250Y389220D01*
X602362Y389260D01*
X602473Y389305D01*
X602582Y389353D01*
X602690Y389404D01*
X602796Y389459D01*
X602900Y389518D01*
X603002Y389580D01*
X603102Y389645D01*
X603200Y389714D01*
X603296Y389786D01*
X603389Y389861D01*
X603479Y389938D01*
X603567Y390019D01*
X603652Y390103D01*
X603734Y390190D01*
X603814Y390279D01*
X603890Y390371D01*
X603964Y390465D01*
X604034Y390562D01*
X604101Y390660D01*
X604165Y390761D01*
X604225Y390865D01*
X604282Y390970D01*
X604335Y391077D01*
X604385Y391185D01*
X604431Y391295D01*
X604473Y391407D01*
X604512Y391520D01*
X604547Y391634D01*
X604578Y391749D01*
X604606Y391866D01*
X604629Y391983D01*
X604649Y392100D01*
X604665Y392219D01*
X604677Y392338D01*
X604685Y392457D01*
X604689Y392576D01*
X604689Y392696D01*
X604685Y392815D01*
X604677Y392934D01*
X604665Y393053D01*
X604649Y393172D01*
X604629Y393289D01*
X604606Y393406D01*
X604578Y393523D01*
X604547Y393638D01*
X604512Y393752D01*
X604473Y393865D01*
X604431Y393977D01*
X604385Y394087D01*
X604335Y394195D01*
X604282Y394302D01*
X604225Y394407D01*
X604165Y394511D01*
X604101Y394612D01*
X604034Y394710D01*
X603964Y394807D01*
X603890Y394901D01*
X603814Y394993D01*
X603734Y395082D01*
X603652Y395169D01*
X603567Y395253D01*
X603479Y395334D01*
X603389Y395411D01*
X603296Y395486D01*
X603200Y395558D01*
X603102Y395627D01*
X603002Y395692D01*
X602900Y395754D01*
X602796Y395813D01*
X602690Y395868D01*
X602582Y395919D01*
X602473Y395967D01*
X602362Y396012D01*
X602250Y396052D01*
X602136Y396089D01*
X602021Y396122D01*
X601906Y396152D01*
X601789Y396177D01*
X601672Y396199D01*
X601553Y396216D01*
X601435Y396230D01*
X601316Y396240D01*
X601196Y396246D01*
X601077Y396248D01*
X601077Y396249D02*
X597464Y396249D01*
X597464Y396248D02*
X597345Y396246D01*
X597225Y396240D01*
X597106Y396230D01*
X596988Y396216D01*
X596869Y396199D01*
X596752Y396177D01*
X596635Y396152D01*
X596520Y396122D01*
X596405Y396089D01*
X596291Y396052D01*
X596179Y396012D01*
X596068Y395967D01*
X595959Y395919D01*
X595851Y395868D01*
X595745Y395813D01*
X595641Y395754D01*
X595539Y395692D01*
X595439Y395627D01*
X595341Y395558D01*
X595245Y395486D01*
X595152Y395411D01*
X595062Y395334D01*
X594974Y395253D01*
X594889Y395169D01*
X594807Y395082D01*
X594727Y394993D01*
X594651Y394901D01*
X594577Y394807D01*
X594507Y394710D01*
X594440Y394612D01*
X594376Y394511D01*
X594316Y394407D01*
X594259Y394302D01*
X594206Y394195D01*
X594156Y394087D01*
X594110Y393977D01*
X594068Y393865D01*
X594029Y393752D01*
X593994Y393638D01*
X593963Y393523D01*
X593935Y393406D01*
X593912Y393289D01*
X593892Y393172D01*
X593876Y393053D01*
X593864Y392934D01*
X593856Y392815D01*
X593852Y392696D01*
X593852Y392576D01*
X593856Y392457D01*
X593864Y392338D01*
X593876Y392219D01*
X593892Y392100D01*
X593912Y391983D01*
X593935Y391866D01*
X593963Y391749D01*
X593994Y391634D01*
X594029Y391520D01*
X594068Y391407D01*
X594110Y391295D01*
X594156Y391185D01*
X594206Y391077D01*
X594259Y390970D01*
X594316Y390865D01*
X594376Y390761D01*
X594440Y390660D01*
X594507Y390562D01*
X594577Y390465D01*
X594651Y390371D01*
X594727Y390279D01*
X594807Y390190D01*
X594889Y390103D01*
X594974Y390019D01*
X595062Y389938D01*
X595152Y389861D01*
X595245Y389786D01*
X595341Y389714D01*
X595439Y389645D01*
X595539Y389580D01*
X595641Y389518D01*
X595745Y389459D01*
X595851Y389404D01*
X595959Y389353D01*
X596068Y389305D01*
X596179Y389260D01*
X596291Y389220D01*
X596405Y389183D01*
X596520Y389150D01*
X596635Y389120D01*
X596752Y389095D01*
X596869Y389073D01*
X596988Y389056D01*
X597106Y389042D01*
X597225Y389032D01*
X597345Y389026D01*
X597464Y389024D01*
X567182Y86924D02*
X578019Y83312D01*
X578019Y90537D02*
X567182Y86924D01*
X567182Y99047D02*
X567182Y103563D01*
X567182Y99047D02*
X567184Y98946D01*
X567190Y98845D01*
X567199Y98744D01*
X567212Y98643D01*
X567229Y98543D01*
X567250Y98444D01*
X567274Y98346D01*
X567302Y98249D01*
X567334Y98152D01*
X567369Y98057D01*
X567408Y97964D01*
X567450Y97872D01*
X567496Y97781D01*
X567545Y97693D01*
X567597Y97606D01*
X567653Y97521D01*
X567711Y97438D01*
X567773Y97358D01*
X567838Y97280D01*
X567905Y97204D01*
X567975Y97131D01*
X568048Y97061D01*
X568124Y96994D01*
X568202Y96929D01*
X568282Y96867D01*
X568365Y96809D01*
X568450Y96753D01*
X568537Y96701D01*
X568625Y96652D01*
X568716Y96606D01*
X568808Y96564D01*
X568901Y96525D01*
X568996Y96490D01*
X569093Y96458D01*
X569190Y96430D01*
X569288Y96406D01*
X569387Y96385D01*
X569487Y96368D01*
X569588Y96355D01*
X569689Y96346D01*
X569790Y96340D01*
X569891Y96338D01*
X574407Y96338D01*
X574526Y96340D01*
X574646Y96346D01*
X574765Y96356D01*
X574883Y96370D01*
X575002Y96387D01*
X575119Y96409D01*
X575236Y96434D01*
X575351Y96464D01*
X575466Y96497D01*
X575580Y96534D01*
X575692Y96574D01*
X575803Y96619D01*
X575912Y96667D01*
X576020Y96718D01*
X576126Y96773D01*
X576230Y96832D01*
X576332Y96894D01*
X576432Y96959D01*
X576530Y97028D01*
X576626Y97100D01*
X576719Y97175D01*
X576809Y97252D01*
X576897Y97333D01*
X576982Y97417D01*
X577064Y97504D01*
X577144Y97593D01*
X577220Y97685D01*
X577294Y97779D01*
X577364Y97876D01*
X577431Y97974D01*
X577495Y98075D01*
X577555Y98179D01*
X577612Y98284D01*
X577665Y98391D01*
X577715Y98499D01*
X577761Y98609D01*
X577803Y98721D01*
X577842Y98834D01*
X577877Y98948D01*
X577908Y99063D01*
X577936Y99180D01*
X577959Y99297D01*
X577979Y99414D01*
X577995Y99533D01*
X578007Y99652D01*
X578015Y99771D01*
X578019Y99890D01*
X578019Y100010D01*
X578015Y100129D01*
X578007Y100248D01*
X577995Y100367D01*
X577979Y100486D01*
X577959Y100603D01*
X577936Y100720D01*
X577908Y100837D01*
X577877Y100952D01*
X577842Y101066D01*
X577803Y101179D01*
X577761Y101291D01*
X577715Y101401D01*
X577665Y101509D01*
X577612Y101616D01*
X577555Y101721D01*
X577495Y101825D01*
X577431Y101926D01*
X577364Y102024D01*
X577294Y102121D01*
X577220Y102215D01*
X577144Y102307D01*
X577064Y102396D01*
X576982Y102483D01*
X576897Y102567D01*
X576809Y102648D01*
X576719Y102725D01*
X576626Y102800D01*
X576530Y102872D01*
X576432Y102941D01*
X576332Y103006D01*
X576230Y103068D01*
X576126Y103127D01*
X576020Y103182D01*
X575912Y103233D01*
X575803Y103281D01*
X575692Y103326D01*
X575580Y103366D01*
X575466Y103403D01*
X575351Y103436D01*
X575236Y103466D01*
X575119Y103491D01*
X575002Y103513D01*
X574883Y103530D01*
X574765Y103544D01*
X574646Y103554D01*
X574526Y103560D01*
X574407Y103562D01*
X574407Y103563D02*
X572601Y103563D01*
X572601Y96338D01*
X567182Y110491D02*
X578019Y110491D01*
X578019Y115910D01*
X576213Y115910D01*
X573504Y122182D02*
X571698Y126697D01*
X573504Y122181D02*
X573541Y122093D01*
X573582Y122007D01*
X573626Y121922D01*
X573674Y121839D01*
X573725Y121759D01*
X573779Y121680D01*
X573837Y121604D01*
X573897Y121530D01*
X573961Y121458D01*
X574027Y121390D01*
X574097Y121324D01*
X574168Y121261D01*
X574243Y121200D01*
X574319Y121143D01*
X574398Y121090D01*
X574479Y121039D01*
X574562Y120992D01*
X574647Y120948D01*
X574734Y120908D01*
X574822Y120871D01*
X574912Y120838D01*
X575003Y120808D01*
X575095Y120783D01*
X575188Y120761D01*
X575282Y120743D01*
X575376Y120728D01*
X575471Y120718D01*
X575567Y120712D01*
X575662Y120709D01*
X575758Y120710D01*
X575853Y120716D01*
X575949Y120725D01*
X576043Y120738D01*
X576137Y120754D01*
X576231Y120775D01*
X576323Y120800D01*
X576414Y120828D01*
X576504Y120860D01*
X576593Y120895D01*
X576680Y120934D01*
X576766Y120977D01*
X576850Y121023D01*
X576931Y121073D01*
X577011Y121125D01*
X577089Y121181D01*
X577164Y121241D01*
X577236Y121303D01*
X577306Y121368D01*
X577374Y121436D01*
X577438Y121506D01*
X577500Y121579D01*
X577558Y121655D01*
X577614Y121733D01*
X577666Y121813D01*
X577715Y121895D01*
X577760Y121979D01*
X577802Y122065D01*
X577841Y122152D01*
X577876Y122241D01*
X577907Y122332D01*
X577934Y122423D01*
X577958Y122516D01*
X577978Y122609D01*
X577994Y122703D01*
X578006Y122798D01*
X578015Y122893D01*
X578019Y122989D01*
X578020Y123084D01*
X578013Y123331D01*
X578001Y123577D01*
X577983Y123823D01*
X577958Y124069D01*
X577928Y124313D01*
X577892Y124557D01*
X577851Y124800D01*
X577803Y125042D01*
X577749Y125283D01*
X577690Y125522D01*
X577625Y125760D01*
X577554Y125996D01*
X577478Y126231D01*
X577396Y126464D01*
X577308Y126694D01*
X577215Y126922D01*
X577117Y127149D01*
X571697Y126697D02*
X571660Y126785D01*
X571619Y126871D01*
X571575Y126956D01*
X571527Y127039D01*
X571476Y127119D01*
X571422Y127198D01*
X571364Y127274D01*
X571304Y127348D01*
X571240Y127420D01*
X571174Y127488D01*
X571104Y127554D01*
X571033Y127617D01*
X570958Y127678D01*
X570882Y127735D01*
X570803Y127788D01*
X570722Y127839D01*
X570639Y127886D01*
X570554Y127930D01*
X570467Y127970D01*
X570379Y128007D01*
X570289Y128040D01*
X570198Y128070D01*
X570106Y128095D01*
X570013Y128117D01*
X569919Y128135D01*
X569825Y128150D01*
X569730Y128160D01*
X569634Y128166D01*
X569539Y128169D01*
X569443Y128168D01*
X569348Y128162D01*
X569252Y128153D01*
X569158Y128140D01*
X569064Y128124D01*
X568970Y128103D01*
X568878Y128078D01*
X568787Y128050D01*
X568697Y128018D01*
X568608Y127983D01*
X568521Y127944D01*
X568435Y127901D01*
X568351Y127855D01*
X568270Y127805D01*
X568190Y127753D01*
X568112Y127697D01*
X568037Y127637D01*
X567965Y127575D01*
X567895Y127510D01*
X567827Y127442D01*
X567763Y127372D01*
X567701Y127299D01*
X567643Y127223D01*
X567587Y127145D01*
X567535Y127065D01*
X567486Y126983D01*
X567441Y126899D01*
X567399Y126813D01*
X567360Y126726D01*
X567325Y126637D01*
X567294Y126546D01*
X567267Y126455D01*
X567243Y126362D01*
X567223Y126269D01*
X567207Y126175D01*
X567195Y126080D01*
X567186Y125985D01*
X567182Y125889D01*
X567181Y125794D01*
X567182Y125794D02*
X567191Y125432D01*
X567209Y125070D01*
X567236Y124709D01*
X567271Y124349D01*
X567314Y123989D01*
X567366Y123630D01*
X567427Y123273D01*
X567496Y122918D01*
X567573Y122564D01*
X567659Y122212D01*
X567753Y121862D01*
X567856Y121514D01*
X567966Y121169D01*
X568085Y120827D01*
X567182Y134339D02*
X578019Y134339D01*
X582535Y133888D02*
X583438Y133888D01*
X583438Y134791D01*
X582535Y134791D01*
X582535Y133888D01*
X574407Y140626D02*
X570794Y140626D01*
X574407Y140627D02*
X574526Y140629D01*
X574646Y140635D01*
X574765Y140645D01*
X574883Y140659D01*
X575002Y140676D01*
X575119Y140698D01*
X575236Y140723D01*
X575351Y140753D01*
X575466Y140786D01*
X575580Y140823D01*
X575692Y140863D01*
X575803Y140908D01*
X575912Y140956D01*
X576020Y141007D01*
X576126Y141062D01*
X576230Y141121D01*
X576332Y141183D01*
X576432Y141248D01*
X576530Y141317D01*
X576626Y141389D01*
X576719Y141464D01*
X576809Y141541D01*
X576897Y141622D01*
X576982Y141706D01*
X577064Y141793D01*
X577144Y141882D01*
X577220Y141974D01*
X577294Y142068D01*
X577364Y142165D01*
X577431Y142263D01*
X577495Y142364D01*
X577555Y142468D01*
X577612Y142573D01*
X577665Y142680D01*
X577715Y142788D01*
X577761Y142898D01*
X577803Y143010D01*
X577842Y143123D01*
X577877Y143237D01*
X577908Y143352D01*
X577936Y143469D01*
X577959Y143586D01*
X577979Y143703D01*
X577995Y143822D01*
X578007Y143941D01*
X578015Y144060D01*
X578019Y144179D01*
X578019Y144299D01*
X578015Y144418D01*
X578007Y144537D01*
X577995Y144656D01*
X577979Y144775D01*
X577959Y144892D01*
X577936Y145009D01*
X577908Y145126D01*
X577877Y145241D01*
X577842Y145355D01*
X577803Y145468D01*
X577761Y145580D01*
X577715Y145690D01*
X577665Y145798D01*
X577612Y145905D01*
X577555Y146010D01*
X577495Y146114D01*
X577431Y146215D01*
X577364Y146313D01*
X577294Y146410D01*
X577220Y146504D01*
X577144Y146596D01*
X577064Y146685D01*
X576982Y146772D01*
X576897Y146856D01*
X576809Y146937D01*
X576719Y147014D01*
X576626Y147089D01*
X576530Y147161D01*
X576432Y147230D01*
X576332Y147295D01*
X576230Y147357D01*
X576126Y147416D01*
X576020Y147471D01*
X575912Y147522D01*
X575803Y147570D01*
X575692Y147615D01*
X575580Y147655D01*
X575466Y147692D01*
X575351Y147725D01*
X575236Y147755D01*
X575119Y147780D01*
X575002Y147802D01*
X574883Y147819D01*
X574765Y147833D01*
X574646Y147843D01*
X574526Y147849D01*
X574407Y147851D01*
X570794Y147851D01*
X570675Y147849D01*
X570555Y147843D01*
X570436Y147833D01*
X570318Y147819D01*
X570199Y147802D01*
X570082Y147780D01*
X569965Y147755D01*
X569850Y147725D01*
X569735Y147692D01*
X569621Y147655D01*
X569509Y147615D01*
X569398Y147570D01*
X569289Y147522D01*
X569181Y147471D01*
X569075Y147416D01*
X568971Y147357D01*
X568869Y147295D01*
X568769Y147230D01*
X568671Y147161D01*
X568575Y147089D01*
X568482Y147014D01*
X568392Y146937D01*
X568304Y146856D01*
X568219Y146772D01*
X568137Y146685D01*
X568057Y146596D01*
X567981Y146504D01*
X567907Y146410D01*
X567837Y146313D01*
X567770Y146215D01*
X567706Y146114D01*
X567646Y146010D01*
X567589Y145905D01*
X567536Y145798D01*
X567486Y145690D01*
X567440Y145580D01*
X567398Y145468D01*
X567359Y145355D01*
X567324Y145241D01*
X567293Y145126D01*
X567265Y145009D01*
X567242Y144892D01*
X567222Y144775D01*
X567206Y144656D01*
X567194Y144537D01*
X567186Y144418D01*
X567182Y144299D01*
X567182Y144179D01*
X567186Y144060D01*
X567194Y143941D01*
X567206Y143822D01*
X567222Y143703D01*
X567242Y143586D01*
X567265Y143469D01*
X567293Y143352D01*
X567324Y143237D01*
X567359Y143123D01*
X567398Y143010D01*
X567440Y142898D01*
X567486Y142788D01*
X567536Y142680D01*
X567589Y142573D01*
X567646Y142468D01*
X567706Y142364D01*
X567770Y142263D01*
X567837Y142165D01*
X567907Y142068D01*
X567981Y141974D01*
X568057Y141882D01*
X568137Y141793D01*
X568219Y141706D01*
X568304Y141622D01*
X568392Y141541D01*
X568482Y141464D01*
X568575Y141389D01*
X568671Y141317D01*
X568769Y141248D01*
X568869Y141183D01*
X568971Y141121D01*
X569075Y141062D01*
X569181Y141007D01*
X569289Y140956D01*
X569398Y140908D01*
X569509Y140863D01*
X569621Y140823D01*
X569735Y140786D01*
X569850Y140753D01*
X569965Y140723D01*
X570082Y140698D01*
X570199Y140676D01*
X570318Y140659D01*
X570436Y140645D01*
X570555Y140635D01*
X570675Y140629D01*
X570794Y140627D01*
X582083Y143336D02*
X585244Y146045D01*
X578019Y154695D02*
X567182Y154695D01*
X578019Y154695D02*
X578019Y159210D01*
X578017Y159311D01*
X578011Y159412D01*
X578002Y159513D01*
X577989Y159614D01*
X577972Y159714D01*
X577951Y159813D01*
X577927Y159911D01*
X577899Y160008D01*
X577867Y160105D01*
X577832Y160200D01*
X577793Y160293D01*
X577751Y160385D01*
X577705Y160476D01*
X577656Y160565D01*
X577604Y160651D01*
X577548Y160736D01*
X577490Y160819D01*
X577428Y160899D01*
X577363Y160977D01*
X577296Y161053D01*
X577226Y161126D01*
X577153Y161196D01*
X577077Y161263D01*
X576999Y161328D01*
X576919Y161390D01*
X576836Y161448D01*
X576751Y161504D01*
X576665Y161556D01*
X576576Y161605D01*
X576485Y161651D01*
X576393Y161693D01*
X576300Y161732D01*
X576205Y161767D01*
X576108Y161799D01*
X576011Y161827D01*
X575913Y161851D01*
X575814Y161872D01*
X575714Y161889D01*
X575613Y161902D01*
X575512Y161911D01*
X575411Y161917D01*
X575310Y161919D01*
X567182Y161919D01*
X579826Y177238D02*
X583438Y181754D01*
X567182Y181754D01*
X567182Y186269D02*
X567182Y177238D01*
X567182Y192244D02*
X568085Y192244D01*
X568085Y193147D01*
X567182Y193147D01*
X567182Y192244D01*
X575310Y199122D02*
X575630Y199126D01*
X575949Y199137D01*
X576269Y199156D01*
X576587Y199183D01*
X576905Y199217D01*
X577222Y199259D01*
X577538Y199309D01*
X577853Y199366D01*
X578166Y199430D01*
X578478Y199502D01*
X578788Y199581D01*
X579095Y199668D01*
X579401Y199762D01*
X579704Y199863D01*
X580005Y199972D01*
X580303Y200087D01*
X580599Y200210D01*
X580891Y200340D01*
X581180Y200477D01*
X581181Y200476D02*
X581289Y200515D01*
X581396Y200558D01*
X581501Y200604D01*
X581605Y200655D01*
X581707Y200708D01*
X581807Y200765D01*
X581905Y200826D01*
X582000Y200890D01*
X582094Y200957D01*
X582185Y201028D01*
X582274Y201101D01*
X582360Y201178D01*
X582443Y201257D01*
X582524Y201339D01*
X582602Y201424D01*
X582676Y201512D01*
X582748Y201602D01*
X582816Y201694D01*
X582882Y201789D01*
X582944Y201886D01*
X583002Y201985D01*
X583058Y202087D01*
X583109Y202189D01*
X583157Y202294D01*
X583202Y202400D01*
X583243Y202508D01*
X583280Y202617D01*
X583313Y202727D01*
X583342Y202839D01*
X583368Y202951D01*
X583390Y203064D01*
X583407Y203178D01*
X583421Y203292D01*
X583431Y203407D01*
X583437Y203522D01*
X583439Y203637D01*
X583438Y203637D02*
X583436Y203752D01*
X583430Y203867D01*
X583420Y203982D01*
X583406Y204096D01*
X583389Y204210D01*
X583367Y204323D01*
X583341Y204435D01*
X583312Y204547D01*
X583279Y204657D01*
X583242Y204766D01*
X583201Y204874D01*
X583156Y204980D01*
X583108Y205085D01*
X583057Y205187D01*
X583001Y205288D01*
X582943Y205388D01*
X582881Y205485D01*
X582816Y205579D01*
X582747Y205672D01*
X582675Y205762D01*
X582601Y205850D01*
X582523Y205935D01*
X582442Y206017D01*
X582359Y206096D01*
X582273Y206173D01*
X582184Y206246D01*
X582093Y206317D01*
X581999Y206384D01*
X581904Y206448D01*
X581806Y206509D01*
X581706Y206566D01*
X581604Y206619D01*
X581500Y206670D01*
X581395Y206716D01*
X581288Y206759D01*
X581180Y206798D01*
X580891Y206935D01*
X580599Y207065D01*
X580303Y207188D01*
X580005Y207303D01*
X579704Y207412D01*
X579401Y207513D01*
X579095Y207607D01*
X578788Y207694D01*
X578478Y207773D01*
X578166Y207845D01*
X577853Y207909D01*
X577538Y207966D01*
X577222Y208016D01*
X576905Y208058D01*
X576587Y208092D01*
X576269Y208119D01*
X575949Y208138D01*
X575630Y208149D01*
X575310Y208153D01*
X575310Y199122D02*
X574990Y199126D01*
X574671Y199137D01*
X574351Y199156D01*
X574033Y199183D01*
X573715Y199217D01*
X573398Y199259D01*
X573082Y199309D01*
X572767Y199366D01*
X572454Y199430D01*
X572142Y199502D01*
X571832Y199581D01*
X571525Y199668D01*
X571219Y199762D01*
X570916Y199863D01*
X570615Y199972D01*
X570317Y200087D01*
X570021Y200210D01*
X569729Y200340D01*
X569440Y200477D01*
X569440Y200476D02*
X569332Y200515D01*
X569225Y200558D01*
X569120Y200604D01*
X569016Y200655D01*
X568914Y200708D01*
X568814Y200765D01*
X568716Y200826D01*
X568621Y200890D01*
X568527Y200957D01*
X568436Y201028D01*
X568347Y201101D01*
X568261Y201178D01*
X568178Y201257D01*
X568097Y201339D01*
X568019Y201424D01*
X567945Y201512D01*
X567873Y201602D01*
X567804Y201695D01*
X567739Y201789D01*
X567677Y201886D01*
X567619Y201986D01*
X567563Y202087D01*
X567512Y202189D01*
X567464Y202294D01*
X567419Y202400D01*
X567378Y202508D01*
X567341Y202617D01*
X567308Y202727D01*
X567279Y202839D01*
X567253Y202951D01*
X567231Y203064D01*
X567214Y203178D01*
X567200Y203292D01*
X567190Y203407D01*
X567184Y203522D01*
X567182Y203637D01*
X569440Y206798D02*
X569729Y206935D01*
X570021Y207065D01*
X570317Y207188D01*
X570615Y207303D01*
X570916Y207412D01*
X571219Y207513D01*
X571525Y207607D01*
X571832Y207694D01*
X572142Y207773D01*
X572454Y207845D01*
X572767Y207909D01*
X573082Y207966D01*
X573398Y208016D01*
X573715Y208058D01*
X574033Y208092D01*
X574351Y208119D01*
X574671Y208138D01*
X574990Y208149D01*
X575310Y208153D01*
X569440Y206798D02*
X569332Y206759D01*
X569225Y206716D01*
X569120Y206670D01*
X569016Y206619D01*
X568914Y206566D01*
X568814Y206509D01*
X568716Y206448D01*
X568621Y206384D01*
X568527Y206317D01*
X568436Y206246D01*
X568347Y206173D01*
X568261Y206096D01*
X568178Y206017D01*
X568097Y205935D01*
X568019Y205850D01*
X567945Y205762D01*
X567873Y205672D01*
X567804Y205579D01*
X567739Y205485D01*
X567677Y205388D01*
X567619Y205288D01*
X567563Y205187D01*
X567512Y205084D01*
X567464Y204980D01*
X567419Y204874D01*
X567378Y204766D01*
X567341Y204657D01*
X567308Y204547D01*
X567279Y204435D01*
X567253Y204323D01*
X567231Y204210D01*
X567214Y204096D01*
X567200Y203982D01*
X567190Y203867D01*
X567184Y203752D01*
X567182Y203637D01*
X570794Y200025D02*
X579826Y207250D01*
X556768Y88731D02*
X544124Y88731D01*
X544124Y88730D02*
X544006Y88728D01*
X543888Y88722D01*
X543770Y88713D01*
X543653Y88699D01*
X543536Y88682D01*
X543419Y88661D01*
X543304Y88636D01*
X543189Y88607D01*
X543075Y88574D01*
X542963Y88538D01*
X542852Y88498D01*
X542742Y88455D01*
X542633Y88408D01*
X542526Y88358D01*
X542421Y88303D01*
X542318Y88246D01*
X542217Y88185D01*
X542117Y88121D01*
X542020Y88054D01*
X541925Y87984D01*
X541833Y87910D01*
X541742Y87834D01*
X541655Y87754D01*
X541570Y87672D01*
X541488Y87587D01*
X541408Y87500D01*
X541332Y87409D01*
X541258Y87317D01*
X541188Y87222D01*
X541121Y87125D01*
X541057Y87025D01*
X540996Y86924D01*
X540939Y86821D01*
X540884Y86716D01*
X540834Y86609D01*
X540787Y86500D01*
X540744Y86390D01*
X540704Y86279D01*
X540668Y86167D01*
X540635Y86053D01*
X540606Y85938D01*
X540581Y85823D01*
X540560Y85706D01*
X540543Y85589D01*
X540529Y85472D01*
X540520Y85354D01*
X540514Y85236D01*
X540512Y85118D01*
X540512Y83312D01*
X543221Y96180D02*
X551349Y96180D01*
X543221Y96180D02*
X543120Y96182D01*
X543019Y96188D01*
X542918Y96197D01*
X542817Y96210D01*
X542717Y96227D01*
X542618Y96248D01*
X542520Y96272D01*
X542423Y96300D01*
X542326Y96332D01*
X542231Y96367D01*
X542138Y96406D01*
X542046Y96448D01*
X541955Y96494D01*
X541867Y96543D01*
X541780Y96595D01*
X541695Y96651D01*
X541612Y96709D01*
X541532Y96771D01*
X541454Y96836D01*
X541378Y96903D01*
X541305Y96973D01*
X541235Y97046D01*
X541168Y97122D01*
X541103Y97200D01*
X541041Y97280D01*
X540983Y97363D01*
X540927Y97448D01*
X540875Y97535D01*
X540826Y97623D01*
X540780Y97714D01*
X540738Y97806D01*
X540699Y97899D01*
X540664Y97994D01*
X540632Y98091D01*
X540604Y98188D01*
X540580Y98286D01*
X540559Y98385D01*
X540542Y98485D01*
X540529Y98586D01*
X540520Y98687D01*
X540514Y98788D01*
X540512Y98889D01*
X540512Y103405D01*
X551349Y103405D01*
X556768Y110485D02*
X543221Y110485D01*
X543120Y110487D01*
X543019Y110493D01*
X542918Y110502D01*
X542817Y110515D01*
X542717Y110532D01*
X542618Y110553D01*
X542520Y110577D01*
X542423Y110605D01*
X542326Y110637D01*
X542231Y110672D01*
X542138Y110711D01*
X542046Y110753D01*
X541955Y110799D01*
X541867Y110848D01*
X541780Y110900D01*
X541695Y110956D01*
X541612Y111014D01*
X541532Y111076D01*
X541454Y111141D01*
X541378Y111208D01*
X541305Y111278D01*
X541235Y111351D01*
X541168Y111427D01*
X541103Y111505D01*
X541041Y111585D01*
X540983Y111668D01*
X540927Y111753D01*
X540875Y111840D01*
X540826Y111928D01*
X540780Y112019D01*
X540738Y112111D01*
X540699Y112204D01*
X540664Y112299D01*
X540632Y112396D01*
X540604Y112493D01*
X540580Y112591D01*
X540559Y112690D01*
X540542Y112790D01*
X540529Y112891D01*
X540520Y112992D01*
X540514Y113093D01*
X540512Y113194D01*
X540512Y118550D02*
X551349Y118550D01*
X555865Y118098D02*
X556768Y118098D01*
X556768Y119001D01*
X555865Y119001D01*
X555865Y118098D01*
X547737Y124837D02*
X544124Y124837D01*
X547737Y124837D02*
X547856Y124839D01*
X547976Y124845D01*
X548095Y124855D01*
X548213Y124869D01*
X548332Y124886D01*
X548449Y124908D01*
X548566Y124933D01*
X548681Y124963D01*
X548796Y124996D01*
X548910Y125033D01*
X549022Y125073D01*
X549133Y125118D01*
X549242Y125166D01*
X549350Y125217D01*
X549456Y125272D01*
X549560Y125331D01*
X549662Y125393D01*
X549762Y125458D01*
X549860Y125527D01*
X549956Y125599D01*
X550049Y125674D01*
X550139Y125751D01*
X550227Y125832D01*
X550312Y125916D01*
X550394Y126003D01*
X550474Y126092D01*
X550550Y126184D01*
X550624Y126278D01*
X550694Y126375D01*
X550761Y126473D01*
X550825Y126574D01*
X550885Y126678D01*
X550942Y126783D01*
X550995Y126890D01*
X551045Y126998D01*
X551091Y127108D01*
X551133Y127220D01*
X551172Y127333D01*
X551207Y127447D01*
X551238Y127562D01*
X551266Y127679D01*
X551289Y127796D01*
X551309Y127913D01*
X551325Y128032D01*
X551337Y128151D01*
X551345Y128270D01*
X551349Y128389D01*
X551349Y128509D01*
X551345Y128628D01*
X551337Y128747D01*
X551325Y128866D01*
X551309Y128985D01*
X551289Y129102D01*
X551266Y129219D01*
X551238Y129336D01*
X551207Y129451D01*
X551172Y129565D01*
X551133Y129678D01*
X551091Y129790D01*
X551045Y129900D01*
X550995Y130008D01*
X550942Y130115D01*
X550885Y130220D01*
X550825Y130324D01*
X550761Y130425D01*
X550694Y130523D01*
X550624Y130620D01*
X550550Y130714D01*
X550474Y130806D01*
X550394Y130895D01*
X550312Y130982D01*
X550227Y131066D01*
X550139Y131147D01*
X550049Y131224D01*
X549956Y131299D01*
X549860Y131371D01*
X549762Y131440D01*
X549662Y131505D01*
X549560Y131567D01*
X549456Y131626D01*
X549350Y131681D01*
X549242Y131732D01*
X549133Y131780D01*
X549022Y131825D01*
X548910Y131865D01*
X548796Y131902D01*
X548681Y131935D01*
X548566Y131965D01*
X548449Y131990D01*
X548332Y132012D01*
X548213Y132029D01*
X548095Y132043D01*
X547976Y132053D01*
X547856Y132059D01*
X547737Y132061D01*
X547737Y132062D02*
X544124Y132062D01*
X544124Y132061D02*
X544005Y132059D01*
X543885Y132053D01*
X543766Y132043D01*
X543648Y132029D01*
X543529Y132012D01*
X543412Y131990D01*
X543295Y131965D01*
X543180Y131935D01*
X543065Y131902D01*
X542951Y131865D01*
X542839Y131825D01*
X542728Y131780D01*
X542619Y131732D01*
X542511Y131681D01*
X542405Y131626D01*
X542301Y131567D01*
X542199Y131505D01*
X542099Y131440D01*
X542001Y131371D01*
X541905Y131299D01*
X541812Y131224D01*
X541722Y131147D01*
X541634Y131066D01*
X541549Y130982D01*
X541467Y130895D01*
X541387Y130806D01*
X541311Y130714D01*
X541237Y130620D01*
X541167Y130523D01*
X541100Y130425D01*
X541036Y130324D01*
X540976Y130220D01*
X540919Y130115D01*
X540866Y130008D01*
X540816Y129900D01*
X540770Y129790D01*
X540728Y129678D01*
X540689Y129565D01*
X540654Y129451D01*
X540623Y129336D01*
X540595Y129219D01*
X540572Y129102D01*
X540552Y128985D01*
X540536Y128866D01*
X540524Y128747D01*
X540516Y128628D01*
X540512Y128509D01*
X540512Y128389D01*
X540516Y128270D01*
X540524Y128151D01*
X540536Y128032D01*
X540552Y127913D01*
X540572Y127796D01*
X540595Y127679D01*
X540623Y127562D01*
X540654Y127447D01*
X540689Y127333D01*
X540728Y127220D01*
X540770Y127108D01*
X540816Y126998D01*
X540866Y126890D01*
X540919Y126783D01*
X540976Y126678D01*
X541036Y126574D01*
X541100Y126473D01*
X541167Y126375D01*
X541237Y126278D01*
X541311Y126184D01*
X541387Y126092D01*
X541467Y126003D01*
X541549Y125916D01*
X541634Y125832D01*
X541722Y125751D01*
X541812Y125674D01*
X541905Y125599D01*
X542001Y125527D01*
X542099Y125458D01*
X542199Y125393D01*
X542301Y125331D01*
X542405Y125272D01*
X542511Y125217D01*
X542619Y125166D01*
X542728Y125118D01*
X542839Y125073D01*
X542951Y125033D01*
X543065Y124996D01*
X543180Y124963D01*
X543295Y124933D01*
X543412Y124908D01*
X543529Y124886D01*
X543648Y124869D01*
X543766Y124855D01*
X543885Y124845D01*
X544005Y124839D01*
X544124Y124837D01*
X546834Y138662D02*
X546834Y149499D01*
X556768Y161206D02*
X556766Y161331D01*
X556760Y161456D01*
X556751Y161581D01*
X556737Y161705D01*
X556720Y161829D01*
X556699Y161953D01*
X556674Y162075D01*
X556645Y162197D01*
X556613Y162318D01*
X556577Y162438D01*
X556537Y162557D01*
X556494Y162674D01*
X556447Y162790D01*
X556396Y162905D01*
X556342Y163017D01*
X556284Y163129D01*
X556224Y163238D01*
X556159Y163345D01*
X556092Y163451D01*
X556021Y163554D01*
X555947Y163655D01*
X555870Y163754D01*
X555790Y163850D01*
X555707Y163944D01*
X555622Y164035D01*
X555533Y164124D01*
X555442Y164209D01*
X555348Y164292D01*
X555252Y164372D01*
X555153Y164449D01*
X555052Y164523D01*
X554949Y164594D01*
X554843Y164661D01*
X554736Y164726D01*
X554627Y164786D01*
X554515Y164844D01*
X554403Y164898D01*
X554288Y164949D01*
X554172Y164996D01*
X554055Y165039D01*
X553936Y165079D01*
X553816Y165115D01*
X553695Y165147D01*
X553573Y165176D01*
X553451Y165201D01*
X553327Y165222D01*
X553203Y165239D01*
X553079Y165253D01*
X552954Y165262D01*
X552829Y165268D01*
X552704Y165270D01*
X556768Y161206D02*
X556766Y161063D01*
X556760Y160921D01*
X556750Y160778D01*
X556737Y160636D01*
X556719Y160495D01*
X556698Y160353D01*
X556673Y160213D01*
X556644Y160073D01*
X556611Y159934D01*
X556574Y159796D01*
X556534Y159659D01*
X556490Y159524D01*
X556442Y159389D01*
X556390Y159256D01*
X556335Y159124D01*
X556276Y158994D01*
X556214Y158866D01*
X556148Y158739D01*
X556079Y158614D01*
X556007Y158491D01*
X555931Y158371D01*
X555852Y158252D01*
X555769Y158135D01*
X555684Y158021D01*
X555595Y157909D01*
X555504Y157800D01*
X555409Y157693D01*
X555312Y157588D01*
X555211Y157487D01*
X555108Y157388D01*
X555003Y157292D01*
X554894Y157199D01*
X554783Y157109D01*
X554670Y157022D01*
X554555Y156938D01*
X554437Y156858D01*
X554317Y156780D01*
X554195Y156706D01*
X554071Y156636D01*
X553945Y156568D01*
X553817Y156505D01*
X553688Y156444D01*
X553557Y156387D01*
X553425Y156334D01*
X553291Y156285D01*
X553156Y156239D01*
X549543Y163914D02*
X549635Y164008D01*
X549729Y164098D01*
X549826Y164186D01*
X549926Y164271D01*
X550028Y164353D01*
X550133Y164432D01*
X550240Y164507D01*
X550349Y164579D01*
X550460Y164648D01*
X550574Y164714D01*
X550689Y164776D01*
X550806Y164835D01*
X550925Y164890D01*
X551045Y164941D01*
X551167Y164989D01*
X551290Y165034D01*
X551414Y165074D01*
X551540Y165111D01*
X551667Y165144D01*
X551794Y165173D01*
X551923Y165199D01*
X552052Y165220D01*
X552182Y165238D01*
X552312Y165251D01*
X552442Y165261D01*
X552573Y165267D01*
X552704Y165269D01*
X549543Y163915D02*
X540512Y156238D01*
X540512Y165270D01*
X548640Y171870D02*
X548960Y171874D01*
X549279Y171885D01*
X549599Y171904D01*
X549917Y171931D01*
X550235Y171965D01*
X550552Y172007D01*
X550868Y172057D01*
X551183Y172114D01*
X551496Y172178D01*
X551808Y172250D01*
X552118Y172329D01*
X552425Y172416D01*
X552731Y172510D01*
X553034Y172611D01*
X553335Y172720D01*
X553633Y172835D01*
X553929Y172958D01*
X554221Y173088D01*
X554510Y173225D01*
X554511Y173224D02*
X554619Y173263D01*
X554726Y173306D01*
X554831Y173352D01*
X554935Y173403D01*
X555037Y173456D01*
X555137Y173513D01*
X555235Y173574D01*
X555330Y173638D01*
X555424Y173705D01*
X555515Y173776D01*
X555604Y173849D01*
X555690Y173926D01*
X555773Y174005D01*
X555854Y174087D01*
X555932Y174172D01*
X556006Y174260D01*
X556078Y174350D01*
X556146Y174442D01*
X556212Y174537D01*
X556274Y174634D01*
X556332Y174733D01*
X556388Y174835D01*
X556439Y174937D01*
X556487Y175042D01*
X556532Y175148D01*
X556573Y175256D01*
X556610Y175365D01*
X556643Y175475D01*
X556672Y175587D01*
X556698Y175699D01*
X556720Y175812D01*
X556737Y175926D01*
X556751Y176040D01*
X556761Y176155D01*
X556767Y176270D01*
X556769Y176385D01*
X556768Y176385D02*
X556766Y176500D01*
X556760Y176615D01*
X556750Y176730D01*
X556736Y176844D01*
X556719Y176958D01*
X556697Y177071D01*
X556671Y177183D01*
X556642Y177295D01*
X556609Y177405D01*
X556572Y177514D01*
X556531Y177622D01*
X556486Y177728D01*
X556438Y177833D01*
X556387Y177935D01*
X556331Y178036D01*
X556273Y178136D01*
X556211Y178233D01*
X556146Y178327D01*
X556077Y178420D01*
X556005Y178510D01*
X555931Y178598D01*
X555853Y178683D01*
X555772Y178765D01*
X555689Y178844D01*
X555603Y178921D01*
X555514Y178994D01*
X555423Y179065D01*
X555329Y179132D01*
X555234Y179196D01*
X555136Y179257D01*
X555036Y179314D01*
X554934Y179367D01*
X554830Y179418D01*
X554725Y179464D01*
X554618Y179507D01*
X554510Y179546D01*
X554221Y179683D01*
X553929Y179813D01*
X553633Y179936D01*
X553335Y180051D01*
X553034Y180160D01*
X552731Y180261D01*
X552425Y180355D01*
X552118Y180442D01*
X551808Y180521D01*
X551496Y180593D01*
X551183Y180657D01*
X550868Y180714D01*
X550552Y180764D01*
X550235Y180806D01*
X549917Y180840D01*
X549599Y180867D01*
X549279Y180886D01*
X548960Y180897D01*
X548640Y180901D01*
X548640Y171870D02*
X548320Y171874D01*
X548001Y171885D01*
X547681Y171904D01*
X547363Y171931D01*
X547045Y171965D01*
X546728Y172007D01*
X546412Y172057D01*
X546097Y172114D01*
X545784Y172178D01*
X545472Y172250D01*
X545162Y172329D01*
X544855Y172416D01*
X544549Y172510D01*
X544246Y172611D01*
X543945Y172720D01*
X543647Y172835D01*
X543351Y172958D01*
X543059Y173088D01*
X542770Y173225D01*
X542770Y173224D02*
X542662Y173263D01*
X542555Y173306D01*
X542450Y173352D01*
X542346Y173403D01*
X542244Y173456D01*
X542144Y173513D01*
X542046Y173574D01*
X541951Y173638D01*
X541857Y173705D01*
X541766Y173776D01*
X541677Y173849D01*
X541591Y173926D01*
X541508Y174005D01*
X541427Y174087D01*
X541349Y174172D01*
X541275Y174260D01*
X541203Y174350D01*
X541134Y174443D01*
X541069Y174537D01*
X541007Y174634D01*
X540949Y174734D01*
X540893Y174835D01*
X540842Y174937D01*
X540794Y175042D01*
X540749Y175148D01*
X540708Y175256D01*
X540671Y175365D01*
X540638Y175475D01*
X540609Y175587D01*
X540583Y175699D01*
X540561Y175812D01*
X540544Y175926D01*
X540530Y176040D01*
X540520Y176155D01*
X540514Y176270D01*
X540512Y176385D01*
X542770Y179545D02*
X543059Y179682D01*
X543351Y179812D01*
X543647Y179935D01*
X543945Y180050D01*
X544246Y180159D01*
X544549Y180260D01*
X544855Y180354D01*
X545162Y180441D01*
X545472Y180520D01*
X545784Y180592D01*
X546097Y180656D01*
X546412Y180713D01*
X546728Y180763D01*
X547045Y180805D01*
X547363Y180839D01*
X547681Y180866D01*
X548001Y180885D01*
X548320Y180896D01*
X548640Y180900D01*
X542770Y179546D02*
X542662Y179507D01*
X542555Y179464D01*
X542450Y179418D01*
X542346Y179367D01*
X542244Y179314D01*
X542144Y179257D01*
X542046Y179196D01*
X541951Y179132D01*
X541857Y179065D01*
X541766Y178994D01*
X541677Y178921D01*
X541591Y178844D01*
X541508Y178765D01*
X541427Y178683D01*
X541349Y178598D01*
X541275Y178510D01*
X541203Y178420D01*
X541134Y178327D01*
X541069Y178233D01*
X541007Y178136D01*
X540949Y178036D01*
X540893Y177935D01*
X540842Y177832D01*
X540794Y177728D01*
X540749Y177622D01*
X540708Y177514D01*
X540671Y177405D01*
X540638Y177295D01*
X540609Y177183D01*
X540583Y177071D01*
X540561Y176958D01*
X540544Y176844D01*
X540530Y176730D01*
X540520Y176615D01*
X540514Y176500D01*
X540512Y176385D01*
X544124Y172773D02*
X553156Y179998D01*
X553156Y187501D02*
X556768Y192016D01*
X540512Y192016D01*
X540512Y187501D02*
X540512Y196532D01*
X547737Y206745D02*
X547737Y212163D01*
X547737Y206745D02*
X547739Y206627D01*
X547745Y206509D01*
X547754Y206391D01*
X547768Y206274D01*
X547785Y206157D01*
X547806Y206040D01*
X547831Y205925D01*
X547860Y205810D01*
X547893Y205696D01*
X547929Y205584D01*
X547969Y205473D01*
X548012Y205363D01*
X548059Y205254D01*
X548109Y205147D01*
X548164Y205042D01*
X548221Y204939D01*
X548282Y204838D01*
X548346Y204738D01*
X548413Y204641D01*
X548483Y204546D01*
X548557Y204454D01*
X548633Y204363D01*
X548713Y204276D01*
X548795Y204191D01*
X548880Y204109D01*
X548967Y204029D01*
X549058Y203953D01*
X549150Y203879D01*
X549245Y203809D01*
X549342Y203742D01*
X549442Y203678D01*
X549543Y203617D01*
X549646Y203560D01*
X549751Y203505D01*
X549858Y203455D01*
X549967Y203408D01*
X550077Y203365D01*
X550188Y203325D01*
X550300Y203289D01*
X550414Y203256D01*
X550529Y203227D01*
X550644Y203202D01*
X550761Y203181D01*
X550878Y203164D01*
X550995Y203150D01*
X551113Y203141D01*
X551231Y203135D01*
X551349Y203133D01*
X551349Y203132D02*
X552252Y203132D01*
X552385Y203134D01*
X552517Y203140D01*
X552649Y203150D01*
X552781Y203163D01*
X552913Y203181D01*
X553043Y203202D01*
X553174Y203227D01*
X553303Y203256D01*
X553431Y203289D01*
X553559Y203325D01*
X553685Y203365D01*
X553810Y203409D01*
X553934Y203457D01*
X554056Y203508D01*
X554177Y203563D01*
X554296Y203621D01*
X554414Y203683D01*
X554529Y203748D01*
X554643Y203817D01*
X554754Y203888D01*
X554863Y203964D01*
X554970Y204042D01*
X555075Y204123D01*
X555177Y204208D01*
X555277Y204295D01*
X555374Y204385D01*
X555469Y204478D01*
X555560Y204574D01*
X555649Y204672D01*
X555735Y204773D01*
X555818Y204877D01*
X555898Y204983D01*
X555974Y205091D01*
X556048Y205201D01*
X556118Y205314D01*
X556185Y205428D01*
X556248Y205545D01*
X556308Y205663D01*
X556365Y205783D01*
X556418Y205905D01*
X556467Y206028D01*
X556513Y206152D01*
X556555Y206278D01*
X556593Y206405D01*
X556628Y206533D01*
X556659Y206662D01*
X556686Y206791D01*
X556709Y206922D01*
X556729Y207053D01*
X556744Y207185D01*
X556756Y207317D01*
X556764Y207449D01*
X556768Y207582D01*
X556768Y207714D01*
X556764Y207847D01*
X556756Y207979D01*
X556744Y208111D01*
X556729Y208243D01*
X556709Y208374D01*
X556686Y208505D01*
X556659Y208634D01*
X556628Y208763D01*
X556593Y208891D01*
X556555Y209018D01*
X556513Y209144D01*
X556467Y209268D01*
X556418Y209391D01*
X556365Y209513D01*
X556308Y209633D01*
X556248Y209751D01*
X556185Y209868D01*
X556118Y209982D01*
X556048Y210095D01*
X555974Y210205D01*
X555898Y210313D01*
X555818Y210419D01*
X555735Y210523D01*
X555649Y210624D01*
X555560Y210722D01*
X555469Y210818D01*
X555374Y210911D01*
X555277Y211001D01*
X555177Y211088D01*
X555075Y211173D01*
X554970Y211254D01*
X554863Y211332D01*
X554754Y211408D01*
X554643Y211479D01*
X554529Y211548D01*
X554414Y211613D01*
X554296Y211675D01*
X554177Y211733D01*
X554056Y211788D01*
X553934Y211839D01*
X553810Y211887D01*
X553685Y211931D01*
X553559Y211971D01*
X553431Y212007D01*
X553303Y212040D01*
X553174Y212069D01*
X553043Y212094D01*
X552913Y212115D01*
X552781Y212133D01*
X552649Y212146D01*
X552517Y212156D01*
X552385Y212162D01*
X552252Y212164D01*
X552252Y212163D02*
X547737Y212163D01*
X547562Y212161D01*
X547388Y212155D01*
X547214Y212144D01*
X547040Y212129D01*
X546866Y212110D01*
X546693Y212087D01*
X546521Y212060D01*
X546349Y212028D01*
X546178Y211993D01*
X546008Y211953D01*
X545839Y211909D01*
X545671Y211861D01*
X545504Y211809D01*
X545339Y211753D01*
X545175Y211693D01*
X545012Y211630D01*
X544852Y211562D01*
X544692Y211490D01*
X544535Y211415D01*
X544379Y211335D01*
X544226Y211252D01*
X544074Y211166D01*
X543925Y211075D01*
X543778Y210981D01*
X543633Y210884D01*
X543490Y210783D01*
X543350Y210679D01*
X543213Y210571D01*
X543078Y210460D01*
X542946Y210346D01*
X542817Y210229D01*
X542690Y210108D01*
X542567Y209985D01*
X542446Y209858D01*
X542329Y209729D01*
X542215Y209597D01*
X542104Y209462D01*
X541996Y209325D01*
X541892Y209185D01*
X541791Y209042D01*
X541694Y208897D01*
X541600Y208750D01*
X541509Y208601D01*
X541423Y208449D01*
X541340Y208296D01*
X541260Y208140D01*
X541185Y207983D01*
X541113Y207823D01*
X541045Y207663D01*
X540982Y207500D01*
X540922Y207336D01*
X540866Y207171D01*
X540814Y207004D01*
X540766Y206836D01*
X540722Y206667D01*
X540682Y206497D01*
X540647Y206326D01*
X540615Y206154D01*
X540588Y205982D01*
X540565Y205809D01*
X540546Y205635D01*
X540531Y205461D01*
X540520Y205287D01*
X540514Y205113D01*
X540512Y204938D01*
D11*
X414697Y870458D02*
X414598Y870460D01*
X414498Y870466D01*
X414399Y870475D01*
X414301Y870488D01*
X414203Y870505D01*
X414105Y870526D01*
X414009Y870551D01*
X413914Y870579D01*
X413820Y870611D01*
X413727Y870646D01*
X413635Y870685D01*
X413545Y870728D01*
X413457Y870773D01*
X413370Y870823D01*
X413286Y870875D01*
X413203Y870931D01*
X413123Y870989D01*
X413045Y871051D01*
X412970Y871116D01*
X412897Y871184D01*
X412827Y871254D01*
X412759Y871327D01*
X412694Y871402D01*
X412632Y871480D01*
X412574Y871560D01*
X412518Y871643D01*
X412466Y871727D01*
X412416Y871814D01*
X412371Y871902D01*
X412328Y871992D01*
X412289Y872084D01*
X412254Y872177D01*
X412222Y872271D01*
X412194Y872366D01*
X412169Y872462D01*
X412148Y872560D01*
X412131Y872658D01*
X412118Y872756D01*
X412109Y872855D01*
X412103Y872955D01*
X412101Y873054D01*
X414697Y870458D02*
X414841Y870460D01*
X414986Y870466D01*
X415130Y870475D01*
X415273Y870488D01*
X415417Y870505D01*
X415560Y870526D01*
X415702Y870551D01*
X415843Y870579D01*
X415984Y870611D01*
X416124Y870647D01*
X416263Y870686D01*
X416401Y870729D01*
X416537Y870776D01*
X416673Y870826D01*
X416807Y870880D01*
X416939Y870937D01*
X417070Y870998D01*
X417199Y871062D01*
X417327Y871130D01*
X417453Y871201D01*
X417577Y871275D01*
X417698Y871352D01*
X417818Y871433D01*
X417936Y871516D01*
X418051Y871603D01*
X418164Y871693D01*
X418275Y871786D01*
X418383Y871881D01*
X418489Y871980D01*
X418592Y872081D01*
X418267Y879546D02*
X418265Y879645D01*
X418259Y879745D01*
X418250Y879844D01*
X418237Y879942D01*
X418220Y880040D01*
X418199Y880138D01*
X418174Y880234D01*
X418146Y880329D01*
X418114Y880423D01*
X418079Y880516D01*
X418040Y880608D01*
X417997Y880698D01*
X417952Y880786D01*
X417902Y880873D01*
X417850Y880957D01*
X417794Y881040D01*
X417736Y881120D01*
X417674Y881198D01*
X417609Y881273D01*
X417541Y881346D01*
X417471Y881416D01*
X417398Y881484D01*
X417323Y881549D01*
X417245Y881611D01*
X417165Y881669D01*
X417082Y881725D01*
X416998Y881777D01*
X416911Y881827D01*
X416823Y881872D01*
X416733Y881915D01*
X416641Y881954D01*
X416548Y881989D01*
X416454Y882021D01*
X416359Y882049D01*
X416263Y882074D01*
X416165Y882095D01*
X416067Y882112D01*
X415969Y882125D01*
X415870Y882134D01*
X415770Y882140D01*
X415671Y882142D01*
X415535Y882140D01*
X415399Y882134D01*
X415263Y882125D01*
X415127Y882112D01*
X414992Y882094D01*
X414858Y882074D01*
X414724Y882049D01*
X414590Y882021D01*
X414458Y881988D01*
X414327Y881953D01*
X414196Y881913D01*
X414067Y881870D01*
X413939Y881824D01*
X413813Y881773D01*
X413687Y881720D01*
X413564Y881662D01*
X413442Y881602D01*
X413322Y881538D01*
X413203Y881470D01*
X413087Y881400D01*
X412973Y881326D01*
X412860Y881249D01*
X412750Y881168D01*
X416969Y877274D02*
X417055Y877327D01*
X417139Y877384D01*
X417221Y877443D01*
X417301Y877506D01*
X417378Y877572D01*
X417453Y877640D01*
X417525Y877712D01*
X417594Y877786D01*
X417660Y877863D01*
X417723Y877942D01*
X417783Y878024D01*
X417840Y878108D01*
X417894Y878194D01*
X417944Y878282D01*
X417991Y878372D01*
X418035Y878463D01*
X418074Y878557D01*
X418111Y878651D01*
X418143Y878747D01*
X418172Y878845D01*
X418197Y878943D01*
X418218Y879042D01*
X418236Y879142D01*
X418249Y879242D01*
X418259Y879343D01*
X418265Y879445D01*
X418267Y879546D01*
X413399Y875326D02*
X413313Y875273D01*
X413229Y875216D01*
X413147Y875157D01*
X413067Y875094D01*
X412990Y875028D01*
X412915Y874960D01*
X412843Y874888D01*
X412774Y874814D01*
X412708Y874737D01*
X412645Y874658D01*
X412585Y874576D01*
X412528Y874492D01*
X412474Y874406D01*
X412424Y874318D01*
X412377Y874228D01*
X412333Y874137D01*
X412294Y874043D01*
X412257Y873949D01*
X412225Y873853D01*
X412196Y873755D01*
X412171Y873657D01*
X412150Y873558D01*
X412132Y873458D01*
X412119Y873358D01*
X412109Y873257D01*
X412103Y873155D01*
X412101Y873054D01*
X413399Y875326D02*
X416969Y877274D01*
X406583Y882142D02*
X406583Y870458D01*
X405285Y870458D02*
X407882Y870458D01*
X407882Y882142D02*
X405285Y882142D01*
X395760Y876949D02*
X393813Y876949D01*
X393813Y870458D01*
X397708Y870458D01*
X397807Y870460D01*
X397907Y870466D01*
X398006Y870475D01*
X398104Y870488D01*
X398202Y870505D01*
X398300Y870526D01*
X398396Y870551D01*
X398491Y870579D01*
X398585Y870611D01*
X398678Y870646D01*
X398770Y870685D01*
X398860Y870728D01*
X398948Y870773D01*
X399035Y870823D01*
X399119Y870875D01*
X399202Y870931D01*
X399282Y870989D01*
X399360Y871051D01*
X399435Y871116D01*
X399508Y871184D01*
X399578Y871254D01*
X399646Y871327D01*
X399711Y871402D01*
X399773Y871480D01*
X399831Y871560D01*
X399887Y871643D01*
X399939Y871727D01*
X399989Y871814D01*
X400034Y871902D01*
X400077Y871992D01*
X400116Y872084D01*
X400151Y872177D01*
X400183Y872271D01*
X400211Y872366D01*
X400236Y872462D01*
X400257Y872560D01*
X400274Y872658D01*
X400287Y872756D01*
X400296Y872855D01*
X400302Y872955D01*
X400304Y873054D01*
X400304Y879546D01*
X400302Y879645D01*
X400296Y879745D01*
X400287Y879844D01*
X400274Y879942D01*
X400257Y880040D01*
X400236Y880138D01*
X400211Y880234D01*
X400183Y880329D01*
X400151Y880423D01*
X400116Y880516D01*
X400077Y880608D01*
X400034Y880698D01*
X399989Y880786D01*
X399939Y880873D01*
X399887Y880957D01*
X399831Y881040D01*
X399773Y881120D01*
X399711Y881198D01*
X399646Y881273D01*
X399578Y881346D01*
X399508Y881416D01*
X399435Y881484D01*
X399360Y881549D01*
X399282Y881611D01*
X399202Y881669D01*
X399119Y881725D01*
X399035Y881777D01*
X398948Y881827D01*
X398860Y881872D01*
X398770Y881915D01*
X398678Y881954D01*
X398585Y881989D01*
X398491Y882021D01*
X398396Y882049D01*
X398300Y882074D01*
X398202Y882095D01*
X398104Y882112D01*
X398006Y882125D01*
X397907Y882134D01*
X397807Y882140D01*
X397708Y882142D01*
X393813Y882142D01*
X389142Y882142D02*
X385248Y876625D01*
X381353Y882142D01*
X385248Y876625D02*
X385248Y870458D01*
D10*
X445262Y90537D02*
X445262Y83312D01*
X461518Y83312D01*
X461518Y90537D01*
X454293Y88731D02*
X454293Y83312D01*
X451584Y97524D02*
X449778Y102039D01*
X451584Y97524D02*
X451621Y97436D01*
X451662Y97350D01*
X451706Y97265D01*
X451754Y97182D01*
X451805Y97102D01*
X451859Y97023D01*
X451917Y96947D01*
X451977Y96873D01*
X452041Y96801D01*
X452107Y96733D01*
X452177Y96667D01*
X452248Y96604D01*
X452323Y96543D01*
X452399Y96486D01*
X452478Y96433D01*
X452559Y96382D01*
X452642Y96335D01*
X452727Y96291D01*
X452814Y96251D01*
X452902Y96214D01*
X452992Y96181D01*
X453083Y96151D01*
X453175Y96126D01*
X453268Y96104D01*
X453362Y96086D01*
X453456Y96071D01*
X453551Y96061D01*
X453647Y96055D01*
X453742Y96052D01*
X453838Y96053D01*
X453933Y96059D01*
X454029Y96068D01*
X454123Y96081D01*
X454217Y96097D01*
X454311Y96118D01*
X454403Y96143D01*
X454494Y96171D01*
X454584Y96203D01*
X454673Y96238D01*
X454760Y96277D01*
X454846Y96320D01*
X454930Y96366D01*
X455011Y96416D01*
X455091Y96468D01*
X455169Y96524D01*
X455244Y96584D01*
X455316Y96646D01*
X455386Y96711D01*
X455454Y96779D01*
X455518Y96849D01*
X455580Y96922D01*
X455638Y96998D01*
X455694Y97076D01*
X455746Y97156D01*
X455795Y97238D01*
X455840Y97322D01*
X455882Y97408D01*
X455921Y97495D01*
X455956Y97584D01*
X455987Y97675D01*
X456014Y97766D01*
X456038Y97859D01*
X456058Y97952D01*
X456074Y98046D01*
X456086Y98141D01*
X456095Y98236D01*
X456099Y98332D01*
X456100Y98427D01*
X456093Y98674D01*
X456081Y98920D01*
X456063Y99166D01*
X456038Y99412D01*
X456008Y99656D01*
X455972Y99900D01*
X455931Y100143D01*
X455883Y100385D01*
X455829Y100626D01*
X455770Y100865D01*
X455705Y101103D01*
X455634Y101339D01*
X455558Y101574D01*
X455476Y101807D01*
X455388Y102037D01*
X455295Y102265D01*
X455197Y102492D01*
X449777Y102040D02*
X449740Y102128D01*
X449699Y102214D01*
X449655Y102299D01*
X449607Y102382D01*
X449556Y102462D01*
X449502Y102541D01*
X449444Y102617D01*
X449384Y102691D01*
X449320Y102763D01*
X449254Y102831D01*
X449184Y102897D01*
X449113Y102960D01*
X449038Y103021D01*
X448962Y103078D01*
X448883Y103131D01*
X448802Y103182D01*
X448719Y103229D01*
X448634Y103273D01*
X448547Y103313D01*
X448459Y103350D01*
X448369Y103383D01*
X448278Y103413D01*
X448186Y103438D01*
X448093Y103460D01*
X447999Y103478D01*
X447905Y103493D01*
X447810Y103503D01*
X447714Y103509D01*
X447619Y103512D01*
X447523Y103511D01*
X447428Y103505D01*
X447332Y103496D01*
X447238Y103483D01*
X447144Y103467D01*
X447050Y103446D01*
X446958Y103421D01*
X446867Y103393D01*
X446777Y103361D01*
X446688Y103326D01*
X446601Y103287D01*
X446515Y103244D01*
X446431Y103198D01*
X446350Y103148D01*
X446270Y103096D01*
X446192Y103040D01*
X446117Y102980D01*
X446045Y102918D01*
X445975Y102853D01*
X445907Y102785D01*
X445843Y102715D01*
X445781Y102642D01*
X445723Y102566D01*
X445667Y102488D01*
X445615Y102408D01*
X445566Y102326D01*
X445521Y102242D01*
X445479Y102156D01*
X445440Y102069D01*
X445405Y101980D01*
X445374Y101889D01*
X445347Y101798D01*
X445323Y101705D01*
X445303Y101612D01*
X445287Y101518D01*
X445275Y101423D01*
X445266Y101328D01*
X445262Y101232D01*
X445261Y101137D01*
X445262Y101136D02*
X445271Y100774D01*
X445289Y100412D01*
X445316Y100051D01*
X445351Y99691D01*
X445394Y99331D01*
X445446Y98972D01*
X445507Y98615D01*
X445576Y98260D01*
X445653Y97906D01*
X445739Y97554D01*
X445833Y97204D01*
X445936Y96856D01*
X446046Y96511D01*
X446165Y96169D01*
X456099Y108419D02*
X456099Y113838D01*
X461518Y110225D02*
X447971Y110225D01*
X447971Y110226D02*
X447870Y110228D01*
X447769Y110234D01*
X447668Y110243D01*
X447567Y110256D01*
X447467Y110273D01*
X447368Y110294D01*
X447270Y110318D01*
X447173Y110346D01*
X447076Y110378D01*
X446981Y110413D01*
X446888Y110452D01*
X446796Y110494D01*
X446705Y110540D01*
X446617Y110589D01*
X446530Y110641D01*
X446445Y110697D01*
X446362Y110755D01*
X446282Y110817D01*
X446204Y110882D01*
X446128Y110949D01*
X446055Y111019D01*
X445985Y111092D01*
X445918Y111168D01*
X445853Y111246D01*
X445791Y111326D01*
X445733Y111409D01*
X445677Y111494D01*
X445625Y111581D01*
X445576Y111669D01*
X445530Y111760D01*
X445488Y111852D01*
X445449Y111945D01*
X445414Y112040D01*
X445382Y112137D01*
X445354Y112234D01*
X445330Y112332D01*
X445309Y112431D01*
X445292Y112531D01*
X445279Y112632D01*
X445270Y112733D01*
X445264Y112834D01*
X445262Y112935D01*
X445262Y113838D01*
X451584Y122704D02*
X451584Y126768D01*
X451584Y122704D02*
X451582Y122592D01*
X451576Y122481D01*
X451566Y122370D01*
X451553Y122259D01*
X451535Y122149D01*
X451513Y122040D01*
X451488Y121931D01*
X451459Y121823D01*
X451426Y121717D01*
X451389Y121611D01*
X451349Y121507D01*
X451305Y121405D01*
X451257Y121304D01*
X451206Y121205D01*
X451151Y121107D01*
X451093Y121012D01*
X451032Y120919D01*
X450967Y120828D01*
X450899Y120739D01*
X450828Y120653D01*
X450755Y120570D01*
X450678Y120489D01*
X450598Y120410D01*
X450516Y120335D01*
X450431Y120263D01*
X450344Y120193D01*
X450254Y120127D01*
X450162Y120064D01*
X450067Y120004D01*
X449971Y119948D01*
X449873Y119895D01*
X449773Y119846D01*
X449671Y119800D01*
X449568Y119758D01*
X449463Y119719D01*
X449357Y119684D01*
X449250Y119653D01*
X449142Y119626D01*
X449033Y119602D01*
X448923Y119583D01*
X448813Y119567D01*
X448702Y119555D01*
X448590Y119547D01*
X448479Y119543D01*
X448367Y119543D01*
X448256Y119547D01*
X448144Y119555D01*
X448033Y119567D01*
X447923Y119583D01*
X447813Y119602D01*
X447704Y119626D01*
X447596Y119653D01*
X447489Y119684D01*
X447383Y119719D01*
X447278Y119758D01*
X447175Y119800D01*
X447073Y119846D01*
X446973Y119895D01*
X446875Y119948D01*
X446779Y120004D01*
X446684Y120064D01*
X446592Y120127D01*
X446502Y120193D01*
X446415Y120263D01*
X446330Y120335D01*
X446248Y120410D01*
X446168Y120489D01*
X446091Y120570D01*
X446018Y120653D01*
X445947Y120739D01*
X445879Y120828D01*
X445814Y120919D01*
X445753Y121012D01*
X445695Y121107D01*
X445640Y121205D01*
X445589Y121304D01*
X445541Y121405D01*
X445497Y121507D01*
X445457Y121611D01*
X445420Y121717D01*
X445387Y121823D01*
X445358Y121931D01*
X445333Y122040D01*
X445311Y122149D01*
X445293Y122259D01*
X445280Y122370D01*
X445270Y122481D01*
X445264Y122592D01*
X445262Y122704D01*
X445262Y126768D01*
X453390Y126768D01*
X453390Y126767D02*
X453491Y126765D01*
X453592Y126759D01*
X453693Y126750D01*
X453794Y126737D01*
X453894Y126720D01*
X453993Y126699D01*
X454091Y126675D01*
X454188Y126647D01*
X454285Y126615D01*
X454380Y126580D01*
X454473Y126541D01*
X454565Y126499D01*
X454656Y126453D01*
X454745Y126404D01*
X454831Y126352D01*
X454916Y126296D01*
X454999Y126238D01*
X455079Y126176D01*
X455157Y126111D01*
X455233Y126044D01*
X455306Y125974D01*
X455376Y125901D01*
X455443Y125825D01*
X455508Y125747D01*
X455570Y125667D01*
X455628Y125584D01*
X455684Y125499D01*
X455736Y125413D01*
X455785Y125324D01*
X455831Y125233D01*
X455873Y125141D01*
X455912Y125048D01*
X455947Y124953D01*
X455979Y124856D01*
X456007Y124759D01*
X456031Y124661D01*
X456052Y124562D01*
X456069Y124462D01*
X456082Y124361D01*
X456091Y124260D01*
X456097Y124159D01*
X456099Y124058D01*
X456099Y120446D01*
X445262Y136411D02*
X445262Y140024D01*
X445262Y136411D02*
X445264Y136310D01*
X445270Y136209D01*
X445279Y136108D01*
X445292Y136007D01*
X445309Y135907D01*
X445330Y135808D01*
X445354Y135710D01*
X445382Y135613D01*
X445414Y135516D01*
X445449Y135421D01*
X445488Y135328D01*
X445530Y135236D01*
X445576Y135145D01*
X445625Y135057D01*
X445677Y134970D01*
X445733Y134885D01*
X445791Y134802D01*
X445853Y134722D01*
X445918Y134644D01*
X445985Y134568D01*
X446055Y134495D01*
X446128Y134425D01*
X446204Y134358D01*
X446282Y134293D01*
X446362Y134231D01*
X446445Y134173D01*
X446530Y134117D01*
X446617Y134065D01*
X446705Y134016D01*
X446796Y133970D01*
X446888Y133928D01*
X446981Y133889D01*
X447076Y133854D01*
X447173Y133822D01*
X447270Y133794D01*
X447368Y133770D01*
X447467Y133749D01*
X447567Y133732D01*
X447668Y133719D01*
X447769Y133710D01*
X447870Y133704D01*
X447971Y133702D01*
X453390Y133702D01*
X453491Y133704D01*
X453592Y133710D01*
X453693Y133719D01*
X453794Y133732D01*
X453894Y133749D01*
X453993Y133770D01*
X454091Y133794D01*
X454188Y133822D01*
X454285Y133854D01*
X454380Y133889D01*
X454473Y133928D01*
X454565Y133970D01*
X454656Y134016D01*
X454745Y134065D01*
X454831Y134117D01*
X454916Y134173D01*
X454999Y134231D01*
X455079Y134293D01*
X455157Y134358D01*
X455233Y134425D01*
X455306Y134495D01*
X455376Y134568D01*
X455443Y134644D01*
X455508Y134722D01*
X455570Y134802D01*
X455628Y134885D01*
X455684Y134970D01*
X455736Y135056D01*
X455785Y135145D01*
X455831Y135236D01*
X455873Y135328D01*
X455912Y135421D01*
X455947Y135516D01*
X455979Y135613D01*
X456007Y135710D01*
X456031Y135808D01*
X456052Y135907D01*
X456069Y136007D01*
X456082Y136108D01*
X456091Y136209D01*
X456097Y136310D01*
X456099Y136411D01*
X456099Y140024D01*
X456099Y145633D02*
X445262Y145633D01*
X460615Y145182D02*
X461518Y145182D01*
X461518Y146085D01*
X460615Y146085D01*
X460615Y145182D01*
X452487Y151921D02*
X448874Y151921D01*
X452487Y151921D02*
X452606Y151923D01*
X452726Y151929D01*
X452845Y151939D01*
X452963Y151953D01*
X453082Y151970D01*
X453199Y151992D01*
X453316Y152017D01*
X453431Y152047D01*
X453546Y152080D01*
X453660Y152117D01*
X453772Y152157D01*
X453883Y152202D01*
X453992Y152250D01*
X454100Y152301D01*
X454206Y152356D01*
X454310Y152415D01*
X454412Y152477D01*
X454512Y152542D01*
X454610Y152611D01*
X454706Y152683D01*
X454799Y152758D01*
X454889Y152835D01*
X454977Y152916D01*
X455062Y153000D01*
X455144Y153087D01*
X455224Y153176D01*
X455300Y153268D01*
X455374Y153362D01*
X455444Y153459D01*
X455511Y153557D01*
X455575Y153658D01*
X455635Y153762D01*
X455692Y153867D01*
X455745Y153974D01*
X455795Y154082D01*
X455841Y154192D01*
X455883Y154304D01*
X455922Y154417D01*
X455957Y154531D01*
X455988Y154646D01*
X456016Y154763D01*
X456039Y154880D01*
X456059Y154997D01*
X456075Y155116D01*
X456087Y155235D01*
X456095Y155354D01*
X456099Y155473D01*
X456099Y155593D01*
X456095Y155712D01*
X456087Y155831D01*
X456075Y155950D01*
X456059Y156069D01*
X456039Y156186D01*
X456016Y156303D01*
X455988Y156420D01*
X455957Y156535D01*
X455922Y156649D01*
X455883Y156762D01*
X455841Y156874D01*
X455795Y156984D01*
X455745Y157092D01*
X455692Y157199D01*
X455635Y157304D01*
X455575Y157408D01*
X455511Y157509D01*
X455444Y157607D01*
X455374Y157704D01*
X455300Y157798D01*
X455224Y157890D01*
X455144Y157979D01*
X455062Y158066D01*
X454977Y158150D01*
X454889Y158231D01*
X454799Y158308D01*
X454706Y158383D01*
X454610Y158455D01*
X454512Y158524D01*
X454412Y158589D01*
X454310Y158651D01*
X454206Y158710D01*
X454100Y158765D01*
X453992Y158816D01*
X453883Y158864D01*
X453772Y158909D01*
X453660Y158949D01*
X453546Y158986D01*
X453431Y159019D01*
X453316Y159049D01*
X453199Y159074D01*
X453082Y159096D01*
X452963Y159113D01*
X452845Y159127D01*
X452726Y159137D01*
X452606Y159143D01*
X452487Y159145D01*
X448874Y159145D01*
X448755Y159143D01*
X448635Y159137D01*
X448516Y159127D01*
X448398Y159113D01*
X448279Y159096D01*
X448162Y159074D01*
X448045Y159049D01*
X447930Y159019D01*
X447815Y158986D01*
X447701Y158949D01*
X447589Y158909D01*
X447478Y158864D01*
X447369Y158816D01*
X447261Y158765D01*
X447155Y158710D01*
X447051Y158651D01*
X446949Y158589D01*
X446849Y158524D01*
X446751Y158455D01*
X446655Y158383D01*
X446562Y158308D01*
X446472Y158231D01*
X446384Y158150D01*
X446299Y158066D01*
X446217Y157979D01*
X446137Y157890D01*
X446061Y157798D01*
X445987Y157704D01*
X445917Y157607D01*
X445850Y157509D01*
X445786Y157408D01*
X445726Y157304D01*
X445669Y157199D01*
X445616Y157092D01*
X445566Y156984D01*
X445520Y156874D01*
X445478Y156762D01*
X445439Y156649D01*
X445404Y156535D01*
X445373Y156420D01*
X445345Y156303D01*
X445322Y156186D01*
X445302Y156069D01*
X445286Y155950D01*
X445274Y155831D01*
X445266Y155712D01*
X445262Y155593D01*
X445262Y155473D01*
X445266Y155354D01*
X445274Y155235D01*
X445286Y155116D01*
X445302Y154997D01*
X445322Y154880D01*
X445345Y154763D01*
X445373Y154646D01*
X445404Y154531D01*
X445439Y154417D01*
X445478Y154304D01*
X445520Y154192D01*
X445566Y154082D01*
X445616Y153974D01*
X445669Y153867D01*
X445726Y153762D01*
X445786Y153658D01*
X445850Y153557D01*
X445917Y153459D01*
X445987Y153362D01*
X446061Y153268D01*
X446137Y153176D01*
X446217Y153087D01*
X446299Y153000D01*
X446384Y152916D01*
X446472Y152835D01*
X446562Y152758D01*
X446655Y152683D01*
X446751Y152611D01*
X446849Y152542D01*
X446949Y152477D01*
X447051Y152415D01*
X447155Y152356D01*
X447261Y152301D01*
X447369Y152250D01*
X447478Y152202D01*
X447589Y152157D01*
X447701Y152117D01*
X447815Y152080D01*
X447930Y152047D01*
X448045Y152017D01*
X448162Y151992D01*
X448279Y151970D01*
X448398Y151953D01*
X448516Y151939D01*
X448635Y151929D01*
X448755Y151923D01*
X448874Y151921D01*
X445262Y165989D02*
X456099Y165989D01*
X456099Y170504D01*
X456097Y170605D01*
X456091Y170706D01*
X456082Y170807D01*
X456069Y170908D01*
X456052Y171008D01*
X456031Y171107D01*
X456007Y171205D01*
X455979Y171302D01*
X455947Y171399D01*
X455912Y171494D01*
X455873Y171587D01*
X455831Y171679D01*
X455785Y171770D01*
X455736Y171859D01*
X455684Y171945D01*
X455628Y172030D01*
X455570Y172113D01*
X455508Y172193D01*
X455443Y172271D01*
X455376Y172347D01*
X455306Y172420D01*
X455233Y172490D01*
X455157Y172557D01*
X455079Y172622D01*
X454999Y172684D01*
X454916Y172742D01*
X454831Y172798D01*
X454745Y172850D01*
X454656Y172899D01*
X454565Y172945D01*
X454473Y172987D01*
X454380Y173026D01*
X454285Y173061D01*
X454188Y173093D01*
X454091Y173121D01*
X453993Y173145D01*
X453894Y173166D01*
X453794Y173183D01*
X453693Y173196D01*
X453592Y173205D01*
X453491Y173211D01*
X453390Y173213D01*
X453390Y173214D02*
X445262Y173214D01*
X451584Y183144D02*
X451584Y187208D01*
X451584Y183144D02*
X451582Y183032D01*
X451576Y182921D01*
X451566Y182810D01*
X451553Y182699D01*
X451535Y182589D01*
X451513Y182480D01*
X451488Y182371D01*
X451459Y182263D01*
X451426Y182157D01*
X451389Y182051D01*
X451349Y181947D01*
X451305Y181845D01*
X451257Y181744D01*
X451206Y181645D01*
X451151Y181547D01*
X451093Y181452D01*
X451032Y181359D01*
X450967Y181268D01*
X450899Y181179D01*
X450828Y181093D01*
X450755Y181010D01*
X450678Y180929D01*
X450598Y180850D01*
X450516Y180775D01*
X450431Y180703D01*
X450344Y180633D01*
X450254Y180567D01*
X450162Y180504D01*
X450067Y180444D01*
X449971Y180388D01*
X449873Y180335D01*
X449773Y180286D01*
X449671Y180240D01*
X449568Y180198D01*
X449463Y180159D01*
X449357Y180124D01*
X449250Y180093D01*
X449142Y180066D01*
X449033Y180042D01*
X448923Y180023D01*
X448813Y180007D01*
X448702Y179995D01*
X448590Y179987D01*
X448479Y179983D01*
X448367Y179983D01*
X448256Y179987D01*
X448144Y179995D01*
X448033Y180007D01*
X447923Y180023D01*
X447813Y180042D01*
X447704Y180066D01*
X447596Y180093D01*
X447489Y180124D01*
X447383Y180159D01*
X447278Y180198D01*
X447175Y180240D01*
X447073Y180286D01*
X446973Y180335D01*
X446875Y180388D01*
X446779Y180444D01*
X446684Y180504D01*
X446592Y180567D01*
X446502Y180633D01*
X446415Y180703D01*
X446330Y180775D01*
X446248Y180850D01*
X446168Y180929D01*
X446091Y181010D01*
X446018Y181093D01*
X445947Y181179D01*
X445879Y181268D01*
X445814Y181359D01*
X445753Y181452D01*
X445695Y181547D01*
X445640Y181645D01*
X445589Y181744D01*
X445541Y181845D01*
X445497Y181947D01*
X445457Y182051D01*
X445420Y182157D01*
X445387Y182263D01*
X445358Y182371D01*
X445333Y182480D01*
X445311Y182589D01*
X445293Y182699D01*
X445280Y182810D01*
X445270Y182921D01*
X445264Y183032D01*
X445262Y183144D01*
X445262Y187208D01*
X453390Y187208D01*
X453491Y187206D01*
X453592Y187200D01*
X453693Y187191D01*
X453794Y187178D01*
X453894Y187161D01*
X453993Y187140D01*
X454091Y187116D01*
X454188Y187088D01*
X454285Y187056D01*
X454380Y187021D01*
X454473Y186982D01*
X454565Y186940D01*
X454656Y186894D01*
X454745Y186845D01*
X454831Y186793D01*
X454916Y186737D01*
X454999Y186679D01*
X455079Y186617D01*
X455157Y186552D01*
X455233Y186485D01*
X455306Y186415D01*
X455376Y186342D01*
X455443Y186266D01*
X455508Y186188D01*
X455570Y186108D01*
X455628Y186025D01*
X455684Y185940D01*
X455736Y185854D01*
X455785Y185765D01*
X455831Y185674D01*
X455873Y185582D01*
X455912Y185489D01*
X455947Y185394D01*
X455979Y185297D01*
X456007Y185200D01*
X456031Y185102D01*
X456052Y185003D01*
X456069Y184903D01*
X456082Y184802D01*
X456091Y184701D01*
X456097Y184600D01*
X456099Y184499D01*
X456099Y180887D01*
X456099Y194924D02*
X445262Y194924D01*
X456099Y194924D02*
X456099Y203052D01*
X456097Y203153D01*
X456091Y203254D01*
X456082Y203355D01*
X456069Y203456D01*
X456052Y203556D01*
X456031Y203655D01*
X456007Y203753D01*
X455979Y203850D01*
X455947Y203947D01*
X455912Y204042D01*
X455873Y204135D01*
X455831Y204227D01*
X455785Y204318D01*
X455736Y204407D01*
X455684Y204493D01*
X455628Y204578D01*
X455570Y204661D01*
X455508Y204741D01*
X455443Y204819D01*
X455376Y204895D01*
X455306Y204968D01*
X455233Y205038D01*
X455157Y205105D01*
X455079Y205170D01*
X454999Y205232D01*
X454916Y205290D01*
X454831Y205346D01*
X454745Y205398D01*
X454656Y205447D01*
X454565Y205493D01*
X454473Y205535D01*
X454380Y205574D01*
X454285Y205609D01*
X454188Y205641D01*
X454091Y205669D01*
X453993Y205693D01*
X453894Y205714D01*
X453794Y205731D01*
X453693Y205744D01*
X453592Y205753D01*
X453491Y205759D01*
X453390Y205761D01*
X445262Y205761D01*
X445262Y200343D02*
X456099Y200343D01*
X456099Y212848D02*
X445262Y212848D01*
X460615Y212396D02*
X461518Y212396D01*
X461518Y213299D01*
X460615Y213299D01*
X460615Y212396D01*
X445262Y221844D02*
X445262Y226360D01*
X445262Y221844D02*
X445264Y221743D01*
X445270Y221642D01*
X445279Y221541D01*
X445292Y221440D01*
X445309Y221340D01*
X445330Y221241D01*
X445354Y221143D01*
X445382Y221046D01*
X445414Y220949D01*
X445449Y220854D01*
X445488Y220761D01*
X445530Y220669D01*
X445576Y220578D01*
X445625Y220490D01*
X445677Y220403D01*
X445733Y220318D01*
X445791Y220235D01*
X445853Y220155D01*
X445918Y220077D01*
X445985Y220001D01*
X446055Y219928D01*
X446128Y219858D01*
X446204Y219791D01*
X446282Y219726D01*
X446362Y219664D01*
X446445Y219606D01*
X446530Y219550D01*
X446617Y219498D01*
X446705Y219449D01*
X446796Y219403D01*
X446888Y219361D01*
X446981Y219322D01*
X447076Y219287D01*
X447173Y219255D01*
X447270Y219227D01*
X447368Y219203D01*
X447467Y219182D01*
X447567Y219165D01*
X447668Y219152D01*
X447769Y219143D01*
X447870Y219137D01*
X447971Y219135D01*
X452487Y219135D01*
X452606Y219137D01*
X452726Y219143D01*
X452845Y219153D01*
X452963Y219167D01*
X453082Y219184D01*
X453199Y219206D01*
X453316Y219231D01*
X453431Y219261D01*
X453546Y219294D01*
X453660Y219331D01*
X453772Y219371D01*
X453883Y219416D01*
X453992Y219464D01*
X454100Y219515D01*
X454206Y219570D01*
X454310Y219629D01*
X454412Y219691D01*
X454512Y219756D01*
X454610Y219825D01*
X454706Y219897D01*
X454799Y219972D01*
X454889Y220049D01*
X454977Y220130D01*
X455062Y220214D01*
X455144Y220301D01*
X455224Y220390D01*
X455300Y220482D01*
X455374Y220576D01*
X455444Y220673D01*
X455511Y220771D01*
X455575Y220872D01*
X455635Y220976D01*
X455692Y221081D01*
X455745Y221188D01*
X455795Y221296D01*
X455841Y221406D01*
X455883Y221518D01*
X455922Y221631D01*
X455957Y221745D01*
X455988Y221860D01*
X456016Y221977D01*
X456039Y222094D01*
X456059Y222211D01*
X456075Y222330D01*
X456087Y222449D01*
X456095Y222568D01*
X456099Y222687D01*
X456099Y222807D01*
X456095Y222926D01*
X456087Y223045D01*
X456075Y223164D01*
X456059Y223283D01*
X456039Y223400D01*
X456016Y223517D01*
X455988Y223634D01*
X455957Y223749D01*
X455922Y223863D01*
X455883Y223976D01*
X455841Y224088D01*
X455795Y224198D01*
X455745Y224306D01*
X455692Y224413D01*
X455635Y224518D01*
X455575Y224622D01*
X455511Y224723D01*
X455444Y224821D01*
X455374Y224918D01*
X455300Y225012D01*
X455224Y225104D01*
X455144Y225193D01*
X455062Y225280D01*
X454977Y225364D01*
X454889Y225445D01*
X454799Y225522D01*
X454706Y225597D01*
X454610Y225669D01*
X454512Y225738D01*
X454412Y225803D01*
X454310Y225865D01*
X454206Y225924D01*
X454100Y225979D01*
X453992Y226030D01*
X453883Y226078D01*
X453772Y226123D01*
X453660Y226163D01*
X453546Y226200D01*
X453431Y226233D01*
X453316Y226263D01*
X453199Y226288D01*
X453082Y226310D01*
X452963Y226327D01*
X452845Y226341D01*
X452726Y226351D01*
X452606Y226357D01*
X452487Y226359D01*
X452487Y226360D02*
X450681Y226360D01*
X450681Y219135D01*
X445262Y233203D02*
X456099Y233203D01*
X456099Y237718D01*
X456097Y237819D01*
X456091Y237920D01*
X456082Y238021D01*
X456069Y238122D01*
X456052Y238222D01*
X456031Y238321D01*
X456007Y238419D01*
X455979Y238516D01*
X455947Y238613D01*
X455912Y238708D01*
X455873Y238801D01*
X455831Y238893D01*
X455785Y238984D01*
X455736Y239073D01*
X455684Y239159D01*
X455628Y239244D01*
X455570Y239327D01*
X455508Y239407D01*
X455443Y239485D01*
X455376Y239561D01*
X455306Y239634D01*
X455233Y239704D01*
X455157Y239771D01*
X455079Y239836D01*
X454999Y239898D01*
X454916Y239956D01*
X454831Y240012D01*
X454745Y240064D01*
X454656Y240113D01*
X454565Y240159D01*
X454473Y240201D01*
X454380Y240240D01*
X454285Y240275D01*
X454188Y240307D01*
X454091Y240335D01*
X453993Y240359D01*
X453894Y240380D01*
X453794Y240397D01*
X453693Y240410D01*
X453592Y240419D01*
X453491Y240425D01*
X453390Y240427D01*
X453390Y240428D02*
X445262Y240428D01*
X456099Y245974D02*
X456099Y251392D01*
X461518Y247780D02*
X447971Y247780D01*
X447870Y247782D01*
X447769Y247788D01*
X447668Y247797D01*
X447567Y247810D01*
X447467Y247827D01*
X447368Y247848D01*
X447270Y247872D01*
X447173Y247900D01*
X447076Y247932D01*
X446981Y247967D01*
X446888Y248006D01*
X446796Y248048D01*
X446705Y248094D01*
X446617Y248143D01*
X446530Y248195D01*
X446445Y248251D01*
X446362Y248309D01*
X446282Y248371D01*
X446204Y248436D01*
X446128Y248503D01*
X446055Y248573D01*
X445985Y248646D01*
X445918Y248722D01*
X445853Y248800D01*
X445791Y248880D01*
X445733Y248963D01*
X445677Y249048D01*
X445625Y249135D01*
X445576Y249223D01*
X445530Y249314D01*
X445488Y249406D01*
X445449Y249499D01*
X445414Y249594D01*
X445382Y249691D01*
X445354Y249788D01*
X445330Y249886D01*
X445309Y249985D01*
X445292Y250085D01*
X445279Y250186D01*
X445270Y250287D01*
X445264Y250388D01*
X445262Y250489D01*
X445262Y251392D01*
X448874Y257171D02*
X452487Y257171D01*
X452606Y257173D01*
X452726Y257179D01*
X452845Y257189D01*
X452963Y257203D01*
X453082Y257220D01*
X453199Y257242D01*
X453316Y257267D01*
X453431Y257297D01*
X453546Y257330D01*
X453660Y257367D01*
X453772Y257407D01*
X453883Y257452D01*
X453992Y257500D01*
X454100Y257551D01*
X454206Y257606D01*
X454310Y257665D01*
X454412Y257727D01*
X454512Y257792D01*
X454610Y257861D01*
X454706Y257933D01*
X454799Y258008D01*
X454889Y258085D01*
X454977Y258166D01*
X455062Y258250D01*
X455144Y258337D01*
X455224Y258426D01*
X455300Y258518D01*
X455374Y258612D01*
X455444Y258709D01*
X455511Y258807D01*
X455575Y258908D01*
X455635Y259012D01*
X455692Y259117D01*
X455745Y259224D01*
X455795Y259332D01*
X455841Y259442D01*
X455883Y259554D01*
X455922Y259667D01*
X455957Y259781D01*
X455988Y259896D01*
X456016Y260013D01*
X456039Y260130D01*
X456059Y260247D01*
X456075Y260366D01*
X456087Y260485D01*
X456095Y260604D01*
X456099Y260723D01*
X456099Y260843D01*
X456095Y260962D01*
X456087Y261081D01*
X456075Y261200D01*
X456059Y261319D01*
X456039Y261436D01*
X456016Y261553D01*
X455988Y261670D01*
X455957Y261785D01*
X455922Y261899D01*
X455883Y262012D01*
X455841Y262124D01*
X455795Y262234D01*
X455745Y262342D01*
X455692Y262449D01*
X455635Y262554D01*
X455575Y262658D01*
X455511Y262759D01*
X455444Y262857D01*
X455374Y262954D01*
X455300Y263048D01*
X455224Y263140D01*
X455144Y263229D01*
X455062Y263316D01*
X454977Y263400D01*
X454889Y263481D01*
X454799Y263558D01*
X454706Y263633D01*
X454610Y263705D01*
X454512Y263774D01*
X454412Y263839D01*
X454310Y263901D01*
X454206Y263960D01*
X454100Y264015D01*
X453992Y264066D01*
X453883Y264114D01*
X453772Y264159D01*
X453660Y264199D01*
X453546Y264236D01*
X453431Y264269D01*
X453316Y264299D01*
X453199Y264324D01*
X453082Y264346D01*
X452963Y264363D01*
X452845Y264377D01*
X452726Y264387D01*
X452606Y264393D01*
X452487Y264395D01*
X452487Y264396D02*
X448874Y264396D01*
X448874Y264395D02*
X448755Y264393D01*
X448635Y264387D01*
X448516Y264377D01*
X448398Y264363D01*
X448279Y264346D01*
X448162Y264324D01*
X448045Y264299D01*
X447930Y264269D01*
X447815Y264236D01*
X447701Y264199D01*
X447589Y264159D01*
X447478Y264114D01*
X447369Y264066D01*
X447261Y264015D01*
X447155Y263960D01*
X447051Y263901D01*
X446949Y263839D01*
X446849Y263774D01*
X446751Y263705D01*
X446655Y263633D01*
X446562Y263558D01*
X446472Y263481D01*
X446384Y263400D01*
X446299Y263316D01*
X446217Y263229D01*
X446137Y263140D01*
X446061Y263048D01*
X445987Y262954D01*
X445917Y262857D01*
X445850Y262759D01*
X445786Y262658D01*
X445726Y262554D01*
X445669Y262449D01*
X445616Y262342D01*
X445566Y262234D01*
X445520Y262124D01*
X445478Y262012D01*
X445439Y261899D01*
X445404Y261785D01*
X445373Y261670D01*
X445345Y261553D01*
X445322Y261436D01*
X445302Y261319D01*
X445286Y261200D01*
X445274Y261081D01*
X445266Y260962D01*
X445262Y260843D01*
X445262Y260723D01*
X445266Y260604D01*
X445274Y260485D01*
X445286Y260366D01*
X445302Y260247D01*
X445322Y260130D01*
X445345Y260013D01*
X445373Y259896D01*
X445404Y259781D01*
X445439Y259667D01*
X445478Y259554D01*
X445520Y259442D01*
X445566Y259332D01*
X445616Y259224D01*
X445669Y259117D01*
X445726Y259012D01*
X445786Y258908D01*
X445850Y258807D01*
X445917Y258709D01*
X445987Y258612D01*
X446061Y258518D01*
X446137Y258426D01*
X446217Y258337D01*
X446299Y258250D01*
X446384Y258166D01*
X446472Y258085D01*
X446562Y258008D01*
X446655Y257933D01*
X446751Y257861D01*
X446849Y257792D01*
X446949Y257727D01*
X447051Y257665D01*
X447155Y257606D01*
X447261Y257551D01*
X447369Y257500D01*
X447478Y257452D01*
X447589Y257407D01*
X447701Y257367D01*
X447815Y257330D01*
X447930Y257297D01*
X448045Y257267D01*
X448162Y257242D01*
X448279Y257220D01*
X448398Y257203D01*
X448516Y257189D01*
X448635Y257179D01*
X448755Y257173D01*
X448874Y257171D01*
X451584Y272073D02*
X449778Y276588D01*
X451584Y272072D02*
X451621Y271984D01*
X451662Y271898D01*
X451706Y271813D01*
X451754Y271730D01*
X451805Y271650D01*
X451859Y271571D01*
X451917Y271495D01*
X451977Y271421D01*
X452041Y271349D01*
X452107Y271281D01*
X452177Y271215D01*
X452248Y271152D01*
X452323Y271091D01*
X452399Y271034D01*
X452478Y270981D01*
X452559Y270930D01*
X452642Y270883D01*
X452727Y270839D01*
X452814Y270799D01*
X452902Y270762D01*
X452992Y270729D01*
X453083Y270699D01*
X453175Y270674D01*
X453268Y270652D01*
X453362Y270634D01*
X453456Y270619D01*
X453551Y270609D01*
X453647Y270603D01*
X453742Y270600D01*
X453838Y270601D01*
X453933Y270607D01*
X454029Y270616D01*
X454123Y270629D01*
X454217Y270645D01*
X454311Y270666D01*
X454403Y270691D01*
X454494Y270719D01*
X454584Y270751D01*
X454673Y270786D01*
X454760Y270825D01*
X454846Y270868D01*
X454930Y270914D01*
X455011Y270964D01*
X455091Y271016D01*
X455169Y271072D01*
X455244Y271132D01*
X455316Y271194D01*
X455386Y271259D01*
X455454Y271327D01*
X455518Y271397D01*
X455580Y271470D01*
X455638Y271546D01*
X455694Y271624D01*
X455746Y271704D01*
X455795Y271786D01*
X455840Y271870D01*
X455882Y271956D01*
X455921Y272043D01*
X455956Y272132D01*
X455987Y272223D01*
X456014Y272314D01*
X456038Y272407D01*
X456058Y272500D01*
X456074Y272594D01*
X456086Y272689D01*
X456095Y272784D01*
X456099Y272880D01*
X456100Y272975D01*
X456093Y273222D01*
X456081Y273468D01*
X456063Y273714D01*
X456038Y273960D01*
X456008Y274204D01*
X455972Y274448D01*
X455931Y274691D01*
X455883Y274933D01*
X455829Y275174D01*
X455770Y275413D01*
X455705Y275651D01*
X455634Y275887D01*
X455558Y276122D01*
X455476Y276355D01*
X455388Y276585D01*
X455295Y276813D01*
X455197Y277040D01*
X449777Y276588D02*
X449740Y276676D01*
X449699Y276762D01*
X449655Y276847D01*
X449607Y276930D01*
X449556Y277010D01*
X449502Y277089D01*
X449444Y277165D01*
X449384Y277239D01*
X449320Y277311D01*
X449254Y277379D01*
X449184Y277445D01*
X449113Y277508D01*
X449038Y277569D01*
X448962Y277626D01*
X448883Y277679D01*
X448802Y277730D01*
X448719Y277777D01*
X448634Y277821D01*
X448547Y277861D01*
X448459Y277898D01*
X448369Y277931D01*
X448278Y277961D01*
X448186Y277986D01*
X448093Y278008D01*
X447999Y278026D01*
X447905Y278041D01*
X447810Y278051D01*
X447714Y278057D01*
X447619Y278060D01*
X447523Y278059D01*
X447428Y278053D01*
X447332Y278044D01*
X447238Y278031D01*
X447144Y278015D01*
X447050Y277994D01*
X446958Y277969D01*
X446867Y277941D01*
X446777Y277909D01*
X446688Y277874D01*
X446601Y277835D01*
X446515Y277792D01*
X446431Y277746D01*
X446350Y277696D01*
X446270Y277644D01*
X446192Y277588D01*
X446117Y277528D01*
X446045Y277466D01*
X445975Y277401D01*
X445907Y277333D01*
X445843Y277263D01*
X445781Y277190D01*
X445723Y277114D01*
X445667Y277036D01*
X445615Y276956D01*
X445566Y276874D01*
X445521Y276790D01*
X445479Y276704D01*
X445440Y276617D01*
X445405Y276528D01*
X445374Y276437D01*
X445347Y276346D01*
X445323Y276253D01*
X445303Y276160D01*
X445287Y276066D01*
X445275Y275971D01*
X445266Y275876D01*
X445262Y275780D01*
X445261Y275685D01*
X445262Y275685D02*
X445271Y275323D01*
X445289Y274961D01*
X445316Y274600D01*
X445351Y274240D01*
X445394Y273880D01*
X445446Y273521D01*
X445507Y273164D01*
X445576Y272809D01*
X445653Y272455D01*
X445739Y272103D01*
X445833Y271753D01*
X445936Y271405D01*
X446046Y271060D01*
X446165Y270718D01*
X449778Y293262D02*
X461518Y293262D01*
X449778Y293261D02*
X449645Y293263D01*
X449513Y293269D01*
X449381Y293279D01*
X449249Y293292D01*
X449117Y293310D01*
X448987Y293331D01*
X448856Y293356D01*
X448727Y293385D01*
X448599Y293418D01*
X448471Y293454D01*
X448345Y293494D01*
X448220Y293538D01*
X448096Y293586D01*
X447974Y293637D01*
X447853Y293692D01*
X447734Y293750D01*
X447616Y293812D01*
X447501Y293877D01*
X447387Y293946D01*
X447276Y294017D01*
X447167Y294093D01*
X447060Y294171D01*
X446955Y294252D01*
X446853Y294337D01*
X446753Y294424D01*
X446656Y294514D01*
X446561Y294607D01*
X446470Y294703D01*
X446381Y294801D01*
X446295Y294902D01*
X446212Y295006D01*
X446132Y295112D01*
X446056Y295220D01*
X445982Y295330D01*
X445912Y295443D01*
X445845Y295557D01*
X445782Y295674D01*
X445722Y295792D01*
X445665Y295912D01*
X445612Y296034D01*
X445563Y296157D01*
X445517Y296281D01*
X445475Y296407D01*
X445437Y296534D01*
X445402Y296662D01*
X445371Y296791D01*
X445344Y296920D01*
X445321Y297051D01*
X445301Y297182D01*
X445286Y297314D01*
X445274Y297446D01*
X445266Y297578D01*
X445262Y297711D01*
X445262Y297843D01*
X445266Y297976D01*
X445274Y298108D01*
X445286Y298240D01*
X445301Y298372D01*
X445321Y298503D01*
X445344Y298634D01*
X445371Y298763D01*
X445402Y298892D01*
X445437Y299020D01*
X445475Y299147D01*
X445517Y299273D01*
X445563Y299397D01*
X445612Y299520D01*
X445665Y299642D01*
X445722Y299762D01*
X445782Y299880D01*
X445845Y299997D01*
X445912Y300111D01*
X445982Y300224D01*
X446056Y300334D01*
X446132Y300442D01*
X446212Y300548D01*
X446295Y300652D01*
X446381Y300753D01*
X446470Y300851D01*
X446561Y300947D01*
X446656Y301040D01*
X446753Y301130D01*
X446853Y301217D01*
X446955Y301302D01*
X447060Y301383D01*
X447167Y301461D01*
X447276Y301537D01*
X447387Y301608D01*
X447501Y301677D01*
X447616Y301742D01*
X447734Y301804D01*
X447853Y301862D01*
X447974Y301917D01*
X448096Y301968D01*
X448220Y302016D01*
X448345Y302060D01*
X448471Y302100D01*
X448599Y302136D01*
X448727Y302169D01*
X448856Y302198D01*
X448987Y302223D01*
X449117Y302244D01*
X449249Y302262D01*
X449381Y302275D01*
X449513Y302285D01*
X449645Y302291D01*
X449778Y302293D01*
X461518Y302293D01*
X468291Y300035D02*
X465582Y296422D01*
X456099Y309796D02*
X445262Y309796D01*
X456099Y309796D02*
X456099Y314311D01*
X456097Y314412D01*
X456091Y314513D01*
X456082Y314614D01*
X456069Y314715D01*
X456052Y314815D01*
X456031Y314914D01*
X456007Y315012D01*
X455979Y315109D01*
X455947Y315206D01*
X455912Y315301D01*
X455873Y315394D01*
X455831Y315486D01*
X455785Y315577D01*
X455736Y315666D01*
X455684Y315752D01*
X455628Y315837D01*
X455570Y315920D01*
X455508Y316000D01*
X455443Y316078D01*
X455376Y316154D01*
X455306Y316227D01*
X455233Y316297D01*
X455157Y316364D01*
X455079Y316429D01*
X454999Y316491D01*
X454916Y316549D01*
X454831Y316605D01*
X454745Y316657D01*
X454656Y316706D01*
X454565Y316752D01*
X454473Y316794D01*
X454380Y316833D01*
X454285Y316868D01*
X454188Y316900D01*
X454091Y316928D01*
X453993Y316952D01*
X453894Y316973D01*
X453794Y316990D01*
X453693Y317003D01*
X453592Y317012D01*
X453491Y317018D01*
X453390Y317020D01*
X453390Y317021D02*
X445262Y317021D01*
X445262Y323829D02*
X456099Y323829D01*
X460615Y323378D02*
X461518Y323378D01*
X461518Y324281D01*
X460615Y324281D01*
X460615Y323378D01*
X445262Y332843D02*
X445262Y336456D01*
X445262Y332843D02*
X445264Y332742D01*
X445270Y332641D01*
X445279Y332540D01*
X445292Y332439D01*
X445309Y332339D01*
X445330Y332240D01*
X445354Y332142D01*
X445382Y332045D01*
X445414Y331948D01*
X445449Y331853D01*
X445488Y331760D01*
X445530Y331668D01*
X445576Y331577D01*
X445625Y331489D01*
X445677Y331402D01*
X445733Y331317D01*
X445791Y331234D01*
X445853Y331154D01*
X445918Y331076D01*
X445985Y331000D01*
X446055Y330927D01*
X446128Y330857D01*
X446204Y330790D01*
X446282Y330725D01*
X446362Y330663D01*
X446445Y330605D01*
X446530Y330549D01*
X446617Y330497D01*
X446705Y330448D01*
X446796Y330402D01*
X446888Y330360D01*
X446981Y330321D01*
X447076Y330286D01*
X447173Y330254D01*
X447270Y330226D01*
X447368Y330202D01*
X447467Y330181D01*
X447567Y330164D01*
X447668Y330151D01*
X447769Y330142D01*
X447870Y330136D01*
X447971Y330134D01*
X453390Y330134D01*
X453491Y330136D01*
X453592Y330142D01*
X453693Y330151D01*
X453794Y330164D01*
X453894Y330181D01*
X453993Y330202D01*
X454091Y330226D01*
X454188Y330254D01*
X454285Y330286D01*
X454380Y330321D01*
X454473Y330360D01*
X454565Y330402D01*
X454656Y330448D01*
X454745Y330497D01*
X454831Y330549D01*
X454916Y330605D01*
X454999Y330663D01*
X455079Y330725D01*
X455157Y330790D01*
X455233Y330857D01*
X455306Y330927D01*
X455376Y331000D01*
X455443Y331076D01*
X455508Y331154D01*
X455570Y331234D01*
X455628Y331317D01*
X455684Y331402D01*
X455736Y331489D01*
X455785Y331577D01*
X455831Y331668D01*
X455873Y331760D01*
X455912Y331853D01*
X455947Y331948D01*
X455979Y332045D01*
X456007Y332142D01*
X456031Y332240D01*
X456052Y332339D01*
X456069Y332439D01*
X456082Y332540D01*
X456091Y332641D01*
X456097Y332742D01*
X456099Y332843D01*
X456099Y336456D01*
X452487Y342100D02*
X448874Y342100D01*
X452487Y342101D02*
X452606Y342103D01*
X452726Y342109D01*
X452845Y342119D01*
X452963Y342133D01*
X453082Y342150D01*
X453199Y342172D01*
X453316Y342197D01*
X453431Y342227D01*
X453546Y342260D01*
X453660Y342297D01*
X453772Y342337D01*
X453883Y342382D01*
X453992Y342430D01*
X454100Y342481D01*
X454206Y342536D01*
X454310Y342595D01*
X454412Y342657D01*
X454512Y342722D01*
X454610Y342791D01*
X454706Y342863D01*
X454799Y342938D01*
X454889Y343015D01*
X454977Y343096D01*
X455062Y343180D01*
X455144Y343267D01*
X455224Y343356D01*
X455300Y343448D01*
X455374Y343542D01*
X455444Y343639D01*
X455511Y343737D01*
X455575Y343838D01*
X455635Y343942D01*
X455692Y344047D01*
X455745Y344154D01*
X455795Y344262D01*
X455841Y344372D01*
X455883Y344484D01*
X455922Y344597D01*
X455957Y344711D01*
X455988Y344826D01*
X456016Y344943D01*
X456039Y345060D01*
X456059Y345177D01*
X456075Y345296D01*
X456087Y345415D01*
X456095Y345534D01*
X456099Y345653D01*
X456099Y345773D01*
X456095Y345892D01*
X456087Y346011D01*
X456075Y346130D01*
X456059Y346249D01*
X456039Y346366D01*
X456016Y346483D01*
X455988Y346600D01*
X455957Y346715D01*
X455922Y346829D01*
X455883Y346942D01*
X455841Y347054D01*
X455795Y347164D01*
X455745Y347272D01*
X455692Y347379D01*
X455635Y347484D01*
X455575Y347588D01*
X455511Y347689D01*
X455444Y347787D01*
X455374Y347884D01*
X455300Y347978D01*
X455224Y348070D01*
X455144Y348159D01*
X455062Y348246D01*
X454977Y348330D01*
X454889Y348411D01*
X454799Y348488D01*
X454706Y348563D01*
X454610Y348635D01*
X454512Y348704D01*
X454412Y348769D01*
X454310Y348831D01*
X454206Y348890D01*
X454100Y348945D01*
X453992Y348996D01*
X453883Y349044D01*
X453772Y349089D01*
X453660Y349129D01*
X453546Y349166D01*
X453431Y349199D01*
X453316Y349229D01*
X453199Y349254D01*
X453082Y349276D01*
X452963Y349293D01*
X452845Y349307D01*
X452726Y349317D01*
X452606Y349323D01*
X452487Y349325D01*
X448874Y349325D01*
X448755Y349323D01*
X448635Y349317D01*
X448516Y349307D01*
X448398Y349293D01*
X448279Y349276D01*
X448162Y349254D01*
X448045Y349229D01*
X447930Y349199D01*
X447815Y349166D01*
X447701Y349129D01*
X447589Y349089D01*
X447478Y349044D01*
X447369Y348996D01*
X447261Y348945D01*
X447155Y348890D01*
X447051Y348831D01*
X446949Y348769D01*
X446849Y348704D01*
X446751Y348635D01*
X446655Y348563D01*
X446562Y348488D01*
X446472Y348411D01*
X446384Y348330D01*
X446299Y348246D01*
X446217Y348159D01*
X446137Y348070D01*
X446061Y347978D01*
X445987Y347884D01*
X445917Y347787D01*
X445850Y347689D01*
X445786Y347588D01*
X445726Y347484D01*
X445669Y347379D01*
X445616Y347272D01*
X445566Y347164D01*
X445520Y347054D01*
X445478Y346942D01*
X445439Y346829D01*
X445404Y346715D01*
X445373Y346600D01*
X445345Y346483D01*
X445322Y346366D01*
X445302Y346249D01*
X445286Y346130D01*
X445274Y346011D01*
X445266Y345892D01*
X445262Y345773D01*
X445262Y345653D01*
X445266Y345534D01*
X445274Y345415D01*
X445286Y345296D01*
X445302Y345177D01*
X445322Y345060D01*
X445345Y344943D01*
X445373Y344826D01*
X445404Y344711D01*
X445439Y344597D01*
X445478Y344484D01*
X445520Y344372D01*
X445566Y344262D01*
X445616Y344154D01*
X445669Y344047D01*
X445726Y343942D01*
X445786Y343838D01*
X445850Y343737D01*
X445917Y343639D01*
X445987Y343542D01*
X446061Y343448D01*
X446137Y343356D01*
X446217Y343267D01*
X446299Y343180D01*
X446384Y343096D01*
X446472Y343015D01*
X446562Y342938D01*
X446655Y342863D01*
X446751Y342791D01*
X446849Y342722D01*
X446949Y342657D01*
X447051Y342595D01*
X447155Y342536D01*
X447261Y342481D01*
X447369Y342430D01*
X447478Y342382D01*
X447589Y342337D01*
X447701Y342297D01*
X447815Y342260D01*
X447930Y342227D01*
X448045Y342197D01*
X448162Y342172D01*
X448279Y342150D01*
X448398Y342133D01*
X448516Y342119D01*
X448635Y342109D01*
X448755Y342103D01*
X448874Y342101D01*
X451584Y357002D02*
X449778Y361518D01*
X451584Y357002D02*
X451621Y356914D01*
X451662Y356828D01*
X451706Y356743D01*
X451754Y356660D01*
X451805Y356580D01*
X451859Y356501D01*
X451917Y356425D01*
X451977Y356351D01*
X452041Y356279D01*
X452107Y356211D01*
X452177Y356145D01*
X452248Y356082D01*
X452323Y356021D01*
X452399Y355964D01*
X452478Y355911D01*
X452559Y355860D01*
X452642Y355813D01*
X452727Y355769D01*
X452814Y355729D01*
X452902Y355692D01*
X452992Y355659D01*
X453083Y355629D01*
X453175Y355604D01*
X453268Y355582D01*
X453362Y355564D01*
X453456Y355549D01*
X453551Y355539D01*
X453647Y355533D01*
X453742Y355530D01*
X453838Y355531D01*
X453933Y355537D01*
X454029Y355546D01*
X454123Y355559D01*
X454217Y355575D01*
X454311Y355596D01*
X454403Y355621D01*
X454494Y355649D01*
X454584Y355681D01*
X454673Y355716D01*
X454760Y355755D01*
X454846Y355798D01*
X454930Y355844D01*
X455011Y355894D01*
X455091Y355946D01*
X455169Y356002D01*
X455244Y356062D01*
X455316Y356124D01*
X455386Y356189D01*
X455454Y356257D01*
X455518Y356327D01*
X455580Y356400D01*
X455638Y356476D01*
X455694Y356554D01*
X455746Y356634D01*
X455795Y356716D01*
X455840Y356800D01*
X455882Y356886D01*
X455921Y356973D01*
X455956Y357062D01*
X455987Y357153D01*
X456014Y357244D01*
X456038Y357337D01*
X456058Y357430D01*
X456074Y357524D01*
X456086Y357619D01*
X456095Y357714D01*
X456099Y357810D01*
X456100Y357905D01*
X456093Y358152D01*
X456081Y358398D01*
X456063Y358644D01*
X456038Y358890D01*
X456008Y359134D01*
X455972Y359378D01*
X455931Y359621D01*
X455883Y359863D01*
X455829Y360104D01*
X455770Y360343D01*
X455705Y360581D01*
X455634Y360817D01*
X455558Y361052D01*
X455476Y361285D01*
X455388Y361515D01*
X455295Y361743D01*
X455197Y361970D01*
X449777Y361518D02*
X449740Y361606D01*
X449699Y361692D01*
X449655Y361777D01*
X449607Y361860D01*
X449556Y361940D01*
X449502Y362019D01*
X449444Y362095D01*
X449384Y362169D01*
X449320Y362241D01*
X449254Y362309D01*
X449184Y362375D01*
X449113Y362438D01*
X449038Y362499D01*
X448962Y362556D01*
X448883Y362609D01*
X448802Y362660D01*
X448719Y362707D01*
X448634Y362751D01*
X448547Y362791D01*
X448459Y362828D01*
X448369Y362861D01*
X448278Y362891D01*
X448186Y362916D01*
X448093Y362938D01*
X447999Y362956D01*
X447905Y362971D01*
X447810Y362981D01*
X447714Y362987D01*
X447619Y362990D01*
X447523Y362989D01*
X447428Y362983D01*
X447332Y362974D01*
X447238Y362961D01*
X447144Y362945D01*
X447050Y362924D01*
X446958Y362899D01*
X446867Y362871D01*
X446777Y362839D01*
X446688Y362804D01*
X446601Y362765D01*
X446515Y362722D01*
X446431Y362676D01*
X446350Y362626D01*
X446270Y362574D01*
X446192Y362518D01*
X446117Y362458D01*
X446045Y362396D01*
X445975Y362331D01*
X445907Y362263D01*
X445843Y362193D01*
X445781Y362120D01*
X445723Y362044D01*
X445667Y361966D01*
X445615Y361886D01*
X445566Y361804D01*
X445521Y361720D01*
X445479Y361634D01*
X445440Y361547D01*
X445405Y361458D01*
X445374Y361367D01*
X445347Y361276D01*
X445323Y361183D01*
X445303Y361090D01*
X445287Y360996D01*
X445275Y360901D01*
X445266Y360806D01*
X445262Y360710D01*
X445261Y360615D01*
X445262Y360614D02*
X445271Y360252D01*
X445289Y359890D01*
X445316Y359529D01*
X445351Y359169D01*
X445394Y358809D01*
X445446Y358450D01*
X445507Y358093D01*
X445576Y357738D01*
X445653Y357384D01*
X445739Y357032D01*
X445833Y356682D01*
X445936Y356334D01*
X446046Y355989D01*
X446165Y355647D01*
X445262Y384683D02*
X461518Y384683D01*
X445262Y384683D02*
X445262Y380167D01*
X445264Y380066D01*
X445270Y379965D01*
X445279Y379864D01*
X445292Y379763D01*
X445309Y379663D01*
X445330Y379564D01*
X445354Y379466D01*
X445382Y379369D01*
X445414Y379272D01*
X445449Y379177D01*
X445488Y379084D01*
X445530Y378992D01*
X445576Y378901D01*
X445625Y378813D01*
X445677Y378726D01*
X445733Y378641D01*
X445791Y378558D01*
X445853Y378478D01*
X445918Y378400D01*
X445985Y378324D01*
X446055Y378251D01*
X446128Y378181D01*
X446204Y378114D01*
X446282Y378049D01*
X446362Y377987D01*
X446445Y377929D01*
X446530Y377873D01*
X446617Y377821D01*
X446705Y377772D01*
X446796Y377726D01*
X446888Y377684D01*
X446981Y377645D01*
X447076Y377610D01*
X447173Y377578D01*
X447270Y377550D01*
X447368Y377526D01*
X447467Y377505D01*
X447567Y377488D01*
X447668Y377475D01*
X447769Y377466D01*
X447870Y377460D01*
X447971Y377458D01*
X453390Y377458D01*
X453491Y377460D01*
X453592Y377466D01*
X453693Y377475D01*
X453794Y377488D01*
X453894Y377505D01*
X453993Y377526D01*
X454091Y377550D01*
X454188Y377578D01*
X454285Y377610D01*
X454380Y377645D01*
X454473Y377684D01*
X454565Y377726D01*
X454656Y377772D01*
X454745Y377821D01*
X454831Y377873D01*
X454916Y377929D01*
X454999Y377987D01*
X455079Y378049D01*
X455157Y378114D01*
X455233Y378181D01*
X455306Y378251D01*
X455376Y378324D01*
X455443Y378400D01*
X455508Y378478D01*
X455570Y378558D01*
X455628Y378641D01*
X455684Y378726D01*
X455736Y378813D01*
X455785Y378901D01*
X455831Y378992D01*
X455873Y379084D01*
X455912Y379177D01*
X455947Y379272D01*
X455979Y379369D01*
X456007Y379466D01*
X456031Y379564D01*
X456052Y379663D01*
X456069Y379763D01*
X456082Y379864D01*
X456091Y379965D01*
X456097Y380066D01*
X456099Y380167D01*
X456099Y384683D01*
X445262Y394309D02*
X445262Y398824D01*
X445262Y394309D02*
X445264Y394208D01*
X445270Y394107D01*
X445279Y394006D01*
X445292Y393905D01*
X445309Y393805D01*
X445330Y393706D01*
X445354Y393608D01*
X445382Y393511D01*
X445414Y393414D01*
X445449Y393319D01*
X445488Y393226D01*
X445530Y393134D01*
X445576Y393043D01*
X445625Y392955D01*
X445677Y392868D01*
X445733Y392783D01*
X445791Y392700D01*
X445853Y392620D01*
X445918Y392542D01*
X445985Y392466D01*
X446055Y392393D01*
X446128Y392323D01*
X446204Y392256D01*
X446282Y392191D01*
X446362Y392129D01*
X446445Y392071D01*
X446530Y392015D01*
X446617Y391963D01*
X446705Y391914D01*
X446796Y391868D01*
X446888Y391826D01*
X446981Y391787D01*
X447076Y391752D01*
X447173Y391720D01*
X447270Y391692D01*
X447368Y391668D01*
X447467Y391647D01*
X447567Y391630D01*
X447668Y391617D01*
X447769Y391608D01*
X447870Y391602D01*
X447971Y391600D01*
X447971Y391599D02*
X452487Y391599D01*
X452487Y391600D02*
X452606Y391602D01*
X452726Y391608D01*
X452845Y391618D01*
X452963Y391632D01*
X453082Y391649D01*
X453199Y391671D01*
X453316Y391696D01*
X453431Y391726D01*
X453546Y391759D01*
X453660Y391796D01*
X453772Y391836D01*
X453883Y391881D01*
X453992Y391929D01*
X454100Y391980D01*
X454206Y392035D01*
X454310Y392094D01*
X454412Y392156D01*
X454512Y392221D01*
X454610Y392290D01*
X454706Y392362D01*
X454799Y392437D01*
X454889Y392514D01*
X454977Y392595D01*
X455062Y392679D01*
X455144Y392766D01*
X455224Y392855D01*
X455300Y392947D01*
X455374Y393041D01*
X455444Y393138D01*
X455511Y393236D01*
X455575Y393337D01*
X455635Y393441D01*
X455692Y393546D01*
X455745Y393653D01*
X455795Y393761D01*
X455841Y393871D01*
X455883Y393983D01*
X455922Y394096D01*
X455957Y394210D01*
X455988Y394325D01*
X456016Y394442D01*
X456039Y394559D01*
X456059Y394676D01*
X456075Y394795D01*
X456087Y394914D01*
X456095Y395033D01*
X456099Y395152D01*
X456099Y395272D01*
X456095Y395391D01*
X456087Y395510D01*
X456075Y395629D01*
X456059Y395748D01*
X456039Y395865D01*
X456016Y395982D01*
X455988Y396099D01*
X455957Y396214D01*
X455922Y396328D01*
X455883Y396441D01*
X455841Y396553D01*
X455795Y396663D01*
X455745Y396771D01*
X455692Y396878D01*
X455635Y396983D01*
X455575Y397087D01*
X455511Y397188D01*
X455444Y397286D01*
X455374Y397383D01*
X455300Y397477D01*
X455224Y397569D01*
X455144Y397658D01*
X455062Y397745D01*
X454977Y397829D01*
X454889Y397910D01*
X454799Y397987D01*
X454706Y398062D01*
X454610Y398134D01*
X454512Y398203D01*
X454412Y398268D01*
X454310Y398330D01*
X454206Y398389D01*
X454100Y398444D01*
X453992Y398495D01*
X453883Y398543D01*
X453772Y398588D01*
X453660Y398628D01*
X453546Y398665D01*
X453431Y398698D01*
X453316Y398728D01*
X453199Y398753D01*
X453082Y398775D01*
X452963Y398792D01*
X452845Y398806D01*
X452726Y398816D01*
X452606Y398822D01*
X452487Y398824D01*
X450681Y398824D01*
X450681Y391599D01*
X445262Y414282D02*
X461518Y414282D01*
X452487Y419701D01*
X461518Y425119D01*
X445262Y425119D01*
X445262Y434950D02*
X445262Y439465D01*
X445262Y434950D02*
X445264Y434849D01*
X445270Y434748D01*
X445279Y434647D01*
X445292Y434546D01*
X445309Y434446D01*
X445330Y434347D01*
X445354Y434249D01*
X445382Y434152D01*
X445414Y434055D01*
X445449Y433960D01*
X445488Y433867D01*
X445530Y433775D01*
X445576Y433684D01*
X445625Y433596D01*
X445677Y433509D01*
X445733Y433424D01*
X445791Y433341D01*
X445853Y433261D01*
X445918Y433183D01*
X445985Y433107D01*
X446055Y433034D01*
X446128Y432964D01*
X446204Y432897D01*
X446282Y432832D01*
X446362Y432770D01*
X446445Y432712D01*
X446530Y432656D01*
X446617Y432604D01*
X446705Y432555D01*
X446796Y432509D01*
X446888Y432467D01*
X446981Y432428D01*
X447076Y432393D01*
X447173Y432361D01*
X447270Y432333D01*
X447368Y432309D01*
X447467Y432288D01*
X447567Y432271D01*
X447668Y432258D01*
X447769Y432249D01*
X447870Y432243D01*
X447971Y432241D01*
X447971Y432240D02*
X452487Y432240D01*
X452487Y432241D02*
X452606Y432243D01*
X452726Y432249D01*
X452845Y432259D01*
X452963Y432273D01*
X453082Y432290D01*
X453199Y432312D01*
X453316Y432337D01*
X453431Y432367D01*
X453546Y432400D01*
X453660Y432437D01*
X453772Y432477D01*
X453883Y432522D01*
X453992Y432570D01*
X454100Y432621D01*
X454206Y432676D01*
X454310Y432735D01*
X454412Y432797D01*
X454512Y432862D01*
X454610Y432931D01*
X454706Y433003D01*
X454799Y433078D01*
X454889Y433155D01*
X454977Y433236D01*
X455062Y433320D01*
X455144Y433407D01*
X455224Y433496D01*
X455300Y433588D01*
X455374Y433682D01*
X455444Y433779D01*
X455511Y433877D01*
X455575Y433978D01*
X455635Y434082D01*
X455692Y434187D01*
X455745Y434294D01*
X455795Y434402D01*
X455841Y434512D01*
X455883Y434624D01*
X455922Y434737D01*
X455957Y434851D01*
X455988Y434966D01*
X456016Y435083D01*
X456039Y435200D01*
X456059Y435317D01*
X456075Y435436D01*
X456087Y435555D01*
X456095Y435674D01*
X456099Y435793D01*
X456099Y435913D01*
X456095Y436032D01*
X456087Y436151D01*
X456075Y436270D01*
X456059Y436389D01*
X456039Y436506D01*
X456016Y436623D01*
X455988Y436740D01*
X455957Y436855D01*
X455922Y436969D01*
X455883Y437082D01*
X455841Y437194D01*
X455795Y437304D01*
X455745Y437412D01*
X455692Y437519D01*
X455635Y437624D01*
X455575Y437728D01*
X455511Y437829D01*
X455444Y437927D01*
X455374Y438024D01*
X455300Y438118D01*
X455224Y438210D01*
X455144Y438299D01*
X455062Y438386D01*
X454977Y438470D01*
X454889Y438551D01*
X454799Y438628D01*
X454706Y438703D01*
X454610Y438775D01*
X454512Y438844D01*
X454412Y438909D01*
X454310Y438971D01*
X454206Y439030D01*
X454100Y439085D01*
X453992Y439136D01*
X453883Y439184D01*
X453772Y439229D01*
X453660Y439269D01*
X453546Y439306D01*
X453431Y439339D01*
X453316Y439369D01*
X453199Y439394D01*
X453082Y439416D01*
X452963Y439433D01*
X452845Y439447D01*
X452726Y439457D01*
X452606Y439463D01*
X452487Y439465D01*
X450681Y439465D01*
X450681Y432240D01*
X460163Y434950D02*
X463324Y437659D01*
X456099Y452491D02*
X445262Y445266D01*
X445262Y452491D02*
X456099Y445266D01*
X456099Y458258D02*
X445262Y458258D01*
X460615Y457806D02*
X461518Y457806D01*
X461518Y458709D01*
X460615Y458709D01*
X460615Y457806D01*
X445262Y467272D02*
X445262Y470884D01*
X445262Y467272D02*
X445264Y467171D01*
X445270Y467070D01*
X445279Y466969D01*
X445292Y466868D01*
X445309Y466768D01*
X445330Y466669D01*
X445354Y466571D01*
X445382Y466474D01*
X445414Y466377D01*
X445449Y466282D01*
X445488Y466189D01*
X445530Y466097D01*
X445576Y466006D01*
X445625Y465918D01*
X445677Y465831D01*
X445733Y465746D01*
X445791Y465663D01*
X445853Y465583D01*
X445918Y465505D01*
X445985Y465429D01*
X446055Y465356D01*
X446128Y465286D01*
X446204Y465219D01*
X446282Y465154D01*
X446362Y465092D01*
X446445Y465034D01*
X446530Y464978D01*
X446617Y464926D01*
X446705Y464877D01*
X446796Y464831D01*
X446888Y464789D01*
X446981Y464750D01*
X447076Y464715D01*
X447173Y464683D01*
X447270Y464655D01*
X447368Y464631D01*
X447467Y464610D01*
X447567Y464593D01*
X447668Y464580D01*
X447769Y464571D01*
X447870Y464565D01*
X447971Y464563D01*
X453390Y464563D01*
X453491Y464565D01*
X453592Y464571D01*
X453693Y464580D01*
X453794Y464593D01*
X453894Y464610D01*
X453993Y464631D01*
X454091Y464655D01*
X454188Y464683D01*
X454285Y464715D01*
X454380Y464750D01*
X454473Y464789D01*
X454565Y464831D01*
X454656Y464877D01*
X454745Y464926D01*
X454831Y464978D01*
X454916Y465034D01*
X454999Y465092D01*
X455079Y465154D01*
X455157Y465219D01*
X455233Y465286D01*
X455306Y465356D01*
X455376Y465429D01*
X455443Y465505D01*
X455508Y465583D01*
X455570Y465663D01*
X455628Y465746D01*
X455684Y465831D01*
X455736Y465918D01*
X455785Y466006D01*
X455831Y466097D01*
X455873Y466189D01*
X455912Y466282D01*
X455947Y466377D01*
X455979Y466474D01*
X456007Y466571D01*
X456031Y466669D01*
X456052Y466768D01*
X456069Y466868D01*
X456082Y466969D01*
X456091Y467070D01*
X456097Y467171D01*
X456099Y467272D01*
X456099Y470884D01*
X452487Y476529D02*
X448874Y476529D01*
X452487Y476529D02*
X452606Y476531D01*
X452726Y476537D01*
X452845Y476547D01*
X452963Y476561D01*
X453082Y476578D01*
X453199Y476600D01*
X453316Y476625D01*
X453431Y476655D01*
X453546Y476688D01*
X453660Y476725D01*
X453772Y476765D01*
X453883Y476810D01*
X453992Y476858D01*
X454100Y476909D01*
X454206Y476964D01*
X454310Y477023D01*
X454412Y477085D01*
X454512Y477150D01*
X454610Y477219D01*
X454706Y477291D01*
X454799Y477366D01*
X454889Y477443D01*
X454977Y477524D01*
X455062Y477608D01*
X455144Y477695D01*
X455224Y477784D01*
X455300Y477876D01*
X455374Y477970D01*
X455444Y478067D01*
X455511Y478165D01*
X455575Y478266D01*
X455635Y478370D01*
X455692Y478475D01*
X455745Y478582D01*
X455795Y478690D01*
X455841Y478800D01*
X455883Y478912D01*
X455922Y479025D01*
X455957Y479139D01*
X455988Y479254D01*
X456016Y479371D01*
X456039Y479488D01*
X456059Y479605D01*
X456075Y479724D01*
X456087Y479843D01*
X456095Y479962D01*
X456099Y480081D01*
X456099Y480201D01*
X456095Y480320D01*
X456087Y480439D01*
X456075Y480558D01*
X456059Y480677D01*
X456039Y480794D01*
X456016Y480911D01*
X455988Y481028D01*
X455957Y481143D01*
X455922Y481257D01*
X455883Y481370D01*
X455841Y481482D01*
X455795Y481592D01*
X455745Y481700D01*
X455692Y481807D01*
X455635Y481912D01*
X455575Y482016D01*
X455511Y482117D01*
X455444Y482215D01*
X455374Y482312D01*
X455300Y482406D01*
X455224Y482498D01*
X455144Y482587D01*
X455062Y482674D01*
X454977Y482758D01*
X454889Y482839D01*
X454799Y482916D01*
X454706Y482991D01*
X454610Y483063D01*
X454512Y483132D01*
X454412Y483197D01*
X454310Y483259D01*
X454206Y483318D01*
X454100Y483373D01*
X453992Y483424D01*
X453883Y483472D01*
X453772Y483517D01*
X453660Y483557D01*
X453546Y483594D01*
X453431Y483627D01*
X453316Y483657D01*
X453199Y483682D01*
X453082Y483704D01*
X452963Y483721D01*
X452845Y483735D01*
X452726Y483745D01*
X452606Y483751D01*
X452487Y483753D01*
X452487Y483754D02*
X448874Y483754D01*
X448874Y483753D02*
X448755Y483751D01*
X448635Y483745D01*
X448516Y483735D01*
X448398Y483721D01*
X448279Y483704D01*
X448162Y483682D01*
X448045Y483657D01*
X447930Y483627D01*
X447815Y483594D01*
X447701Y483557D01*
X447589Y483517D01*
X447478Y483472D01*
X447369Y483424D01*
X447261Y483373D01*
X447155Y483318D01*
X447051Y483259D01*
X446949Y483197D01*
X446849Y483132D01*
X446751Y483063D01*
X446655Y482991D01*
X446562Y482916D01*
X446472Y482839D01*
X446384Y482758D01*
X446299Y482674D01*
X446217Y482587D01*
X446137Y482498D01*
X446061Y482406D01*
X445987Y482312D01*
X445917Y482215D01*
X445850Y482117D01*
X445786Y482016D01*
X445726Y481912D01*
X445669Y481807D01*
X445616Y481700D01*
X445566Y481592D01*
X445520Y481482D01*
X445478Y481370D01*
X445439Y481257D01*
X445404Y481143D01*
X445373Y481028D01*
X445345Y480911D01*
X445322Y480794D01*
X445302Y480677D01*
X445286Y480558D01*
X445274Y480439D01*
X445266Y480320D01*
X445262Y480201D01*
X445262Y480081D01*
X445266Y479962D01*
X445274Y479843D01*
X445286Y479724D01*
X445302Y479605D01*
X445322Y479488D01*
X445345Y479371D01*
X445373Y479254D01*
X445404Y479139D01*
X445439Y479025D01*
X445478Y478912D01*
X445520Y478800D01*
X445566Y478690D01*
X445616Y478582D01*
X445669Y478475D01*
X445726Y478370D01*
X445786Y478266D01*
X445850Y478165D01*
X445917Y478067D01*
X445987Y477970D01*
X446061Y477876D01*
X446137Y477784D01*
X446217Y477695D01*
X446299Y477608D01*
X446384Y477524D01*
X446472Y477443D01*
X446562Y477366D01*
X446655Y477291D01*
X446751Y477219D01*
X446849Y477150D01*
X446949Y477085D01*
X447051Y477023D01*
X447155Y476964D01*
X447261Y476909D01*
X447369Y476858D01*
X447478Y476810D01*
X447589Y476765D01*
X447701Y476725D01*
X447815Y476688D01*
X447930Y476655D01*
X448045Y476625D01*
X448162Y476600D01*
X448279Y476578D01*
X448398Y476561D01*
X448516Y476547D01*
X448635Y476537D01*
X448755Y476531D01*
X448874Y476529D01*
X445262Y503449D02*
X445264Y503567D01*
X445270Y503685D01*
X445279Y503803D01*
X445293Y503920D01*
X445310Y504037D01*
X445331Y504154D01*
X445356Y504269D01*
X445385Y504384D01*
X445418Y504498D01*
X445454Y504610D01*
X445494Y504721D01*
X445537Y504831D01*
X445584Y504940D01*
X445634Y505047D01*
X445689Y505152D01*
X445746Y505255D01*
X445807Y505356D01*
X445871Y505456D01*
X445938Y505553D01*
X446008Y505648D01*
X446082Y505740D01*
X446158Y505831D01*
X446238Y505918D01*
X446320Y506003D01*
X446405Y506085D01*
X446492Y506165D01*
X446583Y506241D01*
X446675Y506315D01*
X446770Y506385D01*
X446867Y506452D01*
X446967Y506516D01*
X447068Y506577D01*
X447171Y506634D01*
X447276Y506689D01*
X447383Y506739D01*
X447492Y506786D01*
X447602Y506829D01*
X447713Y506869D01*
X447825Y506905D01*
X447939Y506938D01*
X448054Y506967D01*
X448169Y506992D01*
X448286Y507013D01*
X448403Y507030D01*
X448520Y507044D01*
X448638Y507053D01*
X448756Y507059D01*
X448874Y507061D01*
X445262Y503449D02*
X445264Y503266D01*
X445271Y503084D01*
X445282Y502902D01*
X445297Y502720D01*
X445317Y502538D01*
X445340Y502357D01*
X445369Y502177D01*
X445401Y501997D01*
X445438Y501818D01*
X445479Y501641D01*
X445525Y501464D01*
X445574Y501288D01*
X445628Y501114D01*
X445686Y500940D01*
X445748Y500769D01*
X445814Y500599D01*
X445885Y500430D01*
X445959Y500263D01*
X446037Y500098D01*
X446119Y499935D01*
X446205Y499774D01*
X446295Y499615D01*
X446389Y499458D01*
X446486Y499304D01*
X446587Y499152D01*
X446692Y499002D01*
X446800Y498855D01*
X446911Y498711D01*
X447026Y498569D01*
X447145Y498430D01*
X447267Y498294D01*
X447392Y498161D01*
X447520Y498031D01*
X457906Y498483D02*
X458024Y498485D01*
X458142Y498491D01*
X458260Y498500D01*
X458377Y498514D01*
X458494Y498531D01*
X458611Y498552D01*
X458726Y498577D01*
X458841Y498606D01*
X458955Y498639D01*
X459067Y498675D01*
X459178Y498715D01*
X459288Y498758D01*
X459397Y498805D01*
X459504Y498855D01*
X459609Y498910D01*
X459712Y498967D01*
X459813Y499028D01*
X459913Y499092D01*
X460010Y499159D01*
X460105Y499229D01*
X460197Y499303D01*
X460288Y499379D01*
X460375Y499459D01*
X460460Y499541D01*
X460542Y499626D01*
X460622Y499713D01*
X460698Y499804D01*
X460772Y499896D01*
X460842Y499991D01*
X460909Y500088D01*
X460973Y500188D01*
X461034Y500289D01*
X461092Y500392D01*
X461146Y500497D01*
X461196Y500604D01*
X461243Y500713D01*
X461287Y500823D01*
X461326Y500934D01*
X461362Y501047D01*
X461395Y501160D01*
X461424Y501275D01*
X461449Y501390D01*
X461470Y501507D01*
X461487Y501624D01*
X461501Y501741D01*
X461510Y501859D01*
X461516Y501977D01*
X461518Y502095D01*
X461518Y502094D02*
X461516Y502255D01*
X461510Y502417D01*
X461501Y502578D01*
X461487Y502739D01*
X461470Y502899D01*
X461449Y503059D01*
X461424Y503219D01*
X461395Y503378D01*
X461363Y503536D01*
X461327Y503693D01*
X461287Y503849D01*
X461243Y504005D01*
X461195Y504159D01*
X461144Y504312D01*
X461090Y504464D01*
X461031Y504615D01*
X460970Y504764D01*
X460904Y504911D01*
X460835Y505057D01*
X460763Y505202D01*
X460687Y505344D01*
X460608Y505485D01*
X460526Y505624D01*
X460440Y505760D01*
X460351Y505895D01*
X460259Y506028D01*
X460163Y506158D01*
X454745Y500288D02*
X454807Y500187D01*
X454872Y500087D01*
X454941Y499990D01*
X455013Y499895D01*
X455087Y499802D01*
X455165Y499712D01*
X455246Y499624D01*
X455329Y499539D01*
X455415Y499457D01*
X455504Y499378D01*
X455595Y499301D01*
X455689Y499228D01*
X455785Y499157D01*
X455883Y499090D01*
X455983Y499026D01*
X456086Y498965D01*
X456190Y498908D01*
X456296Y498854D01*
X456404Y498804D01*
X456513Y498757D01*
X456624Y498713D01*
X456736Y498673D01*
X456850Y498637D01*
X456964Y498605D01*
X457080Y498576D01*
X457196Y498551D01*
X457313Y498530D01*
X457431Y498513D01*
X457549Y498499D01*
X457668Y498490D01*
X457787Y498484D01*
X457906Y498482D01*
X452035Y505256D02*
X451973Y505357D01*
X451908Y505457D01*
X451839Y505554D01*
X451767Y505649D01*
X451693Y505742D01*
X451615Y505832D01*
X451534Y505920D01*
X451451Y506005D01*
X451365Y506087D01*
X451276Y506166D01*
X451185Y506243D01*
X451091Y506316D01*
X450995Y506387D01*
X450897Y506454D01*
X450797Y506518D01*
X450694Y506579D01*
X450590Y506636D01*
X450484Y506690D01*
X450376Y506740D01*
X450267Y506787D01*
X450156Y506831D01*
X450044Y506871D01*
X449930Y506907D01*
X449816Y506939D01*
X449700Y506968D01*
X449584Y506993D01*
X449467Y507014D01*
X449349Y507031D01*
X449231Y507045D01*
X449112Y507054D01*
X448993Y507060D01*
X448874Y507062D01*
X452035Y505255D02*
X454745Y500288D01*
X446165Y512515D02*
X445262Y512515D01*
X446165Y512515D02*
X446165Y513418D01*
X445262Y513418D01*
X445262Y512515D01*
X445262Y518490D02*
X461518Y523909D01*
X445262Y529327D01*
X449326Y527973D02*
X449326Y519845D01*
X446165Y534399D02*
X445262Y534399D01*
X446165Y534399D02*
X446165Y535302D01*
X445262Y535302D01*
X445262Y534399D01*
X445262Y556626D02*
X461518Y556626D01*
X445262Y556626D02*
X445262Y552111D01*
X445264Y552010D01*
X445270Y551909D01*
X445279Y551808D01*
X445292Y551707D01*
X445309Y551607D01*
X445330Y551508D01*
X445354Y551410D01*
X445382Y551313D01*
X445414Y551216D01*
X445449Y551121D01*
X445488Y551028D01*
X445530Y550936D01*
X445576Y550845D01*
X445625Y550757D01*
X445677Y550670D01*
X445733Y550585D01*
X445791Y550502D01*
X445853Y550422D01*
X445918Y550344D01*
X445985Y550268D01*
X446055Y550195D01*
X446128Y550125D01*
X446204Y550058D01*
X446282Y549993D01*
X446362Y549931D01*
X446445Y549873D01*
X446530Y549817D01*
X446617Y549765D01*
X446705Y549716D01*
X446796Y549670D01*
X446888Y549628D01*
X446981Y549589D01*
X447076Y549554D01*
X447173Y549522D01*
X447270Y549494D01*
X447368Y549470D01*
X447467Y549449D01*
X447567Y549432D01*
X447668Y549419D01*
X447769Y549410D01*
X447870Y549404D01*
X447971Y549402D01*
X447971Y549401D02*
X453390Y549401D01*
X453390Y549402D02*
X453491Y549404D01*
X453592Y549410D01*
X453693Y549419D01*
X453794Y549432D01*
X453894Y549449D01*
X453993Y549470D01*
X454091Y549494D01*
X454188Y549522D01*
X454285Y549554D01*
X454380Y549589D01*
X454473Y549628D01*
X454565Y549670D01*
X454656Y549716D01*
X454745Y549765D01*
X454831Y549817D01*
X454916Y549873D01*
X454999Y549931D01*
X455079Y549993D01*
X455157Y550058D01*
X455233Y550125D01*
X455306Y550195D01*
X455376Y550268D01*
X455443Y550344D01*
X455508Y550422D01*
X455570Y550502D01*
X455628Y550585D01*
X455684Y550670D01*
X455736Y550757D01*
X455785Y550845D01*
X455831Y550936D01*
X455873Y551028D01*
X455912Y551121D01*
X455947Y551216D01*
X455979Y551313D01*
X456007Y551410D01*
X456031Y551508D01*
X456052Y551607D01*
X456069Y551707D01*
X456082Y551808D01*
X456091Y551909D01*
X456097Y552010D01*
X456099Y552111D01*
X456099Y556626D01*
X445262Y566252D02*
X445262Y570768D01*
X445262Y566252D02*
X445264Y566151D01*
X445270Y566050D01*
X445279Y565949D01*
X445292Y565848D01*
X445309Y565748D01*
X445330Y565649D01*
X445354Y565551D01*
X445382Y565454D01*
X445414Y565357D01*
X445449Y565262D01*
X445488Y565169D01*
X445530Y565077D01*
X445576Y564986D01*
X445625Y564898D01*
X445677Y564811D01*
X445733Y564726D01*
X445791Y564643D01*
X445853Y564563D01*
X445918Y564485D01*
X445985Y564409D01*
X446055Y564336D01*
X446128Y564266D01*
X446204Y564199D01*
X446282Y564134D01*
X446362Y564072D01*
X446445Y564014D01*
X446530Y563958D01*
X446617Y563906D01*
X446705Y563857D01*
X446796Y563811D01*
X446888Y563769D01*
X446981Y563730D01*
X447076Y563695D01*
X447173Y563663D01*
X447270Y563635D01*
X447368Y563611D01*
X447467Y563590D01*
X447567Y563573D01*
X447668Y563560D01*
X447769Y563551D01*
X447870Y563545D01*
X447971Y563543D01*
X452487Y563543D01*
X452606Y563545D01*
X452726Y563551D01*
X452845Y563561D01*
X452963Y563575D01*
X453082Y563592D01*
X453199Y563614D01*
X453316Y563639D01*
X453431Y563669D01*
X453546Y563702D01*
X453660Y563739D01*
X453772Y563779D01*
X453883Y563824D01*
X453992Y563872D01*
X454100Y563923D01*
X454206Y563978D01*
X454310Y564037D01*
X454412Y564099D01*
X454512Y564164D01*
X454610Y564233D01*
X454706Y564305D01*
X454799Y564380D01*
X454889Y564457D01*
X454977Y564538D01*
X455062Y564622D01*
X455144Y564709D01*
X455224Y564798D01*
X455300Y564890D01*
X455374Y564984D01*
X455444Y565081D01*
X455511Y565179D01*
X455575Y565280D01*
X455635Y565384D01*
X455692Y565489D01*
X455745Y565596D01*
X455795Y565704D01*
X455841Y565814D01*
X455883Y565926D01*
X455922Y566039D01*
X455957Y566153D01*
X455988Y566268D01*
X456016Y566385D01*
X456039Y566502D01*
X456059Y566619D01*
X456075Y566738D01*
X456087Y566857D01*
X456095Y566976D01*
X456099Y567095D01*
X456099Y567215D01*
X456095Y567334D01*
X456087Y567453D01*
X456075Y567572D01*
X456059Y567691D01*
X456039Y567808D01*
X456016Y567925D01*
X455988Y568042D01*
X455957Y568157D01*
X455922Y568271D01*
X455883Y568384D01*
X455841Y568496D01*
X455795Y568606D01*
X455745Y568714D01*
X455692Y568821D01*
X455635Y568926D01*
X455575Y569030D01*
X455511Y569131D01*
X455444Y569229D01*
X455374Y569326D01*
X455300Y569420D01*
X455224Y569512D01*
X455144Y569601D01*
X455062Y569688D01*
X454977Y569772D01*
X454889Y569853D01*
X454799Y569930D01*
X454706Y570005D01*
X454610Y570077D01*
X454512Y570146D01*
X454412Y570211D01*
X454310Y570273D01*
X454206Y570332D01*
X454100Y570387D01*
X453992Y570438D01*
X453883Y570486D01*
X453772Y570531D01*
X453660Y570571D01*
X453546Y570608D01*
X453431Y570641D01*
X453316Y570671D01*
X453199Y570696D01*
X453082Y570718D01*
X452963Y570735D01*
X452845Y570749D01*
X452726Y570759D01*
X452606Y570765D01*
X452487Y570767D01*
X452487Y570768D02*
X450681Y570768D01*
X450681Y563543D01*
X445262Y589138D02*
X445262Y592751D01*
X445262Y589138D02*
X445264Y589020D01*
X445270Y588902D01*
X445279Y588784D01*
X445293Y588667D01*
X445310Y588550D01*
X445331Y588433D01*
X445356Y588318D01*
X445385Y588203D01*
X445418Y588089D01*
X445454Y587977D01*
X445494Y587866D01*
X445537Y587756D01*
X445584Y587647D01*
X445634Y587540D01*
X445689Y587435D01*
X445746Y587332D01*
X445807Y587231D01*
X445871Y587131D01*
X445938Y587034D01*
X446008Y586939D01*
X446082Y586847D01*
X446158Y586756D01*
X446238Y586669D01*
X446320Y586584D01*
X446405Y586502D01*
X446492Y586422D01*
X446583Y586346D01*
X446675Y586272D01*
X446770Y586202D01*
X446867Y586135D01*
X446967Y586071D01*
X447068Y586010D01*
X447171Y585953D01*
X447276Y585898D01*
X447383Y585848D01*
X447492Y585801D01*
X447602Y585758D01*
X447713Y585718D01*
X447825Y585682D01*
X447939Y585649D01*
X448054Y585620D01*
X448169Y585595D01*
X448286Y585574D01*
X448403Y585557D01*
X448520Y585543D01*
X448638Y585534D01*
X448756Y585528D01*
X448874Y585526D01*
X457906Y585526D01*
X458024Y585528D01*
X458142Y585534D01*
X458260Y585543D01*
X458377Y585557D01*
X458494Y585574D01*
X458611Y585595D01*
X458726Y585620D01*
X458841Y585649D01*
X458955Y585682D01*
X459067Y585718D01*
X459178Y585758D01*
X459288Y585801D01*
X459397Y585848D01*
X459504Y585898D01*
X459609Y585952D01*
X459712Y586010D01*
X459813Y586071D01*
X459913Y586135D01*
X460010Y586202D01*
X460105Y586272D01*
X460197Y586346D01*
X460288Y586422D01*
X460375Y586502D01*
X460460Y586584D01*
X460542Y586669D01*
X460622Y586756D01*
X460698Y586847D01*
X460772Y586939D01*
X460842Y587034D01*
X460909Y587131D01*
X460973Y587231D01*
X461034Y587332D01*
X461091Y587435D01*
X461145Y587540D01*
X461196Y587647D01*
X461243Y587756D01*
X461286Y587866D01*
X461326Y587977D01*
X461362Y588089D01*
X461395Y588203D01*
X461424Y588318D01*
X461449Y588433D01*
X461470Y588550D01*
X461487Y588667D01*
X461501Y588784D01*
X461510Y588902D01*
X461516Y589020D01*
X461518Y589138D01*
X461518Y592751D01*
X446165Y597966D02*
X445262Y597966D01*
X446165Y597966D02*
X446165Y598869D01*
X445262Y598869D01*
X445262Y597966D01*
X445262Y609359D02*
X461518Y603941D01*
X461518Y614778D02*
X445262Y609359D01*
X445262Y619850D02*
X446165Y619850D01*
X446165Y620753D01*
X445262Y620753D01*
X445262Y619850D01*
M02*
