G04 EAGLE Gerber X2 export*
%TF.Part,Single*%
%TF.FileFunction,Copper,L2,Bot,Mixed*%
%TF.FilePolarity,Positive*%
%TF.GenerationSoftware,Autodesk,EAGLE,8.6.3*%
%TF.CreationDate,2019-07-23T17:02:53Z*%
G75*
%MOMM*%
%FSLAX34Y34*%
%LPD*%
%AMOC8*
5,1,8,0,0,1.08239X$1,22.5*%
G01*
%ADD10P,1.429621X8X292.500000*%
%ADD11C,1.422400*%
%ADD12C,1.524000*%
%ADD13C,0.609600*%
%ADD14C,1.056400*%
%ADD15C,0.200000*%
%ADD16C,0.254000*%


D10*
X185140Y194700D03*
X185140Y169300D03*
X62760Y194700D03*
X62760Y169300D03*
D11*
X225000Y283140D03*
X225000Y306140D03*
X156000Y283140D03*
X156000Y306140D03*
X100540Y283140D03*
X100540Y306140D03*
X31540Y283140D03*
X31540Y306140D03*
D12*
X139700Y83820D02*
X139700Y68580D01*
X114300Y68580D02*
X114300Y83820D01*
X88900Y83820D02*
X88900Y68580D01*
X165100Y68580D02*
X165100Y83820D01*
D13*
X88900Y76200D02*
X14000Y153100D01*
D14*
X30540Y254540D03*
D13*
X56600Y283140D01*
X100540Y283140D01*
X114000Y268000D02*
X140000Y242000D01*
D14*
X140000Y242000D03*
D13*
X46400Y303600D02*
X31540Y306140D01*
X56600Y289400D02*
X56600Y283140D01*
X56600Y289400D02*
X46400Y303600D01*
X114000Y280000D02*
X114000Y268000D01*
X114000Y280000D02*
X114000Y294000D01*
X124000Y304000D01*
X155600Y304000D01*
D15*
X156000Y306140D01*
D13*
X166400Y303600D01*
X185347Y283982D01*
X30540Y254540D02*
X14000Y238000D01*
X14000Y153100D01*
X100540Y283140D02*
X113400Y283140D01*
D16*
X114000Y280000D01*
D13*
X186189Y283140D02*
X225000Y283140D01*
D16*
X186189Y283140D02*
X185347Y283982D01*
M02*
