G04 EAGLE Gerber X2 export*
%TF.Part,Single*%
%TF.FileFunction,Profile,NP*%
%TF.FilePolarity,Positive*%
%TF.GenerationSoftware,Autodesk,EAGLE,8.6.3*%
%TF.CreationDate,2019-07-23T17:02:53Z*%
G75*
%MOMM*%
%FSLAX34Y34*%
%LPD*%
%AMOC8*
5,1,8,0,0,1.08239X$1,22.5*%
G01*
%ADD10C,0.254000*%


D10*
X0Y0D02*
X255000Y0D01*
X255000Y382000D01*
X0Y382000D01*
X0Y0D01*
X145000Y181396D02*
X144927Y180189D01*
X144781Y178989D01*
X144563Y177800D01*
X144274Y176627D01*
X143915Y175473D01*
X143486Y174343D01*
X142990Y173241D01*
X142428Y172170D01*
X141803Y171136D01*
X141116Y170141D01*
X140371Y169190D01*
X139569Y168285D01*
X138715Y167431D01*
X137810Y166629D01*
X136859Y165884D01*
X135864Y165197D01*
X134830Y164572D01*
X133759Y164010D01*
X132657Y163514D01*
X131527Y163085D01*
X130373Y162726D01*
X129200Y162437D01*
X128011Y162219D01*
X126811Y162073D01*
X125604Y162000D01*
X124396Y162000D01*
X123189Y162073D01*
X121989Y162219D01*
X120800Y162437D01*
X119627Y162726D01*
X118473Y163085D01*
X117343Y163514D01*
X116241Y164010D01*
X115170Y164572D01*
X114136Y165197D01*
X113141Y165884D01*
X112190Y166629D01*
X111285Y167431D01*
X110431Y168285D01*
X109629Y169190D01*
X108884Y170141D01*
X108197Y171136D01*
X107572Y172170D01*
X107010Y173241D01*
X106514Y174343D01*
X106085Y175473D01*
X105726Y176627D01*
X105437Y177800D01*
X105219Y178989D01*
X105073Y180189D01*
X105000Y181396D01*
X105000Y182604D01*
X105073Y183811D01*
X105219Y185011D01*
X105437Y186200D01*
X105726Y187373D01*
X106085Y188527D01*
X106514Y189657D01*
X107010Y190759D01*
X107572Y191830D01*
X108197Y192864D01*
X108884Y193859D01*
X109629Y194810D01*
X110431Y195715D01*
X111285Y196569D01*
X112190Y197371D01*
X113141Y198116D01*
X114136Y198803D01*
X115170Y199428D01*
X116241Y199990D01*
X117343Y200486D01*
X118473Y200915D01*
X119627Y201274D01*
X120800Y201563D01*
X121989Y201781D01*
X123189Y201927D01*
X124396Y202000D01*
X125604Y202000D01*
X126811Y201927D01*
X128011Y201781D01*
X129200Y201563D01*
X130373Y201274D01*
X131527Y200915D01*
X132657Y200486D01*
X133759Y199990D01*
X134830Y199428D01*
X135864Y198803D01*
X136859Y198116D01*
X137810Y197371D01*
X138715Y196569D01*
X139569Y195715D01*
X140371Y194810D01*
X141116Y193859D01*
X141803Y192864D01*
X142428Y191830D01*
X142990Y190759D01*
X143486Y189657D01*
X143915Y188527D01*
X144274Y187373D01*
X144563Y186200D01*
X144781Y185011D01*
X144927Y183811D01*
X145000Y182604D01*
X145000Y181396D01*
X145000Y181396D02*
X144927Y180189D01*
X144781Y178989D01*
X144563Y177800D01*
X144274Y176627D01*
X143915Y175473D01*
X143486Y174343D01*
X142990Y173241D01*
X142428Y172170D01*
X141803Y171136D01*
X141116Y170141D01*
X140371Y169190D01*
X139569Y168285D01*
X138715Y167431D01*
X137810Y166629D01*
X136859Y165884D01*
X135864Y165197D01*
X134830Y164572D01*
X133759Y164010D01*
X132657Y163514D01*
X131527Y163085D01*
X130373Y162726D01*
X129200Y162437D01*
X128011Y162219D01*
X126811Y162073D01*
X125604Y162000D01*
X124396Y162000D01*
X123189Y162073D01*
X121989Y162219D01*
X120800Y162437D01*
X119627Y162726D01*
X118473Y163085D01*
X117343Y163514D01*
X116241Y164010D01*
X115170Y164572D01*
X114136Y165197D01*
X113141Y165884D01*
X112190Y166629D01*
X111285Y167431D01*
X110431Y168285D01*
X109629Y169190D01*
X108884Y170141D01*
X108197Y171136D01*
X107572Y172170D01*
X107010Y173241D01*
X106514Y174343D01*
X106085Y175473D01*
X105726Y176627D01*
X105437Y177800D01*
X105219Y178989D01*
X105073Y180189D01*
X105000Y181396D01*
X105000Y182604D01*
X105073Y183811D01*
X105219Y185011D01*
X105437Y186200D01*
X105726Y187373D01*
X106085Y188527D01*
X106514Y189657D01*
X107010Y190759D01*
X107572Y191830D01*
X108197Y192864D01*
X108884Y193859D01*
X109629Y194810D01*
X110431Y195715D01*
X111285Y196569D01*
X112190Y197371D01*
X113141Y198116D01*
X114136Y198803D01*
X115170Y199428D01*
X116241Y199990D01*
X117343Y200486D01*
X118473Y200915D01*
X119627Y201274D01*
X120800Y201563D01*
X121989Y201781D01*
X123189Y201927D01*
X124396Y202000D01*
X125604Y202000D01*
X126811Y201927D01*
X128011Y201781D01*
X129200Y201563D01*
X130373Y201274D01*
X131527Y200915D01*
X132657Y200486D01*
X133759Y199990D01*
X134830Y199428D01*
X135864Y198803D01*
X136859Y198116D01*
X137810Y197371D01*
X138715Y196569D01*
X139569Y195715D01*
X140371Y194810D01*
X141116Y193859D01*
X141803Y192864D01*
X142428Y191830D01*
X142990Y190759D01*
X143486Y189657D01*
X143915Y188527D01*
X144274Y187373D01*
X144563Y186200D01*
X144781Y185011D01*
X144927Y183811D01*
X145000Y182604D01*
X145000Y181396D01*
M02*
