G04 EAGLE Gerber X2 export*
%TF.Part,Single*%
%TF.FileFunction,Soldermask,Top,1*%
%TF.FilePolarity,Negative*%
%TF.GenerationSoftware,Autodesk,EAGLE,8.6.3*%
%TF.CreationDate,2019-07-23T17:02:53Z*%
G75*
%MOMM*%
%FSLAX34Y34*%
%LPD*%
%AMOC8*
5,1,8,0,0,1.08239X$1,22.5*%
G01*
%ADD10C,4.203200*%
%ADD11P,1.649562X8X292.500000*%
%ADD12R,1.503200X1.703200*%
%ADD13R,0.990600X1.092200*%
%ADD14C,1.625600*%
%ADD15C,1.727200*%
%ADD16C,1.259600*%


D10*
X125000Y182000D03*
D11*
X185140Y194700D03*
X185140Y169300D03*
X62760Y194700D03*
X62760Y169300D03*
D12*
X177000Y347600D03*
X196000Y347600D03*
X177000Y318200D03*
X196000Y318200D03*
X177000Y286800D03*
X196000Y286800D03*
X177000Y224600D03*
X196000Y224600D03*
X54000Y347600D03*
X73000Y347600D03*
X54000Y318200D03*
X73000Y318200D03*
X54000Y286800D03*
X73000Y286800D03*
X54000Y222600D03*
X73000Y222600D03*
D13*
X196406Y264860D03*
X177102Y264860D03*
X186754Y244540D03*
X73406Y262860D03*
X54102Y262860D03*
X63754Y242540D03*
D14*
X225000Y283140D03*
X225000Y306140D03*
X156000Y283140D03*
X156000Y306140D03*
X100540Y283140D03*
X100540Y306140D03*
X31540Y283140D03*
X31540Y306140D03*
D15*
X139700Y83820D02*
X139700Y68580D01*
X114300Y68580D02*
X114300Y83820D01*
X88900Y83820D02*
X88900Y68580D01*
X165100Y68580D02*
X165100Y83820D01*
D16*
X30540Y254540D03*
X140000Y242000D03*
M02*
